%FSLAX45Y45*%
G04 Gerber Fmt 4.5, Leading zero omitted, Abs format (unit mm)*
G04 Created by KiCad (PCBNEW (6.0.1)) date 2022-01-28 19:13:05*
%MOMM*%
%LPD*%
G01*
G04 APERTURE LIST*
%TA.AperFunction,Profile*%
%ADD10C,0.100000*%
%TD*%
%ADD11C,0.200000*%
%ADD12C,0.400000*%
G04 APERTURE END LIST*
D10*
X8128000Y-4826000D02*
X12446000Y-4826000D01*
X12446000Y-4826000D02*
X12446000Y-8382000D01*
X12446000Y-8382000D02*
X8128000Y-8382000D01*
X8128000Y-8382000D02*
X8128000Y-4826000D01*
D11*
D12*
X9706000Y-5642000D02*
X10106000Y-6042000D01*
X10106000Y-5642000D02*
X9706000Y-6042000D01*
X9706000Y-7166000D02*
X10106000Y-7566000D01*
X10106000Y-7166000D02*
X9706000Y-7566000D01*
X11230000Y-5642000D02*
X11630000Y-6042000D01*
X11630000Y-5642000D02*
X11230000Y-6042000D01*
X11230000Y-7166000D02*
X11630000Y-7566000D01*
X11630000Y-7166000D02*
X11230000Y-7566000D01*
D11*
X8380619Y-8697476D02*
X8380619Y-8497476D01*
X8428238Y-8497476D01*
X8456810Y-8507000D01*
X8475857Y-8526048D01*
X8485381Y-8545095D01*
X8494905Y-8583190D01*
X8494905Y-8611762D01*
X8485381Y-8649857D01*
X8475857Y-8668905D01*
X8456810Y-8687952D01*
X8428238Y-8697476D01*
X8380619Y-8697476D01*
X8580619Y-8697476D02*
X8580619Y-8564143D01*
X8580619Y-8602238D02*
X8590143Y-8583190D01*
X8599667Y-8573667D01*
X8618714Y-8564143D01*
X8637762Y-8564143D01*
X8704429Y-8697476D02*
X8704429Y-8564143D01*
X8704429Y-8497476D02*
X8694905Y-8507000D01*
X8704429Y-8516524D01*
X8713952Y-8507000D01*
X8704429Y-8497476D01*
X8704429Y-8516524D01*
X8828238Y-8697476D02*
X8809190Y-8687952D01*
X8799667Y-8668905D01*
X8799667Y-8497476D01*
X8933000Y-8697476D02*
X8913952Y-8687952D01*
X8904429Y-8668905D01*
X8904429Y-8497476D01*
X9161571Y-8697476D02*
X9161571Y-8497476D01*
X9228238Y-8640333D01*
X9294905Y-8497476D01*
X9294905Y-8697476D01*
X9475857Y-8697476D02*
X9475857Y-8592714D01*
X9466333Y-8573667D01*
X9447286Y-8564143D01*
X9409190Y-8564143D01*
X9390143Y-8573667D01*
X9475857Y-8687952D02*
X9456810Y-8697476D01*
X9409190Y-8697476D01*
X9390143Y-8687952D01*
X9380619Y-8668905D01*
X9380619Y-8649857D01*
X9390143Y-8630810D01*
X9409190Y-8621286D01*
X9456810Y-8621286D01*
X9475857Y-8611762D01*
X9571095Y-8564143D02*
X9571095Y-8764143D01*
X9571095Y-8573667D02*
X9590143Y-8564143D01*
X9628238Y-8564143D01*
X9647286Y-8573667D01*
X9656810Y-8583190D01*
X9666333Y-8602238D01*
X9666333Y-8659381D01*
X9656810Y-8678429D01*
X9647286Y-8687952D01*
X9628238Y-8697476D01*
X9590143Y-8697476D01*
X9571095Y-8687952D01*
X9752048Y-8678429D02*
X9761571Y-8687952D01*
X9752048Y-8697476D01*
X9742524Y-8687952D01*
X9752048Y-8678429D01*
X9752048Y-8697476D01*
X9752048Y-8573667D02*
X9761571Y-8583190D01*
X9752048Y-8592714D01*
X9742524Y-8583190D01*
X9752048Y-8573667D01*
X9752048Y-8592714D01*
X7923000Y-8927000D02*
X8123000Y-9127000D01*
X8123000Y-8927000D02*
X7923000Y-9127000D01*
X8466333Y-8984143D02*
X8466333Y-9117476D01*
X8418714Y-8907952D02*
X8371095Y-9050810D01*
X8494905Y-9050810D01*
X8571095Y-9098429D02*
X8580619Y-9107952D01*
X8571095Y-9117476D01*
X8561571Y-9107952D01*
X8571095Y-9098429D01*
X8571095Y-9117476D01*
X8704429Y-8917476D02*
X8723476Y-8917476D01*
X8742524Y-8927000D01*
X8752048Y-8936524D01*
X8761571Y-8955571D01*
X8771095Y-8993667D01*
X8771095Y-9041286D01*
X8761571Y-9079381D01*
X8752048Y-9098429D01*
X8742524Y-9107952D01*
X8723476Y-9117476D01*
X8704429Y-9117476D01*
X8685381Y-9107952D01*
X8675857Y-9098429D01*
X8666333Y-9079381D01*
X8656810Y-9041286D01*
X8656810Y-8993667D01*
X8666333Y-8955571D01*
X8675857Y-8936524D01*
X8685381Y-8927000D01*
X8704429Y-8917476D01*
X8894905Y-8917476D02*
X8913952Y-8917476D01*
X8933000Y-8927000D01*
X8942524Y-8936524D01*
X8952048Y-8955571D01*
X8961571Y-8993667D01*
X8961571Y-9041286D01*
X8952048Y-9079381D01*
X8942524Y-9098429D01*
X8933000Y-9107952D01*
X8913952Y-9117476D01*
X8894905Y-9117476D01*
X8875857Y-9107952D01*
X8866333Y-9098429D01*
X8856810Y-9079381D01*
X8847286Y-9041286D01*
X8847286Y-8993667D01*
X8856810Y-8955571D01*
X8866333Y-8936524D01*
X8875857Y-8927000D01*
X8894905Y-8917476D01*
X9085381Y-8917476D02*
X9104429Y-8917476D01*
X9123476Y-8927000D01*
X9133000Y-8936524D01*
X9142524Y-8955571D01*
X9152048Y-8993667D01*
X9152048Y-9041286D01*
X9142524Y-9079381D01*
X9133000Y-9098429D01*
X9123476Y-9107952D01*
X9104429Y-9117476D01*
X9085381Y-9117476D01*
X9066333Y-9107952D01*
X9056810Y-9098429D01*
X9047286Y-9079381D01*
X9037762Y-9041286D01*
X9037762Y-8993667D01*
X9047286Y-8955571D01*
X9056810Y-8936524D01*
X9066333Y-8927000D01*
X9085381Y-8917476D01*
X9237762Y-9117476D02*
X9237762Y-8984143D01*
X9237762Y-9003190D02*
X9247286Y-8993667D01*
X9266333Y-8984143D01*
X9294905Y-8984143D01*
X9313952Y-8993667D01*
X9323476Y-9012714D01*
X9323476Y-9117476D01*
X9323476Y-9012714D02*
X9333000Y-8993667D01*
X9352048Y-8984143D01*
X9380619Y-8984143D01*
X9399667Y-8993667D01*
X9409190Y-9012714D01*
X9409190Y-9117476D01*
X9504429Y-9117476D02*
X9504429Y-8984143D01*
X9504429Y-9003190D02*
X9513952Y-8993667D01*
X9533000Y-8984143D01*
X9561571Y-8984143D01*
X9580619Y-8993667D01*
X9590143Y-9012714D01*
X9590143Y-9117476D01*
X9590143Y-9012714D02*
X9599667Y-8993667D01*
X9618714Y-8984143D01*
X9647286Y-8984143D01*
X9666333Y-8993667D01*
X9675857Y-9012714D01*
X9675857Y-9117476D01*
X10066333Y-8907952D02*
X9894905Y-9165095D01*
X10323476Y-8917476D02*
X10342524Y-8917476D01*
X10361571Y-8927000D01*
X10371095Y-8936524D01*
X10380619Y-8955571D01*
X10390143Y-8993667D01*
X10390143Y-9041286D01*
X10380619Y-9079381D01*
X10371095Y-9098429D01*
X10361571Y-9107952D01*
X10342524Y-9117476D01*
X10323476Y-9117476D01*
X10304429Y-9107952D01*
X10294905Y-9098429D01*
X10285381Y-9079381D01*
X10275857Y-9041286D01*
X10275857Y-8993667D01*
X10285381Y-8955571D01*
X10294905Y-8936524D01*
X10304429Y-8927000D01*
X10323476Y-8917476D01*
X10475857Y-9098429D02*
X10485381Y-9107952D01*
X10475857Y-9117476D01*
X10466333Y-9107952D01*
X10475857Y-9098429D01*
X10475857Y-9117476D01*
X10675857Y-9117476D02*
X10561571Y-9117476D01*
X10618714Y-9117476D02*
X10618714Y-8917476D01*
X10599667Y-8946048D01*
X10580619Y-8965095D01*
X10561571Y-8974619D01*
X10856810Y-8917476D02*
X10761571Y-8917476D01*
X10752048Y-9012714D01*
X10761571Y-9003190D01*
X10780619Y-8993667D01*
X10828238Y-8993667D01*
X10847286Y-9003190D01*
X10856810Y-9012714D01*
X10866333Y-9031762D01*
X10866333Y-9079381D01*
X10856810Y-9098429D01*
X10847286Y-9107952D01*
X10828238Y-9117476D01*
X10780619Y-9117476D01*
X10761571Y-9107952D01*
X10752048Y-9098429D01*
X10933000Y-8917476D02*
X11066333Y-8917476D01*
X10980619Y-9117476D01*
X11237762Y-8917476D02*
X11142524Y-8917476D01*
X11133000Y-9012714D01*
X11142524Y-9003190D01*
X11161571Y-8993667D01*
X11209190Y-8993667D01*
X11228238Y-9003190D01*
X11237762Y-9012714D01*
X11247286Y-9031762D01*
X11247286Y-9079381D01*
X11237762Y-9098429D01*
X11228238Y-9107952D01*
X11209190Y-9117476D01*
X11161571Y-9117476D01*
X11142524Y-9107952D01*
X11133000Y-9098429D01*
X11323476Y-8917476D02*
X11323476Y-8955571D01*
X11399667Y-8917476D02*
X11399667Y-8955571D01*
X11694905Y-9193667D02*
X11685381Y-9184143D01*
X11666333Y-9155571D01*
X11656809Y-9136524D01*
X11647286Y-9107952D01*
X11637762Y-9060333D01*
X11637762Y-9022238D01*
X11647286Y-8974619D01*
X11656809Y-8946048D01*
X11666333Y-8927000D01*
X11685381Y-8898429D01*
X11694905Y-8888905D01*
X11856809Y-8984143D02*
X11856809Y-9117476D01*
X11809190Y-8907952D02*
X11761571Y-9050810D01*
X11885381Y-9050810D01*
X12113952Y-9117476D02*
X12113952Y-8917476D01*
X12199667Y-9117476D02*
X12199667Y-9012714D01*
X12190143Y-8993667D01*
X12171095Y-8984143D01*
X12142524Y-8984143D01*
X12123476Y-8993667D01*
X12113952Y-9003190D01*
X12323476Y-9117476D02*
X12304428Y-9107952D01*
X12294905Y-9098429D01*
X12285381Y-9079381D01*
X12285381Y-9022238D01*
X12294905Y-9003190D01*
X12304428Y-8993667D01*
X12323476Y-8984143D01*
X12352048Y-8984143D01*
X12371095Y-8993667D01*
X12380619Y-9003190D01*
X12390143Y-9022238D01*
X12390143Y-9079381D01*
X12380619Y-9098429D01*
X12371095Y-9107952D01*
X12352048Y-9117476D01*
X12323476Y-9117476D01*
X12504428Y-9117476D02*
X12485381Y-9107952D01*
X12475857Y-9088905D01*
X12475857Y-8917476D01*
X12656809Y-9107952D02*
X12637762Y-9117476D01*
X12599667Y-9117476D01*
X12580619Y-9107952D01*
X12571095Y-9088905D01*
X12571095Y-9012714D01*
X12580619Y-8993667D01*
X12599667Y-8984143D01*
X12637762Y-8984143D01*
X12656809Y-8993667D01*
X12666333Y-9012714D01*
X12666333Y-9031762D01*
X12571095Y-9050810D01*
X12742524Y-9107952D02*
X12761571Y-9117476D01*
X12799667Y-9117476D01*
X12818714Y-9107952D01*
X12828238Y-9088905D01*
X12828238Y-9079381D01*
X12818714Y-9060333D01*
X12799667Y-9050810D01*
X12771095Y-9050810D01*
X12752048Y-9041286D01*
X12742524Y-9022238D01*
X12742524Y-9012714D01*
X12752048Y-8993667D01*
X12771095Y-8984143D01*
X12799667Y-8984143D01*
X12818714Y-8993667D01*
X12894905Y-9193667D02*
X12904428Y-9184143D01*
X12923476Y-9155571D01*
X12933000Y-9136524D01*
X12942524Y-9107952D01*
X12952048Y-9060333D01*
X12952048Y-9022238D01*
X12942524Y-8974619D01*
X12933000Y-8946048D01*
X12923476Y-8927000D01*
X12904428Y-8898429D01*
X12894905Y-8888905D01*
X13256809Y-9193667D02*
X13247286Y-9184143D01*
X13228238Y-9155571D01*
X13218714Y-9136524D01*
X13209190Y-9107952D01*
X13199667Y-9060333D01*
X13199667Y-9022238D01*
X13209190Y-8974619D01*
X13218714Y-8946048D01*
X13228238Y-8927000D01*
X13247286Y-8898429D01*
X13256809Y-8888905D01*
X13333000Y-8984143D02*
X13333000Y-9117476D01*
X13333000Y-9003190D02*
X13342524Y-8993667D01*
X13361571Y-8984143D01*
X13390143Y-8984143D01*
X13409190Y-8993667D01*
X13418714Y-9012714D01*
X13418714Y-9117476D01*
X13542524Y-9117476D02*
X13523476Y-9107952D01*
X13513952Y-9098429D01*
X13504428Y-9079381D01*
X13504428Y-9022238D01*
X13513952Y-9003190D01*
X13523476Y-8993667D01*
X13542524Y-8984143D01*
X13571095Y-8984143D01*
X13590143Y-8993667D01*
X13599667Y-9003190D01*
X13609190Y-9022238D01*
X13609190Y-9079381D01*
X13599667Y-9098429D01*
X13590143Y-9107952D01*
X13571095Y-9117476D01*
X13542524Y-9117476D01*
X13666333Y-8984143D02*
X13742524Y-8984143D01*
X13694905Y-8917476D02*
X13694905Y-9088905D01*
X13704428Y-9107952D01*
X13723476Y-9117476D01*
X13742524Y-9117476D01*
X13961571Y-8984143D02*
X13961571Y-9184143D01*
X13961571Y-8993667D02*
X13980619Y-8984143D01*
X14018714Y-8984143D01*
X14037762Y-8993667D01*
X14047286Y-9003190D01*
X14056809Y-9022238D01*
X14056809Y-9079381D01*
X14047286Y-9098429D01*
X14037762Y-9107952D01*
X14018714Y-9117476D01*
X13980619Y-9117476D01*
X13961571Y-9107952D01*
X14171095Y-9117476D02*
X14152048Y-9107952D01*
X14142524Y-9088905D01*
X14142524Y-8917476D01*
X14333000Y-9117476D02*
X14333000Y-9012714D01*
X14323476Y-8993667D01*
X14304428Y-8984143D01*
X14266333Y-8984143D01*
X14247286Y-8993667D01*
X14333000Y-9107952D02*
X14313952Y-9117476D01*
X14266333Y-9117476D01*
X14247286Y-9107952D01*
X14237762Y-9088905D01*
X14237762Y-9069857D01*
X14247286Y-9050810D01*
X14266333Y-9041286D01*
X14313952Y-9041286D01*
X14333000Y-9031762D01*
X14399667Y-8984143D02*
X14475857Y-8984143D01*
X14428238Y-8917476D02*
X14428238Y-9088905D01*
X14437762Y-9107952D01*
X14456809Y-9117476D01*
X14475857Y-9117476D01*
X14618714Y-9107952D02*
X14599667Y-9117476D01*
X14561571Y-9117476D01*
X14542524Y-9107952D01*
X14533000Y-9088905D01*
X14533000Y-9012714D01*
X14542524Y-8993667D01*
X14561571Y-8984143D01*
X14599667Y-8984143D01*
X14618714Y-8993667D01*
X14628238Y-9012714D01*
X14628238Y-9031762D01*
X14533000Y-9050810D01*
X14799667Y-9117476D02*
X14799667Y-8917476D01*
X14799667Y-9107952D02*
X14780619Y-9117476D01*
X14742524Y-9117476D01*
X14723476Y-9107952D01*
X14713952Y-9098429D01*
X14704428Y-9079381D01*
X14704428Y-9022238D01*
X14713952Y-9003190D01*
X14723476Y-8993667D01*
X14742524Y-8984143D01*
X14780619Y-8984143D01*
X14799667Y-8993667D01*
X14875857Y-9193667D02*
X14885381Y-9184143D01*
X14904428Y-9155571D01*
X14913952Y-9136524D01*
X14923476Y-9107952D01*
X14933000Y-9060333D01*
X14933000Y-9022238D01*
X14923476Y-8974619D01*
X14913952Y-8946048D01*
X14904428Y-8927000D01*
X14885381Y-8898429D01*
X14875857Y-8888905D01*
M02*
