%FSLAX45Y45*%
G04 Gerber Fmt 4.5, Leading zero omitted, Abs format (unit mm)*
G04 Created by KiCad (PCBNEW (6.0.1)) date 2022-01-28 19:13:05*
%MOMM*%
%LPD*%
G01*
G04 APERTURE LIST*
%TA.AperFunction,Profile*%
%ADD10C,0.100000*%
%TD*%
%ADD11C,0.200000*%
%ADD12C,0.020000*%
%ADD13C,0.030000*%
%ADD14C,0.040000*%
%ADD15C,0.100000*%
%ADD16C,0.150000*%
G04 APERTURE END LIST*
D10*
X8128000Y-4826000D02*
X12446000Y-4826000D01*
X12446000Y-4826000D02*
X12446000Y-8382000D01*
X12446000Y-8382000D02*
X8128000Y-8382000D01*
X8128000Y-8382000D02*
X8128000Y-4826000D01*
D11*
D12*
X10509508Y-6594000D02*
X10529508Y-6614000D01*
X10529508Y-6594000D02*
X10509508Y-6614000D01*
X10583754Y-6519754D02*
X10603754Y-6539754D01*
X10603754Y-6519754D02*
X10583754Y-6539754D01*
X10583754Y-6668246D02*
X10603754Y-6688246D01*
X10603754Y-6668246D02*
X10583754Y-6688246D01*
X10658000Y-6445508D02*
X10678000Y-6465508D01*
X10678000Y-6445508D02*
X10658000Y-6465508D01*
X10658000Y-6594000D02*
X10678000Y-6614000D01*
X10678000Y-6594000D02*
X10658000Y-6614000D01*
X10658000Y-6742492D02*
X10678000Y-6762492D01*
X10678000Y-6742492D02*
X10658000Y-6762492D01*
X10732246Y-6519754D02*
X10752246Y-6539754D01*
X10752246Y-6519754D02*
X10732246Y-6539754D01*
X10732246Y-6668246D02*
X10752246Y-6688246D01*
X10752246Y-6668246D02*
X10732246Y-6688246D01*
X10806492Y-6594000D02*
X10826492Y-6614000D01*
X10826492Y-6594000D02*
X10806492Y-6614000D01*
D13*
X9885038Y-6228662D02*
G75*
G03*
X9885038Y-6228662I-15000J0D01*
G01*
X9885038Y-7752662D02*
G75*
G03*
X9885038Y-7752662I-15000J0D01*
G01*
X9931000Y-6077700D02*
G75*
G03*
X9931000Y-6077700I-15000J0D01*
G01*
X9931000Y-7601700D02*
G75*
G03*
X9931000Y-7601700I-15000J0D01*
G01*
X9976962Y-6227962D02*
G75*
G03*
X9976962Y-6227962I-15000J0D01*
G01*
X9976962Y-7751962D02*
G75*
G03*
X9976962Y-7751962I-15000J0D01*
G01*
X11409038Y-6228662D02*
G75*
G03*
X11409038Y-6228662I-15000J0D01*
G01*
X11409038Y-7752662D02*
G75*
G03*
X11409038Y-7752662I-15000J0D01*
G01*
X11455000Y-6077700D02*
G75*
G03*
X11455000Y-6077700I-15000J0D01*
G01*
X11455000Y-7601700D02*
G75*
G03*
X11455000Y-7601700I-15000J0D01*
G01*
X11500962Y-6227962D02*
G75*
G03*
X11500962Y-6227962I-15000J0D01*
G01*
X11500962Y-7751962D02*
G75*
G03*
X11500962Y-7751962I-15000J0D01*
G01*
D14*
X9842500Y-6711000D02*
X9842500Y-6751000D01*
X9822500Y-6731000D02*
X9862500Y-6731000D01*
X10668010Y-6973950D02*
X10668010Y-7013950D01*
X10648010Y-6993950D02*
X10688010Y-6993950D01*
X11023600Y-6351650D02*
X11023600Y-6391650D01*
X11003600Y-6371650D02*
X11043600Y-6371650D01*
X11023600Y-6451600D02*
X11023600Y-6491600D01*
X11003600Y-6471600D02*
X11043600Y-6471600D01*
X11023600Y-6584000D02*
X11023600Y-6624000D01*
X11003600Y-6604000D02*
X11043600Y-6604000D01*
X11023600Y-6685600D02*
X11023600Y-6725600D01*
X11003600Y-6705600D02*
X11043600Y-6705600D01*
X11023600Y-6787200D02*
X11023600Y-6827200D01*
X11003600Y-6807200D02*
X11043600Y-6807200D01*
D15*
X8792022Y-5876856D02*
X8792022Y-5806144D01*
X8721311Y-5806144D01*
X8721311Y-5876856D01*
X8792022Y-5876856D01*
X8792022Y-6130856D02*
X8792022Y-6060144D01*
X8721311Y-6060144D01*
X8721311Y-6130856D01*
X8792022Y-6130856D01*
X8792022Y-6384856D02*
X8792022Y-6314144D01*
X8721311Y-6314144D01*
X8721311Y-6384856D01*
X8792022Y-6384856D01*
X8792022Y-6638856D02*
X8792022Y-6568144D01*
X8721311Y-6568144D01*
X8721311Y-6638856D01*
X8792022Y-6638856D01*
X8792022Y-6892856D02*
X8792022Y-6822144D01*
X8721311Y-6822144D01*
X8721311Y-6892856D01*
X8792022Y-6892856D01*
X8792022Y-7146856D02*
X8792022Y-7076144D01*
X8721311Y-7076144D01*
X8721311Y-7146856D01*
X8792022Y-7146856D01*
X8792022Y-7400856D02*
X8792022Y-7330144D01*
X8721311Y-7330144D01*
X8721311Y-7400856D01*
X8792022Y-7400856D01*
D16*
X9525000Y-5663000D02*
X9600000Y-5588000D01*
X9525000Y-5513000D01*
X9450000Y-5588000D01*
X9525000Y-5663000D01*
X9525000Y-7187000D02*
X9600000Y-7112000D01*
X9525000Y-7037000D01*
X9450000Y-7112000D01*
X9525000Y-7187000D01*
X9656000Y-5517000D02*
X9731000Y-5442000D01*
X9656000Y-5367000D01*
X9581000Y-5442000D01*
X9656000Y-5517000D01*
X9656000Y-7041000D02*
X9731000Y-6966000D01*
X9656000Y-6891000D01*
X9581000Y-6966000D01*
X9656000Y-7041000D01*
X10158000Y-5438000D02*
X10233000Y-5363000D01*
X10158000Y-5288000D01*
X10083000Y-5363000D01*
X10158000Y-5438000D01*
D11*
X10220814Y-5396532D02*
X10224869Y-5338537D01*
X10091131Y-5387464D02*
X10095186Y-5329468D01*
X10224869Y-5338537D02*
G75*
G03*
X10095186Y-5329468I-64842J4534D01*
G01*
X10091131Y-5387464D02*
G75*
G03*
X10220814Y-5396532I64842J-4534D01*
G01*
D16*
X10158000Y-6962000D02*
X10233000Y-6887000D01*
X10158000Y-6812000D01*
X10083000Y-6887000D01*
X10158000Y-6962000D01*
D11*
X10220814Y-6920532D02*
X10224869Y-6862536D01*
X10091131Y-6911463D02*
X10095186Y-6853468D01*
X10224869Y-6862536D02*
G75*
G03*
X10095186Y-6853468I-64842J4534D01*
G01*
X10091131Y-6911463D02*
G75*
G03*
X10220814Y-6920532I64842J-4534D01*
G01*
D16*
X11049000Y-5663000D02*
X11124000Y-5588000D01*
X11049000Y-5513000D01*
X10974000Y-5588000D01*
X11049000Y-5663000D01*
X11049000Y-7187000D02*
X11124000Y-7112000D01*
X11049000Y-7037000D01*
X10974000Y-7112000D01*
X11049000Y-7187000D01*
X11180000Y-5517000D02*
X11255000Y-5442000D01*
X11180000Y-5367000D01*
X11105000Y-5442000D01*
X11180000Y-5517000D01*
X11180000Y-7041000D02*
X11255000Y-6966000D01*
X11180000Y-6891000D01*
X11105000Y-6966000D01*
X11180000Y-7041000D01*
X11682000Y-5438000D02*
X11757000Y-5363000D01*
X11682000Y-5288000D01*
X11607000Y-5363000D01*
X11682000Y-5438000D01*
D11*
X11744814Y-5396532D02*
X11748869Y-5338537D01*
X11615131Y-5387464D02*
X11619186Y-5329468D01*
X11748869Y-5338537D02*
G75*
G03*
X11619186Y-5329468I-64842J4534D01*
G01*
X11615131Y-5387464D02*
G75*
G03*
X11744814Y-5396532I64842J-4534D01*
G01*
D16*
X11682000Y-6962000D02*
X11757000Y-6887000D01*
X11682000Y-6812000D01*
X11607000Y-6887000D01*
X11682000Y-6962000D01*
D11*
X11744814Y-6920532D02*
X11748869Y-6862536D01*
X11615131Y-6911463D02*
X11619186Y-6853468D01*
X11748869Y-6862536D02*
G75*
G03*
X11619186Y-6853468I-64842J4534D01*
G01*
X11615131Y-6911463D02*
G75*
G03*
X11744814Y-6920532I64842J-4534D01*
G01*
X8380619Y-8697476D02*
X8380619Y-8497476D01*
X8428238Y-8497476D01*
X8456810Y-8507000D01*
X8475857Y-8526048D01*
X8485381Y-8545095D01*
X8494905Y-8583190D01*
X8494905Y-8611762D01*
X8485381Y-8649857D01*
X8475857Y-8668905D01*
X8456810Y-8687952D01*
X8428238Y-8697476D01*
X8380619Y-8697476D01*
X8580619Y-8697476D02*
X8580619Y-8564143D01*
X8580619Y-8602238D02*
X8590143Y-8583190D01*
X8599667Y-8573667D01*
X8618714Y-8564143D01*
X8637762Y-8564143D01*
X8704429Y-8697476D02*
X8704429Y-8564143D01*
X8704429Y-8497476D02*
X8694905Y-8507000D01*
X8704429Y-8516524D01*
X8713952Y-8507000D01*
X8704429Y-8497476D01*
X8704429Y-8516524D01*
X8828238Y-8697476D02*
X8809190Y-8687952D01*
X8799667Y-8668905D01*
X8799667Y-8497476D01*
X8933000Y-8697476D02*
X8913952Y-8687952D01*
X8904429Y-8668905D01*
X8904429Y-8497476D01*
X9161571Y-8697476D02*
X9161571Y-8497476D01*
X9228238Y-8640333D01*
X9294905Y-8497476D01*
X9294905Y-8697476D01*
X9475857Y-8697476D02*
X9475857Y-8592714D01*
X9466333Y-8573667D01*
X9447286Y-8564143D01*
X9409190Y-8564143D01*
X9390143Y-8573667D01*
X9475857Y-8687952D02*
X9456810Y-8697476D01*
X9409190Y-8697476D01*
X9390143Y-8687952D01*
X9380619Y-8668905D01*
X9380619Y-8649857D01*
X9390143Y-8630810D01*
X9409190Y-8621286D01*
X9456810Y-8621286D01*
X9475857Y-8611762D01*
X9571095Y-8564143D02*
X9571095Y-8764143D01*
X9571095Y-8573667D02*
X9590143Y-8564143D01*
X9628238Y-8564143D01*
X9647286Y-8573667D01*
X9656810Y-8583190D01*
X9666333Y-8602238D01*
X9666333Y-8659381D01*
X9656810Y-8678429D01*
X9647286Y-8687952D01*
X9628238Y-8697476D01*
X9590143Y-8697476D01*
X9571095Y-8687952D01*
X9752048Y-8678429D02*
X9761571Y-8687952D01*
X9752048Y-8697476D01*
X9742524Y-8687952D01*
X9752048Y-8678429D01*
X9752048Y-8697476D01*
X9752048Y-8573667D02*
X9761571Y-8583190D01*
X9752048Y-8592714D01*
X9742524Y-8583190D01*
X9752048Y-8573667D01*
X9752048Y-8592714D01*
D12*
X8103000Y-9017000D02*
X8123000Y-9037000D01*
X8123000Y-9017000D02*
X8103000Y-9037000D01*
D11*
X8418714Y-8917476D02*
X8437762Y-8917476D01*
X8456810Y-8927000D01*
X8466333Y-8936524D01*
X8475857Y-8955571D01*
X8485381Y-8993667D01*
X8485381Y-9041286D01*
X8475857Y-9079381D01*
X8466333Y-9098429D01*
X8456810Y-9107952D01*
X8437762Y-9117476D01*
X8418714Y-9117476D01*
X8399667Y-9107952D01*
X8390143Y-9098429D01*
X8380619Y-9079381D01*
X8371095Y-9041286D01*
X8371095Y-8993667D01*
X8380619Y-8955571D01*
X8390143Y-8936524D01*
X8399667Y-8927000D01*
X8418714Y-8917476D01*
X8571095Y-9098429D02*
X8580619Y-9107952D01*
X8571095Y-9117476D01*
X8561571Y-9107952D01*
X8571095Y-9098429D01*
X8571095Y-9117476D01*
X8656810Y-8936524D02*
X8666333Y-8927000D01*
X8685381Y-8917476D01*
X8733000Y-8917476D01*
X8752048Y-8927000D01*
X8761571Y-8936524D01*
X8771095Y-8955571D01*
X8771095Y-8974619D01*
X8761571Y-9003190D01*
X8647286Y-9117476D01*
X8771095Y-9117476D01*
X8894905Y-8917476D02*
X8913952Y-8917476D01*
X8933000Y-8927000D01*
X8942524Y-8936524D01*
X8952048Y-8955571D01*
X8961571Y-8993667D01*
X8961571Y-9041286D01*
X8952048Y-9079381D01*
X8942524Y-9098429D01*
X8933000Y-9107952D01*
X8913952Y-9117476D01*
X8894905Y-9117476D01*
X8875857Y-9107952D01*
X8866333Y-9098429D01*
X8856810Y-9079381D01*
X8847286Y-9041286D01*
X8847286Y-8993667D01*
X8856810Y-8955571D01*
X8866333Y-8936524D01*
X8875857Y-8927000D01*
X8894905Y-8917476D01*
X9085381Y-8917476D02*
X9104429Y-8917476D01*
X9123476Y-8927000D01*
X9133000Y-8936524D01*
X9142524Y-8955571D01*
X9152048Y-8993667D01*
X9152048Y-9041286D01*
X9142524Y-9079381D01*
X9133000Y-9098429D01*
X9123476Y-9107952D01*
X9104429Y-9117476D01*
X9085381Y-9117476D01*
X9066333Y-9107952D01*
X9056810Y-9098429D01*
X9047286Y-9079381D01*
X9037762Y-9041286D01*
X9037762Y-8993667D01*
X9047286Y-8955571D01*
X9056810Y-8936524D01*
X9066333Y-8927000D01*
X9085381Y-8917476D01*
X9237762Y-9117476D02*
X9237762Y-8984143D01*
X9237762Y-9003190D02*
X9247286Y-8993667D01*
X9266333Y-8984143D01*
X9294905Y-8984143D01*
X9313952Y-8993667D01*
X9323476Y-9012714D01*
X9323476Y-9117476D01*
X9323476Y-9012714D02*
X9333000Y-8993667D01*
X9352048Y-8984143D01*
X9380619Y-8984143D01*
X9399667Y-8993667D01*
X9409190Y-9012714D01*
X9409190Y-9117476D01*
X9504429Y-9117476D02*
X9504429Y-8984143D01*
X9504429Y-9003190D02*
X9513952Y-8993667D01*
X9533000Y-8984143D01*
X9561571Y-8984143D01*
X9580619Y-8993667D01*
X9590143Y-9012714D01*
X9590143Y-9117476D01*
X9590143Y-9012714D02*
X9599667Y-8993667D01*
X9618714Y-8984143D01*
X9647286Y-8984143D01*
X9666333Y-8993667D01*
X9675857Y-9012714D01*
X9675857Y-9117476D01*
X10066333Y-8907952D02*
X9894905Y-9165095D01*
X10323476Y-8917476D02*
X10342524Y-8917476D01*
X10361571Y-8927000D01*
X10371095Y-8936524D01*
X10380619Y-8955571D01*
X10390143Y-8993667D01*
X10390143Y-9041286D01*
X10380619Y-9079381D01*
X10371095Y-9098429D01*
X10361571Y-9107952D01*
X10342524Y-9117476D01*
X10323476Y-9117476D01*
X10304429Y-9107952D01*
X10294905Y-9098429D01*
X10285381Y-9079381D01*
X10275857Y-9041286D01*
X10275857Y-8993667D01*
X10285381Y-8955571D01*
X10294905Y-8936524D01*
X10304429Y-8927000D01*
X10323476Y-8917476D01*
X10475857Y-9098429D02*
X10485381Y-9107952D01*
X10475857Y-9117476D01*
X10466333Y-9107952D01*
X10475857Y-9098429D01*
X10475857Y-9117476D01*
X10609190Y-8917476D02*
X10628238Y-8917476D01*
X10647286Y-8927000D01*
X10656810Y-8936524D01*
X10666333Y-8955571D01*
X10675857Y-8993667D01*
X10675857Y-9041286D01*
X10666333Y-9079381D01*
X10656810Y-9098429D01*
X10647286Y-9107952D01*
X10628238Y-9117476D01*
X10609190Y-9117476D01*
X10590143Y-9107952D01*
X10580619Y-9098429D01*
X10571095Y-9079381D01*
X10561571Y-9041286D01*
X10561571Y-8993667D01*
X10571095Y-8955571D01*
X10580619Y-8936524D01*
X10590143Y-8927000D01*
X10609190Y-8917476D01*
X10799667Y-8917476D02*
X10818714Y-8917476D01*
X10837762Y-8927000D01*
X10847286Y-8936524D01*
X10856810Y-8955571D01*
X10866333Y-8993667D01*
X10866333Y-9041286D01*
X10856810Y-9079381D01*
X10847286Y-9098429D01*
X10837762Y-9107952D01*
X10818714Y-9117476D01*
X10799667Y-9117476D01*
X10780619Y-9107952D01*
X10771095Y-9098429D01*
X10761571Y-9079381D01*
X10752048Y-9041286D01*
X10752048Y-8993667D01*
X10761571Y-8955571D01*
X10771095Y-8936524D01*
X10780619Y-8927000D01*
X10799667Y-8917476D01*
X10933000Y-8917476D02*
X11066333Y-8917476D01*
X10980619Y-9117476D01*
X11152048Y-9117476D02*
X11190143Y-9117476D01*
X11209190Y-9107952D01*
X11218714Y-9098429D01*
X11237762Y-9069857D01*
X11247286Y-9031762D01*
X11247286Y-8955571D01*
X11237762Y-8936524D01*
X11228238Y-8927000D01*
X11209190Y-8917476D01*
X11171095Y-8917476D01*
X11152048Y-8927000D01*
X11142524Y-8936524D01*
X11133000Y-8955571D01*
X11133000Y-9003190D01*
X11142524Y-9022238D01*
X11152048Y-9031762D01*
X11171095Y-9041286D01*
X11209190Y-9041286D01*
X11228238Y-9031762D01*
X11237762Y-9022238D01*
X11247286Y-9003190D01*
X11323476Y-8917476D02*
X11323476Y-8955571D01*
X11399667Y-8917476D02*
X11399667Y-8955571D01*
X11694905Y-9193667D02*
X11685381Y-9184143D01*
X11666333Y-9155571D01*
X11656809Y-9136524D01*
X11647286Y-9107952D01*
X11637762Y-9060333D01*
X11637762Y-9022238D01*
X11647286Y-8974619D01*
X11656809Y-8946048D01*
X11666333Y-8927000D01*
X11685381Y-8898429D01*
X11694905Y-8888905D01*
X11780619Y-9117476D02*
X11818714Y-9117476D01*
X11837762Y-9107952D01*
X11847286Y-9098429D01*
X11866333Y-9069857D01*
X11875857Y-9031762D01*
X11875857Y-8955571D01*
X11866333Y-8936524D01*
X11856809Y-8927000D01*
X11837762Y-8917476D01*
X11799667Y-8917476D01*
X11780619Y-8927000D01*
X11771095Y-8936524D01*
X11761571Y-8955571D01*
X11761571Y-9003190D01*
X11771095Y-9022238D01*
X11780619Y-9031762D01*
X11799667Y-9041286D01*
X11837762Y-9041286D01*
X11856809Y-9031762D01*
X11866333Y-9022238D01*
X11875857Y-9003190D01*
X12113952Y-9117476D02*
X12113952Y-8917476D01*
X12199667Y-9117476D02*
X12199667Y-9012714D01*
X12190143Y-8993667D01*
X12171095Y-8984143D01*
X12142524Y-8984143D01*
X12123476Y-8993667D01*
X12113952Y-9003190D01*
X12323476Y-9117476D02*
X12304428Y-9107952D01*
X12294905Y-9098429D01*
X12285381Y-9079381D01*
X12285381Y-9022238D01*
X12294905Y-9003190D01*
X12304428Y-8993667D01*
X12323476Y-8984143D01*
X12352048Y-8984143D01*
X12371095Y-8993667D01*
X12380619Y-9003190D01*
X12390143Y-9022238D01*
X12390143Y-9079381D01*
X12380619Y-9098429D01*
X12371095Y-9107952D01*
X12352048Y-9117476D01*
X12323476Y-9117476D01*
X12504428Y-9117476D02*
X12485381Y-9107952D01*
X12475857Y-9088905D01*
X12475857Y-8917476D01*
X12656809Y-9107952D02*
X12637762Y-9117476D01*
X12599667Y-9117476D01*
X12580619Y-9107952D01*
X12571095Y-9088905D01*
X12571095Y-9012714D01*
X12580619Y-8993667D01*
X12599667Y-8984143D01*
X12637762Y-8984143D01*
X12656809Y-8993667D01*
X12666333Y-9012714D01*
X12666333Y-9031762D01*
X12571095Y-9050810D01*
X12742524Y-9107952D02*
X12761571Y-9117476D01*
X12799667Y-9117476D01*
X12818714Y-9107952D01*
X12828238Y-9088905D01*
X12828238Y-9079381D01*
X12818714Y-9060333D01*
X12799667Y-9050810D01*
X12771095Y-9050810D01*
X12752048Y-9041286D01*
X12742524Y-9022238D01*
X12742524Y-9012714D01*
X12752048Y-8993667D01*
X12771095Y-8984143D01*
X12799667Y-8984143D01*
X12818714Y-8993667D01*
X12894905Y-9193667D02*
X12904428Y-9184143D01*
X12923476Y-9155571D01*
X12933000Y-9136524D01*
X12942524Y-9107952D01*
X12952048Y-9060333D01*
X12952048Y-9022238D01*
X12942524Y-8974619D01*
X12933000Y-8946048D01*
X12923476Y-8927000D01*
X12904428Y-8898429D01*
X12894905Y-8888905D01*
D13*
X8123000Y-9291000D02*
G75*
G03*
X8123000Y-9291000I-15000J0D01*
G01*
D11*
X8418714Y-9181476D02*
X8437762Y-9181476D01*
X8456810Y-9191000D01*
X8466333Y-9200524D01*
X8475857Y-9219571D01*
X8485381Y-9257667D01*
X8485381Y-9305286D01*
X8475857Y-9343381D01*
X8466333Y-9362429D01*
X8456810Y-9371952D01*
X8437762Y-9381476D01*
X8418714Y-9381476D01*
X8399667Y-9371952D01*
X8390143Y-9362429D01*
X8380619Y-9343381D01*
X8371095Y-9305286D01*
X8371095Y-9257667D01*
X8380619Y-9219571D01*
X8390143Y-9200524D01*
X8399667Y-9191000D01*
X8418714Y-9181476D01*
X8571095Y-9362429D02*
X8580619Y-9371952D01*
X8571095Y-9381476D01*
X8561571Y-9371952D01*
X8571095Y-9362429D01*
X8571095Y-9381476D01*
X8647286Y-9181476D02*
X8771095Y-9181476D01*
X8704429Y-9257667D01*
X8733000Y-9257667D01*
X8752048Y-9267190D01*
X8761571Y-9276714D01*
X8771095Y-9295762D01*
X8771095Y-9343381D01*
X8761571Y-9362429D01*
X8752048Y-9371952D01*
X8733000Y-9381476D01*
X8675857Y-9381476D01*
X8656810Y-9371952D01*
X8647286Y-9362429D01*
X8894905Y-9181476D02*
X8913952Y-9181476D01*
X8933000Y-9191000D01*
X8942524Y-9200524D01*
X8952048Y-9219571D01*
X8961571Y-9257667D01*
X8961571Y-9305286D01*
X8952048Y-9343381D01*
X8942524Y-9362429D01*
X8933000Y-9371952D01*
X8913952Y-9381476D01*
X8894905Y-9381476D01*
X8875857Y-9371952D01*
X8866333Y-9362429D01*
X8856810Y-9343381D01*
X8847286Y-9305286D01*
X8847286Y-9257667D01*
X8856810Y-9219571D01*
X8866333Y-9200524D01*
X8875857Y-9191000D01*
X8894905Y-9181476D01*
X9085381Y-9181476D02*
X9104429Y-9181476D01*
X9123476Y-9191000D01*
X9133000Y-9200524D01*
X9142524Y-9219571D01*
X9152048Y-9257667D01*
X9152048Y-9305286D01*
X9142524Y-9343381D01*
X9133000Y-9362429D01*
X9123476Y-9371952D01*
X9104429Y-9381476D01*
X9085381Y-9381476D01*
X9066333Y-9371952D01*
X9056810Y-9362429D01*
X9047286Y-9343381D01*
X9037762Y-9305286D01*
X9037762Y-9257667D01*
X9047286Y-9219571D01*
X9056810Y-9200524D01*
X9066333Y-9191000D01*
X9085381Y-9181476D01*
X9237762Y-9381476D02*
X9237762Y-9248143D01*
X9237762Y-9267190D02*
X9247286Y-9257667D01*
X9266333Y-9248143D01*
X9294905Y-9248143D01*
X9313952Y-9257667D01*
X9323476Y-9276714D01*
X9323476Y-9381476D01*
X9323476Y-9276714D02*
X9333000Y-9257667D01*
X9352048Y-9248143D01*
X9380619Y-9248143D01*
X9399667Y-9257667D01*
X9409190Y-9276714D01*
X9409190Y-9381476D01*
X9504429Y-9381476D02*
X9504429Y-9248143D01*
X9504429Y-9267190D02*
X9513952Y-9257667D01*
X9533000Y-9248143D01*
X9561571Y-9248143D01*
X9580619Y-9257667D01*
X9590143Y-9276714D01*
X9590143Y-9381476D01*
X9590143Y-9276714D02*
X9599667Y-9257667D01*
X9618714Y-9248143D01*
X9647286Y-9248143D01*
X9666333Y-9257667D01*
X9675857Y-9276714D01*
X9675857Y-9381476D01*
X10066333Y-9171952D02*
X9894905Y-9429095D01*
X10323476Y-9181476D02*
X10342524Y-9181476D01*
X10361571Y-9191000D01*
X10371095Y-9200524D01*
X10380619Y-9219571D01*
X10390143Y-9257667D01*
X10390143Y-9305286D01*
X10380619Y-9343381D01*
X10371095Y-9362429D01*
X10361571Y-9371952D01*
X10342524Y-9381476D01*
X10323476Y-9381476D01*
X10304429Y-9371952D01*
X10294905Y-9362429D01*
X10285381Y-9343381D01*
X10275857Y-9305286D01*
X10275857Y-9257667D01*
X10285381Y-9219571D01*
X10294905Y-9200524D01*
X10304429Y-9191000D01*
X10323476Y-9181476D01*
X10475857Y-9362429D02*
X10485381Y-9371952D01*
X10475857Y-9381476D01*
X10466333Y-9371952D01*
X10475857Y-9362429D01*
X10475857Y-9381476D01*
X10609190Y-9181476D02*
X10628238Y-9181476D01*
X10647286Y-9191000D01*
X10656810Y-9200524D01*
X10666333Y-9219571D01*
X10675857Y-9257667D01*
X10675857Y-9305286D01*
X10666333Y-9343381D01*
X10656810Y-9362429D01*
X10647286Y-9371952D01*
X10628238Y-9381476D01*
X10609190Y-9381476D01*
X10590143Y-9371952D01*
X10580619Y-9362429D01*
X10571095Y-9343381D01*
X10561571Y-9305286D01*
X10561571Y-9257667D01*
X10571095Y-9219571D01*
X10580619Y-9200524D01*
X10590143Y-9191000D01*
X10609190Y-9181476D01*
X10866333Y-9381476D02*
X10752048Y-9381476D01*
X10809190Y-9381476D02*
X10809190Y-9181476D01*
X10790143Y-9210048D01*
X10771095Y-9229095D01*
X10752048Y-9238619D01*
X11056810Y-9381476D02*
X10942524Y-9381476D01*
X10999667Y-9381476D02*
X10999667Y-9181476D01*
X10980619Y-9210048D01*
X10961571Y-9229095D01*
X10942524Y-9238619D01*
X11171095Y-9267190D02*
X11152048Y-9257667D01*
X11142524Y-9248143D01*
X11133000Y-9229095D01*
X11133000Y-9219571D01*
X11142524Y-9200524D01*
X11152048Y-9191000D01*
X11171095Y-9181476D01*
X11209190Y-9181476D01*
X11228238Y-9191000D01*
X11237762Y-9200524D01*
X11247286Y-9219571D01*
X11247286Y-9229095D01*
X11237762Y-9248143D01*
X11228238Y-9257667D01*
X11209190Y-9267190D01*
X11171095Y-9267190D01*
X11152048Y-9276714D01*
X11142524Y-9286238D01*
X11133000Y-9305286D01*
X11133000Y-9343381D01*
X11142524Y-9362429D01*
X11152048Y-9371952D01*
X11171095Y-9381476D01*
X11209190Y-9381476D01*
X11228238Y-9371952D01*
X11237762Y-9362429D01*
X11247286Y-9343381D01*
X11247286Y-9305286D01*
X11237762Y-9286238D01*
X11228238Y-9276714D01*
X11209190Y-9267190D01*
X11323476Y-9181476D02*
X11323476Y-9219571D01*
X11399667Y-9181476D02*
X11399667Y-9219571D01*
X11694905Y-9457667D02*
X11685381Y-9448143D01*
X11666333Y-9419571D01*
X11656809Y-9400524D01*
X11647286Y-9371952D01*
X11637762Y-9324333D01*
X11637762Y-9286238D01*
X11647286Y-9238619D01*
X11656809Y-9210048D01*
X11666333Y-9191000D01*
X11685381Y-9162429D01*
X11694905Y-9152905D01*
X11875857Y-9381476D02*
X11761571Y-9381476D01*
X11818714Y-9381476D02*
X11818714Y-9181476D01*
X11799667Y-9210048D01*
X11780619Y-9229095D01*
X11761571Y-9238619D01*
X11952048Y-9200524D02*
X11961571Y-9191000D01*
X11980619Y-9181476D01*
X12028238Y-9181476D01*
X12047286Y-9191000D01*
X12056809Y-9200524D01*
X12066333Y-9219571D01*
X12066333Y-9238619D01*
X12056809Y-9267190D01*
X11942524Y-9381476D01*
X12066333Y-9381476D01*
X12304428Y-9381476D02*
X12304428Y-9181476D01*
X12390143Y-9381476D02*
X12390143Y-9276714D01*
X12380619Y-9257667D01*
X12361571Y-9248143D01*
X12333000Y-9248143D01*
X12313952Y-9257667D01*
X12304428Y-9267190D01*
X12513952Y-9381476D02*
X12494905Y-9371952D01*
X12485381Y-9362429D01*
X12475857Y-9343381D01*
X12475857Y-9286238D01*
X12485381Y-9267190D01*
X12494905Y-9257667D01*
X12513952Y-9248143D01*
X12542524Y-9248143D01*
X12561571Y-9257667D01*
X12571095Y-9267190D01*
X12580619Y-9286238D01*
X12580619Y-9343381D01*
X12571095Y-9362429D01*
X12561571Y-9371952D01*
X12542524Y-9381476D01*
X12513952Y-9381476D01*
X12694905Y-9381476D02*
X12675857Y-9371952D01*
X12666333Y-9352905D01*
X12666333Y-9181476D01*
X12847286Y-9371952D02*
X12828238Y-9381476D01*
X12790143Y-9381476D01*
X12771095Y-9371952D01*
X12761571Y-9352905D01*
X12761571Y-9276714D01*
X12771095Y-9257667D01*
X12790143Y-9248143D01*
X12828238Y-9248143D01*
X12847286Y-9257667D01*
X12856809Y-9276714D01*
X12856809Y-9295762D01*
X12761571Y-9314810D01*
X12933000Y-9371952D02*
X12952048Y-9381476D01*
X12990143Y-9381476D01*
X13009190Y-9371952D01*
X13018714Y-9352905D01*
X13018714Y-9343381D01*
X13009190Y-9324333D01*
X12990143Y-9314810D01*
X12961571Y-9314810D01*
X12942524Y-9305286D01*
X12933000Y-9286238D01*
X12933000Y-9276714D01*
X12942524Y-9257667D01*
X12961571Y-9248143D01*
X12990143Y-9248143D01*
X13009190Y-9257667D01*
X13085381Y-9457667D02*
X13094905Y-9448143D01*
X13113952Y-9419571D01*
X13123476Y-9400524D01*
X13133000Y-9371952D01*
X13142524Y-9324333D01*
X13142524Y-9286238D01*
X13133000Y-9238619D01*
X13123476Y-9210048D01*
X13113952Y-9191000D01*
X13094905Y-9162429D01*
X13085381Y-9152905D01*
D14*
X8103000Y-9535000D02*
X8103000Y-9575000D01*
X8083000Y-9555000D02*
X8123000Y-9555000D01*
D11*
X8418714Y-9445476D02*
X8437762Y-9445476D01*
X8456810Y-9455000D01*
X8466333Y-9464524D01*
X8475857Y-9483571D01*
X8485381Y-9521667D01*
X8485381Y-9569286D01*
X8475857Y-9607381D01*
X8466333Y-9626429D01*
X8456810Y-9635952D01*
X8437762Y-9645476D01*
X8418714Y-9645476D01*
X8399667Y-9635952D01*
X8390143Y-9626429D01*
X8380619Y-9607381D01*
X8371095Y-9569286D01*
X8371095Y-9521667D01*
X8380619Y-9483571D01*
X8390143Y-9464524D01*
X8399667Y-9455000D01*
X8418714Y-9445476D01*
X8571095Y-9626429D02*
X8580619Y-9635952D01*
X8571095Y-9645476D01*
X8561571Y-9635952D01*
X8571095Y-9626429D01*
X8571095Y-9645476D01*
X8752048Y-9512143D02*
X8752048Y-9645476D01*
X8704429Y-9435952D02*
X8656810Y-9578810D01*
X8780619Y-9578810D01*
X8894905Y-9445476D02*
X8913952Y-9445476D01*
X8933000Y-9455000D01*
X8942524Y-9464524D01*
X8952048Y-9483571D01*
X8961571Y-9521667D01*
X8961571Y-9569286D01*
X8952048Y-9607381D01*
X8942524Y-9626429D01*
X8933000Y-9635952D01*
X8913952Y-9645476D01*
X8894905Y-9645476D01*
X8875857Y-9635952D01*
X8866333Y-9626429D01*
X8856810Y-9607381D01*
X8847286Y-9569286D01*
X8847286Y-9521667D01*
X8856810Y-9483571D01*
X8866333Y-9464524D01*
X8875857Y-9455000D01*
X8894905Y-9445476D01*
X9085381Y-9445476D02*
X9104429Y-9445476D01*
X9123476Y-9455000D01*
X9133000Y-9464524D01*
X9142524Y-9483571D01*
X9152048Y-9521667D01*
X9152048Y-9569286D01*
X9142524Y-9607381D01*
X9133000Y-9626429D01*
X9123476Y-9635952D01*
X9104429Y-9645476D01*
X9085381Y-9645476D01*
X9066333Y-9635952D01*
X9056810Y-9626429D01*
X9047286Y-9607381D01*
X9037762Y-9569286D01*
X9037762Y-9521667D01*
X9047286Y-9483571D01*
X9056810Y-9464524D01*
X9066333Y-9455000D01*
X9085381Y-9445476D01*
X9237762Y-9645476D02*
X9237762Y-9512143D01*
X9237762Y-9531190D02*
X9247286Y-9521667D01*
X9266333Y-9512143D01*
X9294905Y-9512143D01*
X9313952Y-9521667D01*
X9323476Y-9540714D01*
X9323476Y-9645476D01*
X9323476Y-9540714D02*
X9333000Y-9521667D01*
X9352048Y-9512143D01*
X9380619Y-9512143D01*
X9399667Y-9521667D01*
X9409190Y-9540714D01*
X9409190Y-9645476D01*
X9504429Y-9645476D02*
X9504429Y-9512143D01*
X9504429Y-9531190D02*
X9513952Y-9521667D01*
X9533000Y-9512143D01*
X9561571Y-9512143D01*
X9580619Y-9521667D01*
X9590143Y-9540714D01*
X9590143Y-9645476D01*
X9590143Y-9540714D02*
X9599667Y-9521667D01*
X9618714Y-9512143D01*
X9647286Y-9512143D01*
X9666333Y-9521667D01*
X9675857Y-9540714D01*
X9675857Y-9645476D01*
X10066333Y-9435952D02*
X9894905Y-9693095D01*
X10323476Y-9445476D02*
X10342524Y-9445476D01*
X10361571Y-9455000D01*
X10371095Y-9464524D01*
X10380619Y-9483571D01*
X10390143Y-9521667D01*
X10390143Y-9569286D01*
X10380619Y-9607381D01*
X10371095Y-9626429D01*
X10361571Y-9635952D01*
X10342524Y-9645476D01*
X10323476Y-9645476D01*
X10304429Y-9635952D01*
X10294905Y-9626429D01*
X10285381Y-9607381D01*
X10275857Y-9569286D01*
X10275857Y-9521667D01*
X10285381Y-9483571D01*
X10294905Y-9464524D01*
X10304429Y-9455000D01*
X10323476Y-9445476D01*
X10475857Y-9626429D02*
X10485381Y-9635952D01*
X10475857Y-9645476D01*
X10466333Y-9635952D01*
X10475857Y-9626429D01*
X10475857Y-9645476D01*
X10609190Y-9445476D02*
X10628238Y-9445476D01*
X10647286Y-9455000D01*
X10656810Y-9464524D01*
X10666333Y-9483571D01*
X10675857Y-9521667D01*
X10675857Y-9569286D01*
X10666333Y-9607381D01*
X10656810Y-9626429D01*
X10647286Y-9635952D01*
X10628238Y-9645476D01*
X10609190Y-9645476D01*
X10590143Y-9635952D01*
X10580619Y-9626429D01*
X10571095Y-9607381D01*
X10561571Y-9569286D01*
X10561571Y-9521667D01*
X10571095Y-9483571D01*
X10580619Y-9464524D01*
X10590143Y-9455000D01*
X10609190Y-9445476D01*
X10866333Y-9645476D02*
X10752048Y-9645476D01*
X10809190Y-9645476D02*
X10809190Y-9445476D01*
X10790143Y-9474048D01*
X10771095Y-9493095D01*
X10752048Y-9502619D01*
X11047286Y-9445476D02*
X10952048Y-9445476D01*
X10942524Y-9540714D01*
X10952048Y-9531190D01*
X10971095Y-9521667D01*
X11018714Y-9521667D01*
X11037762Y-9531190D01*
X11047286Y-9540714D01*
X11056810Y-9559762D01*
X11056810Y-9607381D01*
X11047286Y-9626429D01*
X11037762Y-9635952D01*
X11018714Y-9645476D01*
X10971095Y-9645476D01*
X10952048Y-9635952D01*
X10942524Y-9626429D01*
X11123476Y-9445476D02*
X11256809Y-9445476D01*
X11171095Y-9645476D01*
X11323476Y-9445476D02*
X11323476Y-9483571D01*
X11399667Y-9445476D02*
X11399667Y-9483571D01*
X11694905Y-9721667D02*
X11685381Y-9712143D01*
X11666333Y-9683571D01*
X11656809Y-9664524D01*
X11647286Y-9635952D01*
X11637762Y-9588333D01*
X11637762Y-9550238D01*
X11647286Y-9502619D01*
X11656809Y-9474048D01*
X11666333Y-9455000D01*
X11685381Y-9426429D01*
X11694905Y-9416905D01*
X11752048Y-9445476D02*
X11885381Y-9445476D01*
X11799667Y-9645476D01*
X12113952Y-9645476D02*
X12113952Y-9445476D01*
X12199667Y-9645476D02*
X12199667Y-9540714D01*
X12190143Y-9521667D01*
X12171095Y-9512143D01*
X12142524Y-9512143D01*
X12123476Y-9521667D01*
X12113952Y-9531190D01*
X12323476Y-9645476D02*
X12304428Y-9635952D01*
X12294905Y-9626429D01*
X12285381Y-9607381D01*
X12285381Y-9550238D01*
X12294905Y-9531190D01*
X12304428Y-9521667D01*
X12323476Y-9512143D01*
X12352048Y-9512143D01*
X12371095Y-9521667D01*
X12380619Y-9531190D01*
X12390143Y-9550238D01*
X12390143Y-9607381D01*
X12380619Y-9626429D01*
X12371095Y-9635952D01*
X12352048Y-9645476D01*
X12323476Y-9645476D01*
X12504428Y-9645476D02*
X12485381Y-9635952D01*
X12475857Y-9616905D01*
X12475857Y-9445476D01*
X12656809Y-9635952D02*
X12637762Y-9645476D01*
X12599667Y-9645476D01*
X12580619Y-9635952D01*
X12571095Y-9616905D01*
X12571095Y-9540714D01*
X12580619Y-9521667D01*
X12599667Y-9512143D01*
X12637762Y-9512143D01*
X12656809Y-9521667D01*
X12666333Y-9540714D01*
X12666333Y-9559762D01*
X12571095Y-9578810D01*
X12742524Y-9635952D02*
X12761571Y-9645476D01*
X12799667Y-9645476D01*
X12818714Y-9635952D01*
X12828238Y-9616905D01*
X12828238Y-9607381D01*
X12818714Y-9588333D01*
X12799667Y-9578810D01*
X12771095Y-9578810D01*
X12752048Y-9569286D01*
X12742524Y-9550238D01*
X12742524Y-9540714D01*
X12752048Y-9521667D01*
X12771095Y-9512143D01*
X12799667Y-9512143D01*
X12818714Y-9521667D01*
X12894905Y-9721667D02*
X12904428Y-9712143D01*
X12923476Y-9683571D01*
X12933000Y-9664524D01*
X12942524Y-9635952D01*
X12952048Y-9588333D01*
X12952048Y-9550238D01*
X12942524Y-9502619D01*
X12933000Y-9474048D01*
X12923476Y-9455000D01*
X12904428Y-9426429D01*
X12894905Y-9416905D01*
D15*
X8108356Y-9854356D02*
X8108356Y-9783644D01*
X8037644Y-9783644D01*
X8037644Y-9854356D01*
X8108356Y-9854356D01*
D11*
X8485381Y-9909476D02*
X8371095Y-9909476D01*
X8428238Y-9909476D02*
X8428238Y-9709476D01*
X8409190Y-9738048D01*
X8390143Y-9757095D01*
X8371095Y-9766619D01*
X8571095Y-9890429D02*
X8580619Y-9899952D01*
X8571095Y-9909476D01*
X8561571Y-9899952D01*
X8571095Y-9890429D01*
X8571095Y-9909476D01*
X8704429Y-9709476D02*
X8723476Y-9709476D01*
X8742524Y-9719000D01*
X8752048Y-9728524D01*
X8761571Y-9747571D01*
X8771095Y-9785667D01*
X8771095Y-9833286D01*
X8761571Y-9871381D01*
X8752048Y-9890429D01*
X8742524Y-9899952D01*
X8723476Y-9909476D01*
X8704429Y-9909476D01*
X8685381Y-9899952D01*
X8675857Y-9890429D01*
X8666333Y-9871381D01*
X8656810Y-9833286D01*
X8656810Y-9785667D01*
X8666333Y-9747571D01*
X8675857Y-9728524D01*
X8685381Y-9719000D01*
X8704429Y-9709476D01*
X8894905Y-9709476D02*
X8913952Y-9709476D01*
X8933000Y-9719000D01*
X8942524Y-9728524D01*
X8952048Y-9747571D01*
X8961571Y-9785667D01*
X8961571Y-9833286D01*
X8952048Y-9871381D01*
X8942524Y-9890429D01*
X8933000Y-9899952D01*
X8913952Y-9909476D01*
X8894905Y-9909476D01*
X8875857Y-9899952D01*
X8866333Y-9890429D01*
X8856810Y-9871381D01*
X8847286Y-9833286D01*
X8847286Y-9785667D01*
X8856810Y-9747571D01*
X8866333Y-9728524D01*
X8875857Y-9719000D01*
X8894905Y-9709476D01*
X9085381Y-9709476D02*
X9104429Y-9709476D01*
X9123476Y-9719000D01*
X9133000Y-9728524D01*
X9142524Y-9747571D01*
X9152048Y-9785667D01*
X9152048Y-9833286D01*
X9142524Y-9871381D01*
X9133000Y-9890429D01*
X9123476Y-9899952D01*
X9104429Y-9909476D01*
X9085381Y-9909476D01*
X9066333Y-9899952D01*
X9056810Y-9890429D01*
X9047286Y-9871381D01*
X9037762Y-9833286D01*
X9037762Y-9785667D01*
X9047286Y-9747571D01*
X9056810Y-9728524D01*
X9066333Y-9719000D01*
X9085381Y-9709476D01*
X9237762Y-9909476D02*
X9237762Y-9776143D01*
X9237762Y-9795190D02*
X9247286Y-9785667D01*
X9266333Y-9776143D01*
X9294905Y-9776143D01*
X9313952Y-9785667D01*
X9323476Y-9804714D01*
X9323476Y-9909476D01*
X9323476Y-9804714D02*
X9333000Y-9785667D01*
X9352048Y-9776143D01*
X9380619Y-9776143D01*
X9399667Y-9785667D01*
X9409190Y-9804714D01*
X9409190Y-9909476D01*
X9504429Y-9909476D02*
X9504429Y-9776143D01*
X9504429Y-9795190D02*
X9513952Y-9785667D01*
X9533000Y-9776143D01*
X9561571Y-9776143D01*
X9580619Y-9785667D01*
X9590143Y-9804714D01*
X9590143Y-9909476D01*
X9590143Y-9804714D02*
X9599667Y-9785667D01*
X9618714Y-9776143D01*
X9647286Y-9776143D01*
X9666333Y-9785667D01*
X9675857Y-9804714D01*
X9675857Y-9909476D01*
X10066333Y-9699952D02*
X9894905Y-9957095D01*
X10323476Y-9709476D02*
X10342524Y-9709476D01*
X10361571Y-9719000D01*
X10371095Y-9728524D01*
X10380619Y-9747571D01*
X10390143Y-9785667D01*
X10390143Y-9833286D01*
X10380619Y-9871381D01*
X10371095Y-9890429D01*
X10361571Y-9899952D01*
X10342524Y-9909476D01*
X10323476Y-9909476D01*
X10304429Y-9899952D01*
X10294905Y-9890429D01*
X10285381Y-9871381D01*
X10275857Y-9833286D01*
X10275857Y-9785667D01*
X10285381Y-9747571D01*
X10294905Y-9728524D01*
X10304429Y-9719000D01*
X10323476Y-9709476D01*
X10475857Y-9890429D02*
X10485381Y-9899952D01*
X10475857Y-9909476D01*
X10466333Y-9899952D01*
X10475857Y-9890429D01*
X10475857Y-9909476D01*
X10609190Y-9709476D02*
X10628238Y-9709476D01*
X10647286Y-9719000D01*
X10656810Y-9728524D01*
X10666333Y-9747571D01*
X10675857Y-9785667D01*
X10675857Y-9833286D01*
X10666333Y-9871381D01*
X10656810Y-9890429D01*
X10647286Y-9899952D01*
X10628238Y-9909476D01*
X10609190Y-9909476D01*
X10590143Y-9899952D01*
X10580619Y-9890429D01*
X10571095Y-9871381D01*
X10561571Y-9833286D01*
X10561571Y-9785667D01*
X10571095Y-9747571D01*
X10580619Y-9728524D01*
X10590143Y-9719000D01*
X10609190Y-9709476D01*
X10742524Y-9709476D02*
X10866333Y-9709476D01*
X10799667Y-9785667D01*
X10828238Y-9785667D01*
X10847286Y-9795190D01*
X10856810Y-9804714D01*
X10866333Y-9823762D01*
X10866333Y-9871381D01*
X10856810Y-9890429D01*
X10847286Y-9899952D01*
X10828238Y-9909476D01*
X10771095Y-9909476D01*
X10752048Y-9899952D01*
X10742524Y-9890429D01*
X10961571Y-9909476D02*
X10999667Y-9909476D01*
X11018714Y-9899952D01*
X11028238Y-9890429D01*
X11047286Y-9861857D01*
X11056810Y-9823762D01*
X11056810Y-9747571D01*
X11047286Y-9728524D01*
X11037762Y-9719000D01*
X11018714Y-9709476D01*
X10980619Y-9709476D01*
X10961571Y-9719000D01*
X10952048Y-9728524D01*
X10942524Y-9747571D01*
X10942524Y-9795190D01*
X10952048Y-9814238D01*
X10961571Y-9823762D01*
X10980619Y-9833286D01*
X11018714Y-9833286D01*
X11037762Y-9823762D01*
X11047286Y-9814238D01*
X11056810Y-9795190D01*
X11228238Y-9776143D02*
X11228238Y-9909476D01*
X11180619Y-9699952D02*
X11133000Y-9842810D01*
X11256809Y-9842810D01*
X11323476Y-9709476D02*
X11323476Y-9747571D01*
X11399667Y-9709476D02*
X11399667Y-9747571D01*
X11694905Y-9985667D02*
X11685381Y-9976143D01*
X11666333Y-9947571D01*
X11656809Y-9928524D01*
X11647286Y-9899952D01*
X11637762Y-9852333D01*
X11637762Y-9814238D01*
X11647286Y-9766619D01*
X11656809Y-9738048D01*
X11666333Y-9719000D01*
X11685381Y-9690429D01*
X11694905Y-9680905D01*
X11752048Y-9709476D02*
X11885381Y-9709476D01*
X11799667Y-9909476D01*
X12113952Y-9909476D02*
X12113952Y-9709476D01*
X12199667Y-9909476D02*
X12199667Y-9804714D01*
X12190143Y-9785667D01*
X12171095Y-9776143D01*
X12142524Y-9776143D01*
X12123476Y-9785667D01*
X12113952Y-9795190D01*
X12323476Y-9909476D02*
X12304428Y-9899952D01*
X12294905Y-9890429D01*
X12285381Y-9871381D01*
X12285381Y-9814238D01*
X12294905Y-9795190D01*
X12304428Y-9785667D01*
X12323476Y-9776143D01*
X12352048Y-9776143D01*
X12371095Y-9785667D01*
X12380619Y-9795190D01*
X12390143Y-9814238D01*
X12390143Y-9871381D01*
X12380619Y-9890429D01*
X12371095Y-9899952D01*
X12352048Y-9909476D01*
X12323476Y-9909476D01*
X12504428Y-9909476D02*
X12485381Y-9899952D01*
X12475857Y-9880905D01*
X12475857Y-9709476D01*
X12656809Y-9899952D02*
X12637762Y-9909476D01*
X12599667Y-9909476D01*
X12580619Y-9899952D01*
X12571095Y-9880905D01*
X12571095Y-9804714D01*
X12580619Y-9785667D01*
X12599667Y-9776143D01*
X12637762Y-9776143D01*
X12656809Y-9785667D01*
X12666333Y-9804714D01*
X12666333Y-9823762D01*
X12571095Y-9842810D01*
X12742524Y-9899952D02*
X12761571Y-9909476D01*
X12799667Y-9909476D01*
X12818714Y-9899952D01*
X12828238Y-9880905D01*
X12828238Y-9871381D01*
X12818714Y-9852333D01*
X12799667Y-9842810D01*
X12771095Y-9842810D01*
X12752048Y-9833286D01*
X12742524Y-9814238D01*
X12742524Y-9804714D01*
X12752048Y-9785667D01*
X12771095Y-9776143D01*
X12799667Y-9776143D01*
X12818714Y-9785667D01*
X12894905Y-9985667D02*
X12904428Y-9976143D01*
X12923476Y-9947571D01*
X12933000Y-9928524D01*
X12942524Y-9899952D01*
X12952048Y-9852333D01*
X12952048Y-9814238D01*
X12942524Y-9766619D01*
X12933000Y-9738048D01*
X12923476Y-9719000D01*
X12904428Y-9690429D01*
X12894905Y-9680905D01*
D16*
X8048000Y-10158000D02*
X8123000Y-10083000D01*
X8048000Y-10008000D01*
X7973000Y-10083000D01*
X8048000Y-10158000D01*
D11*
X8485381Y-10173476D02*
X8371095Y-10173476D01*
X8428238Y-10173476D02*
X8428238Y-9973476D01*
X8409190Y-10002048D01*
X8390143Y-10021095D01*
X8371095Y-10030619D01*
X8571095Y-10154429D02*
X8580619Y-10163952D01*
X8571095Y-10173476D01*
X8561571Y-10163952D01*
X8571095Y-10154429D01*
X8571095Y-10173476D01*
X8761571Y-9973476D02*
X8666333Y-9973476D01*
X8656810Y-10068714D01*
X8666333Y-10059190D01*
X8685381Y-10049667D01*
X8733000Y-10049667D01*
X8752048Y-10059190D01*
X8761571Y-10068714D01*
X8771095Y-10087762D01*
X8771095Y-10135381D01*
X8761571Y-10154429D01*
X8752048Y-10163952D01*
X8733000Y-10173476D01*
X8685381Y-10173476D01*
X8666333Y-10163952D01*
X8656810Y-10154429D01*
X8894905Y-9973476D02*
X8913952Y-9973476D01*
X8933000Y-9983000D01*
X8942524Y-9992524D01*
X8952048Y-10011571D01*
X8961571Y-10049667D01*
X8961571Y-10097286D01*
X8952048Y-10135381D01*
X8942524Y-10154429D01*
X8933000Y-10163952D01*
X8913952Y-10173476D01*
X8894905Y-10173476D01*
X8875857Y-10163952D01*
X8866333Y-10154429D01*
X8856810Y-10135381D01*
X8847286Y-10097286D01*
X8847286Y-10049667D01*
X8856810Y-10011571D01*
X8866333Y-9992524D01*
X8875857Y-9983000D01*
X8894905Y-9973476D01*
X9085381Y-9973476D02*
X9104429Y-9973476D01*
X9123476Y-9983000D01*
X9133000Y-9992524D01*
X9142524Y-10011571D01*
X9152048Y-10049667D01*
X9152048Y-10097286D01*
X9142524Y-10135381D01*
X9133000Y-10154429D01*
X9123476Y-10163952D01*
X9104429Y-10173476D01*
X9085381Y-10173476D01*
X9066333Y-10163952D01*
X9056810Y-10154429D01*
X9047286Y-10135381D01*
X9037762Y-10097286D01*
X9037762Y-10049667D01*
X9047286Y-10011571D01*
X9056810Y-9992524D01*
X9066333Y-9983000D01*
X9085381Y-9973476D01*
X9237762Y-10173476D02*
X9237762Y-10040143D01*
X9237762Y-10059190D02*
X9247286Y-10049667D01*
X9266333Y-10040143D01*
X9294905Y-10040143D01*
X9313952Y-10049667D01*
X9323476Y-10068714D01*
X9323476Y-10173476D01*
X9323476Y-10068714D02*
X9333000Y-10049667D01*
X9352048Y-10040143D01*
X9380619Y-10040143D01*
X9399667Y-10049667D01*
X9409190Y-10068714D01*
X9409190Y-10173476D01*
X9504429Y-10173476D02*
X9504429Y-10040143D01*
X9504429Y-10059190D02*
X9513952Y-10049667D01*
X9533000Y-10040143D01*
X9561571Y-10040143D01*
X9580619Y-10049667D01*
X9590143Y-10068714D01*
X9590143Y-10173476D01*
X9590143Y-10068714D02*
X9599667Y-10049667D01*
X9618714Y-10040143D01*
X9647286Y-10040143D01*
X9666333Y-10049667D01*
X9675857Y-10068714D01*
X9675857Y-10173476D01*
X10066333Y-9963952D02*
X9894905Y-10221095D01*
X10323476Y-9973476D02*
X10342524Y-9973476D01*
X10361571Y-9983000D01*
X10371095Y-9992524D01*
X10380619Y-10011571D01*
X10390143Y-10049667D01*
X10390143Y-10097286D01*
X10380619Y-10135381D01*
X10371095Y-10154429D01*
X10361571Y-10163952D01*
X10342524Y-10173476D01*
X10323476Y-10173476D01*
X10304429Y-10163952D01*
X10294905Y-10154429D01*
X10285381Y-10135381D01*
X10275857Y-10097286D01*
X10275857Y-10049667D01*
X10285381Y-10011571D01*
X10294905Y-9992524D01*
X10304429Y-9983000D01*
X10323476Y-9973476D01*
X10475857Y-10154429D02*
X10485381Y-10163952D01*
X10475857Y-10173476D01*
X10466333Y-10163952D01*
X10475857Y-10154429D01*
X10475857Y-10173476D01*
X10609190Y-9973476D02*
X10628238Y-9973476D01*
X10647286Y-9983000D01*
X10656810Y-9992524D01*
X10666333Y-10011571D01*
X10675857Y-10049667D01*
X10675857Y-10097286D01*
X10666333Y-10135381D01*
X10656810Y-10154429D01*
X10647286Y-10163952D01*
X10628238Y-10173476D01*
X10609190Y-10173476D01*
X10590143Y-10163952D01*
X10580619Y-10154429D01*
X10571095Y-10135381D01*
X10561571Y-10097286D01*
X10561571Y-10049667D01*
X10571095Y-10011571D01*
X10580619Y-9992524D01*
X10590143Y-9983000D01*
X10609190Y-9973476D01*
X10856810Y-9973476D02*
X10761571Y-9973476D01*
X10752048Y-10068714D01*
X10761571Y-10059190D01*
X10780619Y-10049667D01*
X10828238Y-10049667D01*
X10847286Y-10059190D01*
X10856810Y-10068714D01*
X10866333Y-10087762D01*
X10866333Y-10135381D01*
X10856810Y-10154429D01*
X10847286Y-10163952D01*
X10828238Y-10173476D01*
X10780619Y-10173476D01*
X10761571Y-10163952D01*
X10752048Y-10154429D01*
X10961571Y-10173476D02*
X10999667Y-10173476D01*
X11018714Y-10163952D01*
X11028238Y-10154429D01*
X11047286Y-10125857D01*
X11056810Y-10087762D01*
X11056810Y-10011571D01*
X11047286Y-9992524D01*
X11037762Y-9983000D01*
X11018714Y-9973476D01*
X10980619Y-9973476D01*
X10961571Y-9983000D01*
X10952048Y-9992524D01*
X10942524Y-10011571D01*
X10942524Y-10059190D01*
X10952048Y-10078238D01*
X10961571Y-10087762D01*
X10980619Y-10097286D01*
X11018714Y-10097286D01*
X11037762Y-10087762D01*
X11047286Y-10078238D01*
X11056810Y-10059190D01*
X11247286Y-10173476D02*
X11133000Y-10173476D01*
X11190143Y-10173476D02*
X11190143Y-9973476D01*
X11171095Y-10002048D01*
X11152048Y-10021095D01*
X11133000Y-10030619D01*
X11323476Y-9973476D02*
X11323476Y-10011571D01*
X11399667Y-9973476D02*
X11399667Y-10011571D01*
X11694905Y-10249667D02*
X11685381Y-10240143D01*
X11666333Y-10211571D01*
X11656809Y-10192524D01*
X11647286Y-10163952D01*
X11637762Y-10116333D01*
X11637762Y-10078238D01*
X11647286Y-10030619D01*
X11656809Y-10002048D01*
X11666333Y-9983000D01*
X11685381Y-9954429D01*
X11694905Y-9944905D01*
X11799667Y-10059190D02*
X11780619Y-10049667D01*
X11771095Y-10040143D01*
X11761571Y-10021095D01*
X11761571Y-10011571D01*
X11771095Y-9992524D01*
X11780619Y-9983000D01*
X11799667Y-9973476D01*
X11837762Y-9973476D01*
X11856809Y-9983000D01*
X11866333Y-9992524D01*
X11875857Y-10011571D01*
X11875857Y-10021095D01*
X11866333Y-10040143D01*
X11856809Y-10049667D01*
X11837762Y-10059190D01*
X11799667Y-10059190D01*
X11780619Y-10068714D01*
X11771095Y-10078238D01*
X11761571Y-10097286D01*
X11761571Y-10135381D01*
X11771095Y-10154429D01*
X11780619Y-10163952D01*
X11799667Y-10173476D01*
X11837762Y-10173476D01*
X11856809Y-10163952D01*
X11866333Y-10154429D01*
X11875857Y-10135381D01*
X11875857Y-10097286D01*
X11866333Y-10078238D01*
X11856809Y-10068714D01*
X11837762Y-10059190D01*
X12113952Y-10173476D02*
X12113952Y-9973476D01*
X12199667Y-10173476D02*
X12199667Y-10068714D01*
X12190143Y-10049667D01*
X12171095Y-10040143D01*
X12142524Y-10040143D01*
X12123476Y-10049667D01*
X12113952Y-10059190D01*
X12323476Y-10173476D02*
X12304428Y-10163952D01*
X12294905Y-10154429D01*
X12285381Y-10135381D01*
X12285381Y-10078238D01*
X12294905Y-10059190D01*
X12304428Y-10049667D01*
X12323476Y-10040143D01*
X12352048Y-10040143D01*
X12371095Y-10049667D01*
X12380619Y-10059190D01*
X12390143Y-10078238D01*
X12390143Y-10135381D01*
X12380619Y-10154429D01*
X12371095Y-10163952D01*
X12352048Y-10173476D01*
X12323476Y-10173476D01*
X12504428Y-10173476D02*
X12485381Y-10163952D01*
X12475857Y-10144905D01*
X12475857Y-9973476D01*
X12656809Y-10163952D02*
X12637762Y-10173476D01*
X12599667Y-10173476D01*
X12580619Y-10163952D01*
X12571095Y-10144905D01*
X12571095Y-10068714D01*
X12580619Y-10049667D01*
X12599667Y-10040143D01*
X12637762Y-10040143D01*
X12656809Y-10049667D01*
X12666333Y-10068714D01*
X12666333Y-10087762D01*
X12571095Y-10106810D01*
X12742524Y-10163952D02*
X12761571Y-10173476D01*
X12799667Y-10173476D01*
X12818714Y-10163952D01*
X12828238Y-10144905D01*
X12828238Y-10135381D01*
X12818714Y-10116333D01*
X12799667Y-10106810D01*
X12771095Y-10106810D01*
X12752048Y-10097286D01*
X12742524Y-10078238D01*
X12742524Y-10068714D01*
X12752048Y-10049667D01*
X12771095Y-10040143D01*
X12799667Y-10040143D01*
X12818714Y-10049667D01*
X13066333Y-10097286D02*
X13218714Y-10097286D01*
X13142524Y-10173476D02*
X13142524Y-10021095D01*
X13552048Y-10040143D02*
X13552048Y-10173476D01*
X13504428Y-9963952D02*
X13456809Y-10106810D01*
X13580619Y-10106810D01*
X13799667Y-10163952D02*
X13818714Y-10173476D01*
X13856809Y-10173476D01*
X13875857Y-10163952D01*
X13885381Y-10144905D01*
X13885381Y-10135381D01*
X13875857Y-10116333D01*
X13856809Y-10106810D01*
X13828238Y-10106810D01*
X13809190Y-10097286D01*
X13799667Y-10078238D01*
X13799667Y-10068714D01*
X13809190Y-10049667D01*
X13828238Y-10040143D01*
X13856809Y-10040143D01*
X13875857Y-10049667D01*
X13999667Y-10173476D02*
X13980619Y-10163952D01*
X13971095Y-10144905D01*
X13971095Y-9973476D01*
X14104428Y-10173476D02*
X14085381Y-10163952D01*
X14075857Y-10154429D01*
X14066333Y-10135381D01*
X14066333Y-10078238D01*
X14075857Y-10059190D01*
X14085381Y-10049667D01*
X14104428Y-10040143D01*
X14133000Y-10040143D01*
X14152048Y-10049667D01*
X14161571Y-10059190D01*
X14171095Y-10078238D01*
X14171095Y-10135381D01*
X14161571Y-10154429D01*
X14152048Y-10163952D01*
X14133000Y-10173476D01*
X14104428Y-10173476D01*
X14228238Y-10040143D02*
X14304428Y-10040143D01*
X14256809Y-9973476D02*
X14256809Y-10144905D01*
X14266333Y-10163952D01*
X14285381Y-10173476D01*
X14304428Y-10173476D01*
X14361571Y-10163952D02*
X14380619Y-10173476D01*
X14418714Y-10173476D01*
X14437762Y-10163952D01*
X14447286Y-10144905D01*
X14447286Y-10135381D01*
X14437762Y-10116333D01*
X14418714Y-10106810D01*
X14390143Y-10106810D01*
X14371095Y-10097286D01*
X14361571Y-10078238D01*
X14361571Y-10068714D01*
X14371095Y-10049667D01*
X14390143Y-10040143D01*
X14418714Y-10040143D01*
X14437762Y-10049667D01*
X14513952Y-10249667D02*
X14523476Y-10240143D01*
X14542524Y-10211571D01*
X14552048Y-10192524D01*
X14561571Y-10163952D01*
X14571095Y-10116333D01*
X14571095Y-10078238D01*
X14561571Y-10030619D01*
X14552048Y-10002048D01*
X14542524Y-9983000D01*
X14523476Y-9954429D01*
X14513952Y-9944905D01*
M02*
