M48
; DRILL file {KiCad (6.0.1)} date Fri Jan 28 19:13:07 2022
; FORMAT={-:-/ absolute / metric / decimal}
; #@! TF.CreationDate,2022-01-28T19:13:07+01:00
; #@! TF.GenerationSoftware,Kicad,Pcbnew,(6.0.1)
; #@! TF.FileFunction,Plated,1,2,PTH
FMAT,2
METRIC
; #@! TA.AperFunction,Plated,PTH,ComponentDrill
T1C0.200
; #@! TA.AperFunction,Plated,PTH,ComponentDrill
T2C0.300
; #@! TA.AperFunction,Plated,PTH,ViaDrill
T3C0.400
; #@! TA.AperFunction,Plated,PTH,ComponentDrill
T4C1.000
; #@! TA.AperFunction,Plated,PTH,ComponentDrill
T5C1.500
%
G90
G05
T1
X105.195Y-66.04
X105.938Y-65.298
X105.938Y-66.782
X106.68Y-64.555
X106.68Y-66.04
X106.68Y-67.525
X107.422Y-65.298
X107.422Y-66.782
X108.165Y-66.04
T2
X98.7Y-62.287
X98.7Y-77.527
X99.16Y-60.777
X99.16Y-76.017
X99.62Y-62.28
X99.62Y-77.52
X113.94Y-62.287
X113.94Y-77.527
X114.4Y-60.777
X114.4Y-76.017
X114.86Y-62.28
X114.86Y-77.52
T3
X98.425Y-67.31
X106.68Y-69.939
X110.236Y-63.716
X110.236Y-64.716
X110.236Y-66.04
X110.236Y-67.056
X110.236Y-68.072
T4
X87.567Y-58.415
X87.567Y-60.955
X87.567Y-63.495
X87.567Y-66.035
X87.567Y-68.575
X87.567Y-71.115
X87.567Y-73.655
T5
X95.25Y-55.88
X95.25Y-71.12
X96.56Y-54.42
X96.56Y-69.66
X110.49Y-55.88
X110.49Y-71.12
X111.8Y-54.42
X111.8Y-69.66
T5
X101.56Y-53.92G85X101.6Y-53.34
G05
X101.56Y-69.16G85X101.6Y-68.58
G05
X116.8Y-53.92G85X116.84Y-53.34
G05
X116.8Y-69.16G85X116.84Y-68.58
G05
T0
M30
