G04 #@! TF.GenerationSoftware,KiCad,Pcbnew,(6.0.1)*
G04 #@! TF.CreationDate,2022-01-28T19:12:58+01:00*
G04 #@! TF.ProjectId,example,6578616d-706c-4652-9e6b-696361645f70,rev?*
G04 #@! TF.SameCoordinates,Original*
G04 #@! TF.FileFunction,Copper,L2,Bot*
G04 #@! TF.FilePolarity,Positive*
%FSLAX46Y46*%
G04 Gerber Fmt 4.6, Leading zero omitted, Abs format (unit mm)*
G04 Created by KiCad (PCBNEW (6.0.1)) date 2022-01-28 19:12:58*
%MOMM*%
%LPD*%
G01*
G04 APERTURE LIST*
G04 Aperture macros list*
%AMRoundRect*
0 Rectangle with rounded corners*
0 $1 Rounding radius*
0 $2 $3 $4 $5 $6 $7 $8 $9 X,Y pos of 4 corners*
0 Add a 4 corners polygon primitive as box body*
4,1,4,$2,$3,$4,$5,$6,$7,$8,$9,$2,$3,0*
0 Add four circle primitives for the rounded corners*
1,1,$1+$1,$2,$3*
1,1,$1+$1,$4,$5*
1,1,$1+$1,$6,$7*
1,1,$1+$1,$8,$9*
0 Add four rect primitives between the rounded corners*
20,1,$1+$1,$2,$3,$4,$5,0*
20,1,$1+$1,$4,$5,$6,$7,0*
20,1,$1+$1,$6,$7,$8,$9,0*
20,1,$1+$1,$8,$9,$2,$3,0*%
%AMHorizOval*
0 Thick line with rounded ends*
0 $1 width*
0 $2 $3 position (X,Y) of the first rounded end (center of the circle)*
0 $4 $5 position (X,Y) of the second rounded end (center of the circle)*
0 Add line between two ends*
20,1,$1,$2,$3,$4,$5,0*
0 Add two circle primitives to create the rounded ends*
1,1,$1,$2,$3*
1,1,$1,$4,$5*%
%AMRotRect*
0 Rectangle, with rotation*
0 The origin of the aperture is its center*
0 $1 length*
0 $2 width*
0 $3 Rotation angle, in degrees counterclockwise*
0 Add horizontal line*
21,1,$1,$2,0,0,$3*%
G04 Aperture macros list end*
G04 #@! TA.AperFunction,EtchedComponent*
%ADD10C,0.200000*%
G04 #@! TD*
G04 #@! TA.AperFunction,ComponentPad*
%ADD11C,0.450000*%
G04 #@! TD*
G04 #@! TA.AperFunction,ComponentPad*
%ADD12C,2.500000*%
G04 #@! TD*
G04 #@! TA.AperFunction,ComponentPad*
%ADD13HorizOval,2.500000X0.656270X0.728862X-0.656270X-0.728862X0*%
G04 #@! TD*
G04 #@! TA.AperFunction,ComponentPad*
%ADD14HorizOval,2.500000X0.020277X0.289981X-0.020277X-0.289981X0*%
G04 #@! TD*
G04 #@! TA.AperFunction,ComponentPad*
%ADD15R,1.700000X1.700000*%
G04 #@! TD*
G04 #@! TA.AperFunction,ComponentPad*
%ADD16O,1.700000X1.700000*%
G04 #@! TD*
G04 #@! TA.AperFunction,SMDPad,CuDef*
%ADD17RoundRect,0.250000X-0.337500X-0.475000X0.337500X-0.475000X0.337500X0.475000X-0.337500X0.475000X0*%
G04 #@! TD*
G04 #@! TA.AperFunction,SMDPad,CuDef*
%ADD18RoundRect,0.250000X-0.475000X0.337500X-0.475000X-0.337500X0.475000X-0.337500X0.475000X0.337500X0*%
G04 #@! TD*
G04 #@! TA.AperFunction,SMDPad,CuDef*
%ADD19RoundRect,0.062500X0.220971X0.309359X-0.309359X-0.220971X-0.220971X-0.309359X0.309359X0.220971X0*%
G04 #@! TD*
G04 #@! TA.AperFunction,SMDPad,CuDef*
%ADD20RoundRect,0.062500X-0.220971X0.309359X-0.309359X0.220971X0.220971X-0.309359X0.309359X-0.220971X0*%
G04 #@! TD*
G04 #@! TA.AperFunction,ComponentPad*
%ADD21C,0.500000*%
G04 #@! TD*
G04 #@! TA.AperFunction,SMDPad,CuDef*
%ADD22RotRect,2.600000X2.600000X225.000000*%
G04 #@! TD*
G04 #@! TA.AperFunction,ViaPad*
%ADD23C,0.800000*%
G04 #@! TD*
G04 #@! TA.AperFunction,Conductor*
%ADD24C,0.250000*%
G04 #@! TD*
G04 APERTURE END LIST*
D10*
X99619619Y-77519619D02*
X99160000Y-77060000D01*
X96681689Y-74232763D02*
X96648965Y-73917981D01*
X97752316Y-76320568D02*
X97446606Y-76118285D01*
X97920930Y-76013861D02*
X97652331Y-75835129D01*
X97508323Y-71486662D02*
X97809644Y-71303712D01*
X99442877Y-75999203D02*
X99160000Y-76010000D01*
X96929746Y-76134980D02*
X96655061Y-75832265D01*
X100044971Y-71524817D02*
X100314764Y-71659493D01*
X98791144Y-76679794D02*
X98429846Y-76603760D01*
X100990739Y-72245481D02*
X101160213Y-72490626D01*
X97240881Y-76401440D02*
X96929746Y-76134980D01*
X99996011Y-75871522D02*
X99723034Y-75952872D01*
X101838704Y-73928530D02*
X101789583Y-74261620D01*
X101399738Y-73032265D02*
X101466410Y-73320029D01*
X97302599Y-71203506D02*
X97641031Y-70997005D01*
X99897117Y-76630880D02*
X99530610Y-76693683D01*
X99506922Y-71013827D02*
X99846633Y-71085742D01*
X101260419Y-72022382D02*
X101455728Y-72303087D01*
X96421000Y-75498222D02*
X96231075Y-75138248D01*
X100708814Y-75891760D02*
X100426049Y-76062934D01*
X96864454Y-74840202D02*
X96753827Y-74541813D01*
X99160000Y-76710000D02*
X98791144Y-76679794D01*
X96908790Y-72700661D02*
X97065222Y-72430614D01*
X100483377Y-71352786D02*
X100770532Y-71543293D01*
X102065478Y-72815953D02*
X102154012Y-73188862D01*
X99486744Y-76346443D02*
X99160000Y-76360000D01*
X101496381Y-73613007D02*
X101489394Y-73906553D01*
X97065222Y-72430614D02*
X97253750Y-72183013D01*
X96014716Y-73160005D02*
X96121374Y-72772691D01*
X96992039Y-71451356D02*
X97302599Y-71203506D01*
X101569554Y-74893850D02*
X101402535Y-75183156D01*
X96337889Y-74298347D02*
X96299655Y-73939958D01*
X101297201Y-72754309D02*
X101399738Y-73032265D01*
X96299655Y-73939958D02*
X96306642Y-73580482D01*
X96648965Y-73917981D02*
X96655951Y-73602459D01*
X100914539Y-76174916D02*
X100594662Y-76369641D01*
X99160000Y-77060000D02*
X98747278Y-77027034D01*
X101252865Y-74744828D02*
X101107020Y-74995617D01*
X100124854Y-76196944D02*
X99810075Y-76291876D01*
X96984071Y-71959915D02*
X97231631Y-71706495D01*
X101402535Y-75183156D02*
X101201090Y-75448536D01*
X101613891Y-72605287D02*
X101732608Y-72924109D01*
X97446606Y-76118285D02*
X97169337Y-75879841D01*
X97408929Y-75624702D02*
X97194421Y-75386069D01*
X96592101Y-72551638D02*
X96769708Y-72243074D01*
X98767456Y-70652697D02*
X99160000Y-70635000D01*
X101208165Y-75941074D02*
X100914539Y-76174916D01*
X96655061Y-75832265D02*
X96421000Y-75498222D01*
X96306642Y-73580482D02*
X96358517Y-73225588D01*
X100651991Y-71046078D02*
X100976256Y-71260137D01*
X101160213Y-72490626D02*
X101297201Y-72754309D01*
X101699321Y-74585075D02*
X101569554Y-74893850D01*
X100968573Y-75685935D02*
X100708814Y-75891760D01*
X98259567Y-71485767D02*
X98553445Y-71397626D01*
X102188013Y-73950506D02*
X102133384Y-74327203D01*
X98081763Y-76483315D02*
X97752316Y-76320568D01*
X101466410Y-73320029D02*
X101496381Y-73613007D01*
X96655951Y-73602459D02*
X96702317Y-73291172D01*
X96088087Y-74758125D02*
X95994088Y-74363930D01*
X100314764Y-71659493D02*
X100564807Y-71826449D01*
X99160000Y-76360000D02*
X98835011Y-76332553D01*
X100770532Y-71543293D02*
X101030867Y-71767729D01*
X102133384Y-74327203D02*
X102032191Y-74693231D01*
X98001880Y-70834923D02*
X98379362Y-70719617D01*
X101751242Y-72115548D02*
X101930580Y-72456264D01*
X99810075Y-76291876D02*
X99486744Y-76346443D01*
X97583702Y-76627275D02*
X97240881Y-76401440D01*
X101470769Y-75671635D02*
X101208165Y-75941074D01*
X99933674Y-70746738D02*
X100302659Y-70873974D01*
X98466404Y-71058622D02*
X98811323Y-70999937D01*
X100728982Y-75430796D02*
X100503089Y-75608604D01*
X98553445Y-71397626D02*
X98855190Y-71347177D01*
X100976256Y-71260137D02*
X101270459Y-71512590D01*
X96753827Y-74541813D02*
X96681689Y-74232763D01*
X99160000Y-70635000D02*
X99550789Y-70666586D01*
X96454244Y-72880847D02*
X96592101Y-72551638D01*
X98835011Y-76332553D02*
X98516888Y-76264756D01*
X96121374Y-72772691D02*
X96275411Y-72402616D01*
X95957332Y-73558505D02*
X96014716Y-73160005D01*
X98855190Y-71347177D02*
X99160000Y-71335000D01*
X100426049Y-76062934D02*
X100124854Y-76196944D01*
X100302659Y-70873974D02*
X100651991Y-71046078D01*
X101810211Y-73254445D02*
X101845690Y-73591031D01*
X98811323Y-70999937D02*
X99160000Y-70985000D01*
X97169337Y-75879841D02*
X96924741Y-75609167D01*
X97231631Y-71706495D02*
X97508323Y-71486662D01*
X96275411Y-72402616D02*
X96474193Y-72055535D01*
X98342805Y-76942764D02*
X97952920Y-76808737D01*
X102032191Y-74693231D02*
X101886244Y-75042873D01*
X102154012Y-73188862D02*
X102194999Y-73569054D01*
X99723034Y-75952872D02*
X99442877Y-75999203D01*
X101789583Y-74261620D02*
X101699321Y-74585075D01*
X97809644Y-71303712D02*
X98130724Y-71160345D01*
X101845690Y-73591031D02*
X101838704Y-73928530D01*
X96702317Y-73291172D02*
X96787114Y-72989003D01*
X98429846Y-76603760D02*
X98081763Y-76483315D01*
X96924741Y-75609167D02*
X96716515Y-75310683D01*
X102194999Y-73569054D02*
X102188013Y-73950506D01*
X101366451Y-74476919D02*
X101252865Y-74744828D01*
X98130724Y-71160345D02*
X98466404Y-71058622D01*
X99160000Y-71335000D02*
X99463056Y-71361067D01*
X99759591Y-71424746D02*
X100044971Y-71524817D01*
X97012030Y-75123143D02*
X96864454Y-74840202D01*
X97652331Y-75835129D02*
X97408929Y-75624702D01*
X96420957Y-74649969D02*
X96337889Y-74298347D01*
X101107020Y-74995617D02*
X100931410Y-75225438D01*
X100173815Y-71199396D02*
X100483377Y-71352786D01*
X99160000Y-70985000D02*
X99506922Y-71013827D01*
X96547764Y-74989225D02*
X96420957Y-74649969D01*
X97641031Y-70997005D02*
X98001880Y-70834923D01*
X101530099Y-71799284D02*
X101751242Y-72115548D01*
X100931410Y-75225438D02*
X100728982Y-75430796D01*
X99846633Y-71085742D02*
X100173815Y-71199396D01*
X100594662Y-76369641D02*
X100253698Y-76522366D01*
X96769708Y-72243074D02*
X96984071Y-71959915D01*
X96358517Y-73225588D02*
X96454244Y-72880847D01*
X101489394Y-73906553D02*
X101445782Y-74196036D01*
X101732608Y-72924109D02*
X101810211Y-73254445D01*
X101930580Y-72456264D02*
X102065478Y-72815953D01*
X97194421Y-75386069D02*
X97012030Y-75123143D01*
X100503089Y-75608604D02*
X100257435Y-75756227D01*
X99530610Y-76693683D02*
X99160000Y-76710000D01*
X101201090Y-75448536D02*
X100968573Y-75685935D01*
X100564807Y-71826449D02*
X100791276Y-72022868D01*
X100257435Y-75756227D02*
X99996011Y-75871522D01*
X101270459Y-71512590D02*
X101530099Y-71799284D01*
X101030867Y-71767729D02*
X101260419Y-72022382D01*
X97471222Y-71961634D02*
X97714048Y-71769818D01*
X97714048Y-71769818D02*
X97978258Y-71610420D01*
X98516888Y-76264756D02*
X98210607Y-76157894D01*
X97253750Y-72183013D02*
X97471222Y-71961634D01*
X101445782Y-74196036D02*
X101366451Y-74476919D01*
X96714391Y-71736816D02*
X96992039Y-71451356D01*
X99550789Y-70666586D02*
X99933674Y-70746738D01*
X98747278Y-77027034D02*
X98342805Y-76942764D01*
X95994088Y-74363930D02*
X95950346Y-73961934D01*
X101886244Y-75042873D02*
X101698050Y-75370695D01*
X98379362Y-70719617D02*
X98767456Y-70652697D01*
X96474193Y-72055535D02*
X96714391Y-71736816D01*
X96787114Y-72989003D02*
X96908790Y-72700661D01*
X95950346Y-73961934D02*
X95957332Y-73558505D01*
X101698050Y-75370695D02*
X101470769Y-75671635D01*
X101455728Y-72303087D02*
X101613891Y-72605287D01*
X100253698Y-76522366D02*
X99897117Y-76630880D01*
X97978258Y-71610420D02*
X98259567Y-71485767D01*
X98210607Y-76157894D02*
X97920930Y-76013861D01*
X97952920Y-76808737D02*
X97583702Y-76627275D01*
X100791276Y-72022868D02*
X100990739Y-72245481D01*
X99463056Y-71361067D02*
X99759591Y-71424746D01*
X96716515Y-75310683D02*
X96547764Y-74989225D01*
X96231075Y-75138248D02*
X96088087Y-74758125D01*
X115236011Y-75871522D02*
X114963034Y-75952872D01*
X114400000Y-70635000D02*
X114790789Y-70666586D01*
X115050075Y-76291876D02*
X114726744Y-76346443D01*
X117078704Y-73928530D02*
X117029583Y-74261620D01*
X114770610Y-76693683D02*
X114400000Y-76710000D01*
X114999591Y-71424746D02*
X115284971Y-71524817D01*
X112169746Y-76134980D02*
X111895061Y-75832265D01*
X112104454Y-74840202D02*
X111993827Y-74541813D01*
X113619362Y-70719617D02*
X114007456Y-70652697D01*
X112409337Y-75879841D02*
X112164741Y-75609167D01*
X117272191Y-74693231D02*
X117126244Y-75042873D01*
X112305222Y-72430614D02*
X112493750Y-72183013D01*
X117305478Y-72815953D02*
X117394012Y-73188862D01*
X112480881Y-76401440D02*
X112169746Y-76134980D01*
X113218258Y-71610420D02*
X113499567Y-71485767D01*
X114703056Y-71361067D02*
X114999591Y-71424746D01*
X113499567Y-71485767D02*
X113793445Y-71397626D01*
X117434999Y-73569054D02*
X117428013Y-73950506D01*
X116939321Y-74585075D02*
X116809554Y-74893850D01*
X114790789Y-70666586D02*
X115173674Y-70746738D01*
X115413815Y-71199396D02*
X115723377Y-71352786D01*
X115554764Y-71659493D02*
X115804807Y-71826449D01*
X114095190Y-71347177D02*
X114400000Y-71335000D01*
X112748323Y-71486662D02*
X113049644Y-71303712D01*
X116400213Y-72490626D02*
X116537201Y-72754309D01*
X111515411Y-72402616D02*
X111714193Y-72055535D01*
X111895951Y-73602459D02*
X111942317Y-73291172D01*
X116216256Y-71260137D02*
X116510459Y-71512590D01*
X113321763Y-76483315D02*
X112992316Y-76320568D01*
X112232039Y-71451356D02*
X112542599Y-71203506D01*
X111993827Y-74541813D02*
X111921689Y-74232763D01*
X111942317Y-73291172D02*
X112027114Y-72989003D01*
X111787764Y-74989225D02*
X111660957Y-74649969D01*
X115284971Y-71524817D02*
X115554764Y-71659493D01*
X116171410Y-75225438D02*
X115968982Y-75430796D01*
X117085690Y-73591031D02*
X117078704Y-73928530D01*
X114726744Y-76346443D02*
X114400000Y-76360000D01*
X111471075Y-75138248D02*
X111328087Y-74758125D01*
X117170580Y-72456264D02*
X117305478Y-72815953D01*
X113160930Y-76013861D02*
X112892331Y-75835129D01*
X116853891Y-72605287D02*
X116972608Y-72924109D01*
X111254716Y-73160005D02*
X111361374Y-72772691D01*
X113793445Y-71397626D02*
X114095190Y-71347177D01*
X114400000Y-76360000D02*
X114075011Y-76332553D01*
X113241880Y-70834923D02*
X113619362Y-70719617D01*
X115497435Y-75756227D02*
X115236011Y-75871522D01*
X113370724Y-71160345D02*
X113706404Y-71058622D01*
X116991242Y-72115548D02*
X117170580Y-72456264D01*
X116729394Y-73906553D02*
X116685782Y-74196036D01*
X113669846Y-76603760D02*
X113321763Y-76483315D01*
X117050211Y-73254445D02*
X117085690Y-73591031D01*
X111954391Y-71736816D02*
X112232039Y-71451356D01*
X112954048Y-71769818D02*
X113218258Y-71610420D01*
X115891991Y-71046078D02*
X116216256Y-71260137D01*
X116809554Y-74893850D02*
X116642535Y-75183156D01*
X111956515Y-75310683D02*
X111787764Y-74989225D01*
X115666049Y-76062934D02*
X115364854Y-76196944D01*
X114031144Y-76679794D02*
X113669846Y-76603760D01*
X116710769Y-75671635D02*
X116448165Y-75941074D01*
X116270867Y-71767729D02*
X116500419Y-72022382D01*
X111577889Y-74298347D02*
X111539655Y-73939958D01*
X111921689Y-74232763D02*
X111888965Y-73917981D01*
X112542599Y-71203506D02*
X112881031Y-70997005D01*
X116230739Y-72245481D02*
X116400213Y-72490626D01*
X115542659Y-70873974D02*
X115891991Y-71046078D01*
X114400000Y-70985000D02*
X114746922Y-71013827D01*
X111190346Y-73961934D02*
X111197332Y-73558505D01*
X116441090Y-75448536D02*
X116208573Y-75685935D01*
X113450607Y-76157894D02*
X113160930Y-76013861D01*
X111661000Y-75498222D02*
X111471075Y-75138248D01*
X113049644Y-71303712D02*
X113370724Y-71160345D01*
X113582805Y-76942764D02*
X113192920Y-76808737D01*
X114400000Y-77060000D02*
X113987278Y-77027034D01*
X116972608Y-72924109D02*
X117050211Y-73254445D01*
X116642535Y-75183156D02*
X116441090Y-75448536D01*
X117029583Y-74261620D02*
X116939321Y-74585075D01*
X115804807Y-71826449D02*
X116031276Y-72022868D01*
X115834662Y-76369641D02*
X115493698Y-76522366D01*
X114682877Y-75999203D02*
X114400000Y-76010000D01*
X116606451Y-74476919D02*
X116492865Y-74744828D01*
X112164741Y-75609167D02*
X111956515Y-75310683D01*
X111888965Y-73917981D02*
X111895951Y-73602459D01*
X116736381Y-73613007D02*
X116729394Y-73906553D01*
X112148790Y-72700661D02*
X112305222Y-72430614D01*
X116208573Y-75685935D02*
X115948814Y-75891760D01*
X113756888Y-76264756D02*
X113450607Y-76157894D01*
X115743089Y-75608604D02*
X115497435Y-75756227D01*
X114400000Y-76710000D02*
X114031144Y-76679794D01*
X112686606Y-76118285D02*
X112409337Y-75879841D01*
X111895061Y-75832265D02*
X111661000Y-75498222D01*
X116706410Y-73320029D02*
X116736381Y-73613007D01*
X116938050Y-75370695D02*
X116710769Y-75671635D01*
X112027114Y-72989003D02*
X112148790Y-72700661D01*
X116639738Y-73032265D02*
X116706410Y-73320029D01*
X117394012Y-73188862D02*
X117434999Y-73569054D01*
X115173674Y-70746738D02*
X115542659Y-70873974D01*
X116537201Y-72754309D02*
X116639738Y-73032265D01*
X116448165Y-75941074D02*
X116154539Y-76174916D01*
X112711222Y-71961634D02*
X112954048Y-71769818D01*
X115086633Y-71085742D02*
X115413815Y-71199396D01*
X116510459Y-71512590D02*
X116770099Y-71799284D01*
X111694244Y-72880847D02*
X111832101Y-72551638D01*
X114746922Y-71013827D02*
X115086633Y-71085742D01*
X114007456Y-70652697D02*
X114400000Y-70635000D01*
X116154539Y-76174916D02*
X115834662Y-76369641D01*
X114963034Y-75952872D02*
X114682877Y-75999203D01*
X115948814Y-75891760D02*
X115666049Y-76062934D01*
X112881031Y-70997005D02*
X113241880Y-70834923D01*
X112892331Y-75835129D02*
X112648929Y-75624702D01*
X116010532Y-71543293D02*
X116270867Y-71767729D01*
X115137117Y-76630880D02*
X114770610Y-76693683D01*
X112471631Y-71706495D02*
X112748323Y-71486662D01*
X116770099Y-71799284D02*
X116991242Y-72115548D01*
X116492865Y-74744828D02*
X116347020Y-74995617D01*
X111328087Y-74758125D02*
X111234088Y-74363930D01*
X113987278Y-77027034D02*
X113582805Y-76942764D01*
X111660957Y-74649969D02*
X111577889Y-74298347D01*
X117428013Y-73950506D02*
X117373384Y-74327203D01*
X111546642Y-73580482D02*
X111598517Y-73225588D01*
X115364854Y-76196944D02*
X115050075Y-76291876D01*
X112434421Y-75386069D02*
X112252030Y-75123143D01*
X112493750Y-72183013D02*
X112711222Y-71961634D01*
X111361374Y-72772691D02*
X111515411Y-72402616D01*
X115968982Y-75430796D02*
X115743089Y-75608604D01*
X116685782Y-74196036D02*
X116606451Y-74476919D01*
X112823702Y-76627275D02*
X112480881Y-76401440D01*
X117126244Y-75042873D02*
X116938050Y-75370695D01*
X111197332Y-73558505D02*
X111254716Y-73160005D01*
X112009708Y-72243074D02*
X112224071Y-71959915D01*
X116347020Y-74995617D02*
X116171410Y-75225438D01*
X116695728Y-72303087D02*
X116853891Y-72605287D01*
X114400000Y-71335000D02*
X114703056Y-71361067D01*
X116031276Y-72022868D02*
X116230739Y-72245481D01*
X115723377Y-71352786D02*
X116010532Y-71543293D01*
X114051323Y-70999937D02*
X114400000Y-70985000D01*
X111714193Y-72055535D02*
X111954391Y-71736816D01*
X115493698Y-76522366D02*
X115137117Y-76630880D01*
X117373384Y-74327203D02*
X117272191Y-74693231D01*
X111234088Y-74363930D02*
X111190346Y-73961934D01*
X112252030Y-75123143D02*
X112104454Y-74840202D01*
X112224071Y-71959915D02*
X112471631Y-71706495D01*
X111598517Y-73225588D02*
X111694244Y-72880847D01*
X114859619Y-77519619D02*
X114400000Y-77060000D01*
X112992316Y-76320568D02*
X112686606Y-76118285D01*
X113706404Y-71058622D02*
X114051323Y-70999937D01*
X114075011Y-76332553D02*
X113756888Y-76264756D01*
X111832101Y-72551638D02*
X112009708Y-72243074D01*
X113192920Y-76808737D02*
X112823702Y-76627275D01*
X112648929Y-75624702D02*
X112434421Y-75386069D01*
X111539655Y-73939958D02*
X111546642Y-73580482D01*
X116500419Y-72022382D02*
X116695728Y-72303087D01*
X99550789Y-55426586D02*
X99933674Y-55506738D01*
X98835011Y-61092553D02*
X98516888Y-61024756D01*
X96992039Y-56211356D02*
X97302599Y-55963506D01*
X101470769Y-60431635D02*
X101208165Y-60701074D01*
X100914539Y-60934916D02*
X100594662Y-61129641D01*
X99723034Y-60712872D02*
X99442877Y-60759203D01*
X97641031Y-55757005D02*
X98001880Y-55594923D01*
X101930580Y-57216264D02*
X102065478Y-57575953D01*
X96088087Y-59518125D02*
X95994088Y-59123930D01*
X99506922Y-55773827D02*
X99846633Y-55845742D01*
X99933674Y-55506738D02*
X100302659Y-55633974D01*
X96655951Y-58362459D02*
X96702317Y-58051172D01*
X100044971Y-56284817D02*
X100314764Y-56419493D01*
X101613891Y-57365287D02*
X101732608Y-57684109D01*
X96592101Y-57311638D02*
X96769708Y-57003074D01*
X101455728Y-57063087D02*
X101613891Y-57365287D01*
X96681689Y-58992763D02*
X96648965Y-58677981D01*
X98855190Y-56107177D02*
X99160000Y-56095000D01*
X99759591Y-56184746D02*
X100044971Y-56284817D01*
X100708814Y-60651760D02*
X100426049Y-60822934D01*
X96014716Y-57920005D02*
X96121374Y-57532691D01*
X100426049Y-60822934D02*
X100124854Y-60956944D01*
X96984071Y-56719915D02*
X97231631Y-56466495D01*
X100503089Y-60368604D02*
X100257435Y-60516227D01*
X95957332Y-58318505D02*
X96014716Y-57920005D01*
X98379362Y-55479617D02*
X98767456Y-55412697D01*
X99463056Y-56121067D02*
X99759591Y-56184746D01*
X97978258Y-56370420D02*
X98259567Y-56245767D01*
X100594662Y-61129641D02*
X100253698Y-61282366D01*
X97583702Y-61387275D02*
X97240881Y-61161440D01*
X97408929Y-60384702D02*
X97194421Y-60146069D01*
X99897117Y-61390880D02*
X99530610Y-61453683D01*
X96787114Y-57749003D02*
X96908790Y-57460661D01*
X101838704Y-58688530D02*
X101789583Y-59021620D01*
X96702317Y-58051172D02*
X96787114Y-57749003D01*
X102188013Y-58710506D02*
X102133384Y-59087203D01*
X98001880Y-55594923D02*
X98379362Y-55479617D01*
X98767456Y-55412697D02*
X99160000Y-55395000D01*
X100173815Y-55959396D02*
X100483377Y-56112786D01*
X101530099Y-56559284D02*
X101751242Y-56875548D01*
X99619619Y-62279619D02*
X99160000Y-61820000D01*
X97231631Y-56466495D02*
X97508323Y-56246662D01*
X99810075Y-61051876D02*
X99486744Y-61106443D01*
X98516888Y-61024756D02*
X98210607Y-60917894D01*
X100770532Y-56303293D02*
X101030867Y-56527729D01*
X96714391Y-56496816D02*
X96992039Y-56211356D01*
X96769708Y-57003074D02*
X96984071Y-56719915D01*
X101810211Y-58014445D02*
X101845690Y-58351031D01*
X100791276Y-56782868D02*
X100990739Y-57005481D01*
X101252865Y-59504828D02*
X101107020Y-59755617D01*
X97652331Y-60595129D02*
X97408929Y-60384702D01*
X96231075Y-59898248D02*
X96088087Y-59518125D01*
X96753827Y-59301813D02*
X96681689Y-58992763D01*
X98081763Y-61243315D02*
X97752316Y-61080568D01*
X96306642Y-58340482D02*
X96358517Y-57985588D01*
X96454244Y-57640847D02*
X96592101Y-57311638D01*
X101699321Y-59345075D02*
X101569554Y-59653850D01*
X100968573Y-60445935D02*
X100708814Y-60651760D01*
X99160000Y-56095000D02*
X99463056Y-56121067D01*
X101366451Y-59236919D02*
X101252865Y-59504828D01*
X98466404Y-55818622D02*
X98811323Y-55759937D01*
X99160000Y-55395000D02*
X99550789Y-55426586D01*
X101466410Y-58080029D02*
X101496381Y-58373007D01*
X99486744Y-61106443D02*
X99160000Y-61120000D01*
X100651991Y-55806078D02*
X100976256Y-56020137D01*
X98130724Y-55920345D02*
X98466404Y-55818622D01*
X101201090Y-60208536D02*
X100968573Y-60445935D01*
X101489394Y-58666553D02*
X101445782Y-58956036D01*
X97446606Y-60878285D02*
X97169337Y-60639841D01*
X101886244Y-59802873D02*
X101698050Y-60130695D01*
X100564807Y-56586449D02*
X100791276Y-56782868D01*
X98553445Y-56157626D02*
X98855190Y-56107177D01*
X96547764Y-59749225D02*
X96420957Y-59409969D01*
X99160000Y-55745000D02*
X99506922Y-55773827D01*
X101208165Y-60701074D02*
X100914539Y-60934916D01*
X101569554Y-59653850D02*
X101402535Y-59943156D01*
X101160213Y-57250626D02*
X101297201Y-57514309D01*
X100302659Y-55633974D02*
X100651991Y-55806078D01*
X97752316Y-61080568D02*
X97446606Y-60878285D01*
X101107020Y-59755617D02*
X100931410Y-59985438D01*
X100253698Y-61282366D02*
X99897117Y-61390880D01*
X100124854Y-60956944D02*
X99810075Y-61051876D01*
X98747278Y-61787034D02*
X98342805Y-61702764D01*
X100931410Y-59985438D02*
X100728982Y-60190796D01*
X97253750Y-56943013D02*
X97471222Y-56721634D01*
X98342805Y-61702764D02*
X97952920Y-61568737D01*
X99996011Y-60631522D02*
X99723034Y-60712872D01*
X98210607Y-60917894D02*
X97920930Y-60773861D01*
X99442877Y-60759203D02*
X99160000Y-60770000D01*
X97809644Y-56063712D02*
X98130724Y-55920345D01*
X96337889Y-59058347D02*
X96299655Y-58699958D01*
X101845690Y-58351031D02*
X101838704Y-58688530D01*
X96420957Y-59409969D02*
X96337889Y-59058347D01*
X96929746Y-60894980D02*
X96655061Y-60592265D01*
X100976256Y-56020137D02*
X101270459Y-56272590D01*
X100728982Y-60190796D02*
X100503089Y-60368604D01*
X101698050Y-60130695D02*
X101470769Y-60431635D01*
X102154012Y-57948862D02*
X102194999Y-58329054D01*
X101260419Y-56782382D02*
X101455728Y-57063087D01*
X95994088Y-59123930D02*
X95950346Y-58721934D01*
X102133384Y-59087203D02*
X102032191Y-59453231D01*
X101399738Y-57792265D02*
X101466410Y-58080029D01*
X96655061Y-60592265D02*
X96421000Y-60258222D01*
X99846633Y-55845742D02*
X100173815Y-55959396D01*
X97471222Y-56721634D02*
X97714048Y-56529818D01*
X95950346Y-58721934D02*
X95957332Y-58318505D01*
X97302599Y-55963506D02*
X97641031Y-55757005D01*
X102194999Y-58329054D02*
X102188013Y-58710506D01*
X97240881Y-61161440D02*
X96929746Y-60894980D01*
X101445782Y-58956036D02*
X101366451Y-59236919D01*
X101751242Y-56875548D02*
X101930580Y-57216264D01*
X100257435Y-60516227D02*
X99996011Y-60631522D01*
X101402535Y-59943156D02*
X101201090Y-60208536D01*
X97714048Y-56529818D02*
X97978258Y-56370420D01*
X96421000Y-60258222D02*
X96231075Y-59898248D01*
X96275411Y-57162616D02*
X96474193Y-56815535D01*
X96299655Y-58699958D02*
X96306642Y-58340482D01*
X99160000Y-61820000D02*
X98747278Y-61787034D01*
X98259567Y-56245767D02*
X98553445Y-56157626D01*
X99160000Y-61120000D02*
X98835011Y-61092553D01*
X101732608Y-57684109D02*
X101810211Y-58014445D01*
X102065478Y-57575953D02*
X102154012Y-57948862D01*
X102032191Y-59453231D02*
X101886244Y-59802873D01*
X101270459Y-56272590D02*
X101530099Y-56559284D01*
X100314764Y-56419493D02*
X100564807Y-56586449D01*
X96864454Y-59600202D02*
X96753827Y-59301813D01*
X98791144Y-61439794D02*
X98429846Y-61363760D01*
X97012030Y-59883143D02*
X96864454Y-59600202D01*
X96908790Y-57460661D02*
X97065222Y-57190614D01*
X96716515Y-60070683D02*
X96547764Y-59749225D01*
X96924741Y-60369167D02*
X96716515Y-60070683D01*
X96474193Y-56815535D02*
X96714391Y-56496816D01*
X98429846Y-61363760D02*
X98081763Y-61243315D01*
X101297201Y-57514309D02*
X101399738Y-57792265D01*
X100483377Y-56112786D02*
X100770532Y-56303293D01*
X97920930Y-60773861D02*
X97652331Y-60595129D01*
X101789583Y-59021620D02*
X101699321Y-59345075D01*
X101496381Y-58373007D02*
X101489394Y-58666553D01*
X97508323Y-56246662D02*
X97809644Y-56063712D01*
X96121374Y-57532691D02*
X96275411Y-57162616D01*
X97169337Y-60639841D02*
X96924741Y-60369167D01*
X97952920Y-61568737D02*
X97583702Y-61387275D01*
X99160000Y-61470000D02*
X98791144Y-61439794D01*
X101030867Y-56527729D02*
X101260419Y-56782382D01*
X96358517Y-57985588D02*
X96454244Y-57640847D01*
X99530610Y-61453683D02*
X99160000Y-61470000D01*
X100990739Y-57005481D02*
X101160213Y-57250626D01*
X97065222Y-57190614D02*
X97253750Y-56943013D01*
X96648965Y-58677981D02*
X96655951Y-58362459D01*
X98811323Y-55759937D02*
X99160000Y-55745000D01*
X97194421Y-60146069D02*
X97012030Y-59883143D01*
X116537201Y-57514309D02*
X116639738Y-57792265D01*
X111954391Y-56496816D02*
X112232039Y-56211356D01*
X114400000Y-61470000D02*
X114031144Y-61439794D01*
X116171410Y-59985438D02*
X115968982Y-60190796D01*
X111787764Y-59749225D02*
X111660957Y-59409969D01*
X115050075Y-61051876D02*
X114726744Y-61106443D01*
X114746922Y-55773827D02*
X115086633Y-55845742D01*
X113218258Y-56370420D02*
X113499567Y-56245767D01*
X114400000Y-55395000D02*
X114790789Y-55426586D01*
X116208573Y-60445935D02*
X115948814Y-60651760D01*
X113321763Y-61243315D02*
X112992316Y-61080568D01*
X117428013Y-58710506D02*
X117373384Y-59087203D01*
X116216256Y-56020137D02*
X116510459Y-56272590D01*
X114075011Y-61092553D02*
X113756888Y-61024756D01*
X111546642Y-58340482D02*
X111598517Y-57985588D01*
X116939321Y-59345075D02*
X116809554Y-59653850D01*
X117394012Y-57948862D02*
X117434999Y-58329054D01*
X112305222Y-57190614D02*
X112493750Y-56943013D01*
X117085690Y-58351031D02*
X117078704Y-58688530D01*
X113756888Y-61024756D02*
X113450607Y-60917894D01*
X116710769Y-60431635D02*
X116448165Y-60701074D01*
X113669846Y-61363760D02*
X113321763Y-61243315D01*
X117305478Y-57575953D02*
X117394012Y-57948862D01*
X116642535Y-59943156D02*
X116441090Y-60208536D01*
X116510459Y-56272590D02*
X116770099Y-56559284D01*
X112992316Y-61080568D02*
X112686606Y-60878285D01*
X116606451Y-59236919D02*
X116492865Y-59504828D01*
X116639738Y-57792265D02*
X116706410Y-58080029D01*
X117078704Y-58688530D02*
X117029583Y-59021620D01*
X114726744Y-61106443D02*
X114400000Y-61120000D01*
X116809554Y-59653850D02*
X116642535Y-59943156D01*
X111539655Y-58699958D02*
X111546642Y-58340482D01*
X112232039Y-56211356D02*
X112542599Y-55963506D01*
X111328087Y-59518125D02*
X111234088Y-59123930D01*
X113706404Y-55818622D02*
X114051323Y-55759937D01*
X113450607Y-60917894D02*
X113160930Y-60773861D01*
X115493698Y-61282366D02*
X115137117Y-61390880D01*
X112711222Y-56721634D02*
X112954048Y-56529818D01*
X115236011Y-60631522D02*
X114963034Y-60712872D01*
X114051323Y-55759937D02*
X114400000Y-55745000D01*
X113987278Y-61787034D02*
X113582805Y-61702764D01*
X116685782Y-58956036D02*
X116606451Y-59236919D01*
X112027114Y-57749003D02*
X112148790Y-57460661D01*
X116010532Y-56303293D02*
X116270867Y-56527729D01*
X115804807Y-56586449D02*
X116031276Y-56782868D01*
X112686606Y-60878285D02*
X112409337Y-60639841D01*
X114007456Y-55412697D02*
X114400000Y-55395000D01*
X117272191Y-59453231D02*
X117126244Y-59802873D01*
X111993827Y-59301813D02*
X111921689Y-58992763D01*
X111661000Y-60258222D02*
X111471075Y-59898248D01*
X111888965Y-58677981D02*
X111895951Y-58362459D01*
X115173674Y-55506738D02*
X115542659Y-55633974D01*
X111942317Y-58051172D02*
X112027114Y-57749003D01*
X113582805Y-61702764D02*
X113192920Y-61568737D01*
X115948814Y-60651760D02*
X115666049Y-60822934D01*
X114400000Y-61820000D02*
X113987278Y-61787034D01*
X116695728Y-57063087D02*
X116853891Y-57365287D01*
X111598517Y-57985588D02*
X111694244Y-57640847D01*
X114095190Y-56107177D02*
X114400000Y-56095000D01*
X112009708Y-57003074D02*
X112224071Y-56719915D01*
X116736381Y-58373007D02*
X116729394Y-58666553D01*
X112224071Y-56719915D02*
X112471631Y-56466495D01*
X112493750Y-56943013D02*
X112711222Y-56721634D01*
X115542659Y-55633974D02*
X115891991Y-55806078D01*
X115968982Y-60190796D02*
X115743089Y-60368604D01*
X115723377Y-56112786D02*
X116010532Y-56303293D01*
X112148790Y-57460661D02*
X112305222Y-57190614D01*
X111190346Y-58721934D02*
X111197332Y-58318505D01*
X112434421Y-60146069D02*
X112252030Y-59883143D01*
X111234088Y-59123930D02*
X111190346Y-58721934D01*
X114400000Y-55745000D02*
X114746922Y-55773827D01*
X111515411Y-57162616D02*
X111714193Y-56815535D01*
X116448165Y-60701074D02*
X116154539Y-60934916D01*
X114770610Y-61453683D02*
X114400000Y-61470000D01*
X116770099Y-56559284D02*
X116991242Y-56875548D01*
X116500419Y-56782382D02*
X116695728Y-57063087D01*
X114400000Y-56095000D02*
X114703056Y-56121067D01*
X114963034Y-60712872D02*
X114682877Y-60759203D01*
X112748323Y-56246662D02*
X113049644Y-56063712D01*
X111956515Y-60070683D02*
X111787764Y-59749225D01*
X112104454Y-59600202D02*
X111993827Y-59301813D01*
X111361374Y-57532691D02*
X111515411Y-57162616D01*
X114703056Y-56121067D02*
X114999591Y-56184746D01*
X115137117Y-61390880D02*
X114770610Y-61453683D01*
X115086633Y-55845742D02*
X115413815Y-55959396D01*
X112881031Y-55757005D02*
X113241880Y-55594923D01*
X114400000Y-61120000D02*
X114075011Y-61092553D01*
X111660957Y-59409969D02*
X111577889Y-59058347D01*
X117029583Y-59021620D02*
X116939321Y-59345075D01*
X115554764Y-56419493D02*
X115804807Y-56586449D01*
X112542599Y-55963506D02*
X112881031Y-55757005D01*
X114999591Y-56184746D02*
X115284971Y-56284817D01*
X111694244Y-57640847D02*
X111832101Y-57311638D01*
X116706410Y-58080029D02*
X116736381Y-58373007D01*
X116400213Y-57250626D02*
X116537201Y-57514309D01*
X115497435Y-60516227D02*
X115236011Y-60631522D01*
X117434999Y-58329054D02*
X117428013Y-58710506D01*
X116270867Y-56527729D02*
X116500419Y-56782382D01*
X116347020Y-59755617D02*
X116171410Y-59985438D01*
X114031144Y-61439794D02*
X113669846Y-61363760D01*
X113049644Y-56063712D02*
X113370724Y-55920345D01*
X116154539Y-60934916D02*
X115834662Y-61129641D01*
X117050211Y-58014445D02*
X117085690Y-58351031D01*
X114859619Y-62279619D02*
X114400000Y-61820000D01*
X111254716Y-57920005D02*
X111361374Y-57532691D01*
X116853891Y-57365287D02*
X116972608Y-57684109D01*
X114790789Y-55426586D02*
X115173674Y-55506738D01*
X111197332Y-58318505D02*
X111254716Y-57920005D01*
X112480881Y-61161440D02*
X112169746Y-60894980D01*
X115834662Y-61129641D02*
X115493698Y-61282366D01*
X112164741Y-60369167D02*
X111956515Y-60070683D01*
X113160930Y-60773861D02*
X112892331Y-60595129D01*
X112823702Y-61387275D02*
X112480881Y-61161440D01*
X115891991Y-55806078D02*
X116216256Y-56020137D01*
X117170580Y-57216264D02*
X117305478Y-57575953D01*
X115284971Y-56284817D02*
X115554764Y-56419493D01*
X112409337Y-60639841D02*
X112164741Y-60369167D01*
X112954048Y-56529818D02*
X113218258Y-56370420D01*
X117373384Y-59087203D02*
X117272191Y-59453231D01*
X115364854Y-60956944D02*
X115050075Y-61051876D01*
X113192920Y-61568737D02*
X112823702Y-61387275D01*
X112648929Y-60384702D02*
X112434421Y-60146069D01*
X113370724Y-55920345D02*
X113706404Y-55818622D01*
X111921689Y-58992763D02*
X111888965Y-58677981D01*
X112252030Y-59883143D02*
X112104454Y-59600202D01*
X116938050Y-60130695D02*
X116710769Y-60431635D01*
X112892331Y-60595129D02*
X112648929Y-60384702D01*
X116230739Y-57005481D02*
X116400213Y-57250626D01*
X117126244Y-59802873D02*
X116938050Y-60130695D01*
X112471631Y-56466495D02*
X112748323Y-56246662D01*
X111577889Y-59058347D02*
X111539655Y-58699958D01*
X113793445Y-56157626D02*
X114095190Y-56107177D01*
X114682877Y-60759203D02*
X114400000Y-60770000D01*
X113499567Y-56245767D02*
X113793445Y-56157626D01*
X115413815Y-55959396D02*
X115723377Y-56112786D01*
X113241880Y-55594923D02*
X113619362Y-55479617D01*
X112169746Y-60894980D02*
X111895061Y-60592265D01*
X116492865Y-59504828D02*
X116347020Y-59755617D01*
X111895061Y-60592265D02*
X111661000Y-60258222D01*
X116729394Y-58666553D02*
X116685782Y-58956036D01*
X116991242Y-56875548D02*
X117170580Y-57216264D01*
X111714193Y-56815535D02*
X111954391Y-56496816D01*
X111895951Y-58362459D02*
X111942317Y-58051172D01*
X116972608Y-57684109D02*
X117050211Y-58014445D01*
X111471075Y-59898248D02*
X111328087Y-59518125D01*
X115743089Y-60368604D02*
X115497435Y-60516227D01*
X113619362Y-55479617D02*
X114007456Y-55412697D01*
X116031276Y-56782868D02*
X116230739Y-57005481D01*
X115666049Y-60822934D02*
X115364854Y-60956944D01*
X116441090Y-60208536D02*
X116208573Y-60445935D01*
X111832101Y-57311638D02*
X112009708Y-57003074D01*
D11*
X99160000Y-76017000D03*
D12*
X96560000Y-69660000D03*
D13*
X95250000Y-71120000D03*
D14*
X101580000Y-68870000D03*
D11*
X98700381Y-77526619D03*
X99619619Y-77519619D03*
X114400000Y-76017000D03*
D12*
X111800000Y-69660000D03*
D13*
X110490000Y-71120000D03*
D14*
X116820000Y-68870000D03*
D11*
X113940381Y-77526619D03*
X114859619Y-77519619D03*
D15*
X87566667Y-58415000D03*
D16*
X87566667Y-60955000D03*
X87566667Y-63495000D03*
X87566667Y-66035000D03*
X87566667Y-68575000D03*
X87566667Y-71115000D03*
X87566667Y-73655000D03*
D11*
X99160000Y-60777000D03*
D12*
X96560000Y-54420000D03*
D13*
X95250000Y-55880000D03*
D14*
X101580000Y-53630000D03*
D11*
X98700381Y-62286619D03*
X99619619Y-62279619D03*
X114400000Y-60777000D03*
D12*
X111800000Y-54420000D03*
D13*
X110490000Y-55880000D03*
D14*
X116820000Y-53630000D03*
D11*
X113940381Y-62286619D03*
X114859619Y-62279619D03*
D17*
X113262500Y-63500000D03*
X115337500Y-63500000D03*
X98022500Y-78740000D03*
X100097500Y-78740000D03*
D18*
X91440000Y-65002500D03*
X91440000Y-67077500D03*
X95250000Y-65002500D03*
X95250000Y-67077500D03*
D17*
X98122500Y-63500000D03*
X100197500Y-63500000D03*
X113262500Y-78740000D03*
X115337500Y-78740000D03*
D19*
X107519689Y-64139651D03*
X107873243Y-64493204D03*
X108226796Y-64846757D03*
X108580349Y-65200311D03*
D20*
X108580349Y-66879689D03*
X108226796Y-67233243D03*
X107873243Y-67586796D03*
X107519689Y-67940349D03*
D19*
X105840311Y-67940349D03*
X105486757Y-67586796D03*
X105133204Y-67233243D03*
X104779651Y-66879689D03*
D20*
X104779651Y-65200311D03*
X105133204Y-64846757D03*
X105486757Y-64493204D03*
X105840311Y-64139651D03*
D21*
X105937538Y-65297538D03*
X106680000Y-67524924D03*
X107422462Y-65297538D03*
X106680000Y-64555076D03*
D22*
X106680000Y-66040000D03*
D21*
X105937538Y-66782462D03*
X108164924Y-66040000D03*
X106680000Y-66040000D03*
X105195076Y-66040000D03*
X107422462Y-66782462D03*
D23*
X98425000Y-67310000D03*
X106680101Y-69939500D03*
X110236000Y-66040000D03*
X110236000Y-63716500D03*
X110236000Y-64716003D03*
X110236000Y-67056000D03*
X110236000Y-68072000D03*
D24*
X105840311Y-67940349D02*
X105840311Y-71317811D01*
X113362500Y-78098000D02*
X113940381Y-77520119D01*
X113362500Y-78733500D02*
X113362500Y-78098000D01*
X105840311Y-71317811D02*
X113262500Y-78740000D01*
X115437500Y-78098000D02*
X114859619Y-77520119D01*
X114808000Y-80264000D02*
X115337500Y-79734500D01*
X111760000Y-80264000D02*
X114808000Y-80264000D01*
X111760000Y-78232000D02*
X111760000Y-80264000D01*
X115337500Y-79734500D02*
X115337500Y-78740000D01*
X105143933Y-67929620D02*
X105143933Y-71615933D01*
X105486757Y-67586796D02*
X105143933Y-67929620D01*
X105143933Y-71615933D02*
X111760000Y-78232000D01*
X115437500Y-78733500D02*
X115437500Y-78098000D01*
X102235000Y-78740000D02*
X103186109Y-77788891D01*
X103186109Y-77788891D02*
X103186109Y-68473231D01*
X100197500Y-78105000D02*
X99619619Y-77527119D01*
X103186109Y-68473231D02*
X104779651Y-66879689D01*
X100097500Y-78740000D02*
X102235000Y-78740000D01*
X100197500Y-78740500D02*
X100197500Y-78105000D01*
X102235000Y-80010000D02*
X99060000Y-80010000D01*
X98122500Y-78740500D02*
X98122500Y-78105000D01*
X98122500Y-78105000D02*
X98700381Y-77527119D01*
X105133204Y-67233243D02*
X103635629Y-68730818D01*
X98022500Y-78972500D02*
X98022500Y-78740000D01*
X103635629Y-68730818D02*
X103635629Y-78609371D01*
X99060000Y-80010000D02*
X98022500Y-78972500D01*
X103635629Y-78609371D02*
X102235000Y-80010000D01*
X99822811Y-65200311D02*
X98122500Y-63500000D01*
X104779651Y-65200311D02*
X99822811Y-65200311D01*
X98122500Y-62864500D02*
X98700381Y-62286619D01*
X98122500Y-63500000D02*
X98122500Y-62864500D01*
X101201433Y-64503933D02*
X100197500Y-63500000D01*
X105133204Y-64846757D02*
X104790380Y-64503933D01*
X100197500Y-63500000D02*
X100197500Y-62864500D01*
X100197500Y-62864500D02*
X99619619Y-62286619D01*
X104790380Y-64503933D02*
X101201433Y-64503933D01*
X113362500Y-63493000D02*
X113362500Y-62857500D01*
X113362500Y-62857500D02*
X113940381Y-62279619D01*
X112246500Y-62484000D02*
X113262500Y-63500000D01*
X104976577Y-63679423D02*
X106172000Y-62484000D01*
X104976577Y-64054413D02*
X104976577Y-63679423D01*
X105486757Y-64564592D02*
X104976577Y-64054413D01*
X105486757Y-64493204D02*
X105486757Y-64564592D01*
X106172000Y-62484000D02*
X112246500Y-62484000D01*
X115437500Y-63493000D02*
X115437500Y-62857500D01*
X115437500Y-62857500D02*
X114859619Y-62279619D01*
X111252000Y-62992000D02*
X111760000Y-63500000D01*
X111760000Y-65024000D02*
X113813500Y-65024000D01*
X105840311Y-64139651D02*
X105840311Y-63451407D01*
X106299718Y-62992000D02*
X111252000Y-62992000D01*
X113813500Y-65024000D02*
X115337500Y-63500000D01*
X111760000Y-63500000D02*
X111760000Y-65024000D01*
X105840311Y-63451407D02*
X106299718Y-62992000D01*
X107095425Y-67940349D02*
X106680000Y-67524924D01*
X105195076Y-66040000D02*
X103505000Y-66040000D01*
X107519689Y-67940349D02*
X107095425Y-67940349D01*
X107873243Y-67586796D02*
X108585000Y-68298553D01*
X98425000Y-67310000D02*
X95482500Y-67310000D01*
X108585000Y-68298553D02*
X108585000Y-68580000D01*
X108585000Y-68580000D02*
X107315000Y-69850000D01*
X106680000Y-69850000D02*
X106680000Y-69939399D01*
X95250000Y-67077500D02*
X91440000Y-67077500D01*
X106680000Y-69939399D02*
X106680101Y-69939500D01*
X95482500Y-67310000D02*
X95250000Y-67077500D01*
X91440000Y-67077500D02*
X91440000Y-69781667D01*
X91440000Y-69781667D02*
X87566667Y-73655000D01*
X107315000Y-69850000D02*
X106680000Y-69850000D01*
X108580349Y-65200311D02*
X109396311Y-65200311D01*
X109396311Y-65200311D02*
X110236000Y-66040000D01*
X108204000Y-63500000D02*
X110236000Y-63500000D01*
X107907174Y-63796826D02*
X108204000Y-63500000D01*
X107862514Y-63796826D02*
X107907174Y-63796826D01*
X110236000Y-63500000D02*
X110236000Y-63716500D01*
X107519689Y-64139651D02*
X107862514Y-63796826D01*
X109728000Y-64516000D02*
X110236000Y-64516000D01*
X109161520Y-63949520D02*
X109728000Y-64516000D01*
X107873243Y-64493204D02*
X108416927Y-63949520D01*
X108416927Y-63949520D02*
X109161520Y-63949520D01*
X110236000Y-64516000D02*
X110236000Y-64716003D01*
X108580349Y-66879689D02*
X110059689Y-66879689D01*
X110059689Y-66879689D02*
X110236000Y-67056000D01*
X108712000Y-67576067D02*
X109232067Y-67576067D01*
X109232067Y-67576067D02*
X109728000Y-68072000D01*
X108226796Y-67233243D02*
X108569620Y-67576067D01*
X109728000Y-68072000D02*
X110236000Y-68072000D01*
X108569620Y-67576067D02*
X108712000Y-67576067D01*
G04 #@! TA.AperFunction,Conductor*
G36*
X123894121Y-48788002D02*
G01*
X123940614Y-48841658D01*
X123952000Y-48894000D01*
X123952000Y-83186000D01*
X123931998Y-83254121D01*
X123878342Y-83300614D01*
X123826000Y-83312000D01*
X81914000Y-83312000D01*
X81845879Y-83291998D01*
X81799386Y-83238342D01*
X81788000Y-83186000D01*
X81788000Y-73621695D01*
X86203918Y-73621695D01*
X86204215Y-73626848D01*
X86204215Y-73626851D01*
X86209678Y-73721590D01*
X86216777Y-73844715D01*
X86217914Y-73849761D01*
X86217915Y-73849767D01*
X86237786Y-73937939D01*
X86265889Y-74062639D01*
X86349933Y-74269616D01*
X86352632Y-74274020D01*
X86447426Y-74428710D01*
X86466654Y-74460088D01*
X86612917Y-74628938D01*
X86784793Y-74771632D01*
X86977667Y-74884338D01*
X86982492Y-74886180D01*
X86982493Y-74886181D01*
X87002050Y-74893649D01*
X87186359Y-74964030D01*
X87191427Y-74965061D01*
X87191430Y-74965062D01*
X87298684Y-74986883D01*
X87405264Y-75008567D01*
X87410439Y-75008757D01*
X87410441Y-75008757D01*
X87623340Y-75016564D01*
X87623344Y-75016564D01*
X87628504Y-75016753D01*
X87633624Y-75016097D01*
X87633626Y-75016097D01*
X87844955Y-74989025D01*
X87844956Y-74989025D01*
X87850083Y-74988368D01*
X87855033Y-74986883D01*
X88059096Y-74925661D01*
X88059101Y-74925659D01*
X88064051Y-74924174D01*
X88264661Y-74825896D01*
X88446527Y-74696173D01*
X88604763Y-74538489D01*
X88627729Y-74506529D01*
X88732102Y-74361277D01*
X88735120Y-74357077D01*
X88834097Y-74156811D01*
X88884399Y-73991248D01*
X88897532Y-73948023D01*
X88897532Y-73948021D01*
X88899037Y-73943069D01*
X88928196Y-73721590D01*
X88929823Y-73655000D01*
X88911519Y-73432361D01*
X88883488Y-73320765D01*
X88886292Y-73249823D01*
X88916597Y-73200974D01*
X90356733Y-71760839D01*
X91832253Y-70285319D01*
X91840539Y-70277779D01*
X91847018Y-70273667D01*
X91893644Y-70224015D01*
X91896398Y-70221174D01*
X91916135Y-70201437D01*
X91918615Y-70198240D01*
X91926320Y-70189218D01*
X91951159Y-70162767D01*
X91956586Y-70156988D01*
X91960405Y-70150042D01*
X91960407Y-70150039D01*
X91966348Y-70139233D01*
X91977199Y-70122714D01*
X91984758Y-70112968D01*
X91989614Y-70106708D01*
X91992759Y-70099439D01*
X91992762Y-70099435D01*
X92007174Y-70066130D01*
X92012391Y-70055480D01*
X92033695Y-70016727D01*
X92038733Y-69997104D01*
X92045137Y-69978401D01*
X92050033Y-69967087D01*
X92050033Y-69967086D01*
X92053181Y-69959812D01*
X92054420Y-69951989D01*
X92054423Y-69951979D01*
X92060099Y-69916143D01*
X92062505Y-69904523D01*
X92071528Y-69869378D01*
X92071528Y-69869377D01*
X92073500Y-69861697D01*
X92073500Y-69841443D01*
X92075051Y-69821732D01*
X92076980Y-69809553D01*
X92078220Y-69801724D01*
X92074059Y-69757705D01*
X92073500Y-69745848D01*
X92073500Y-68252538D01*
X92093502Y-68184417D01*
X92147158Y-68137924D01*
X92159624Y-68133014D01*
X92220653Y-68112653D01*
X92238946Y-68106550D01*
X92389348Y-68013478D01*
X92424607Y-67978158D01*
X92509134Y-67893483D01*
X92514305Y-67888303D01*
X92586684Y-67770883D01*
X92639455Y-67723391D01*
X92693943Y-67711000D01*
X93995954Y-67711000D01*
X94064075Y-67731002D01*
X94103098Y-67770697D01*
X94176522Y-67889348D01*
X94181704Y-67894521D01*
X94190416Y-67903218D01*
X94301697Y-68014305D01*
X94307927Y-68018145D01*
X94307928Y-68018146D01*
X94445090Y-68102694D01*
X94452262Y-68107115D01*
X94484368Y-68117764D01*
X94613611Y-68160632D01*
X94613613Y-68160632D01*
X94620139Y-68162797D01*
X94626975Y-68163497D01*
X94626978Y-68163498D01*
X94670031Y-68167909D01*
X94724600Y-68173500D01*
X95254106Y-68173500D01*
X95322227Y-68193502D01*
X95368720Y-68247158D01*
X95378824Y-68317432D01*
X95349330Y-68382012D01*
X95338012Y-68393499D01*
X95291494Y-68435018D01*
X95124363Y-68635970D01*
X95121934Y-68639973D01*
X95045812Y-68765419D01*
X94988771Y-68859419D01*
X94986967Y-68863721D01*
X94986965Y-68863725D01*
X94986106Y-68865773D01*
X94985622Y-68866360D01*
X94984838Y-68867899D01*
X94984497Y-68867725D01*
X94939912Y-68921809D01*
X94824485Y-68998934D01*
X94824481Y-68998937D01*
X94820593Y-69001535D01*
X94659091Y-69148233D01*
X94656967Y-69150592D01*
X94656966Y-69150593D01*
X93254021Y-70708723D01*
X93242510Y-70721507D01*
X93123230Y-70875560D01*
X93120944Y-70879642D01*
X93120942Y-70879645D01*
X93106043Y-70906250D01*
X92995519Y-71103604D01*
X92902917Y-71348021D01*
X92901924Y-71352593D01*
X92901924Y-71352594D01*
X92857795Y-71555842D01*
X92847460Y-71603440D01*
X92830366Y-71864251D01*
X92852010Y-72124724D01*
X92911916Y-72379137D01*
X93008769Y-72621900D01*
X93140441Y-72847680D01*
X93143368Y-72851327D01*
X93301115Y-73047879D01*
X93301121Y-73047885D01*
X93304038Y-73051520D01*
X93307465Y-73054687D01*
X93307466Y-73054689D01*
X93342624Y-73087188D01*
X93495969Y-73228938D01*
X93499825Y-73231564D01*
X93499832Y-73231569D01*
X93630835Y-73320765D01*
X93712015Y-73376038D01*
X93716228Y-73378070D01*
X93716233Y-73378073D01*
X93818378Y-73427342D01*
X93947431Y-73489590D01*
X93951898Y-73490977D01*
X93951903Y-73490979D01*
X94091987Y-73534476D01*
X94197044Y-73567097D01*
X94201656Y-73567807D01*
X94201661Y-73567808D01*
X94450752Y-73606146D01*
X94450755Y-73606146D01*
X94455373Y-73606857D01*
X94587464Y-73607433D01*
X94712067Y-73607977D01*
X94712072Y-73607977D01*
X94716741Y-73607997D01*
X94724604Y-73606857D01*
X94970774Y-73571165D01*
X94970777Y-73571164D01*
X94975407Y-73570493D01*
X95045252Y-73549472D01*
X95185708Y-73507200D01*
X95256703Y-73506721D01*
X95316687Y-73544701D01*
X95346615Y-73609082D01*
X95348002Y-73630034D01*
X95346417Y-73721590D01*
X95342468Y-73949606D01*
X95342457Y-73950159D01*
X95341603Y-73988090D01*
X95341774Y-73989665D01*
X95341747Y-73991248D01*
X95342163Y-73994893D01*
X95342163Y-73994897D01*
X95346028Y-74028770D01*
X95346097Y-74029390D01*
X95349715Y-74062639D01*
X95389477Y-74428059D01*
X95389546Y-74428710D01*
X95392016Y-74452559D01*
X95393428Y-74466198D01*
X95393794Y-74467733D01*
X95393966Y-74469313D01*
X95394847Y-74472923D01*
X95394847Y-74472925D01*
X95402941Y-74506103D01*
X95403095Y-74506739D01*
X95496166Y-74897038D01*
X95496243Y-74897363D01*
X95496393Y-74898002D01*
X95503638Y-74929100D01*
X95504987Y-74934892D01*
X95505546Y-74936378D01*
X95505912Y-74937913D01*
X95507231Y-74941364D01*
X95507234Y-74941375D01*
X95519418Y-74973260D01*
X95519650Y-74973872D01*
X95597005Y-75179515D01*
X95660123Y-75347307D01*
X95661346Y-75350559D01*
X95661576Y-75351175D01*
X95674737Y-75386723D01*
X95675476Y-75388124D01*
X95676034Y-75389607D01*
X95677771Y-75392858D01*
X95693879Y-75423006D01*
X95694186Y-75423585D01*
X95715524Y-75464028D01*
X95860268Y-75738367D01*
X95882368Y-75780255D01*
X95882673Y-75780837D01*
X95900203Y-75814485D01*
X95901112Y-75815782D01*
X95901851Y-75817183D01*
X95903997Y-75820212D01*
X95904000Y-75820217D01*
X95923711Y-75848038D01*
X95924089Y-75848574D01*
X96156063Y-76179639D01*
X96156397Y-76180118D01*
X96178023Y-76211325D01*
X96179090Y-76212501D01*
X96179996Y-76213794D01*
X96182494Y-76216518D01*
X96205488Y-76241595D01*
X96205930Y-76242080D01*
X96478320Y-76542267D01*
X96478758Y-76542752D01*
X96494446Y-76560222D01*
X96503994Y-76570855D01*
X96505196Y-76571885D01*
X96506261Y-76573058D01*
X96509060Y-76575430D01*
X96535134Y-76597526D01*
X96535633Y-76597951D01*
X96844026Y-76862063D01*
X96844523Y-76862491D01*
X96870323Y-76884820D01*
X96870330Y-76884826D01*
X96873134Y-76887252D01*
X96874452Y-76888120D01*
X96875659Y-76889154D01*
X96878776Y-76891184D01*
X96878781Y-76891188D01*
X96907447Y-76909859D01*
X96907994Y-76910217D01*
X96930915Y-76925316D01*
X97247890Y-77134125D01*
X97279762Y-77155359D01*
X97281188Y-77156060D01*
X97282506Y-77156928D01*
X97285822Y-77158536D01*
X97285823Y-77158537D01*
X97316417Y-77173376D01*
X97316969Y-77173645D01*
X97385955Y-77207550D01*
X97543784Y-77285119D01*
X97596098Y-77333117D01*
X97614157Y-77401779D01*
X97592229Y-77469304D01*
X97537274Y-77514254D01*
X97528084Y-77517724D01*
X97454071Y-77542417D01*
X97361054Y-77573450D01*
X97210652Y-77666522D01*
X97085695Y-77791697D01*
X96992885Y-77942262D01*
X96937203Y-78110139D01*
X96926500Y-78214600D01*
X96926500Y-79265400D01*
X96937474Y-79371166D01*
X96993450Y-79538946D01*
X97086522Y-79689348D01*
X97211697Y-79814305D01*
X97362262Y-79907115D01*
X97404625Y-79921166D01*
X97523611Y-79960632D01*
X97523613Y-79960632D01*
X97530139Y-79962797D01*
X97536975Y-79963497D01*
X97536978Y-79963498D01*
X97580031Y-79967909D01*
X97634600Y-79973500D01*
X98075406Y-79973500D01*
X98143527Y-79993502D01*
X98164501Y-80010405D01*
X98556343Y-80402247D01*
X98563887Y-80410537D01*
X98568000Y-80417018D01*
X98573777Y-80422443D01*
X98617667Y-80463658D01*
X98620509Y-80466413D01*
X98640231Y-80486135D01*
X98643355Y-80488558D01*
X98643359Y-80488562D01*
X98643424Y-80488612D01*
X98652445Y-80496317D01*
X98684679Y-80526586D01*
X98691627Y-80530405D01*
X98691629Y-80530407D01*
X98702432Y-80536346D01*
X98718959Y-80547202D01*
X98728698Y-80554757D01*
X98728700Y-80554758D01*
X98734960Y-80559614D01*
X98775540Y-80577174D01*
X98786188Y-80582391D01*
X98810976Y-80596018D01*
X98824940Y-80603695D01*
X98832616Y-80605666D01*
X98832619Y-80605667D01*
X98844562Y-80608733D01*
X98863266Y-80615137D01*
X98867692Y-80617052D01*
X98881855Y-80623181D01*
X98889678Y-80624420D01*
X98889688Y-80624423D01*
X98925524Y-80630099D01*
X98937144Y-80632505D01*
X98968959Y-80640673D01*
X98979970Y-80643500D01*
X99000224Y-80643500D01*
X99019934Y-80645051D01*
X99039943Y-80648220D01*
X99047835Y-80647474D01*
X99066580Y-80645702D01*
X99083962Y-80644059D01*
X99095819Y-80643500D01*
X102156233Y-80643500D01*
X102167416Y-80644027D01*
X102174909Y-80645702D01*
X102182835Y-80645453D01*
X102182836Y-80645453D01*
X102242986Y-80643562D01*
X102246945Y-80643500D01*
X102274856Y-80643500D01*
X102278791Y-80643003D01*
X102278856Y-80642995D01*
X102290693Y-80642062D01*
X102322951Y-80641048D01*
X102326970Y-80640922D01*
X102334889Y-80640673D01*
X102354343Y-80635021D01*
X102373700Y-80631013D01*
X102385930Y-80629468D01*
X102385931Y-80629468D01*
X102393797Y-80628474D01*
X102401168Y-80625555D01*
X102401170Y-80625555D01*
X102434912Y-80612196D01*
X102446142Y-80608351D01*
X102480983Y-80598229D01*
X102480984Y-80598229D01*
X102488593Y-80596018D01*
X102495412Y-80591985D01*
X102495417Y-80591983D01*
X102506028Y-80585707D01*
X102523776Y-80577012D01*
X102542617Y-80569552D01*
X102578387Y-80543564D01*
X102588307Y-80537048D01*
X102619535Y-80518580D01*
X102619538Y-80518578D01*
X102626362Y-80514542D01*
X102640683Y-80500221D01*
X102655717Y-80487380D01*
X102657431Y-80486135D01*
X102672107Y-80475472D01*
X102700298Y-80441395D01*
X102708288Y-80432616D01*
X104027876Y-79113028D01*
X104036166Y-79105484D01*
X104042647Y-79101371D01*
X104089288Y-79051703D01*
X104092042Y-79048862D01*
X104111764Y-79029140D01*
X104114241Y-79025947D01*
X104121946Y-79016926D01*
X104146788Y-78990471D01*
X104152215Y-78984692D01*
X104156036Y-78977742D01*
X104161975Y-78966939D01*
X104172831Y-78950412D01*
X104180386Y-78940673D01*
X104180387Y-78940671D01*
X104185243Y-78934411D01*
X104202803Y-78893831D01*
X104208020Y-78883183D01*
X104225504Y-78851380D01*
X104225505Y-78851378D01*
X104229324Y-78844431D01*
X104234362Y-78824808D01*
X104240766Y-78806105D01*
X104245662Y-78794791D01*
X104245662Y-78794790D01*
X104248810Y-78787516D01*
X104250049Y-78779693D01*
X104250052Y-78779683D01*
X104255728Y-78743847D01*
X104258134Y-78732227D01*
X104267157Y-78697082D01*
X104267157Y-78697081D01*
X104269129Y-78689401D01*
X104269129Y-78669147D01*
X104270680Y-78649436D01*
X104272609Y-78637257D01*
X104273849Y-78629428D01*
X104269688Y-78585409D01*
X104269129Y-78573552D01*
X104269129Y-71760839D01*
X104289131Y-71692718D01*
X104342787Y-71646225D01*
X104413061Y-71636121D01*
X104477641Y-71665615D01*
X104516125Y-71725685D01*
X104517268Y-71729616D01*
X104518911Y-71735272D01*
X104522920Y-71754633D01*
X104524373Y-71766130D01*
X104525459Y-71774730D01*
X104528378Y-71782101D01*
X104528378Y-71782103D01*
X104541737Y-71815845D01*
X104545582Y-71827075D01*
X104557915Y-71869526D01*
X104561948Y-71876345D01*
X104561950Y-71876350D01*
X104568226Y-71886961D01*
X104576921Y-71904709D01*
X104584381Y-71923550D01*
X104589043Y-71929966D01*
X104589043Y-71929967D01*
X104610369Y-71959320D01*
X104616885Y-71969240D01*
X104639391Y-72007295D01*
X104653712Y-72021616D01*
X104666552Y-72036649D01*
X104678461Y-72053040D01*
X104684567Y-72058091D01*
X104712538Y-72081231D01*
X104721317Y-72089221D01*
X111089595Y-78457499D01*
X111123621Y-78519811D01*
X111126500Y-78546594D01*
X111126500Y-80192207D01*
X111124268Y-80215816D01*
X111122725Y-80223906D01*
X111123621Y-80238147D01*
X111126251Y-80279951D01*
X111126500Y-80287862D01*
X111126500Y-80303856D01*
X111128506Y-80319730D01*
X111129248Y-80327590D01*
X111132775Y-80383650D01*
X111135225Y-80391191D01*
X111135321Y-80391487D01*
X111140494Y-80414631D01*
X111140532Y-80414935D01*
X111140533Y-80414940D01*
X111141526Y-80422797D01*
X111144442Y-80430162D01*
X111144443Y-80430166D01*
X111162199Y-80475011D01*
X111164871Y-80482430D01*
X111182236Y-80535875D01*
X111186486Y-80542571D01*
X111186486Y-80542572D01*
X111186650Y-80542831D01*
X111197415Y-80563958D01*
X111197529Y-80564246D01*
X111197532Y-80564251D01*
X111200448Y-80571617D01*
X111205104Y-80578025D01*
X111205107Y-80578031D01*
X111233458Y-80617052D01*
X111237901Y-80623589D01*
X111268000Y-80671018D01*
X111273778Y-80676444D01*
X111273779Y-80676445D01*
X111274007Y-80676659D01*
X111289688Y-80694446D01*
X111294528Y-80701107D01*
X111300637Y-80706161D01*
X111300638Y-80706162D01*
X111337796Y-80736903D01*
X111343730Y-80742134D01*
X111378898Y-80775158D01*
X111378901Y-80775160D01*
X111384679Y-80780586D01*
X111391903Y-80784558D01*
X111411506Y-80797881D01*
X111411746Y-80798080D01*
X111411753Y-80798084D01*
X111417856Y-80803133D01*
X111451342Y-80818890D01*
X111468676Y-80827047D01*
X111475708Y-80830629D01*
X111524940Y-80857695D01*
X111532615Y-80859665D01*
X111532621Y-80859668D01*
X111532919Y-80859744D01*
X111555228Y-80867776D01*
X111555503Y-80867906D01*
X111555511Y-80867909D01*
X111562682Y-80871283D01*
X111617849Y-80881806D01*
X111625558Y-80883529D01*
X111659551Y-80892257D01*
X111672293Y-80895529D01*
X111672294Y-80895529D01*
X111679970Y-80897500D01*
X111688207Y-80897500D01*
X111711816Y-80899732D01*
X111712119Y-80899790D01*
X111712123Y-80899790D01*
X111719906Y-80901275D01*
X111775951Y-80897749D01*
X111783862Y-80897500D01*
X114729233Y-80897500D01*
X114740416Y-80898027D01*
X114747909Y-80899702D01*
X114755835Y-80899453D01*
X114755836Y-80899453D01*
X114815986Y-80897562D01*
X114819945Y-80897500D01*
X114847856Y-80897500D01*
X114851791Y-80897003D01*
X114851856Y-80896995D01*
X114863693Y-80896062D01*
X114895951Y-80895048D01*
X114899970Y-80894922D01*
X114907889Y-80894673D01*
X114927343Y-80889021D01*
X114946700Y-80885013D01*
X114958930Y-80883468D01*
X114958931Y-80883468D01*
X114966797Y-80882474D01*
X114974168Y-80879555D01*
X114974170Y-80879555D01*
X115007912Y-80866196D01*
X115019142Y-80862351D01*
X115053983Y-80852229D01*
X115053984Y-80852229D01*
X115061593Y-80850018D01*
X115068412Y-80845985D01*
X115068417Y-80845983D01*
X115079028Y-80839707D01*
X115096776Y-80831012D01*
X115115617Y-80823552D01*
X115151387Y-80797564D01*
X115161307Y-80791048D01*
X115192535Y-80772580D01*
X115192538Y-80772578D01*
X115199362Y-80768542D01*
X115213683Y-80754221D01*
X115228717Y-80741380D01*
X115238693Y-80734132D01*
X115245107Y-80729472D01*
X115273288Y-80695407D01*
X115281278Y-80686626D01*
X115729758Y-80238147D01*
X115738037Y-80230613D01*
X115744518Y-80226500D01*
X115791144Y-80176848D01*
X115793898Y-80174007D01*
X115813635Y-80154270D01*
X115816115Y-80151073D01*
X115823820Y-80142051D01*
X115848659Y-80115600D01*
X115854086Y-80109821D01*
X115857905Y-80102875D01*
X115857907Y-80102872D01*
X115863848Y-80092066D01*
X115874699Y-80075547D01*
X115882258Y-80065801D01*
X115887114Y-80059541D01*
X115890259Y-80052272D01*
X115890262Y-80052268D01*
X115904674Y-80018963D01*
X115909891Y-80008313D01*
X115931195Y-79969560D01*
X115931195Y-79969559D01*
X115932486Y-79970269D01*
X115970792Y-79921166D01*
X115990830Y-79909415D01*
X115991997Y-79908869D01*
X115998946Y-79906550D01*
X116149348Y-79813478D01*
X116274305Y-79688303D01*
X116278146Y-79682072D01*
X116363275Y-79543968D01*
X116363276Y-79543966D01*
X116367115Y-79537738D01*
X116422797Y-79369861D01*
X116433500Y-79265400D01*
X116433500Y-78214600D01*
X116422526Y-78108834D01*
X116366550Y-77941054D01*
X116273478Y-77790652D01*
X116148303Y-77665695D01*
X116142072Y-77661854D01*
X116003968Y-77576725D01*
X116003966Y-77576724D01*
X115997738Y-77572885D01*
X115857849Y-77526486D01*
X115836389Y-77519368D01*
X115836387Y-77519368D01*
X115829861Y-77517203D01*
X115823023Y-77516502D01*
X115823021Y-77516502D01*
X115805524Y-77514709D01*
X115788359Y-77512951D01*
X115722633Y-77486110D01*
X115712106Y-77476702D01*
X115593371Y-77357966D01*
X115563476Y-77310309D01*
X115554704Y-77285119D01*
X115551915Y-77277109D01*
X115548401Y-77206201D01*
X115583782Y-77144649D01*
X115634224Y-77115131D01*
X115660267Y-77107206D01*
X115668995Y-77104550D01*
X115669618Y-77104362D01*
X115702326Y-77094594D01*
X115702327Y-77094594D01*
X115705875Y-77093534D01*
X115707317Y-77092888D01*
X115708829Y-77092428D01*
X115743392Y-77076730D01*
X115743846Y-77076526D01*
X116081815Y-76925142D01*
X116116774Y-76909701D01*
X116118127Y-76908877D01*
X116119570Y-76908231D01*
X116151998Y-76888259D01*
X116152113Y-76888189D01*
X116469271Y-76695119D01*
X116469694Y-76694863D01*
X116502137Y-76675343D01*
X116503369Y-76674362D01*
X116504724Y-76673537D01*
X116534249Y-76649773D01*
X116534757Y-76649367D01*
X116825548Y-76417782D01*
X116826061Y-76417376D01*
X116852835Y-76396280D01*
X116852847Y-76396269D01*
X116855761Y-76393973D01*
X116856866Y-76392839D01*
X116858103Y-76391854D01*
X116860675Y-76389187D01*
X116860680Y-76389183D01*
X116884388Y-76364604D01*
X116884842Y-76364136D01*
X117144850Y-76097359D01*
X117145309Y-76096890D01*
X117169306Y-76072524D01*
X117169310Y-76072520D01*
X117171932Y-76069857D01*
X117172886Y-76068593D01*
X117173989Y-76067462D01*
X117176230Y-76064463D01*
X117196575Y-76037231D01*
X117196968Y-76036708D01*
X117422103Y-75738609D01*
X117422498Y-75738088D01*
X117443239Y-75710919D01*
X117445501Y-75707956D01*
X117446290Y-75706581D01*
X117447242Y-75705321D01*
X117449072Y-75702094D01*
X117449081Y-75702081D01*
X117465936Y-75672363D01*
X117466260Y-75671795D01*
X117521323Y-75575879D01*
X117652706Y-75347017D01*
X117671976Y-75313851D01*
X117672588Y-75312384D01*
X117673372Y-75311019D01*
X117674786Y-75307582D01*
X117687709Y-75276167D01*
X117687958Y-75275564D01*
X117832577Y-74929100D01*
X117832831Y-74928496D01*
X117834032Y-74925661D01*
X117847590Y-74893649D01*
X117848012Y-74892124D01*
X117848621Y-74890664D01*
X117858544Y-74854032D01*
X117858717Y-74853401D01*
X117958874Y-74491123D01*
X117959049Y-74490495D01*
X117968358Y-74457490D01*
X117968359Y-74457485D01*
X117969371Y-74453897D01*
X117969598Y-74452330D01*
X117970019Y-74450808D01*
X117975261Y-74413293D01*
X117975350Y-74412669D01*
X118012455Y-74156811D01*
X118029526Y-74039098D01*
X118035181Y-74001480D01*
X118035210Y-73999904D01*
X118035438Y-73998331D01*
X118035573Y-73988090D01*
X118035935Y-73960415D01*
X118035945Y-73959759D01*
X118040255Y-73724439D01*
X118042872Y-73581588D01*
X118043767Y-73543503D01*
X118043598Y-73541935D01*
X118043627Y-73540347D01*
X118039359Y-73502595D01*
X118039292Y-73501993D01*
X118019755Y-73320765D01*
X117998715Y-73125605D01*
X117998646Y-73124954D01*
X117995147Y-73090837D01*
X117994773Y-73087188D01*
X117994408Y-73085649D01*
X117994238Y-73084076D01*
X117993369Y-73080500D01*
X117993368Y-73080492D01*
X117985257Y-73047101D01*
X117985104Y-73046464D01*
X117969724Y-72981680D01*
X117897491Y-72677431D01*
X117897341Y-72676795D01*
X117889591Y-72643381D01*
X117888751Y-72639759D01*
X117888195Y-72638277D01*
X117887830Y-72636739D01*
X117880524Y-72617561D01*
X117874328Y-72601297D01*
X117874097Y-72600686D01*
X117740427Y-72244271D01*
X117740199Y-72243656D01*
X117728454Y-72211837D01*
X117727161Y-72208334D01*
X117726424Y-72206935D01*
X117725868Y-72205451D01*
X117708022Y-72171970D01*
X117707785Y-72171524D01*
X117529938Y-71833638D01*
X117512348Y-71799794D01*
X117511442Y-71798499D01*
X117510704Y-71797096D01*
X117488805Y-71766123D01*
X117488432Y-71765592D01*
X117269419Y-71452373D01*
X117269046Y-71451837D01*
X117249618Y-71423743D01*
X117249616Y-71423740D01*
X117247505Y-71420688D01*
X117246445Y-71419518D01*
X117245537Y-71418219D01*
X117243022Y-71415471D01*
X117243015Y-71415462D01*
X117219910Y-71390215D01*
X117219468Y-71389730D01*
X116970713Y-71115054D01*
X116939811Y-71051135D01*
X116948373Y-70980656D01*
X116993678Y-70925995D01*
X117045135Y-70906251D01*
X117045148Y-70906250D01*
X117260990Y-70859386D01*
X117295994Y-70851786D01*
X117295995Y-70851786D01*
X117300567Y-70850793D01*
X117311561Y-70846628D01*
X117540615Y-70759847D01*
X117540616Y-70759846D01*
X117544983Y-70758192D01*
X117589426Y-70733303D01*
X117768950Y-70632764D01*
X117768952Y-70632763D01*
X117773028Y-70630480D01*
X117979691Y-70470464D01*
X117983494Y-70466492D01*
X118157203Y-70285032D01*
X118160432Y-70281659D01*
X118163492Y-70277330D01*
X118308579Y-70072035D01*
X118308580Y-70072034D01*
X118311280Y-70068213D01*
X118313514Y-70063782D01*
X118426819Y-69838986D01*
X118428922Y-69834814D01*
X118510774Y-69586591D01*
X118522343Y-69519263D01*
X118547187Y-69374677D01*
X118547188Y-69374669D01*
X118547722Y-69371561D01*
X118554036Y-69281277D01*
X118598960Y-68638811D01*
X118598960Y-68638805D01*
X118599122Y-68636491D01*
X118598271Y-68441659D01*
X118558510Y-68183331D01*
X118557102Y-68178794D01*
X118505769Y-68013478D01*
X118481003Y-67933717D01*
X118478972Y-67929507D01*
X118478970Y-67929501D01*
X118369482Y-67702510D01*
X118367452Y-67698301D01*
X118220351Y-67482255D01*
X118204771Y-67465400D01*
X118046114Y-67293768D01*
X118046112Y-67293767D01*
X118042932Y-67290326D01*
X117907101Y-67181310D01*
X117842750Y-67129663D01*
X117839093Y-67126728D01*
X117637116Y-67008938D01*
X117617347Y-66997409D01*
X117617345Y-66997408D01*
X117613312Y-66995056D01*
X117608978Y-66993327D01*
X117608974Y-66993325D01*
X117487164Y-66944729D01*
X117370549Y-66898205D01*
X117366013Y-66897137D01*
X117366007Y-66897135D01*
X117120680Y-66839368D01*
X117116136Y-66838298D01*
X117111482Y-66837911D01*
X117111480Y-66837911D01*
X116860323Y-66817042D01*
X116860320Y-66817042D01*
X116855663Y-66816655D01*
X116594852Y-66833750D01*
X116590279Y-66834743D01*
X116590278Y-66834743D01*
X116344006Y-66888214D01*
X116339433Y-66889207D01*
X116335061Y-66890863D01*
X116335059Y-66890864D01*
X116192887Y-66944729D01*
X116095017Y-66981809D01*
X116023227Y-67022013D01*
X115871044Y-67107239D01*
X115871038Y-67107243D01*
X115866972Y-67109520D01*
X115863283Y-67112376D01*
X115863282Y-67112377D01*
X115844868Y-67126635D01*
X115660309Y-67269536D01*
X115657079Y-67272910D01*
X115657078Y-67272911D01*
X115640407Y-67290326D01*
X115479568Y-67458341D01*
X115476872Y-67462156D01*
X115476871Y-67462157D01*
X115397229Y-67574848D01*
X115328720Y-67671787D01*
X115326613Y-67675968D01*
X115326612Y-67675969D01*
X115317160Y-67694721D01*
X115211078Y-67905186D01*
X115201052Y-67935590D01*
X115136631Y-68130954D01*
X115129226Y-68153409D01*
X115125855Y-68173027D01*
X115094154Y-68357522D01*
X115092278Y-68368439D01*
X115092058Y-68371584D01*
X115092057Y-68371593D01*
X115042266Y-69083657D01*
X115040878Y-69103509D01*
X115040888Y-69105827D01*
X115040888Y-69105831D01*
X115041052Y-69143410D01*
X115041728Y-69298341D01*
X115054311Y-69380088D01*
X115079699Y-69545031D01*
X115081490Y-69556669D01*
X115158997Y-69806284D01*
X115161027Y-69810494D01*
X115161030Y-69810500D01*
X115217463Y-69927497D01*
X115229042Y-69997543D01*
X115200913Y-70062730D01*
X115142007Y-70102360D01*
X115078158Y-70105564D01*
X114917145Y-70071858D01*
X114916539Y-70071729D01*
X114879489Y-70063772D01*
X114877908Y-70063644D01*
X114876364Y-70063321D01*
X114871322Y-70062940D01*
X114838675Y-70060471D01*
X114838025Y-70060420D01*
X114450911Y-70029132D01*
X114450258Y-70029078D01*
X114416098Y-70026138D01*
X114416095Y-70026138D01*
X114412424Y-70025822D01*
X114410841Y-70025893D01*
X114409265Y-70025766D01*
X114405585Y-70025951D01*
X114405584Y-70025951D01*
X114387370Y-70026867D01*
X114371412Y-70027669D01*
X114370824Y-70027697D01*
X114126211Y-70038726D01*
X113982019Y-70045227D01*
X113981363Y-70045255D01*
X113978416Y-70045373D01*
X113943409Y-70046768D01*
X113941844Y-70047038D01*
X113940267Y-70047109D01*
X113936629Y-70047756D01*
X113936627Y-70047756D01*
X113903077Y-70053721D01*
X113902442Y-70053832D01*
X113682040Y-70091837D01*
X113611513Y-70083701D01*
X113556579Y-70038726D01*
X113534680Y-69971191D01*
X113535638Y-69951768D01*
X113560616Y-69755421D01*
X113560616Y-69755417D01*
X113561014Y-69752291D01*
X113561182Y-69745896D01*
X113563348Y-69663160D01*
X113563431Y-69660000D01*
X113559903Y-69612529D01*
X113544407Y-69404000D01*
X113544406Y-69403996D01*
X113544061Y-69399348D01*
X113538708Y-69375689D01*
X113487408Y-69148980D01*
X113486377Y-69144423D01*
X113470467Y-69103509D01*
X113393340Y-68905176D01*
X113393339Y-68905173D01*
X113391647Y-68900823D01*
X113372830Y-68867899D01*
X113306541Y-68751918D01*
X113261951Y-68673902D01*
X113100138Y-68468643D01*
X112909763Y-68289557D01*
X112746229Y-68176109D01*
X112698851Y-68143241D01*
X112698848Y-68143239D01*
X112695009Y-68140576D01*
X112690816Y-68138508D01*
X112464781Y-68027040D01*
X112464778Y-68027039D01*
X112460593Y-68024975D01*
X112439260Y-68018146D01*
X112216123Y-67946720D01*
X112211665Y-67945293D01*
X111953693Y-67903279D01*
X111839942Y-67901790D01*
X111697022Y-67899919D01*
X111697019Y-67899919D01*
X111692345Y-67899858D01*
X111433362Y-67935104D01*
X111428876Y-67936412D01*
X111428874Y-67936412D01*
X111287990Y-67977476D01*
X111287506Y-67977617D01*
X111216510Y-67977476D01*
X111156860Y-67938974D01*
X111129791Y-67884439D01*
X111129542Y-67882072D01*
X111070527Y-67700444D01*
X111052024Y-67668395D01*
X111028124Y-67627000D01*
X111011386Y-67558005D01*
X111028124Y-67501000D01*
X111067223Y-67433279D01*
X111067224Y-67433278D01*
X111070527Y-67427556D01*
X111129542Y-67245928D01*
X111133750Y-67205896D01*
X111148814Y-67062565D01*
X111149504Y-67056000D01*
X111129542Y-66866072D01*
X111070527Y-66684444D01*
X111028124Y-66611000D01*
X111011386Y-66542005D01*
X111028124Y-66485000D01*
X111067223Y-66417279D01*
X111067224Y-66417278D01*
X111070527Y-66411556D01*
X111129542Y-66229928D01*
X111135299Y-66175159D01*
X111148814Y-66046565D01*
X111149504Y-66040000D01*
X111144121Y-65988782D01*
X111130232Y-65856635D01*
X111130232Y-65856633D01*
X111129542Y-65850072D01*
X111070527Y-65668444D01*
X111066101Y-65660777D01*
X111013284Y-65569297D01*
X110975040Y-65503056D01*
X110962570Y-65489206D01*
X110938354Y-65462312D01*
X110907636Y-65398305D01*
X110916401Y-65327851D01*
X110938354Y-65293692D01*
X110971676Y-65256684D01*
X111032122Y-65219444D01*
X111103105Y-65220796D01*
X111162090Y-65260309D01*
X111179320Y-65287345D01*
X111179787Y-65288337D01*
X111182236Y-65295875D01*
X111186484Y-65302568D01*
X111186485Y-65302571D01*
X111186650Y-65302831D01*
X111197415Y-65323958D01*
X111197529Y-65324246D01*
X111197532Y-65324251D01*
X111200448Y-65331617D01*
X111205104Y-65338025D01*
X111205107Y-65338031D01*
X111233458Y-65377052D01*
X111237901Y-65383589D01*
X111268000Y-65431018D01*
X111273778Y-65436444D01*
X111273779Y-65436445D01*
X111274007Y-65436659D01*
X111289688Y-65454446D01*
X111294528Y-65461107D01*
X111300637Y-65466161D01*
X111300638Y-65466162D01*
X111337796Y-65496903D01*
X111343730Y-65502134D01*
X111378898Y-65535158D01*
X111378901Y-65535160D01*
X111384679Y-65540586D01*
X111391903Y-65544558D01*
X111411506Y-65557881D01*
X111411746Y-65558080D01*
X111411753Y-65558084D01*
X111417856Y-65563133D01*
X111449389Y-65577971D01*
X111468676Y-65587047D01*
X111475708Y-65590629D01*
X111524940Y-65617695D01*
X111532615Y-65619665D01*
X111532621Y-65619668D01*
X111532919Y-65619744D01*
X111555228Y-65627776D01*
X111555503Y-65627906D01*
X111555511Y-65627909D01*
X111562682Y-65631283D01*
X111617849Y-65641806D01*
X111625558Y-65643529D01*
X111659551Y-65652257D01*
X111672293Y-65655529D01*
X111672294Y-65655529D01*
X111679970Y-65657500D01*
X111688207Y-65657500D01*
X111711816Y-65659732D01*
X111712119Y-65659790D01*
X111712123Y-65659790D01*
X111719906Y-65661275D01*
X111775951Y-65657749D01*
X111783862Y-65657500D01*
X113734733Y-65657500D01*
X113745916Y-65658027D01*
X113753409Y-65659702D01*
X113761335Y-65659453D01*
X113761336Y-65659453D01*
X113821486Y-65657562D01*
X113825445Y-65657500D01*
X113853356Y-65657500D01*
X113857291Y-65657003D01*
X113857356Y-65656995D01*
X113869193Y-65656062D01*
X113901451Y-65655048D01*
X113905470Y-65654922D01*
X113913389Y-65654673D01*
X113932843Y-65649021D01*
X113952200Y-65645013D01*
X113964430Y-65643468D01*
X113964431Y-65643468D01*
X113972297Y-65642474D01*
X113979668Y-65639555D01*
X113979670Y-65639555D01*
X114013412Y-65626196D01*
X114024642Y-65622351D01*
X114059483Y-65612229D01*
X114059484Y-65612229D01*
X114067093Y-65610018D01*
X114073912Y-65605985D01*
X114073917Y-65605983D01*
X114084528Y-65599707D01*
X114102276Y-65591012D01*
X114121117Y-65583552D01*
X114156887Y-65557564D01*
X114166807Y-65551048D01*
X114198035Y-65532580D01*
X114198038Y-65532578D01*
X114204862Y-65528542D01*
X114219183Y-65514221D01*
X114234217Y-65501380D01*
X114236905Y-65499427D01*
X114250607Y-65489472D01*
X114278798Y-65455395D01*
X114286788Y-65446616D01*
X114962999Y-64770405D01*
X115025311Y-64736379D01*
X115052094Y-64733500D01*
X115725400Y-64733500D01*
X115728646Y-64733163D01*
X115728650Y-64733163D01*
X115824308Y-64723238D01*
X115824312Y-64723237D01*
X115831166Y-64722526D01*
X115837702Y-64720345D01*
X115837704Y-64720345D01*
X115969806Y-64676272D01*
X115998946Y-64666550D01*
X116149348Y-64573478D01*
X116274305Y-64448303D01*
X116278146Y-64442072D01*
X116363275Y-64303968D01*
X116363276Y-64303966D01*
X116367115Y-64297738D01*
X116404246Y-64185792D01*
X116420632Y-64136389D01*
X116420632Y-64136387D01*
X116422797Y-64129861D01*
X116433500Y-64025400D01*
X116433500Y-62974600D01*
X116422526Y-62868834D01*
X116418108Y-62855590D01*
X116368868Y-62708002D01*
X116366550Y-62701054D01*
X116273478Y-62550652D01*
X116148303Y-62425695D01*
X116046269Y-62362800D01*
X116003968Y-62336725D01*
X116003966Y-62336724D01*
X115997738Y-62332885D01*
X115903624Y-62301669D01*
X115836389Y-62279368D01*
X115836387Y-62279368D01*
X115829861Y-62277203D01*
X115823023Y-62276502D01*
X115823021Y-62276502D01*
X115804074Y-62274561D01*
X115788917Y-62273008D01*
X115723190Y-62246167D01*
X115712663Y-62236759D01*
X115657557Y-62181652D01*
X115593105Y-62117200D01*
X115563210Y-62069542D01*
X115551916Y-62037110D01*
X115548402Y-61966201D01*
X115583784Y-61904648D01*
X115634226Y-61875131D01*
X115668994Y-61864551D01*
X115669618Y-61864362D01*
X115702326Y-61854594D01*
X115702327Y-61854594D01*
X115705875Y-61853534D01*
X115707317Y-61852888D01*
X115708829Y-61852428D01*
X115743392Y-61836730D01*
X115743846Y-61836526D01*
X116081815Y-61685142D01*
X116116774Y-61669701D01*
X116118127Y-61668877D01*
X116119570Y-61668231D01*
X116151998Y-61648259D01*
X116152113Y-61648189D01*
X116469271Y-61455119D01*
X116469694Y-61454863D01*
X116502137Y-61435343D01*
X116503369Y-61434362D01*
X116504724Y-61433537D01*
X116534249Y-61409773D01*
X116534757Y-61409367D01*
X116825548Y-61177782D01*
X116826061Y-61177376D01*
X116852835Y-61156280D01*
X116852847Y-61156269D01*
X116855761Y-61153973D01*
X116856866Y-61152839D01*
X116858103Y-61151854D01*
X116860675Y-61149187D01*
X116860680Y-61149183D01*
X116884388Y-61124604D01*
X116884842Y-61124136D01*
X117144850Y-60857359D01*
X117145309Y-60856890D01*
X117169306Y-60832524D01*
X117169310Y-60832520D01*
X117171932Y-60829857D01*
X117172886Y-60828593D01*
X117173989Y-60827462D01*
X117176230Y-60824463D01*
X117196575Y-60797231D01*
X117196968Y-60796708D01*
X117422103Y-60498609D01*
X117422498Y-60498088D01*
X117443239Y-60470919D01*
X117445501Y-60467956D01*
X117446290Y-60466581D01*
X117447242Y-60465321D01*
X117449072Y-60462094D01*
X117449081Y-60462081D01*
X117465936Y-60432363D01*
X117466260Y-60431795D01*
X117538193Y-60306492D01*
X117652706Y-60107017D01*
X117671976Y-60073851D01*
X117672588Y-60072384D01*
X117673372Y-60071019D01*
X117674786Y-60067582D01*
X117687709Y-60036167D01*
X117687958Y-60035564D01*
X117832577Y-59689100D01*
X117832831Y-59688496D01*
X117845746Y-59658002D01*
X117847590Y-59653649D01*
X117848012Y-59652124D01*
X117848621Y-59650664D01*
X117858544Y-59614032D01*
X117858717Y-59613401D01*
X117958874Y-59251123D01*
X117959049Y-59250495D01*
X117968358Y-59217490D01*
X117968359Y-59217485D01*
X117969371Y-59213897D01*
X117969598Y-59212330D01*
X117970019Y-59210808D01*
X117975261Y-59173293D01*
X117975350Y-59172669D01*
X118029487Y-58799364D01*
X118029548Y-58798954D01*
X118035181Y-58761480D01*
X118035210Y-58759904D01*
X118035438Y-58758331D01*
X118035573Y-58748090D01*
X118035935Y-58720415D01*
X118035945Y-58719759D01*
X118037960Y-58609772D01*
X118042872Y-58341588D01*
X118043767Y-58303503D01*
X118043598Y-58301935D01*
X118043627Y-58300347D01*
X118039359Y-58262595D01*
X118039292Y-58261993D01*
X117998715Y-57885605D01*
X117998646Y-57884954D01*
X117995147Y-57850837D01*
X117994773Y-57847188D01*
X117994408Y-57845649D01*
X117994238Y-57844076D01*
X117993369Y-57840500D01*
X117993368Y-57840492D01*
X117985257Y-57807101D01*
X117985104Y-57806464D01*
X117897491Y-57437431D01*
X117897341Y-57436795D01*
X117889591Y-57403381D01*
X117888751Y-57399759D01*
X117888195Y-57398277D01*
X117887830Y-57396739D01*
X117880524Y-57377561D01*
X117874328Y-57361297D01*
X117874097Y-57360686D01*
X117740427Y-57004271D01*
X117740199Y-57003656D01*
X117728454Y-56971837D01*
X117727161Y-56968334D01*
X117726424Y-56966935D01*
X117725868Y-56965451D01*
X117708022Y-56931970D01*
X117707785Y-56931524D01*
X117529938Y-56593638D01*
X117512348Y-56559794D01*
X117511442Y-56558499D01*
X117510704Y-56557096D01*
X117488805Y-56526123D01*
X117488432Y-56525592D01*
X117269419Y-56212373D01*
X117269046Y-56211837D01*
X117249618Y-56183743D01*
X117249616Y-56183740D01*
X117247505Y-56180688D01*
X117246445Y-56179518D01*
X117245537Y-56178219D01*
X117243022Y-56175471D01*
X117243015Y-56175462D01*
X117219910Y-56150215D01*
X117219468Y-56149730D01*
X116970713Y-55875054D01*
X116939811Y-55811135D01*
X116948373Y-55740656D01*
X116993678Y-55685995D01*
X117045135Y-55666251D01*
X117045148Y-55666250D01*
X117300567Y-55610793D01*
X117544983Y-55518192D01*
X117607184Y-55483358D01*
X117768950Y-55392764D01*
X117768952Y-55392763D01*
X117773028Y-55390480D01*
X117979691Y-55230464D01*
X118160432Y-55041659D01*
X118287148Y-54862360D01*
X118308579Y-54832035D01*
X118308580Y-54832034D01*
X118311280Y-54828213D01*
X118313514Y-54823782D01*
X118426819Y-54598986D01*
X118428922Y-54594814D01*
X118510774Y-54346591D01*
X118542148Y-54164000D01*
X118547187Y-54134677D01*
X118547188Y-54134669D01*
X118547722Y-54131561D01*
X118563174Y-53910593D01*
X118598960Y-53398811D01*
X118598960Y-53398805D01*
X118599122Y-53396491D01*
X118598271Y-53201659D01*
X118558510Y-52943331D01*
X118547842Y-52908972D01*
X118503737Y-52766932D01*
X118481003Y-52693717D01*
X118478972Y-52689507D01*
X118478970Y-52689501D01*
X118369482Y-52462510D01*
X118367452Y-52458301D01*
X118220351Y-52242255D01*
X118201773Y-52222157D01*
X118046114Y-52053768D01*
X118046112Y-52053767D01*
X118042932Y-52050326D01*
X117839093Y-51886728D01*
X117613312Y-51755056D01*
X117608978Y-51753327D01*
X117608974Y-51753325D01*
X117491930Y-51706630D01*
X117370549Y-51658205D01*
X117366013Y-51657137D01*
X117366007Y-51657135D01*
X117120680Y-51599368D01*
X117116136Y-51598298D01*
X117111482Y-51597911D01*
X117111480Y-51597911D01*
X116860323Y-51577042D01*
X116860320Y-51577042D01*
X116855663Y-51576655D01*
X116594852Y-51593750D01*
X116590279Y-51594743D01*
X116590278Y-51594743D01*
X116573905Y-51598298D01*
X116339433Y-51649207D01*
X116335061Y-51650863D01*
X116335059Y-51650864D01*
X116113900Y-51734655D01*
X116095017Y-51741809D01*
X116090948Y-51744088D01*
X115871044Y-51867239D01*
X115871038Y-51867243D01*
X115866972Y-51869520D01*
X115863283Y-51872376D01*
X115863282Y-51872377D01*
X115844748Y-51886728D01*
X115660309Y-52029536D01*
X115657079Y-52032910D01*
X115657078Y-52032911D01*
X115640407Y-52050326D01*
X115479568Y-52218341D01*
X115476872Y-52222156D01*
X115476871Y-52222157D01*
X115331421Y-52427965D01*
X115328720Y-52431787D01*
X115326613Y-52435968D01*
X115326612Y-52435969D01*
X115315356Y-52458301D01*
X115211078Y-52665186D01*
X115200781Y-52696412D01*
X115140167Y-52880231D01*
X115129226Y-52913409D01*
X115128435Y-52918013D01*
X115106291Y-53046889D01*
X115092278Y-53128439D01*
X115092058Y-53131584D01*
X115092057Y-53131593D01*
X115041040Y-53861189D01*
X115040878Y-53863509D01*
X115040888Y-53865827D01*
X115040888Y-53865831D01*
X115041056Y-53904423D01*
X115041728Y-54058341D01*
X115081490Y-54316669D01*
X115158997Y-54566284D01*
X115161027Y-54570494D01*
X115161030Y-54570500D01*
X115217463Y-54687497D01*
X115229042Y-54757543D01*
X115200913Y-54822730D01*
X115142007Y-54862360D01*
X115078158Y-54865564D01*
X114917145Y-54831858D01*
X114916539Y-54831729D01*
X114879489Y-54823772D01*
X114877908Y-54823644D01*
X114876364Y-54823321D01*
X114871322Y-54822940D01*
X114838675Y-54820471D01*
X114838025Y-54820420D01*
X114450911Y-54789132D01*
X114450258Y-54789078D01*
X114416098Y-54786138D01*
X114416095Y-54786138D01*
X114412424Y-54785822D01*
X114410841Y-54785893D01*
X114409265Y-54785766D01*
X114405585Y-54785951D01*
X114405584Y-54785951D01*
X114387370Y-54786867D01*
X114371412Y-54787669D01*
X114370824Y-54787697D01*
X114126211Y-54798726D01*
X113982019Y-54805227D01*
X113981363Y-54805255D01*
X113978416Y-54805373D01*
X113943409Y-54806768D01*
X113941844Y-54807038D01*
X113940267Y-54807109D01*
X113936629Y-54807756D01*
X113936627Y-54807756D01*
X113903077Y-54813721D01*
X113902442Y-54813832D01*
X113682040Y-54851837D01*
X113611513Y-54843701D01*
X113556579Y-54798726D01*
X113534680Y-54731191D01*
X113535638Y-54711768D01*
X113560616Y-54515421D01*
X113560616Y-54515417D01*
X113561014Y-54512291D01*
X113563431Y-54420000D01*
X113563197Y-54416851D01*
X113544407Y-54164000D01*
X113544406Y-54163996D01*
X113544061Y-54159348D01*
X113538479Y-54134677D01*
X113487408Y-53908980D01*
X113486377Y-53904423D01*
X113470467Y-53863509D01*
X113393340Y-53665176D01*
X113393339Y-53665173D01*
X113391647Y-53660823D01*
X113372830Y-53627899D01*
X113264270Y-53437960D01*
X113261951Y-53433902D01*
X113100138Y-53228643D01*
X112909763Y-53049557D01*
X112695009Y-52900576D01*
X112690816Y-52898508D01*
X112464781Y-52787040D01*
X112464778Y-52787039D01*
X112460593Y-52784975D01*
X112414449Y-52770204D01*
X112216123Y-52706720D01*
X112211665Y-52705293D01*
X111953693Y-52663279D01*
X111839942Y-52661790D01*
X111697022Y-52659919D01*
X111697019Y-52659919D01*
X111692345Y-52659858D01*
X111433362Y-52695104D01*
X111428876Y-52696412D01*
X111428874Y-52696412D01*
X111400988Y-52704540D01*
X111182433Y-52768243D01*
X111178180Y-52770203D01*
X111178179Y-52770204D01*
X111141659Y-52787040D01*
X110945072Y-52877668D01*
X110906067Y-52903241D01*
X110730404Y-53018410D01*
X110730399Y-53018414D01*
X110726491Y-53020976D01*
X110531494Y-53195018D01*
X110364363Y-53395970D01*
X110228771Y-53619419D01*
X110226967Y-53623721D01*
X110226965Y-53623725D01*
X110226106Y-53625773D01*
X110225622Y-53626360D01*
X110224838Y-53627899D01*
X110224497Y-53627725D01*
X110179912Y-53681809D01*
X110064485Y-53758934D01*
X110064481Y-53758937D01*
X110060593Y-53761535D01*
X109899091Y-53908233D01*
X109896967Y-53910592D01*
X109896966Y-53910593D01*
X108705975Y-55233324D01*
X108482510Y-55481507D01*
X108363230Y-55635560D01*
X108235519Y-55863604D01*
X108142917Y-56108021D01*
X108087460Y-56363440D01*
X108070366Y-56624251D01*
X108092010Y-56884724D01*
X108151916Y-57139137D01*
X108248769Y-57381900D01*
X108380441Y-57607680D01*
X108383368Y-57611327D01*
X108541115Y-57807879D01*
X108541121Y-57807885D01*
X108544038Y-57811520D01*
X108547465Y-57814687D01*
X108547466Y-57814689D01*
X108582624Y-57847188D01*
X108735969Y-57988938D01*
X108739825Y-57991564D01*
X108739832Y-57991569D01*
X108891134Y-58094586D01*
X108952015Y-58136038D01*
X108956228Y-58138070D01*
X108956233Y-58138073D01*
X109003766Y-58161000D01*
X109187431Y-58249590D01*
X109191898Y-58250977D01*
X109191903Y-58250979D01*
X109339011Y-58296657D01*
X109437044Y-58327097D01*
X109441656Y-58327807D01*
X109441661Y-58327808D01*
X109690752Y-58366146D01*
X109690755Y-58366146D01*
X109695373Y-58366857D01*
X109827464Y-58367433D01*
X109952067Y-58367977D01*
X109952072Y-58367977D01*
X109956741Y-58367997D01*
X109964604Y-58366857D01*
X110210774Y-58331165D01*
X110210777Y-58331164D01*
X110215407Y-58330493D01*
X110285252Y-58309472D01*
X110425708Y-58267200D01*
X110496703Y-58266721D01*
X110556687Y-58304701D01*
X110586615Y-58369082D01*
X110588002Y-58390034D01*
X110582937Y-58682548D01*
X110582468Y-58709606D01*
X110582457Y-58710159D01*
X110581603Y-58748090D01*
X110581774Y-58749665D01*
X110581747Y-58751248D01*
X110582163Y-58754893D01*
X110582163Y-58754897D01*
X110586028Y-58788770D01*
X110586101Y-58789423D01*
X110629477Y-59188059D01*
X110629546Y-59188710D01*
X110632016Y-59212559D01*
X110633428Y-59226198D01*
X110633794Y-59227733D01*
X110633966Y-59229313D01*
X110634847Y-59232923D01*
X110634847Y-59232925D01*
X110642941Y-59266103D01*
X110643095Y-59266739D01*
X110736166Y-59657038D01*
X110736243Y-59657363D01*
X110736393Y-59658002D01*
X110743638Y-59689100D01*
X110744987Y-59694892D01*
X110745546Y-59696378D01*
X110745912Y-59697913D01*
X110747231Y-59701364D01*
X110747234Y-59701375D01*
X110759418Y-59733260D01*
X110759650Y-59733872D01*
X110785092Y-59801507D01*
X110900123Y-60107307D01*
X110901346Y-60110559D01*
X110901576Y-60111175D01*
X110914737Y-60146723D01*
X110915476Y-60148124D01*
X110916034Y-60149607D01*
X110917771Y-60152858D01*
X110933879Y-60183006D01*
X110934186Y-60183585D01*
X111106909Y-60510954D01*
X111122368Y-60540255D01*
X111122673Y-60540837D01*
X111140203Y-60574485D01*
X111141112Y-60575782D01*
X111141851Y-60577183D01*
X111143997Y-60580212D01*
X111144000Y-60580217D01*
X111163711Y-60608038D01*
X111164089Y-60608574D01*
X111396063Y-60939639D01*
X111396397Y-60940118D01*
X111418023Y-60971325D01*
X111419090Y-60972501D01*
X111419996Y-60973794D01*
X111422494Y-60976518D01*
X111445488Y-61001595D01*
X111445930Y-61002080D01*
X111718320Y-61302267D01*
X111718758Y-61302752D01*
X111734446Y-61320222D01*
X111743994Y-61330855D01*
X111745196Y-61331885D01*
X111746261Y-61333058D01*
X111749060Y-61335430D01*
X111775134Y-61357526D01*
X111775633Y-61357951D01*
X112084026Y-61622063D01*
X112084523Y-61622491D01*
X112092306Y-61629227D01*
X112130725Y-61688931D01*
X112130767Y-61759927D01*
X112092418Y-61819676D01*
X112027855Y-61849207D01*
X112009850Y-61850500D01*
X106250763Y-61850500D01*
X106239579Y-61849973D01*
X106232091Y-61848299D01*
X106224168Y-61848548D01*
X106164033Y-61850438D01*
X106160075Y-61850500D01*
X106132144Y-61850500D01*
X106128229Y-61850995D01*
X106128225Y-61850995D01*
X106128167Y-61851003D01*
X106128138Y-61851006D01*
X106116296Y-61851939D01*
X106072110Y-61853327D01*
X106054744Y-61858372D01*
X106052658Y-61858978D01*
X106033306Y-61862986D01*
X106021068Y-61864532D01*
X106021066Y-61864533D01*
X106013203Y-61865526D01*
X105972086Y-61881806D01*
X105960885Y-61885641D01*
X105918406Y-61897982D01*
X105911587Y-61902015D01*
X105911582Y-61902017D01*
X105900971Y-61908293D01*
X105883221Y-61916990D01*
X105864383Y-61924448D01*
X105857967Y-61929109D01*
X105857966Y-61929110D01*
X105828625Y-61950428D01*
X105818701Y-61956947D01*
X105787460Y-61975422D01*
X105787455Y-61975426D01*
X105780637Y-61979458D01*
X105766313Y-61993782D01*
X105751281Y-62006621D01*
X105734893Y-62018528D01*
X105726217Y-62029016D01*
X105706712Y-62052593D01*
X105698722Y-62061373D01*
X104584324Y-63175771D01*
X104576038Y-63183311D01*
X104569559Y-63187423D01*
X104564134Y-63193200D01*
X104522934Y-63237074D01*
X104520179Y-63239916D01*
X104500442Y-63259653D01*
X104497962Y-63262850D01*
X104490259Y-63271870D01*
X104459991Y-63304102D01*
X104456172Y-63311048D01*
X104456170Y-63311051D01*
X104450229Y-63321857D01*
X104439378Y-63338376D01*
X104426963Y-63354382D01*
X104423818Y-63361651D01*
X104423815Y-63361655D01*
X104409403Y-63394960D01*
X104404186Y-63405610D01*
X104382882Y-63444363D01*
X104380911Y-63452038D01*
X104380911Y-63452039D01*
X104377844Y-63463985D01*
X104371440Y-63482689D01*
X104363396Y-63501278D01*
X104362157Y-63509101D01*
X104362154Y-63509111D01*
X104356478Y-63544947D01*
X104354072Y-63556567D01*
X104351931Y-63564908D01*
X104343077Y-63599393D01*
X104343077Y-63619647D01*
X104341526Y-63639357D01*
X104338357Y-63659366D01*
X104339103Y-63667258D01*
X104342518Y-63703384D01*
X104343077Y-63715242D01*
X104343077Y-63744433D01*
X104323075Y-63812554D01*
X104269419Y-63859047D01*
X104217077Y-63870433D01*
X101516027Y-63870433D01*
X101447906Y-63850431D01*
X101426932Y-63833528D01*
X101330405Y-63737001D01*
X101296379Y-63674689D01*
X101293500Y-63647906D01*
X101293500Y-62974600D01*
X101282526Y-62868834D01*
X101278108Y-62855590D01*
X101228868Y-62708002D01*
X101226550Y-62701054D01*
X101133478Y-62550652D01*
X101008303Y-62425695D01*
X100906269Y-62362800D01*
X100863968Y-62336725D01*
X100863966Y-62336724D01*
X100857738Y-62332885D01*
X100763624Y-62301669D01*
X100696389Y-62279368D01*
X100696387Y-62279368D01*
X100689861Y-62277203D01*
X100683025Y-62276503D01*
X100683022Y-62276502D01*
X100639969Y-62272091D01*
X100585400Y-62266500D01*
X100547595Y-62266500D01*
X100479474Y-62246498D01*
X100458499Y-62229595D01*
X100413243Y-62184338D01*
X100356844Y-62127939D01*
X100326949Y-62080282D01*
X100322786Y-62068327D01*
X100311915Y-62037109D01*
X100308401Y-61966201D01*
X100343782Y-61904649D01*
X100394224Y-61875131D01*
X100420267Y-61867206D01*
X100428995Y-61864550D01*
X100429618Y-61864362D01*
X100462326Y-61854594D01*
X100462327Y-61854594D01*
X100465875Y-61853534D01*
X100467317Y-61852888D01*
X100468829Y-61852428D01*
X100503392Y-61836730D01*
X100503846Y-61836526D01*
X100841815Y-61685142D01*
X100876774Y-61669701D01*
X100878127Y-61668877D01*
X100879570Y-61668231D01*
X100911998Y-61648259D01*
X100912113Y-61648189D01*
X101229271Y-61455119D01*
X101229694Y-61454863D01*
X101262137Y-61435343D01*
X101263369Y-61434362D01*
X101264724Y-61433537D01*
X101294249Y-61409773D01*
X101294757Y-61409367D01*
X101585548Y-61177782D01*
X101586061Y-61177376D01*
X101612835Y-61156280D01*
X101612847Y-61156269D01*
X101615761Y-61153973D01*
X101616866Y-61152839D01*
X101618103Y-61151854D01*
X101620675Y-61149187D01*
X101620680Y-61149183D01*
X101644388Y-61124604D01*
X101644842Y-61124136D01*
X101904850Y-60857359D01*
X101905309Y-60856890D01*
X101929306Y-60832524D01*
X101929310Y-60832520D01*
X101931932Y-60829857D01*
X101932886Y-60828593D01*
X101933989Y-60827462D01*
X101936230Y-60824463D01*
X101956575Y-60797231D01*
X101956968Y-60796708D01*
X102182103Y-60498609D01*
X102182498Y-60498088D01*
X102203239Y-60470919D01*
X102205501Y-60467956D01*
X102206290Y-60466581D01*
X102207242Y-60465321D01*
X102209072Y-60462094D01*
X102209081Y-60462081D01*
X102225936Y-60432363D01*
X102226260Y-60431795D01*
X102298193Y-60306492D01*
X102412706Y-60107017D01*
X102431976Y-60073851D01*
X102432588Y-60072384D01*
X102433372Y-60071019D01*
X102434786Y-60067582D01*
X102447709Y-60036167D01*
X102447958Y-60035564D01*
X102592577Y-59689100D01*
X102592831Y-59688496D01*
X102605746Y-59658002D01*
X102607590Y-59653649D01*
X102608012Y-59652124D01*
X102608621Y-59650664D01*
X102618544Y-59614032D01*
X102618717Y-59613401D01*
X102718874Y-59251123D01*
X102719049Y-59250495D01*
X102728358Y-59217490D01*
X102728359Y-59217485D01*
X102729371Y-59213897D01*
X102729598Y-59212330D01*
X102730019Y-59210808D01*
X102735261Y-59173293D01*
X102735350Y-59172669D01*
X102789487Y-58799364D01*
X102789548Y-58798954D01*
X102795181Y-58761480D01*
X102795210Y-58759904D01*
X102795438Y-58758331D01*
X102795573Y-58748090D01*
X102795935Y-58720415D01*
X102795945Y-58719759D01*
X102797960Y-58609772D01*
X102802872Y-58341588D01*
X102803767Y-58303503D01*
X102803598Y-58301935D01*
X102803627Y-58300347D01*
X102799359Y-58262595D01*
X102799292Y-58261993D01*
X102758715Y-57885605D01*
X102758646Y-57884954D01*
X102755147Y-57850837D01*
X102754773Y-57847188D01*
X102754408Y-57845649D01*
X102754238Y-57844076D01*
X102753369Y-57840500D01*
X102753368Y-57840492D01*
X102745257Y-57807101D01*
X102745104Y-57806464D01*
X102657491Y-57437431D01*
X102657341Y-57436795D01*
X102649591Y-57403381D01*
X102648751Y-57399759D01*
X102648195Y-57398277D01*
X102647830Y-57396739D01*
X102640524Y-57377561D01*
X102634328Y-57361297D01*
X102634097Y-57360686D01*
X102500427Y-57004271D01*
X102500199Y-57003656D01*
X102488454Y-56971837D01*
X102487161Y-56968334D01*
X102486424Y-56966935D01*
X102485868Y-56965451D01*
X102468022Y-56931970D01*
X102467785Y-56931524D01*
X102289938Y-56593638D01*
X102272348Y-56559794D01*
X102271442Y-56558499D01*
X102270704Y-56557096D01*
X102248805Y-56526123D01*
X102248432Y-56525592D01*
X102029419Y-56212373D01*
X102029046Y-56211837D01*
X102009618Y-56183743D01*
X102009616Y-56183740D01*
X102007505Y-56180688D01*
X102006445Y-56179518D01*
X102005537Y-56178219D01*
X102003022Y-56175471D01*
X102003015Y-56175462D01*
X101979910Y-56150215D01*
X101979468Y-56149730D01*
X101730713Y-55875054D01*
X101699811Y-55811135D01*
X101708373Y-55740656D01*
X101753678Y-55685995D01*
X101805135Y-55666251D01*
X101805148Y-55666250D01*
X102060567Y-55610793D01*
X102304983Y-55518192D01*
X102367184Y-55483358D01*
X102528950Y-55392764D01*
X102528952Y-55392763D01*
X102533028Y-55390480D01*
X102739691Y-55230464D01*
X102920432Y-55041659D01*
X103047148Y-54862360D01*
X103068579Y-54832035D01*
X103068580Y-54832034D01*
X103071280Y-54828213D01*
X103073514Y-54823782D01*
X103186819Y-54598986D01*
X103188922Y-54594814D01*
X103270774Y-54346591D01*
X103302148Y-54164000D01*
X103307187Y-54134677D01*
X103307188Y-54134669D01*
X103307722Y-54131561D01*
X103323174Y-53910593D01*
X103358960Y-53398811D01*
X103358960Y-53398805D01*
X103359122Y-53396491D01*
X103358271Y-53201659D01*
X103318510Y-52943331D01*
X103307842Y-52908972D01*
X103263737Y-52766932D01*
X103241003Y-52693717D01*
X103238972Y-52689507D01*
X103238970Y-52689501D01*
X103129482Y-52462510D01*
X103127452Y-52458301D01*
X102980351Y-52242255D01*
X102961773Y-52222157D01*
X102806114Y-52053768D01*
X102806112Y-52053767D01*
X102802932Y-52050326D01*
X102599093Y-51886728D01*
X102373312Y-51755056D01*
X102368978Y-51753327D01*
X102368974Y-51753325D01*
X102251930Y-51706630D01*
X102130549Y-51658205D01*
X102126013Y-51657137D01*
X102126007Y-51657135D01*
X101880680Y-51599368D01*
X101876136Y-51598298D01*
X101871482Y-51597911D01*
X101871480Y-51597911D01*
X101620323Y-51577042D01*
X101620320Y-51577042D01*
X101615663Y-51576655D01*
X101354852Y-51593750D01*
X101350279Y-51594743D01*
X101350278Y-51594743D01*
X101333905Y-51598298D01*
X101099433Y-51649207D01*
X101095061Y-51650863D01*
X101095059Y-51650864D01*
X100873900Y-51734655D01*
X100855017Y-51741809D01*
X100850948Y-51744088D01*
X100631044Y-51867239D01*
X100631038Y-51867243D01*
X100626972Y-51869520D01*
X100623283Y-51872376D01*
X100623282Y-51872377D01*
X100604748Y-51886728D01*
X100420309Y-52029536D01*
X100417079Y-52032910D01*
X100417078Y-52032911D01*
X100400407Y-52050326D01*
X100239568Y-52218341D01*
X100236872Y-52222156D01*
X100236871Y-52222157D01*
X100091421Y-52427965D01*
X100088720Y-52431787D01*
X100086613Y-52435968D01*
X100086612Y-52435969D01*
X100075356Y-52458301D01*
X99971078Y-52665186D01*
X99960781Y-52696412D01*
X99900167Y-52880231D01*
X99889226Y-52913409D01*
X99888435Y-52918013D01*
X99866291Y-53046889D01*
X99852278Y-53128439D01*
X99852058Y-53131584D01*
X99852057Y-53131593D01*
X99801040Y-53861189D01*
X99800878Y-53863509D01*
X99800888Y-53865827D01*
X99800888Y-53865831D01*
X99801056Y-53904423D01*
X99801728Y-54058341D01*
X99841490Y-54316669D01*
X99918997Y-54566284D01*
X99921027Y-54570494D01*
X99921030Y-54570500D01*
X99977463Y-54687497D01*
X99989042Y-54757543D01*
X99960913Y-54822730D01*
X99902007Y-54862360D01*
X99838158Y-54865564D01*
X99677145Y-54831858D01*
X99676539Y-54831729D01*
X99639489Y-54823772D01*
X99637908Y-54823644D01*
X99636364Y-54823321D01*
X99631322Y-54822940D01*
X99598675Y-54820471D01*
X99598025Y-54820420D01*
X99210911Y-54789132D01*
X99210258Y-54789078D01*
X99176098Y-54786138D01*
X99176095Y-54786138D01*
X99172424Y-54785822D01*
X99170841Y-54785893D01*
X99169265Y-54785766D01*
X99165585Y-54785951D01*
X99165584Y-54785951D01*
X99147370Y-54786867D01*
X99131412Y-54787669D01*
X99130824Y-54787697D01*
X98886211Y-54798726D01*
X98742019Y-54805227D01*
X98741363Y-54805255D01*
X98738416Y-54805373D01*
X98703409Y-54806768D01*
X98701844Y-54807038D01*
X98700267Y-54807109D01*
X98696629Y-54807756D01*
X98696627Y-54807756D01*
X98663077Y-54813721D01*
X98662442Y-54813832D01*
X98442040Y-54851837D01*
X98371513Y-54843701D01*
X98316579Y-54798726D01*
X98294680Y-54731191D01*
X98295638Y-54711768D01*
X98320616Y-54515421D01*
X98320616Y-54515417D01*
X98321014Y-54512291D01*
X98323431Y-54420000D01*
X98323197Y-54416851D01*
X98304407Y-54164000D01*
X98304406Y-54163996D01*
X98304061Y-54159348D01*
X98298479Y-54134677D01*
X98247408Y-53908980D01*
X98246377Y-53904423D01*
X98230467Y-53863509D01*
X98153340Y-53665176D01*
X98153339Y-53665173D01*
X98151647Y-53660823D01*
X98132830Y-53627899D01*
X98024270Y-53437960D01*
X98021951Y-53433902D01*
X97860138Y-53228643D01*
X97669763Y-53049557D01*
X97455009Y-52900576D01*
X97450816Y-52898508D01*
X97224781Y-52787040D01*
X97224778Y-52787039D01*
X97220593Y-52784975D01*
X97174449Y-52770204D01*
X96976123Y-52706720D01*
X96971665Y-52705293D01*
X96713693Y-52663279D01*
X96599942Y-52661790D01*
X96457022Y-52659919D01*
X96457019Y-52659919D01*
X96452345Y-52659858D01*
X96193362Y-52695104D01*
X96188876Y-52696412D01*
X96188874Y-52696412D01*
X96160988Y-52704540D01*
X95942433Y-52768243D01*
X95938180Y-52770203D01*
X95938179Y-52770204D01*
X95901659Y-52787040D01*
X95705072Y-52877668D01*
X95666067Y-52903241D01*
X95490404Y-53018410D01*
X95490399Y-53018414D01*
X95486491Y-53020976D01*
X95291494Y-53195018D01*
X95124363Y-53395970D01*
X94988771Y-53619419D01*
X94986967Y-53623721D01*
X94986965Y-53623725D01*
X94986106Y-53625773D01*
X94985622Y-53626360D01*
X94984838Y-53627899D01*
X94984497Y-53627725D01*
X94939912Y-53681809D01*
X94824485Y-53758934D01*
X94824481Y-53758937D01*
X94820593Y-53761535D01*
X94659091Y-53908233D01*
X94656967Y-53910592D01*
X94656966Y-53910593D01*
X93465975Y-55233324D01*
X93242510Y-55481507D01*
X93123230Y-55635560D01*
X92995519Y-55863604D01*
X92902917Y-56108021D01*
X92847460Y-56363440D01*
X92830366Y-56624251D01*
X92852010Y-56884724D01*
X92911916Y-57139137D01*
X93008769Y-57381900D01*
X93140441Y-57607680D01*
X93143368Y-57611327D01*
X93301115Y-57807879D01*
X93301121Y-57807885D01*
X93304038Y-57811520D01*
X93307465Y-57814687D01*
X93307466Y-57814689D01*
X93342624Y-57847188D01*
X93495969Y-57988938D01*
X93499825Y-57991564D01*
X93499832Y-57991569D01*
X93651134Y-58094586D01*
X93712015Y-58136038D01*
X93716228Y-58138070D01*
X93716233Y-58138073D01*
X93763766Y-58161000D01*
X93947431Y-58249590D01*
X93951898Y-58250977D01*
X93951903Y-58250979D01*
X94099011Y-58296657D01*
X94197044Y-58327097D01*
X94201656Y-58327807D01*
X94201661Y-58327808D01*
X94450752Y-58366146D01*
X94450755Y-58366146D01*
X94455373Y-58366857D01*
X94587464Y-58367433D01*
X94712067Y-58367977D01*
X94712072Y-58367977D01*
X94716741Y-58367997D01*
X94724604Y-58366857D01*
X94970774Y-58331165D01*
X94970777Y-58331164D01*
X94975407Y-58330493D01*
X95045252Y-58309472D01*
X95185708Y-58267200D01*
X95256703Y-58266721D01*
X95316687Y-58304701D01*
X95346615Y-58369082D01*
X95348002Y-58390034D01*
X95342937Y-58682548D01*
X95342468Y-58709606D01*
X95342457Y-58710159D01*
X95341603Y-58748090D01*
X95341774Y-58749665D01*
X95341747Y-58751248D01*
X95342163Y-58754893D01*
X95342163Y-58754897D01*
X95346028Y-58788770D01*
X95346101Y-58789423D01*
X95389477Y-59188059D01*
X95389546Y-59188710D01*
X95392016Y-59212559D01*
X95393428Y-59226198D01*
X95393794Y-59227733D01*
X95393966Y-59229313D01*
X95394847Y-59232923D01*
X95394847Y-59232925D01*
X95402941Y-59266103D01*
X95403095Y-59266739D01*
X95496166Y-59657038D01*
X95496243Y-59657363D01*
X95496393Y-59658002D01*
X95503638Y-59689100D01*
X95504987Y-59694892D01*
X95505546Y-59696378D01*
X95505912Y-59697913D01*
X95507231Y-59701364D01*
X95507234Y-59701375D01*
X95519418Y-59733260D01*
X95519650Y-59733872D01*
X95545092Y-59801507D01*
X95660123Y-60107307D01*
X95661346Y-60110559D01*
X95661576Y-60111175D01*
X95674737Y-60146723D01*
X95675476Y-60148124D01*
X95676034Y-60149607D01*
X95677771Y-60152858D01*
X95693879Y-60183006D01*
X95694186Y-60183585D01*
X95866909Y-60510954D01*
X95882368Y-60540255D01*
X95882673Y-60540837D01*
X95900203Y-60574485D01*
X95901112Y-60575782D01*
X95901851Y-60577183D01*
X95903997Y-60580212D01*
X95904000Y-60580217D01*
X95923711Y-60608038D01*
X95924089Y-60608574D01*
X96156063Y-60939639D01*
X96156397Y-60940118D01*
X96178023Y-60971325D01*
X96179090Y-60972501D01*
X96179996Y-60973794D01*
X96182494Y-60976518D01*
X96205488Y-61001595D01*
X96205930Y-61002080D01*
X96478320Y-61302267D01*
X96478758Y-61302752D01*
X96494446Y-61320222D01*
X96503994Y-61330855D01*
X96505196Y-61331885D01*
X96506261Y-61333058D01*
X96509060Y-61335430D01*
X96535134Y-61357526D01*
X96535633Y-61357951D01*
X96844026Y-61622063D01*
X96844523Y-61622491D01*
X96870323Y-61644820D01*
X96870330Y-61644826D01*
X96873134Y-61647252D01*
X96874452Y-61648120D01*
X96875659Y-61649154D01*
X96878776Y-61651184D01*
X96878781Y-61651188D01*
X96907447Y-61669859D01*
X96907994Y-61670217D01*
X96930915Y-61685316D01*
X97247890Y-61894125D01*
X97279762Y-61915359D01*
X97281188Y-61916060D01*
X97282506Y-61916928D01*
X97285822Y-61918536D01*
X97285823Y-61918537D01*
X97316417Y-61933376D01*
X97316969Y-61933645D01*
X97576855Y-62061373D01*
X97584219Y-62064992D01*
X97636533Y-62112990D01*
X97654592Y-62181652D01*
X97632663Y-62249177D01*
X97577709Y-62294127D01*
X97568525Y-62297595D01*
X97461054Y-62333450D01*
X97310652Y-62426522D01*
X97185695Y-62551697D01*
X97181855Y-62557927D01*
X97181854Y-62557928D01*
X97114241Y-62667617D01*
X97092885Y-62702262D01*
X97090581Y-62709209D01*
X97042029Y-62855590D01*
X97037203Y-62870139D01*
X97026500Y-62974600D01*
X97026500Y-64025400D01*
X97037474Y-64131166D01*
X97093450Y-64298946D01*
X97186522Y-64449348D01*
X97311697Y-64574305D01*
X97317927Y-64578145D01*
X97317928Y-64578146D01*
X97455090Y-64662694D01*
X97462262Y-64667115D01*
X97532814Y-64690516D01*
X97623611Y-64720632D01*
X97623613Y-64720632D01*
X97630139Y-64722797D01*
X97636975Y-64723497D01*
X97636978Y-64723498D01*
X97680031Y-64727909D01*
X97734600Y-64733500D01*
X98407905Y-64733500D01*
X98476026Y-64753502D01*
X98497001Y-64770405D01*
X98909392Y-65182797D01*
X99319164Y-65592569D01*
X99326698Y-65600848D01*
X99330811Y-65607329D01*
X99375210Y-65649022D01*
X99380462Y-65653954D01*
X99383304Y-65656709D01*
X99403041Y-65676446D01*
X99406238Y-65678926D01*
X99415258Y-65686629D01*
X99447490Y-65716897D01*
X99454436Y-65720716D01*
X99454439Y-65720718D01*
X99465245Y-65726659D01*
X99481764Y-65737510D01*
X99497770Y-65749925D01*
X99505039Y-65753070D01*
X99505043Y-65753073D01*
X99538348Y-65767485D01*
X99548998Y-65772702D01*
X99587751Y-65794006D01*
X99595426Y-65795977D01*
X99595427Y-65795977D01*
X99607373Y-65799044D01*
X99626077Y-65805448D01*
X99631529Y-65807807D01*
X99644666Y-65813492D01*
X99652489Y-65814731D01*
X99652499Y-65814734D01*
X99688335Y-65820410D01*
X99699955Y-65822816D01*
X99735100Y-65831839D01*
X99742781Y-65833811D01*
X99763035Y-65833811D01*
X99782745Y-65835362D01*
X99802754Y-65838531D01*
X99810646Y-65837785D01*
X99846772Y-65834370D01*
X99858630Y-65833811D01*
X104212498Y-65833811D01*
X104280619Y-65853813D01*
X104327112Y-65907469D01*
X104337225Y-65977674D01*
X104329572Y-66031112D01*
X104329572Y-66048889D01*
X104347655Y-66175159D01*
X104352642Y-66192214D01*
X104384817Y-66262979D01*
X104394803Y-66333270D01*
X104365203Y-66397801D01*
X104359211Y-66404225D01*
X103209811Y-67553624D01*
X103147499Y-67587650D01*
X103076683Y-67582585D01*
X103016566Y-67535443D01*
X102982982Y-67486119D01*
X102982981Y-67486118D01*
X102980351Y-67482255D01*
X102964771Y-67465400D01*
X102806114Y-67293768D01*
X102806112Y-67293767D01*
X102802932Y-67290326D01*
X102667101Y-67181310D01*
X102602750Y-67129663D01*
X102599093Y-67126728D01*
X102397116Y-67008938D01*
X102377347Y-66997409D01*
X102377345Y-66997408D01*
X102373312Y-66995056D01*
X102368978Y-66993327D01*
X102368974Y-66993325D01*
X102247164Y-66944729D01*
X102130549Y-66898205D01*
X102126013Y-66897137D01*
X102126007Y-66897135D01*
X101880680Y-66839368D01*
X101876136Y-66838298D01*
X101871482Y-66837911D01*
X101871480Y-66837911D01*
X101620323Y-66817042D01*
X101620320Y-66817042D01*
X101615663Y-66816655D01*
X101354852Y-66833750D01*
X101350279Y-66834743D01*
X101350278Y-66834743D01*
X101104006Y-66888214D01*
X101099433Y-66889207D01*
X101095061Y-66890863D01*
X101095059Y-66890864D01*
X100952887Y-66944729D01*
X100855017Y-66981809D01*
X100783227Y-67022013D01*
X100631044Y-67107239D01*
X100631038Y-67107243D01*
X100626972Y-67109520D01*
X100623283Y-67112376D01*
X100623282Y-67112377D01*
X100604868Y-67126635D01*
X100420309Y-67269536D01*
X100417079Y-67272910D01*
X100417078Y-67272911D01*
X100400407Y-67290326D01*
X100239568Y-67458341D01*
X100236872Y-67462156D01*
X100236871Y-67462157D01*
X100157229Y-67574848D01*
X100088720Y-67671787D01*
X100086613Y-67675968D01*
X100086612Y-67675969D01*
X100077160Y-67694721D01*
X99971078Y-67905186D01*
X99961052Y-67935590D01*
X99896631Y-68130954D01*
X99889226Y-68153409D01*
X99885855Y-68173027D01*
X99854154Y-68357522D01*
X99852278Y-68368439D01*
X99852058Y-68371584D01*
X99852057Y-68371593D01*
X99802266Y-69083657D01*
X99800878Y-69103509D01*
X99800888Y-69105827D01*
X99800888Y-69105831D01*
X99801052Y-69143410D01*
X99801728Y-69298341D01*
X99814311Y-69380088D01*
X99839699Y-69545031D01*
X99841490Y-69556669D01*
X99918997Y-69806284D01*
X99921027Y-69810494D01*
X99921030Y-69810500D01*
X99977463Y-69927497D01*
X99989042Y-69997543D01*
X99960913Y-70062730D01*
X99902007Y-70102360D01*
X99838158Y-70105564D01*
X99677145Y-70071858D01*
X99676539Y-70071729D01*
X99639489Y-70063772D01*
X99637908Y-70063644D01*
X99636364Y-70063321D01*
X99631322Y-70062940D01*
X99598675Y-70060471D01*
X99598025Y-70060420D01*
X99210911Y-70029132D01*
X99210258Y-70029078D01*
X99176098Y-70026138D01*
X99176095Y-70026138D01*
X99172424Y-70025822D01*
X99170841Y-70025893D01*
X99169265Y-70025766D01*
X99165585Y-70025951D01*
X99165584Y-70025951D01*
X99147370Y-70026867D01*
X99131412Y-70027669D01*
X99130824Y-70027697D01*
X98886211Y-70038726D01*
X98742019Y-70045227D01*
X98741363Y-70045255D01*
X98738416Y-70045373D01*
X98703409Y-70046768D01*
X98701844Y-70047038D01*
X98700267Y-70047109D01*
X98696629Y-70047756D01*
X98696627Y-70047756D01*
X98663077Y-70053721D01*
X98662442Y-70053832D01*
X98442040Y-70091837D01*
X98371513Y-70083701D01*
X98316579Y-70038726D01*
X98294680Y-69971191D01*
X98295638Y-69951768D01*
X98320616Y-69755421D01*
X98320616Y-69755417D01*
X98321014Y-69752291D01*
X98321182Y-69745896D01*
X98323348Y-69663160D01*
X98323431Y-69660000D01*
X98319903Y-69612529D01*
X98304407Y-69404000D01*
X98304406Y-69403996D01*
X98304061Y-69399348D01*
X98298708Y-69375689D01*
X98247408Y-69148980D01*
X98246377Y-69144423D01*
X98230467Y-69103509D01*
X98153340Y-68905176D01*
X98153339Y-68905173D01*
X98151647Y-68900823D01*
X98132830Y-68867899D01*
X98066541Y-68751918D01*
X98021951Y-68673902D01*
X97860138Y-68468643D01*
X97669763Y-68289557D01*
X97616401Y-68252538D01*
X97501787Y-68173027D01*
X97457217Y-68117764D01*
X97449600Y-68047177D01*
X97481355Y-67983678D01*
X97542398Y-67947426D01*
X97573607Y-67943500D01*
X97716800Y-67943500D01*
X97784921Y-67963502D01*
X97804147Y-67979843D01*
X97804420Y-67979540D01*
X97809332Y-67983963D01*
X97813747Y-67988866D01*
X97968248Y-68101118D01*
X97974276Y-68103802D01*
X97974278Y-68103803D01*
X98130565Y-68173386D01*
X98142712Y-68178794D01*
X98236112Y-68198647D01*
X98323056Y-68217128D01*
X98323061Y-68217128D01*
X98329513Y-68218500D01*
X98520487Y-68218500D01*
X98526939Y-68217128D01*
X98526944Y-68217128D01*
X98613888Y-68198647D01*
X98707288Y-68178794D01*
X98719435Y-68173386D01*
X98875722Y-68103803D01*
X98875724Y-68103802D01*
X98881752Y-68101118D01*
X99036253Y-67988866D01*
X99073566Y-67947426D01*
X99159621Y-67851852D01*
X99159622Y-67851851D01*
X99164040Y-67846944D01*
X99241141Y-67713401D01*
X99256223Y-67687279D01*
X99256224Y-67687278D01*
X99259527Y-67681556D01*
X99318542Y-67499928D01*
X99319994Y-67486119D01*
X99337814Y-67316565D01*
X99338504Y-67310000D01*
X99322927Y-67161791D01*
X99319232Y-67126635D01*
X99319232Y-67126633D01*
X99318542Y-67120072D01*
X99259527Y-66938444D01*
X99164040Y-66773056D01*
X99131645Y-66737077D01*
X99040675Y-66636045D01*
X99040674Y-66636044D01*
X99036253Y-66631134D01*
X98906429Y-66536811D01*
X98887094Y-66522763D01*
X98887093Y-66522762D01*
X98881752Y-66518882D01*
X98875724Y-66516198D01*
X98875722Y-66516197D01*
X98713319Y-66443891D01*
X98713318Y-66443891D01*
X98707288Y-66441206D01*
X98591061Y-66416501D01*
X98526944Y-66402872D01*
X98526939Y-66402872D01*
X98520487Y-66401500D01*
X98329513Y-66401500D01*
X98323061Y-66402872D01*
X98323056Y-66402872D01*
X98258939Y-66416501D01*
X98142712Y-66441206D01*
X98136682Y-66443891D01*
X98136681Y-66443891D01*
X97974278Y-66516197D01*
X97974276Y-66516198D01*
X97968248Y-66518882D01*
X97962907Y-66522762D01*
X97962906Y-66522763D01*
X97911749Y-66559931D01*
X97813747Y-66631134D01*
X97809332Y-66636037D01*
X97804420Y-66640460D01*
X97803295Y-66639211D01*
X97749986Y-66672051D01*
X97716800Y-66676500D01*
X96593463Y-66676500D01*
X96525342Y-66656498D01*
X96478849Y-66602842D01*
X96472537Y-66583830D01*
X96472526Y-66583834D01*
X96418868Y-66423002D01*
X96416550Y-66416054D01*
X96323478Y-66265652D01*
X96198303Y-66140695D01*
X96193765Y-66137898D01*
X96153176Y-66080647D01*
X96149946Y-66009724D01*
X96185572Y-65948313D01*
X96194068Y-65940938D01*
X96204207Y-65932902D01*
X96318739Y-65818171D01*
X96327751Y-65806760D01*
X96412816Y-65668757D01*
X96418963Y-65655576D01*
X96470138Y-65501290D01*
X96473005Y-65487914D01*
X96482672Y-65393562D01*
X96483000Y-65387146D01*
X96483000Y-65274615D01*
X96478525Y-65259376D01*
X96477135Y-65258171D01*
X96469452Y-65256500D01*
X94035116Y-65256500D01*
X94019877Y-65260975D01*
X94018672Y-65262365D01*
X94017001Y-65270048D01*
X94017001Y-65387095D01*
X94017338Y-65393614D01*
X94027257Y-65489206D01*
X94030149Y-65502600D01*
X94081588Y-65656784D01*
X94087761Y-65669962D01*
X94173063Y-65807807D01*
X94182099Y-65819208D01*
X94296828Y-65933738D01*
X94305762Y-65940794D01*
X94346823Y-65998712D01*
X94350053Y-66069635D01*
X94314426Y-66131046D01*
X94306593Y-66137846D01*
X94300652Y-66141522D01*
X94175695Y-66266697D01*
X94108846Y-66375147D01*
X94103317Y-66384116D01*
X94050545Y-66431609D01*
X93996057Y-66444000D01*
X92694046Y-66444000D01*
X92625925Y-66423998D01*
X92586902Y-66384303D01*
X92517332Y-66271880D01*
X92513478Y-66265652D01*
X92388303Y-66140695D01*
X92383765Y-66137898D01*
X92343176Y-66080647D01*
X92339946Y-66009724D01*
X92375572Y-65948313D01*
X92384068Y-65940938D01*
X92394207Y-65932902D01*
X92508739Y-65818171D01*
X92517751Y-65806760D01*
X92602816Y-65668757D01*
X92608963Y-65655576D01*
X92660138Y-65501290D01*
X92663005Y-65487914D01*
X92672672Y-65393562D01*
X92673000Y-65387146D01*
X92673000Y-65274615D01*
X92668525Y-65259376D01*
X92667135Y-65258171D01*
X92659452Y-65256500D01*
X90225116Y-65256500D01*
X90209877Y-65260975D01*
X90208672Y-65262365D01*
X90207001Y-65270048D01*
X90207001Y-65387095D01*
X90207338Y-65393614D01*
X90217257Y-65489206D01*
X90220149Y-65502600D01*
X90271588Y-65656784D01*
X90277761Y-65669962D01*
X90363063Y-65807807D01*
X90372099Y-65819208D01*
X90486828Y-65933738D01*
X90495762Y-65940794D01*
X90536823Y-65998712D01*
X90540053Y-66069635D01*
X90504426Y-66131046D01*
X90496593Y-66137846D01*
X90490652Y-66141522D01*
X90365695Y-66266697D01*
X90361855Y-66272927D01*
X90361854Y-66272928D01*
X90277858Y-66409195D01*
X90272885Y-66417262D01*
X90250417Y-66485000D01*
X90233233Y-66536811D01*
X90217203Y-66585139D01*
X90206500Y-66689600D01*
X90206500Y-67465400D01*
X90206837Y-67468646D01*
X90206837Y-67468650D01*
X90215863Y-67555635D01*
X90217474Y-67571166D01*
X90219655Y-67577702D01*
X90219655Y-67577704D01*
X90223972Y-67590643D01*
X90273450Y-67738946D01*
X90366522Y-67889348D01*
X90371704Y-67894521D01*
X90380416Y-67903218D01*
X90491697Y-68014305D01*
X90497927Y-68018145D01*
X90497928Y-68018146D01*
X90635090Y-68102694D01*
X90642262Y-68107115D01*
X90699949Y-68126249D01*
X90720167Y-68132955D01*
X90778527Y-68173386D01*
X90805764Y-68238950D01*
X90806500Y-68252548D01*
X90806500Y-69467073D01*
X90786498Y-69535194D01*
X90769595Y-69556168D01*
X89143544Y-71182219D01*
X89081232Y-71216245D01*
X89010417Y-71211180D01*
X88953581Y-71168633D01*
X88928873Y-71103448D01*
X88928550Y-71099519D01*
X88911519Y-70892361D01*
X88857098Y-70675702D01*
X88768021Y-70470840D01*
X88695397Y-70358580D01*
X88649489Y-70287617D01*
X88649487Y-70287614D01*
X88646681Y-70283277D01*
X88496337Y-70118051D01*
X88492286Y-70114852D01*
X88492282Y-70114848D01*
X88325081Y-69982800D01*
X88325077Y-69982798D01*
X88321026Y-69979598D01*
X88279720Y-69956796D01*
X88229751Y-69906364D01*
X88214979Y-69836921D01*
X88240095Y-69770516D01*
X88267447Y-69743909D01*
X88311270Y-69712650D01*
X88446527Y-69616173D01*
X88510880Y-69552045D01*
X88601102Y-69462137D01*
X88604763Y-69458489D01*
X88664261Y-69375689D01*
X88732102Y-69281277D01*
X88735120Y-69277077D01*
X88798799Y-69148233D01*
X88831803Y-69081453D01*
X88831804Y-69081451D01*
X88834097Y-69076811D01*
X88881190Y-68921809D01*
X88897532Y-68868023D01*
X88897532Y-68868021D01*
X88899037Y-68863069D01*
X88928196Y-68641590D01*
X88928812Y-68616392D01*
X88929741Y-68578365D01*
X88929741Y-68578361D01*
X88929823Y-68575000D01*
X88911519Y-68352361D01*
X88857098Y-68135702D01*
X88768021Y-67930840D01*
X88646681Y-67743277D01*
X88496337Y-67578051D01*
X88492286Y-67574852D01*
X88492282Y-67574848D01*
X88325081Y-67442800D01*
X88325077Y-67442798D01*
X88321026Y-67439598D01*
X88279720Y-67416796D01*
X88229751Y-67366364D01*
X88214979Y-67296921D01*
X88240095Y-67230516D01*
X88267447Y-67203909D01*
X88326494Y-67161791D01*
X88446527Y-67076173D01*
X88604763Y-66918489D01*
X88619339Y-66898205D01*
X88732102Y-66741277D01*
X88735120Y-66737077D01*
X88738461Y-66730318D01*
X88831803Y-66541453D01*
X88831804Y-66541451D01*
X88834097Y-66536811D01*
X88880433Y-66384303D01*
X88897532Y-66328023D01*
X88897532Y-66328021D01*
X88899037Y-66323069D01*
X88928196Y-66101590D01*
X88929484Y-66048888D01*
X88929741Y-66038365D01*
X88929741Y-66038361D01*
X88929823Y-66035000D01*
X88911519Y-65812361D01*
X88857098Y-65595702D01*
X88768021Y-65390840D01*
X88674234Y-65245867D01*
X88649489Y-65207617D01*
X88649487Y-65207614D01*
X88646681Y-65203277D01*
X88496337Y-65038051D01*
X88492286Y-65034852D01*
X88492282Y-65034848D01*
X88325081Y-64902800D01*
X88325077Y-64902798D01*
X88321026Y-64899598D01*
X88279720Y-64876796D01*
X88229751Y-64826364D01*
X88214979Y-64756921D01*
X88225016Y-64730385D01*
X90207000Y-64730385D01*
X90211475Y-64745624D01*
X90212865Y-64746829D01*
X90220548Y-64748500D01*
X91167885Y-64748500D01*
X91183124Y-64744025D01*
X91184329Y-64742635D01*
X91186000Y-64734952D01*
X91186000Y-64730385D01*
X91694000Y-64730385D01*
X91698475Y-64745624D01*
X91699865Y-64746829D01*
X91707548Y-64748500D01*
X92654884Y-64748500D01*
X92670123Y-64744025D01*
X92671328Y-64742635D01*
X92672999Y-64734952D01*
X92672999Y-64730385D01*
X94017000Y-64730385D01*
X94021475Y-64745624D01*
X94022865Y-64746829D01*
X94030548Y-64748500D01*
X94977885Y-64748500D01*
X94993124Y-64744025D01*
X94994329Y-64742635D01*
X94996000Y-64734952D01*
X94996000Y-64730385D01*
X95504000Y-64730385D01*
X95508475Y-64745624D01*
X95509865Y-64746829D01*
X95517548Y-64748500D01*
X96464884Y-64748500D01*
X96480123Y-64744025D01*
X96481328Y-64742635D01*
X96482999Y-64734952D01*
X96482999Y-64617905D01*
X96482662Y-64611386D01*
X96472743Y-64515794D01*
X96469851Y-64502400D01*
X96418412Y-64348216D01*
X96412239Y-64335038D01*
X96326937Y-64197193D01*
X96317901Y-64185792D01*
X96203171Y-64071261D01*
X96191760Y-64062249D01*
X96053757Y-63977184D01*
X96040576Y-63971037D01*
X95886290Y-63919862D01*
X95872914Y-63916995D01*
X95778562Y-63907328D01*
X95772145Y-63907000D01*
X95522115Y-63907000D01*
X95506876Y-63911475D01*
X95505671Y-63912865D01*
X95504000Y-63920548D01*
X95504000Y-64730385D01*
X94996000Y-64730385D01*
X94996000Y-63925116D01*
X94991525Y-63909877D01*
X94990135Y-63908672D01*
X94982452Y-63907001D01*
X94727905Y-63907001D01*
X94721386Y-63907338D01*
X94625794Y-63917257D01*
X94612400Y-63920149D01*
X94458216Y-63971588D01*
X94445038Y-63977761D01*
X94307193Y-64063063D01*
X94295792Y-64072099D01*
X94181261Y-64186829D01*
X94172249Y-64198240D01*
X94087184Y-64336243D01*
X94081037Y-64349424D01*
X94029862Y-64503710D01*
X94026995Y-64517086D01*
X94017328Y-64611438D01*
X94017000Y-64617855D01*
X94017000Y-64730385D01*
X92672999Y-64730385D01*
X92672999Y-64617905D01*
X92672662Y-64611386D01*
X92662743Y-64515794D01*
X92659851Y-64502400D01*
X92608412Y-64348216D01*
X92602239Y-64335038D01*
X92516937Y-64197193D01*
X92507901Y-64185792D01*
X92393171Y-64071261D01*
X92381760Y-64062249D01*
X92243757Y-63977184D01*
X92230576Y-63971037D01*
X92076290Y-63919862D01*
X92062914Y-63916995D01*
X91968562Y-63907328D01*
X91962145Y-63907000D01*
X91712115Y-63907000D01*
X91696876Y-63911475D01*
X91695671Y-63912865D01*
X91694000Y-63920548D01*
X91694000Y-64730385D01*
X91186000Y-64730385D01*
X91186000Y-63925116D01*
X91181525Y-63909877D01*
X91180135Y-63908672D01*
X91172452Y-63907001D01*
X90917905Y-63907001D01*
X90911386Y-63907338D01*
X90815794Y-63917257D01*
X90802400Y-63920149D01*
X90648216Y-63971588D01*
X90635038Y-63977761D01*
X90497193Y-64063063D01*
X90485792Y-64072099D01*
X90371261Y-64186829D01*
X90362249Y-64198240D01*
X90277184Y-64336243D01*
X90271037Y-64349424D01*
X90219862Y-64503710D01*
X90216995Y-64517086D01*
X90207328Y-64611438D01*
X90207000Y-64617855D01*
X90207000Y-64730385D01*
X88225016Y-64730385D01*
X88240095Y-64690516D01*
X88267447Y-64663909D01*
X88332012Y-64617855D01*
X88446527Y-64536173D01*
X88466978Y-64515794D01*
X88601102Y-64382137D01*
X88604763Y-64378489D01*
X88657444Y-64305176D01*
X88732102Y-64201277D01*
X88735120Y-64197077D01*
X88740698Y-64185792D01*
X88831803Y-64001453D01*
X88831804Y-64001451D01*
X88834097Y-63996811D01*
X88899037Y-63783069D01*
X88928196Y-63561590D01*
X88929823Y-63495000D01*
X88911519Y-63272361D01*
X88857098Y-63055702D01*
X88768021Y-62850840D01*
X88646681Y-62663277D01*
X88496337Y-62498051D01*
X88492286Y-62494852D01*
X88492282Y-62494848D01*
X88325081Y-62362800D01*
X88325077Y-62362798D01*
X88321026Y-62359598D01*
X88279720Y-62336796D01*
X88229751Y-62286364D01*
X88214979Y-62216921D01*
X88240095Y-62150516D01*
X88267447Y-62123909D01*
X88333236Y-62076982D01*
X88446527Y-61996173D01*
X88604763Y-61838489D01*
X88618282Y-61819676D01*
X88732102Y-61661277D01*
X88735120Y-61657077D01*
X88739489Y-61648238D01*
X88831803Y-61461453D01*
X88831804Y-61461451D01*
X88834097Y-61456811D01*
X88866567Y-61349940D01*
X88897532Y-61248023D01*
X88897532Y-61248021D01*
X88899037Y-61243069D01*
X88928196Y-61021590D01*
X88929364Y-60973794D01*
X88929741Y-60958365D01*
X88929741Y-60958361D01*
X88929823Y-60955000D01*
X88911519Y-60732361D01*
X88857098Y-60515702D01*
X88768021Y-60310840D01*
X88685513Y-60183302D01*
X88649489Y-60127617D01*
X88649487Y-60127614D01*
X88646681Y-60123277D01*
X88643207Y-60119459D01*
X88643200Y-60119450D01*
X88499102Y-59961088D01*
X88468050Y-59897242D01*
X88476446Y-59826744D01*
X88521623Y-59771976D01*
X88548067Y-59758307D01*
X88654719Y-59718325D01*
X88670316Y-59709786D01*
X88772391Y-59633285D01*
X88784952Y-59620724D01*
X88861453Y-59518649D01*
X88869991Y-59503054D01*
X88915145Y-59382606D01*
X88918772Y-59367351D01*
X88924298Y-59316486D01*
X88924667Y-59309672D01*
X88924667Y-58687115D01*
X88920192Y-58671876D01*
X88918802Y-58670671D01*
X88911119Y-58669000D01*
X86226783Y-58669000D01*
X86211544Y-58673475D01*
X86210339Y-58674865D01*
X86208668Y-58682548D01*
X86208668Y-59309669D01*
X86209038Y-59316490D01*
X86214562Y-59367352D01*
X86218188Y-59382604D01*
X86263343Y-59503054D01*
X86271881Y-59518649D01*
X86348382Y-59620724D01*
X86360943Y-59633285D01*
X86463018Y-59709786D01*
X86478613Y-59718324D01*
X86587494Y-59759142D01*
X86644258Y-59801784D01*
X86668958Y-59868345D01*
X86653750Y-59937694D01*
X86634358Y-59964175D01*
X86526456Y-60077088D01*
X86507296Y-60097138D01*
X86504382Y-60101410D01*
X86504381Y-60101411D01*
X86492076Y-60119450D01*
X86381410Y-60281680D01*
X86365670Y-60315590D01*
X86293569Y-60470919D01*
X86287355Y-60484305D01*
X86227656Y-60699570D01*
X86203918Y-60921695D01*
X86204215Y-60926848D01*
X86204215Y-60926851D01*
X86209678Y-61021590D01*
X86216777Y-61144715D01*
X86217914Y-61149761D01*
X86217915Y-61149767D01*
X86224195Y-61177633D01*
X86265889Y-61362639D01*
X86349933Y-61569616D01*
X86382335Y-61622491D01*
X86420670Y-61685048D01*
X86466654Y-61760088D01*
X86612917Y-61928938D01*
X86784793Y-62071632D01*
X86846234Y-62107535D01*
X86858112Y-62114476D01*
X86906836Y-62166114D01*
X86919907Y-62235897D01*
X86893176Y-62301669D01*
X86852722Y-62335027D01*
X86840274Y-62341507D01*
X86836141Y-62344610D01*
X86836138Y-62344612D01*
X86665767Y-62472530D01*
X86661632Y-62475635D01*
X86507296Y-62637138D01*
X86504382Y-62641410D01*
X86504381Y-62641411D01*
X86419223Y-62766249D01*
X86381410Y-62821680D01*
X86359522Y-62868834D01*
X86311912Y-62971402D01*
X86287355Y-63024305D01*
X86227656Y-63239570D01*
X86203918Y-63461695D01*
X86204215Y-63466848D01*
X86204215Y-63466851D01*
X86211857Y-63599393D01*
X86216777Y-63684715D01*
X86217914Y-63689761D01*
X86217915Y-63689767D01*
X86224702Y-63719881D01*
X86265889Y-63902639D01*
X86349933Y-64109616D01*
X86466654Y-64300088D01*
X86612917Y-64468938D01*
X86784793Y-64611632D01*
X86795528Y-64617905D01*
X86858112Y-64654476D01*
X86906836Y-64706114D01*
X86919907Y-64775897D01*
X86893176Y-64841669D01*
X86852722Y-64875027D01*
X86840274Y-64881507D01*
X86836141Y-64884610D01*
X86836138Y-64884612D01*
X86703891Y-64983906D01*
X86661632Y-65015635D01*
X86507296Y-65177138D01*
X86504382Y-65181410D01*
X86504381Y-65181411D01*
X86469336Y-65232785D01*
X86381410Y-65361680D01*
X86363822Y-65399570D01*
X86290245Y-65558080D01*
X86287355Y-65564305D01*
X86227656Y-65779570D01*
X86203918Y-66001695D01*
X86204215Y-66006848D01*
X86204215Y-66006851D01*
X86211980Y-66141522D01*
X86216777Y-66224715D01*
X86217914Y-66229761D01*
X86217915Y-66229767D01*
X86226238Y-66266697D01*
X86265889Y-66442639D01*
X86321101Y-66578611D01*
X86343597Y-66634011D01*
X86349933Y-66649616D01*
X86374435Y-66689600D01*
X86463379Y-66834743D01*
X86466654Y-66840088D01*
X86612917Y-67008938D01*
X86784793Y-67151632D01*
X86815097Y-67169340D01*
X86858112Y-67194476D01*
X86906836Y-67246114D01*
X86919907Y-67315897D01*
X86893176Y-67381669D01*
X86852722Y-67415027D01*
X86840274Y-67421507D01*
X86836141Y-67424610D01*
X86836138Y-67424612D01*
X86688525Y-67535443D01*
X86661632Y-67555635D01*
X86658060Y-67559373D01*
X86513162Y-67711000D01*
X86507296Y-67717138D01*
X86504382Y-67721410D01*
X86504381Y-67721411D01*
X86470633Y-67770884D01*
X86381410Y-67901680D01*
X86366539Y-67933717D01*
X86290898Y-68096673D01*
X86287355Y-68104305D01*
X86227656Y-68319570D01*
X86203918Y-68541695D01*
X86204215Y-68546848D01*
X86204215Y-68546851D01*
X86209674Y-68641530D01*
X86216777Y-68764715D01*
X86217914Y-68769761D01*
X86217915Y-68769767D01*
X86237786Y-68857939D01*
X86265889Y-68982639D01*
X86306908Y-69083657D01*
X86334088Y-69150593D01*
X86349933Y-69189616D01*
X86352632Y-69194020D01*
X86461429Y-69371561D01*
X86466654Y-69380088D01*
X86612917Y-69548938D01*
X86784793Y-69691632D01*
X86855262Y-69732811D01*
X86858112Y-69734476D01*
X86906836Y-69786114D01*
X86919907Y-69855897D01*
X86893176Y-69921669D01*
X86852722Y-69955027D01*
X86840274Y-69961507D01*
X86836141Y-69964610D01*
X86836138Y-69964612D01*
X86666690Y-70091837D01*
X86661632Y-70095635D01*
X86507296Y-70257138D01*
X86504382Y-70261410D01*
X86504381Y-70261411D01*
X86438097Y-70358580D01*
X86381410Y-70441680D01*
X86287355Y-70644305D01*
X86227656Y-70859570D01*
X86203918Y-71081695D01*
X86204215Y-71086848D01*
X86204215Y-71086851D01*
X86205433Y-71107978D01*
X86216777Y-71304715D01*
X86217914Y-71309761D01*
X86217915Y-71309767D01*
X86238942Y-71403069D01*
X86265889Y-71522639D01*
X86349933Y-71729616D01*
X86392938Y-71799794D01*
X86457237Y-71904720D01*
X86466654Y-71920088D01*
X86612917Y-72088938D01*
X86784793Y-72231632D01*
X86855262Y-72272811D01*
X86858112Y-72274476D01*
X86906836Y-72326114D01*
X86919907Y-72395897D01*
X86893176Y-72461669D01*
X86852722Y-72495027D01*
X86840274Y-72501507D01*
X86836141Y-72504610D01*
X86836138Y-72504612D01*
X86707696Y-72601049D01*
X86661632Y-72635635D01*
X86507296Y-72797138D01*
X86504382Y-72801410D01*
X86504381Y-72801411D01*
X86470331Y-72851327D01*
X86381410Y-72981680D01*
X86335543Y-73080492D01*
X86314603Y-73125605D01*
X86287355Y-73184305D01*
X86227656Y-73399570D01*
X86203918Y-73621695D01*
X81788000Y-73621695D01*
X81788000Y-58142885D01*
X86208667Y-58142885D01*
X86213142Y-58158124D01*
X86214532Y-58159329D01*
X86222215Y-58161000D01*
X87294552Y-58161000D01*
X87309791Y-58156525D01*
X87310996Y-58155135D01*
X87312667Y-58147452D01*
X87312667Y-58142885D01*
X87820667Y-58142885D01*
X87825142Y-58158124D01*
X87826532Y-58159329D01*
X87834215Y-58161000D01*
X88906551Y-58161000D01*
X88921790Y-58156525D01*
X88922995Y-58155135D01*
X88924666Y-58147452D01*
X88924666Y-57520331D01*
X88924296Y-57513510D01*
X88918772Y-57462648D01*
X88915146Y-57447396D01*
X88869991Y-57326946D01*
X88861453Y-57311351D01*
X88784952Y-57209276D01*
X88772391Y-57196715D01*
X88670316Y-57120214D01*
X88654721Y-57111676D01*
X88534273Y-57066522D01*
X88519018Y-57062895D01*
X88468153Y-57057369D01*
X88461339Y-57057000D01*
X87838782Y-57057000D01*
X87823543Y-57061475D01*
X87822338Y-57062865D01*
X87820667Y-57070548D01*
X87820667Y-58142885D01*
X87312667Y-58142885D01*
X87312667Y-57075116D01*
X87308192Y-57059877D01*
X87306802Y-57058672D01*
X87299119Y-57057001D01*
X86671998Y-57057001D01*
X86665177Y-57057371D01*
X86614315Y-57062895D01*
X86599063Y-57066521D01*
X86478613Y-57111676D01*
X86463018Y-57120214D01*
X86360943Y-57196715D01*
X86348382Y-57209276D01*
X86271881Y-57311351D01*
X86263343Y-57326946D01*
X86218189Y-57447394D01*
X86214562Y-57462649D01*
X86209036Y-57513514D01*
X86208667Y-57520328D01*
X86208667Y-58142885D01*
X81788000Y-58142885D01*
X81788000Y-48894000D01*
X81808002Y-48825879D01*
X81861658Y-48779386D01*
X81914000Y-48768000D01*
X123826000Y-48768000D01*
X123894121Y-48788002D01*
G37*
G04 #@! TD.AperFunction*
G04 #@! TA.AperFunction,Conductor*
G36*
X106956529Y-66999008D02*
G01*
X107013365Y-67041555D01*
X107038176Y-67108075D01*
X107028906Y-67165281D01*
X107007581Y-67216765D01*
X106987957Y-67365825D01*
X107000138Y-67458341D01*
X107003661Y-67485101D01*
X106992722Y-67555249D01*
X106967834Y-67590643D01*
X106919043Y-67639434D01*
X106856731Y-67673460D01*
X106785916Y-67668395D01*
X106729080Y-67625848D01*
X106708242Y-67582952D01*
X106707050Y-67578502D01*
X106705972Y-67570317D01*
X106677261Y-67501000D01*
X106651599Y-67439046D01*
X106651598Y-67439045D01*
X106648438Y-67431415D01*
X106643410Y-67424862D01*
X106643408Y-67424859D01*
X106599683Y-67367875D01*
X106574082Y-67301655D01*
X106588347Y-67232106D01*
X106637948Y-67181310D01*
X106677833Y-67169340D01*
X106689580Y-67161791D01*
X106823402Y-67027969D01*
X106885714Y-66993943D01*
X106956529Y-66999008D01*
G37*
G04 #@! TD.AperFunction*
G04 #@! TA.AperFunction,Conductor*
G36*
X106218654Y-65203320D02*
G01*
X106275490Y-65245867D01*
X106288681Y-65281233D01*
X106303498Y-65304288D01*
X106670017Y-65670807D01*
X106683961Y-65678421D01*
X106685794Y-65678290D01*
X106692409Y-65674039D01*
X107056099Y-65310348D01*
X107080353Y-65265930D01*
X107130555Y-65215728D01*
X107199930Y-65200636D01*
X107266450Y-65225447D01*
X107272748Y-65230553D01*
X107274978Y-65232783D01*
X107278241Y-65235287D01*
X107278248Y-65235293D01*
X107313529Y-65262365D01*
X107364309Y-65301331D01*
X107371943Y-65304493D01*
X107495582Y-65355706D01*
X107495585Y-65355707D01*
X107503212Y-65358866D01*
X107594229Y-65370849D01*
X107659156Y-65399570D01*
X107698248Y-65458835D01*
X107702704Y-65479320D01*
X107705597Y-65501290D01*
X107713006Y-65557564D01*
X107714688Y-65570343D01*
X107717846Y-65577967D01*
X107717847Y-65577971D01*
X107736012Y-65621825D01*
X107743601Y-65692415D01*
X107711821Y-65755901D01*
X107650763Y-65792128D01*
X107579811Y-65789594D01*
X107530508Y-65759137D01*
X107435274Y-65663903D01*
X107421330Y-65656289D01*
X107419497Y-65656420D01*
X107412882Y-65660671D01*
X107049190Y-66024364D01*
X107041221Y-66038958D01*
X107041712Y-66045799D01*
X107045957Y-66052404D01*
X107409650Y-66416097D01*
X107454072Y-66440354D01*
X107504273Y-66490557D01*
X107519364Y-66559931D01*
X107494552Y-66626451D01*
X107489447Y-66632748D01*
X107487217Y-66634978D01*
X107484713Y-66638241D01*
X107484707Y-66638248D01*
X107458769Y-66672051D01*
X107418669Y-66724309D01*
X107415990Y-66730775D01*
X107370770Y-66775993D01*
X107364309Y-66778669D01*
X107274978Y-66847215D01*
X107272068Y-66850125D01*
X107271304Y-66850795D01*
X107206900Y-66880672D01*
X107136567Y-66870987D01*
X107082636Y-66824815D01*
X107071594Y-66791967D01*
X107059329Y-66772882D01*
X106695641Y-66409194D01*
X106681697Y-66401580D01*
X106679857Y-66401711D01*
X106673257Y-66405952D01*
X106306730Y-66772480D01*
X106282603Y-66816665D01*
X106232401Y-66866867D01*
X106163027Y-66881958D01*
X106096507Y-66857147D01*
X106088940Y-66851012D01*
X106087940Y-66850135D01*
X106085022Y-66847217D01*
X105995691Y-66778669D01*
X105989225Y-66775990D01*
X105944007Y-66730770D01*
X105941331Y-66724309D01*
X105872785Y-66634978D01*
X105869865Y-66632058D01*
X105867150Y-66628962D01*
X105868585Y-66627704D01*
X105838256Y-66572162D01*
X105843321Y-66501347D01*
X105885868Y-66444511D01*
X105921228Y-66431322D01*
X105944290Y-66416501D01*
X106307982Y-66052808D01*
X106315593Y-66038870D01*
X106315461Y-66037034D01*
X106311212Y-66030422D01*
X105947521Y-65666731D01*
X105903335Y-65642603D01*
X105853133Y-65592400D01*
X105838042Y-65523026D01*
X105862853Y-65456506D01*
X105868988Y-65448940D01*
X105869865Y-65447940D01*
X105872783Y-65445022D01*
X105941331Y-65355691D01*
X105944010Y-65349225D01*
X105989230Y-65304007D01*
X105995691Y-65301331D01*
X106085022Y-65232785D01*
X106087942Y-65229865D01*
X106091038Y-65227150D01*
X106092296Y-65228585D01*
X106147839Y-65198255D01*
X106218654Y-65203320D01*
G37*
G04 #@! TD.AperFunction*
M02*
