G04 #@! TF.GenerationSoftware,KiCad,Pcbnew,(6.0.1)*
G04 #@! TF.CreationDate,2022-01-28T19:12:58+01:00*
G04 #@! TF.ProjectId,example,6578616d-706c-4652-9e6b-696361645f70,rev?*
G04 #@! TF.SameCoordinates,Original*
G04 #@! TF.FileFunction,Copper,L1,Top*
G04 #@! TF.FilePolarity,Positive*
%FSLAX46Y46*%
G04 Gerber Fmt 4.6, Leading zero omitted, Abs format (unit mm)*
G04 Created by KiCad (PCBNEW (6.0.1)) date 2022-01-28 19:12:58*
%MOMM*%
%LPD*%
G01*
G04 APERTURE LIST*
G04 Aperture macros list*
%AMHorizOval*
0 Thick line with rounded ends*
0 $1 width*
0 $2 $3 position (X,Y) of the first rounded end (center of the circle)*
0 $4 $5 position (X,Y) of the second rounded end (center of the circle)*
0 Add line between two ends*
20,1,$1,$2,$3,$4,$5,0*
0 Add two circle primitives to create the rounded ends*
1,1,$1,$2,$3*
1,1,$1,$4,$5*%
%AMRotRect*
0 Rectangle, with rotation*
0 The origin of the aperture is its center*
0 $1 length*
0 $2 width*
0 $3 Rotation angle, in degrees counterclockwise*
0 Add horizontal line*
21,1,$1,$2,0,0,$3*%
G04 Aperture macros list end*
G04 #@! TA.AperFunction,EtchedComponent*
%ADD10C,0.200000*%
G04 #@! TD*
G04 #@! TA.AperFunction,ComponentPad*
%ADD11C,0.450000*%
G04 #@! TD*
G04 #@! TA.AperFunction,ComponentPad*
%ADD12C,2.500000*%
G04 #@! TD*
G04 #@! TA.AperFunction,ComponentPad*
%ADD13HorizOval,2.500000X0.656270X0.728862X-0.656270X-0.728862X0*%
G04 #@! TD*
G04 #@! TA.AperFunction,ComponentPad*
%ADD14HorizOval,2.500000X0.020277X0.289981X-0.020277X-0.289981X0*%
G04 #@! TD*
G04 #@! TA.AperFunction,ComponentPad*
%ADD15R,1.700000X1.700000*%
G04 #@! TD*
G04 #@! TA.AperFunction,ComponentPad*
%ADD16O,1.700000X1.700000*%
G04 #@! TD*
G04 #@! TA.AperFunction,ComponentPad*
%ADD17C,0.500000*%
G04 #@! TD*
G04 #@! TA.AperFunction,SMDPad,CuDef*
%ADD18RotRect,2.600000X2.600000X225.000000*%
G04 #@! TD*
G04 #@! TA.AperFunction,ViaPad*
%ADD19C,0.800000*%
G04 #@! TD*
G04 #@! TA.AperFunction,Conductor*
%ADD20C,0.250000*%
G04 #@! TD*
G04 APERTURE END LIST*
D10*
X102369654Y-73558066D02*
X102376640Y-73962374D01*
X97890579Y-76069068D02*
X97607071Y-75897423D01*
X98384585Y-70739958D02*
X98768334Y-70659642D01*
X98856067Y-71354122D02*
X99160000Y-71328000D01*
X100191853Y-71153837D02*
X100513728Y-71297578D01*
X96383086Y-72453283D02*
X96562847Y-72111797D01*
X96125001Y-73950946D02*
X96118015Y-73568614D01*
X97812796Y-75614267D02*
X97586226Y-75435899D01*
X96744112Y-74896831D02*
X96614022Y-74587238D01*
X101400653Y-75613629D02*
X101155455Y-75884944D01*
X98272452Y-71518309D02*
X98558668Y-71417966D01*
X99160000Y-76017000D02*
X98876246Y-76006148D01*
X101609395Y-75314434D02*
X101400653Y-75613629D01*
X102050922Y-72399635D02*
X102205283Y-72770528D01*
X101021516Y-71197843D02*
X101332753Y-71446254D01*
X97664637Y-71039944D02*
X98014765Y-70867465D01*
X96474310Y-73928969D02*
X96467324Y-73590591D01*
X98812200Y-71006882D02*
X99160000Y-70978000D01*
X101778569Y-74992205D02*
X101609395Y-75314434D01*
X101556203Y-72239324D02*
X101734233Y-72548658D01*
X96946891Y-74479083D02*
X96867342Y-74197348D01*
X99942378Y-70712837D02*
X100320697Y-70828415D01*
X101461880Y-74843183D02*
X101313881Y-75126894D01*
X97401347Y-76180579D02*
X97107043Y-75946177D01*
X99553421Y-70645752D02*
X99942378Y-70712837D01*
X96867342Y-74197348D02*
X96823619Y-73906993D01*
X96913605Y-73030102D02*
X97016465Y-72751329D01*
X97016465Y-72751329D02*
X97153877Y-72486876D01*
X99160000Y-71328000D02*
X99465688Y-71340232D01*
X99978936Y-76949544D02*
X99573600Y-77033979D01*
X102332788Y-74365242D02*
X102238570Y-74760288D01*
X96118015Y-73568614D02*
X96159112Y-73187550D01*
X97054187Y-72017920D02*
X97284341Y-71762626D01*
X97346635Y-75691038D02*
X97113517Y-75452998D01*
X97323867Y-72241019D02*
X97523932Y-72017765D01*
X96281152Y-74695394D02*
X96179740Y-74328515D01*
X98876246Y-76006148D02*
X98595225Y-75959652D01*
X96858362Y-72299336D02*
X97054187Y-72017920D01*
X101671035Y-73602019D02*
X101678021Y-73918420D01*
X96816633Y-73612568D02*
X96846714Y-73318717D01*
X101417543Y-72697681D02*
X101539543Y-72986839D01*
X102312160Y-73158693D02*
X102369654Y-73558066D01*
X98595225Y-75959652D02*
X98321412Y-75878031D01*
X97721965Y-76375775D02*
X97401347Y-76180579D01*
X97833250Y-71346651D02*
X98143608Y-71192887D01*
X100369657Y-76815246D02*
X99978936Y-76949544D01*
X100815791Y-71480999D02*
X101093161Y-71701393D01*
X97107043Y-75946177D02*
X96843837Y-75676097D01*
X96846714Y-73318717D02*
X96913605Y-73030102D01*
X99485866Y-76339498D02*
X99160000Y-76367000D01*
X101678021Y-73918420D02*
X101645187Y-74234075D01*
X102020345Y-73580042D02*
X102027331Y-73940397D01*
X99160000Y-70978000D02*
X99509554Y-70992992D01*
X99465688Y-71340232D02*
X99768295Y-71390846D01*
X101872413Y-72878684D02*
X101968359Y-73224277D01*
X98421142Y-76637661D02*
X98063725Y-76528874D01*
X100571057Y-76326702D02*
X100240814Y-76489824D01*
X99160000Y-77067000D02*
X98700381Y-77526619D01*
X96502913Y-73253134D02*
X96580735Y-72921946D01*
X98788512Y-76700628D02*
X98421142Y-76637661D01*
X100240814Y-76489824D02*
X99891894Y-76610540D01*
X96159112Y-73187550D02*
X96247865Y-72813790D01*
X97060801Y-74747808D02*
X96946891Y-74479083D01*
X100513728Y-71297578D02*
X100815791Y-71480999D01*
X97153877Y-72486876D02*
X97323867Y-72241019D01*
X97383196Y-75229900D02*
X97207070Y-74999367D01*
X101395046Y-76140083D02*
X101083233Y-76407104D01*
X97339629Y-71254474D02*
X97664637Y-71039944D01*
X101093161Y-71701393D02*
X101341323Y-71955453D01*
X101905700Y-74652132D02*
X101778569Y-74992205D01*
X98471626Y-71078962D02*
X98812200Y-71006882D01*
X102205283Y-72770528D02*
X102312160Y-73158693D01*
X101071643Y-72178551D02*
X101260688Y-72426863D01*
X99768295Y-71390846D02*
X100063010Y-71479258D01*
X101611003Y-71732354D02*
X101851717Y-72051784D01*
X100063010Y-71479258D02*
X100345114Y-71604286D01*
X100111970Y-76164402D02*
X99804853Y-76271536D01*
X101572830Y-74543976D02*
X101461880Y-74843183D01*
X101332753Y-71446254D02*
X101611003Y-71732354D01*
X97545354Y-71537630D02*
X97833250Y-71346651D01*
X96614022Y-74587238D02*
X96523541Y-74262931D01*
X98063725Y-76528874D02*
X97721965Y-76375775D01*
X99160000Y-76367000D02*
X98832379Y-76353388D01*
X101670332Y-75836727D02*
X101395046Y-76140083D01*
X101645187Y-74234075D02*
X101572830Y-74543976D01*
X96616040Y-75374446D02*
X96427422Y-75045853D01*
X102095259Y-75141228D02*
X101904910Y-75501973D01*
X100853570Y-71956532D02*
X101071643Y-72178551D01*
X99855337Y-71051841D02*
X100191853Y-71153837D01*
X101155455Y-75884944D02*
X100877509Y-76123948D01*
X96699775Y-72602306D02*
X96858362Y-72299336D01*
X98059193Y-75762361D02*
X97812796Y-75614267D01*
X97044749Y-71507487D02*
X97339629Y-71254474D01*
X99160000Y-76717000D02*
X98788512Y-76700628D01*
X100610066Y-71764155D02*
X100853570Y-71956532D01*
X96562847Y-72111797D02*
X96784508Y-71794822D01*
X97751079Y-71820786D02*
X98001864Y-71653359D01*
X98192569Y-76203453D02*
X97890579Y-76069068D01*
X98768334Y-70659642D02*
X99160000Y-70628000D01*
X102027331Y-73940397D02*
X101988987Y-74299658D01*
X100345114Y-71604286D02*
X100610066Y-71764155D01*
X99509554Y-70992992D02*
X99855337Y-71051841D01*
X98014765Y-70867465D02*
X98384585Y-70739958D01*
X99804853Y-76271536D02*
X99485866Y-76339498D01*
X96427422Y-75045853D02*
X96281152Y-74695394D01*
X101341323Y-71955453D02*
X101556203Y-72239324D01*
X100877509Y-76123948D02*
X100571057Y-76326702D01*
X100915863Y-75629805D02*
X100671784Y-75840792D01*
X102376640Y-73962374D02*
X102332788Y-74365242D01*
X97523932Y-72017765D02*
X97751079Y-71820786D01*
X101539543Y-72986839D02*
X101624559Y-73289860D01*
X99573600Y-77033979D02*
X99160000Y-77067000D01*
X98001864Y-71653359D02*
X98272452Y-71518309D01*
X96911555Y-75186907D02*
X96744112Y-74896831D01*
X99160000Y-70628000D02*
X99553421Y-70645752D01*
X96523541Y-74262931D02*
X96474310Y-73928969D01*
X101313881Y-75126894D02*
X101130973Y-75390531D01*
X98321412Y-75878031D02*
X98059193Y-75762361D01*
X102238570Y-74760288D02*
X102095259Y-75141228D01*
X101130973Y-75390531D02*
X100915863Y-75629805D01*
X97284341Y-71762626D02*
X97545354Y-71537630D01*
X98558668Y-71417966D02*
X98856067Y-71354122D01*
X101734233Y-72548658D02*
X101872413Y-72878684D01*
X96467324Y-73590591D02*
X96502913Y-73253134D01*
X96179740Y-74328515D02*
X96125001Y-73950946D01*
X99891894Y-76610540D02*
X99529733Y-76686738D01*
X101260688Y-72426863D02*
X101417543Y-72697681D01*
X96823619Y-73906993D02*
X96816633Y-73612568D01*
X96247865Y-72813790D02*
X96383086Y-72453283D01*
X101083233Y-76407104D02*
X100739670Y-76633410D01*
X100402443Y-76019995D02*
X100111970Y-76164402D01*
X97113517Y-75452998D02*
X96911555Y-75186907D01*
X101988987Y-74299658D02*
X101905700Y-74652132D01*
X100682342Y-70990871D02*
X101021516Y-71197843D01*
X96580735Y-72921946D02*
X96699775Y-72602306D01*
X97586226Y-75435899D02*
X97383196Y-75229900D01*
X101624559Y-73289860D02*
X101671035Y-73602019D01*
X101851717Y-72051784D02*
X102050922Y-72399635D01*
X97607071Y-75897423D02*
X97346635Y-75691038D01*
X100320697Y-70828415D02*
X100682342Y-70990871D01*
X98508184Y-76298656D02*
X98192569Y-76203453D01*
X100739670Y-76633410D02*
X100369657Y-76815246D01*
X101968359Y-73224277D02*
X102020345Y-73580042D01*
X97207070Y-74999367D02*
X97060801Y-74747808D01*
X96784508Y-71794822D02*
X97044749Y-71507487D01*
X101904910Y-75501973D02*
X101670332Y-75836727D01*
X98832379Y-76353388D02*
X98508184Y-76298656D01*
X99529733Y-76686738D02*
X99160000Y-76717000D01*
X100671784Y-75840792D02*
X100402443Y-76019995D01*
X98143608Y-71192887D02*
X98471626Y-71078962D01*
X96843837Y-75676097D02*
X96616040Y-75374446D01*
X115850066Y-71764155D02*
X116093570Y-71956532D01*
X117091717Y-72051784D02*
X117290922Y-72399635D01*
X112151555Y-75186907D02*
X111984112Y-74896831D01*
X116849395Y-75314434D02*
X116640653Y-75613629D01*
X111623086Y-72453283D02*
X111802847Y-72111797D01*
X115811057Y-76326702D02*
X115480814Y-76489824D01*
X114116246Y-76006148D02*
X113835225Y-75959652D01*
X116635046Y-76140083D02*
X116323233Y-76407104D01*
X115182378Y-70712837D02*
X115560697Y-70828415D01*
X116333161Y-71701393D02*
X116581323Y-71955453D01*
X116581323Y-71955453D02*
X116796203Y-72239324D01*
X117290922Y-72399635D02*
X117445283Y-72770528D01*
X111854022Y-74587238D02*
X111763541Y-74262931D01*
X116640653Y-75613629D02*
X116395455Y-75884944D01*
X112641347Y-76180579D02*
X112347043Y-75946177D01*
X116395455Y-75884944D02*
X116117509Y-76123948D01*
X116370973Y-75390531D02*
X116155863Y-75629805D01*
X113798668Y-71417966D02*
X114096067Y-71354122D01*
X113254765Y-70867465D02*
X113624585Y-70739958D01*
X115044853Y-76271536D02*
X114725866Y-76339498D01*
X115351970Y-76164402D02*
X115044853Y-76271536D01*
X116812830Y-74543976D02*
X116701880Y-74843183D01*
X114028512Y-76700628D02*
X113661142Y-76637661D01*
X114008334Y-70659642D02*
X114400000Y-70628000D01*
X112256465Y-72751329D02*
X112393877Y-72486876D01*
X112284749Y-71507487D02*
X112579629Y-71254474D01*
X113624585Y-70739958D02*
X114008334Y-70659642D01*
X112447070Y-74999367D02*
X112300801Y-74747808D01*
X114400000Y-70978000D02*
X114749554Y-70992992D01*
X112579629Y-71254474D02*
X112904637Y-71039944D01*
X111802847Y-72111797D02*
X112024508Y-71794822D01*
X115095337Y-71051841D02*
X115431853Y-71153837D01*
X112186891Y-74479083D02*
X112107342Y-74197348D01*
X112586635Y-75691038D02*
X112353517Y-75452998D01*
X115642443Y-76019995D02*
X115351970Y-76164402D01*
X116155863Y-75629805D02*
X115911784Y-75840792D01*
X114705688Y-71340232D02*
X115008295Y-71390846D01*
X116779543Y-72986839D02*
X116864559Y-73289860D01*
X117260345Y-73580042D02*
X117267331Y-73940397D01*
X116911035Y-73602019D02*
X116918021Y-73918420D01*
X112847071Y-75897423D02*
X112586635Y-75691038D01*
X112098362Y-72299336D02*
X112294187Y-72017920D01*
X115560697Y-70828415D02*
X115922342Y-70990871D01*
X111707324Y-73590591D02*
X111742913Y-73253134D01*
X114769733Y-76686738D02*
X114400000Y-76717000D01*
X113512452Y-71518309D02*
X113798668Y-71417966D01*
X112991079Y-71820786D02*
X113241864Y-71653359D01*
X114813600Y-77033979D02*
X114400000Y-77067000D01*
X111521152Y-74695394D02*
X111419740Y-74328515D01*
X114400000Y-71328000D02*
X114705688Y-71340232D01*
X115585114Y-71604286D02*
X115850066Y-71764155D01*
X115753728Y-71297578D02*
X116055791Y-71480999D01*
X114400000Y-76367000D02*
X114072379Y-76353388D01*
X116885187Y-74234075D02*
X116812830Y-74543976D01*
X116311643Y-72178551D02*
X116500688Y-72426863D01*
X115131894Y-76610540D02*
X114769733Y-76686738D01*
X117572788Y-74365242D02*
X117478570Y-74760288D01*
X114400000Y-77067000D02*
X113940381Y-77526619D01*
X116910332Y-75836727D02*
X116635046Y-76140083D01*
X116093570Y-71956532D02*
X116311643Y-72178551D01*
X112063619Y-73906993D02*
X112056633Y-73612568D01*
X111487865Y-72813790D02*
X111623086Y-72453283D01*
X113383608Y-71192887D02*
X113711626Y-71078962D01*
X115911784Y-75840792D02*
X115642443Y-76019995D01*
X111399112Y-73187550D02*
X111487865Y-72813790D01*
X113052796Y-75614267D02*
X112826226Y-75435899D01*
X111714310Y-73928969D02*
X111707324Y-73590591D01*
X112083837Y-75676097D02*
X111856040Y-75374446D01*
X112904637Y-71039944D02*
X113254765Y-70867465D01*
X114400000Y-76717000D02*
X114028512Y-76700628D01*
X113432569Y-76203453D02*
X113130579Y-76069068D01*
X112353517Y-75452998D02*
X112151555Y-75186907D01*
X115008295Y-71390846D02*
X115303010Y-71479258D01*
X115922342Y-70990871D02*
X116261516Y-71197843D01*
X117018569Y-74992205D02*
X116849395Y-75314434D01*
X112961965Y-76375775D02*
X112641347Y-76180579D01*
X112024508Y-71794822D02*
X112284749Y-71507487D01*
X115979670Y-76633410D02*
X115609657Y-76815246D01*
X117552160Y-73158693D02*
X117609654Y-73558066D01*
X111856040Y-75374446D02*
X111667422Y-75045853D01*
X112300801Y-74747808D02*
X112186891Y-74479083D01*
X113241864Y-71653359D02*
X113512452Y-71518309D01*
X116261516Y-71197843D02*
X116572753Y-71446254D01*
X116323233Y-76407104D02*
X115979670Y-76633410D01*
X117609654Y-73558066D02*
X117616640Y-73962374D01*
X114072379Y-76353388D02*
X113748184Y-76298656D01*
X112393877Y-72486876D02*
X112563867Y-72241019D01*
X112524341Y-71762626D02*
X112785354Y-71537630D01*
X114749554Y-70992992D02*
X115095337Y-71051841D01*
X113661142Y-76637661D02*
X113303725Y-76528874D01*
X116796203Y-72239324D02*
X116974233Y-72548658D01*
X115218936Y-76949544D02*
X114813600Y-77033979D01*
X114793421Y-70645752D02*
X115182378Y-70712837D01*
X117145700Y-74652132D02*
X117018569Y-74992205D01*
X112623196Y-75229900D02*
X112447070Y-74999367D01*
X111358015Y-73568614D02*
X111399112Y-73187550D01*
X112826226Y-75435899D02*
X112623196Y-75229900D01*
X112107342Y-74197348D02*
X112063619Y-73906993D01*
X111763541Y-74262931D02*
X111714310Y-73928969D01*
X116657543Y-72697681D02*
X116779543Y-72986839D01*
X115431853Y-71153837D02*
X115753728Y-71297578D01*
X113130579Y-76069068D02*
X112847071Y-75897423D01*
X116572753Y-71446254D02*
X116851003Y-71732354D01*
X114096067Y-71354122D02*
X114400000Y-71328000D01*
X112056633Y-73612568D02*
X112086714Y-73318717D01*
X112763932Y-72017765D02*
X112991079Y-71820786D01*
X112086714Y-73318717D02*
X112153605Y-73030102D01*
X116500688Y-72426863D02*
X116657543Y-72697681D01*
X114400000Y-76017000D02*
X114116246Y-76006148D01*
X111667422Y-75045853D02*
X111521152Y-74695394D01*
X117267331Y-73940397D02*
X117228987Y-74299658D01*
X113303725Y-76528874D02*
X112961965Y-76375775D01*
X113711626Y-71078962D02*
X114052200Y-71006882D01*
X114400000Y-70628000D02*
X114793421Y-70645752D01*
X117208359Y-73224277D02*
X117260345Y-73580042D01*
X114725866Y-76339498D02*
X114400000Y-76367000D01*
X115609657Y-76815246D02*
X115218936Y-76949544D01*
X117478570Y-74760288D02*
X117335259Y-75141228D01*
X117228987Y-74299658D02*
X117145700Y-74652132D01*
X117445283Y-72770528D02*
X117552160Y-73158693D01*
X115303010Y-71479258D02*
X115585114Y-71604286D01*
X116918021Y-73918420D02*
X116885187Y-74234075D01*
X113835225Y-75959652D02*
X113561412Y-75878031D01*
X116864559Y-73289860D02*
X116911035Y-73602019D01*
X114052200Y-71006882D02*
X114400000Y-70978000D01*
X113299193Y-75762361D02*
X113052796Y-75614267D01*
X116974233Y-72548658D02*
X117112413Y-72878684D01*
X111419740Y-74328515D02*
X111365001Y-73950946D01*
X115480814Y-76489824D02*
X115131894Y-76610540D01*
X116117509Y-76123948D02*
X115811057Y-76326702D01*
X111365001Y-73950946D02*
X111358015Y-73568614D01*
X113073250Y-71346651D02*
X113383608Y-71192887D01*
X113561412Y-75878031D02*
X113299193Y-75762361D01*
X116055791Y-71480999D02*
X116333161Y-71701393D01*
X111939775Y-72602306D02*
X112098362Y-72299336D01*
X117616640Y-73962374D02*
X117572788Y-74365242D01*
X111742913Y-73253134D02*
X111820735Y-72921946D01*
X112563867Y-72241019D02*
X112763932Y-72017765D01*
X111984112Y-74896831D02*
X111854022Y-74587238D01*
X111820735Y-72921946D02*
X111939775Y-72602306D01*
X116553881Y-75126894D02*
X116370973Y-75390531D01*
X117112413Y-72878684D02*
X117208359Y-73224277D01*
X113748184Y-76298656D02*
X113432569Y-76203453D01*
X112294187Y-72017920D02*
X112524341Y-71762626D01*
X116851003Y-71732354D02*
X117091717Y-72051784D01*
X112153605Y-73030102D02*
X112256465Y-72751329D01*
X116701880Y-74843183D02*
X116553881Y-75126894D01*
X117335259Y-75141228D02*
X117144910Y-75501973D01*
X112785354Y-71537630D02*
X113073250Y-71346651D01*
X112347043Y-75946177D02*
X112083837Y-75676097D01*
X117144910Y-75501973D02*
X116910332Y-75836727D01*
X98595225Y-60719652D02*
X98321412Y-60638031D01*
X98192569Y-60963453D02*
X97890579Y-60829068D01*
X101313881Y-59886894D02*
X101130973Y-60150531D01*
X98812200Y-55766882D02*
X99160000Y-55738000D01*
X96562847Y-56871797D02*
X96784508Y-56554822D01*
X98014765Y-55627465D02*
X98384585Y-55499958D01*
X101417543Y-57457681D02*
X101539543Y-57746839D01*
X101609395Y-60074434D02*
X101400653Y-60373629D01*
X100739670Y-61393410D02*
X100369657Y-61575246D01*
X101611003Y-56492354D02*
X101851717Y-56811784D01*
X102369654Y-58318066D02*
X102376640Y-58722374D01*
X99942378Y-55472837D02*
X100320697Y-55588415D01*
X97523932Y-56777765D02*
X97751079Y-56580786D01*
X101905700Y-59412132D02*
X101778569Y-59752205D01*
X97323867Y-57001019D02*
X97523932Y-56777765D01*
X97207070Y-59759367D02*
X97060801Y-59507808D01*
X96247865Y-57573790D02*
X96383086Y-57213283D01*
X99160000Y-56088000D02*
X99465688Y-56100232D01*
X98063725Y-61288874D02*
X97721965Y-61135775D01*
X101572830Y-59303976D02*
X101461880Y-59603183D01*
X96427422Y-59805853D02*
X96281152Y-59455394D01*
X97664637Y-55799944D02*
X98014765Y-55627465D01*
X96946891Y-59239083D02*
X96867342Y-58957348D01*
X97113517Y-60212998D02*
X96911555Y-59946907D01*
X96699775Y-57362306D02*
X96858362Y-57059336D01*
X96913605Y-57790102D02*
X97016465Y-57511329D01*
X100915863Y-60389805D02*
X100671784Y-60600792D01*
X96467324Y-58350591D02*
X96502913Y-58013134D01*
X100320697Y-55588415D02*
X100682342Y-55750871D01*
X101395046Y-60900083D02*
X101083233Y-61167104D01*
X100513728Y-56057578D02*
X100815791Y-56240999D01*
X97054187Y-56777920D02*
X97284341Y-56522626D01*
X101539543Y-57746839D02*
X101624559Y-58049860D01*
X96383086Y-57213283D02*
X96562847Y-56871797D01*
X101645187Y-58994075D02*
X101572830Y-59303976D01*
X100671784Y-60600792D02*
X100402443Y-60779995D01*
X100345114Y-56364286D02*
X100610066Y-56524155D01*
X97153877Y-57246876D02*
X97323867Y-57001019D01*
X96784508Y-56554822D02*
X97044749Y-56267487D01*
X102238570Y-59520288D02*
X102095259Y-59901228D01*
X101678021Y-58678420D02*
X101645187Y-58994075D01*
X99509554Y-55752992D02*
X99855337Y-55811841D01*
X96118015Y-58328614D02*
X96159112Y-57947550D01*
X99529733Y-61446738D02*
X99160000Y-61477000D01*
X100610066Y-56524155D02*
X100853570Y-56716532D01*
X99160000Y-61477000D02*
X98788512Y-61460628D01*
X101670332Y-60596727D02*
X101395046Y-60900083D01*
X98143608Y-55952887D02*
X98471626Y-55838962D01*
X101332753Y-56206254D02*
X101611003Y-56492354D01*
X101341323Y-56715453D02*
X101556203Y-56999324D01*
X97607071Y-60657423D02*
X97346635Y-60451038D01*
X98471626Y-55838962D02*
X98812200Y-55766882D01*
X99978936Y-61709544D02*
X99573600Y-61793979D01*
X100063010Y-56239258D02*
X100345114Y-56364286D01*
X102376640Y-58722374D02*
X102332788Y-59125242D01*
X96823619Y-58666993D02*
X96816633Y-58372568D01*
X96614022Y-59347238D02*
X96523541Y-59022931D01*
X96179740Y-59088515D02*
X96125001Y-58710946D01*
X101988987Y-59059658D02*
X101905700Y-59412132D01*
X101461880Y-59603183D02*
X101313881Y-59886894D01*
X97401347Y-60940579D02*
X97107043Y-60706177D01*
X100853570Y-56716532D02*
X101071643Y-56938551D01*
X102050922Y-57159635D02*
X102205283Y-57530528D01*
X96474310Y-58688969D02*
X96467324Y-58350591D01*
X102312160Y-57918693D02*
X102369654Y-58318066D01*
X97016465Y-57511329D02*
X97153877Y-57246876D01*
X97284341Y-56522626D02*
X97545354Y-56297630D01*
X99768295Y-56150846D02*
X100063010Y-56239258D01*
X99485866Y-61099498D02*
X99160000Y-61127000D01*
X97890579Y-60829068D02*
X97607071Y-60657423D01*
X97060801Y-59507808D02*
X96946891Y-59239083D01*
X96502913Y-58013134D02*
X96580735Y-57681946D01*
X102332788Y-59125242D02*
X102238570Y-59520288D01*
X99891894Y-61370540D02*
X99529733Y-61446738D01*
X101400653Y-60373629D02*
X101155455Y-60644944D01*
X98768334Y-55419642D02*
X99160000Y-55388000D01*
X97107043Y-60706177D02*
X96843837Y-60436097D01*
X98272452Y-56278309D02*
X98558668Y-56177966D01*
X96580735Y-57681946D02*
X96699775Y-57362306D01*
X97833250Y-56106651D02*
X98143608Y-55952887D01*
X100369657Y-61575246D02*
X99978936Y-61709544D01*
X101093161Y-56461393D02*
X101341323Y-56715453D01*
X100111970Y-60924402D02*
X99804853Y-61031536D01*
X96867342Y-58957348D02*
X96823619Y-58666993D01*
X98384585Y-55499958D02*
X98768334Y-55419642D01*
X101155455Y-60644944D02*
X100877509Y-60883948D01*
X99553421Y-55405752D02*
X99942378Y-55472837D01*
X98876246Y-60766148D02*
X98595225Y-60719652D01*
X97339629Y-56014474D02*
X97664637Y-55799944D01*
X96744112Y-59656831D02*
X96614022Y-59347238D01*
X99804853Y-61031536D02*
X99485866Y-61099498D01*
X99160000Y-60777000D02*
X98876246Y-60766148D01*
X99855337Y-55811841D02*
X100191853Y-55913837D01*
X96159112Y-57947550D02*
X96247865Y-57573790D01*
X97346635Y-60451038D02*
X97113517Y-60212998D01*
X98508184Y-61058656D02*
X98192569Y-60963453D01*
X101872413Y-57638684D02*
X101968359Y-57984277D01*
X96843837Y-60436097D02*
X96616040Y-60134446D01*
X96125001Y-58710946D02*
X96118015Y-58328614D01*
X99160000Y-61827000D02*
X98700381Y-62286619D01*
X100877509Y-60883948D02*
X100571057Y-61086702D01*
X101260688Y-57186863D02*
X101417543Y-57457681D01*
X98421142Y-61397661D02*
X98063725Y-61288874D01*
X101904910Y-60261973D02*
X101670332Y-60596727D01*
X98001864Y-56413359D02*
X98272452Y-56278309D01*
X99160000Y-55738000D02*
X99509554Y-55752992D01*
X102095259Y-59901228D02*
X101904910Y-60261973D01*
X99465688Y-56100232D02*
X99768295Y-56150846D01*
X100682342Y-55750871D02*
X101021516Y-55957843D01*
X101083233Y-61167104D02*
X100739670Y-61393410D01*
X101734233Y-57308658D02*
X101872413Y-57638684D01*
X98321412Y-60638031D02*
X98059193Y-60522361D01*
X102020345Y-58340042D02*
X102027331Y-58700397D01*
X96846714Y-58078717D02*
X96913605Y-57790102D01*
X101968359Y-57984277D02*
X102020345Y-58340042D01*
X100240814Y-61249824D02*
X99891894Y-61370540D01*
X101671035Y-58362019D02*
X101678021Y-58678420D01*
X97586226Y-60195899D02*
X97383196Y-59989900D01*
X96281152Y-59455394D02*
X96179740Y-59088515D01*
X96523541Y-59022931D02*
X96474310Y-58688969D01*
X99160000Y-55388000D02*
X99553421Y-55405752D01*
X96858362Y-57059336D02*
X97054187Y-56777920D01*
X98832379Y-61113388D02*
X98508184Y-61058656D01*
X96616040Y-60134446D02*
X96427422Y-59805853D01*
X101624559Y-58049860D02*
X101671035Y-58362019D01*
X101071643Y-56938551D02*
X101260688Y-57186863D01*
X101021516Y-55957843D02*
X101332753Y-56206254D01*
X97721965Y-61135775D02*
X97401347Y-60940579D01*
X100402443Y-60779995D02*
X100111970Y-60924402D01*
X101851717Y-56811784D02*
X102050922Y-57159635D01*
X98558668Y-56177966D02*
X98856067Y-56114122D01*
X101778569Y-59752205D02*
X101609395Y-60074434D01*
X97044749Y-56267487D02*
X97339629Y-56014474D01*
X102205283Y-57530528D02*
X102312160Y-57918693D01*
X96816633Y-58372568D02*
X96846714Y-58078717D01*
X98059193Y-60522361D02*
X97812796Y-60374267D01*
X100191853Y-55913837D02*
X100513728Y-56057578D01*
X99573600Y-61793979D02*
X99160000Y-61827000D01*
X102027331Y-58700397D02*
X101988987Y-59059658D01*
X97383196Y-59989900D02*
X97207070Y-59759367D01*
X100815791Y-56240999D02*
X101093161Y-56461393D01*
X98788512Y-61460628D02*
X98421142Y-61397661D01*
X101130973Y-60150531D02*
X100915863Y-60389805D01*
X101556203Y-56999324D02*
X101734233Y-57308658D01*
X96911555Y-59946907D02*
X96744112Y-59656831D01*
X100571057Y-61086702D02*
X100240814Y-61249824D01*
X98856067Y-56114122D02*
X99160000Y-56088000D01*
X97812796Y-60374267D02*
X97586226Y-60195899D01*
X97545354Y-56297630D02*
X97833250Y-56106651D01*
X97751079Y-56580786D02*
X98001864Y-56413359D01*
X99160000Y-61127000D02*
X98832379Y-61113388D01*
X116572753Y-56206254D02*
X116851003Y-56492354D01*
X112524341Y-56522626D02*
X112785354Y-56297630D01*
X116812830Y-59303976D02*
X116701880Y-59603183D01*
X116851003Y-56492354D02*
X117091717Y-56811784D01*
X115131894Y-61370540D02*
X114769733Y-61446738D01*
X115182378Y-55472837D02*
X115560697Y-55588415D01*
X114008334Y-55419642D02*
X114400000Y-55388000D01*
X115303010Y-56239258D02*
X115585114Y-56364286D01*
X113303725Y-61288874D02*
X112961965Y-61135775D01*
X116055791Y-56240999D02*
X116333161Y-56461393D01*
X114400000Y-61827000D02*
X113940381Y-62286619D01*
X114116246Y-60766148D02*
X113835225Y-60719652D01*
X112826226Y-60195899D02*
X112623196Y-59989900D01*
X114400000Y-60777000D02*
X114116246Y-60766148D01*
X116370973Y-60150531D02*
X116155863Y-60389805D01*
X115095337Y-55811841D02*
X115431853Y-55913837D01*
X112300801Y-59507808D02*
X112186891Y-59239083D01*
X115480814Y-61249824D02*
X115131894Y-61370540D01*
X114400000Y-61127000D02*
X114072379Y-61113388D01*
X112098362Y-57059336D02*
X112294187Y-56777920D01*
X114705688Y-56100232D02*
X115008295Y-56150846D01*
X116779543Y-57746839D02*
X116864559Y-58049860D01*
X113254765Y-55627465D02*
X113624585Y-55499958D01*
X114072379Y-61113388D02*
X113748184Y-61058656D01*
X117112413Y-57638684D02*
X117208359Y-57984277D01*
X117091717Y-56811784D02*
X117290922Y-57159635D01*
X113073250Y-56106651D02*
X113383608Y-55952887D01*
X114052200Y-55766882D02*
X114400000Y-55738000D01*
X115922342Y-55750871D02*
X116261516Y-55957843D01*
X113130579Y-60829068D02*
X112847071Y-60657423D01*
X117445283Y-57530528D02*
X117552160Y-57918693D01*
X111487865Y-57573790D02*
X111623086Y-57213283D01*
X113748184Y-61058656D02*
X113432569Y-60963453D01*
X115351970Y-60924402D02*
X115044853Y-61031536D01*
X112294187Y-56777920D02*
X112524341Y-56522626D01*
X114400000Y-56088000D02*
X114705688Y-56100232D01*
X114096067Y-56114122D02*
X114400000Y-56088000D01*
X116117509Y-60883948D02*
X115811057Y-61086702D01*
X115911784Y-60600792D02*
X115642443Y-60779995D01*
X116796203Y-56999324D02*
X116974233Y-57308658D01*
X116395455Y-60644944D02*
X116117509Y-60883948D01*
X115585114Y-56364286D02*
X115850066Y-56524155D01*
X112063619Y-58666993D02*
X112056633Y-58372568D01*
X117144910Y-60261973D02*
X116910332Y-60596727D01*
X117609654Y-58318066D02*
X117616640Y-58722374D01*
X114725866Y-61099498D02*
X114400000Y-61127000D01*
X117552160Y-57918693D02*
X117609654Y-58318066D01*
X112086714Y-58078717D02*
X112153605Y-57790102D01*
X112623196Y-59989900D02*
X112447070Y-59759367D01*
X112151555Y-59946907D02*
X111984112Y-59656831D01*
X116918021Y-58678420D02*
X116885187Y-58994075D01*
X116640653Y-60373629D02*
X116395455Y-60644944D01*
X112763932Y-56777765D02*
X112991079Y-56580786D01*
X112107342Y-58957348D02*
X112063619Y-58666993D01*
X116500688Y-57186863D02*
X116657543Y-57457681D01*
X116261516Y-55957843D02*
X116572753Y-56206254D01*
X115642443Y-60779995D02*
X115351970Y-60924402D01*
X117228987Y-59059658D02*
X117145700Y-59412132D01*
X116581323Y-56715453D02*
X116796203Y-56999324D01*
X112961965Y-61135775D02*
X112641347Y-60940579D01*
X113835225Y-60719652D02*
X113561412Y-60638031D01*
X116701880Y-59603183D02*
X116553881Y-59886894D01*
X114028512Y-61460628D02*
X113661142Y-61397661D01*
X115218936Y-61709544D02*
X114813600Y-61793979D01*
X113624585Y-55499958D02*
X114008334Y-55419642D01*
X111419740Y-59088515D02*
X111365001Y-58710946D01*
X112641347Y-60940579D02*
X112347043Y-60706177D01*
X114400000Y-61477000D02*
X114028512Y-61460628D01*
X111820735Y-57681946D02*
X111939775Y-57362306D01*
X112904637Y-55799944D02*
X113254765Y-55627465D01*
X113512452Y-56278309D02*
X113798668Y-56177966D01*
X111521152Y-59455394D02*
X111419740Y-59088515D01*
X114400000Y-55388000D02*
X114793421Y-55405752D01*
X114769733Y-61446738D02*
X114400000Y-61477000D01*
X116974233Y-57308658D02*
X117112413Y-57638684D01*
X112256465Y-57511329D02*
X112393877Y-57246876D01*
X112563867Y-57001019D02*
X112763932Y-56777765D01*
X116864559Y-58049860D02*
X116911035Y-58362019D01*
X112347043Y-60706177D02*
X112083837Y-60436097D01*
X115044853Y-61031536D02*
X114725866Y-61099498D01*
X111854022Y-59347238D02*
X111763541Y-59022931D01*
X116323233Y-61167104D02*
X115979670Y-61393410D01*
X114749554Y-55752992D02*
X115095337Y-55811841D01*
X117478570Y-59520288D02*
X117335259Y-59901228D01*
X111707324Y-58350591D02*
X111742913Y-58013134D01*
X117018569Y-59752205D02*
X116849395Y-60074434D01*
X116155863Y-60389805D02*
X115911784Y-60600792D01*
X116657543Y-57457681D02*
X116779543Y-57746839D01*
X115609657Y-61575246D02*
X115218936Y-61709544D01*
X117290922Y-57159635D02*
X117445283Y-57530528D01*
X112785354Y-56297630D02*
X113073250Y-56106651D01*
X112447070Y-59759367D02*
X112300801Y-59507808D01*
X115979670Y-61393410D02*
X115609657Y-61575246D01*
X113383608Y-55952887D02*
X113711626Y-55838962D01*
X111984112Y-59656831D02*
X111854022Y-59347238D01*
X112847071Y-60657423D02*
X112586635Y-60451038D01*
X117145700Y-59412132D02*
X117018569Y-59752205D01*
X112083837Y-60436097D02*
X111856040Y-60134446D01*
X117616640Y-58722374D02*
X117572788Y-59125242D01*
X111763541Y-59022931D02*
X111714310Y-58688969D01*
X116910332Y-60596727D02*
X116635046Y-60900083D01*
X113711626Y-55838962D02*
X114052200Y-55766882D01*
X116311643Y-56938551D02*
X116500688Y-57186863D01*
X111358015Y-58328614D02*
X111399112Y-57947550D01*
X114813600Y-61793979D02*
X114400000Y-61827000D01*
X113241864Y-56413359D02*
X113512452Y-56278309D01*
X115850066Y-56524155D02*
X116093570Y-56716532D01*
X111365001Y-58710946D02*
X111358015Y-58328614D01*
X112024508Y-56554822D02*
X112284749Y-56267487D01*
X115431853Y-55913837D02*
X115753728Y-56057578D01*
X112991079Y-56580786D02*
X113241864Y-56413359D01*
X113299193Y-60522361D02*
X113052796Y-60374267D01*
X117572788Y-59125242D02*
X117478570Y-59520288D01*
X112284749Y-56267487D02*
X112579629Y-56014474D01*
X112586635Y-60451038D02*
X112353517Y-60212998D01*
X113561412Y-60638031D02*
X113299193Y-60522361D01*
X115753728Y-56057578D02*
X116055791Y-56240999D01*
X111667422Y-59805853D02*
X111521152Y-59455394D01*
X114400000Y-55738000D02*
X114749554Y-55752992D01*
X116093570Y-56716532D02*
X116311643Y-56938551D01*
X111856040Y-60134446D02*
X111667422Y-59805853D01*
X111802847Y-56871797D02*
X112024508Y-56554822D01*
X117208359Y-57984277D02*
X117260345Y-58340042D01*
X111939775Y-57362306D02*
X112098362Y-57059336D01*
X116885187Y-58994075D02*
X116812830Y-59303976D01*
X117335259Y-59901228D02*
X117144910Y-60261973D01*
X117267331Y-58700397D02*
X117228987Y-59059658D01*
X112393877Y-57246876D02*
X112563867Y-57001019D01*
X112153605Y-57790102D02*
X112256465Y-57511329D01*
X116911035Y-58362019D02*
X116918021Y-58678420D01*
X111714310Y-58688969D02*
X111707324Y-58350591D01*
X112056633Y-58372568D02*
X112086714Y-58078717D01*
X112186891Y-59239083D02*
X112107342Y-58957348D01*
X114793421Y-55405752D02*
X115182378Y-55472837D01*
X116553881Y-59886894D02*
X116370973Y-60150531D01*
X113432569Y-60963453D02*
X113130579Y-60829068D01*
X116333161Y-56461393D02*
X116581323Y-56715453D01*
X113798668Y-56177966D02*
X114096067Y-56114122D01*
X113661142Y-61397661D02*
X113303725Y-61288874D01*
X115008295Y-56150846D02*
X115303010Y-56239258D01*
X112579629Y-56014474D02*
X112904637Y-55799944D01*
X111623086Y-57213283D02*
X111802847Y-56871797D01*
X116849395Y-60074434D02*
X116640653Y-60373629D01*
X111742913Y-58013134D02*
X111820735Y-57681946D01*
X115560697Y-55588415D02*
X115922342Y-55750871D01*
X113052796Y-60374267D02*
X112826226Y-60195899D01*
X117260345Y-58340042D02*
X117267331Y-58700397D01*
X116635046Y-60900083D02*
X116323233Y-61167104D01*
X111399112Y-57947550D02*
X111487865Y-57573790D01*
X112353517Y-60212998D02*
X112151555Y-59946907D01*
X115811057Y-61086702D02*
X115480814Y-61249824D01*
D11*
X99160000Y-76017000D03*
D12*
X96560000Y-69660000D03*
D13*
X95250000Y-71120000D03*
D14*
X101580000Y-68870000D03*
D11*
X98700381Y-77526619D03*
X99619619Y-77519619D03*
X114400000Y-76017000D03*
D12*
X111800000Y-69660000D03*
D13*
X110490000Y-71120000D03*
D14*
X116820000Y-68870000D03*
D11*
X113940381Y-77526619D03*
X114859619Y-77519619D03*
D15*
X87566667Y-58415000D03*
D16*
X87566667Y-60955000D03*
X87566667Y-63495000D03*
X87566667Y-66035000D03*
X87566667Y-68575000D03*
X87566667Y-71115000D03*
X87566667Y-73655000D03*
D11*
X99160000Y-60777000D03*
D12*
X96560000Y-54420000D03*
D13*
X95250000Y-55880000D03*
D14*
X101580000Y-53630000D03*
D11*
X98700381Y-62286619D03*
X99619619Y-62279619D03*
X114400000Y-60777000D03*
D12*
X111800000Y-54420000D03*
D13*
X110490000Y-55880000D03*
D14*
X116820000Y-53630000D03*
D11*
X113940381Y-62286619D03*
X114859619Y-62279619D03*
D17*
X105937538Y-65297538D03*
X106680000Y-67524924D03*
X107422462Y-65297538D03*
X106680000Y-64555076D03*
X105937538Y-66782462D03*
X108164924Y-66040000D03*
D18*
X106680000Y-66040000D03*
D17*
X106680000Y-66040000D03*
X105195076Y-66040000D03*
X107422462Y-66782462D03*
D19*
X98425000Y-67310000D03*
X106680101Y-69939500D03*
X110236000Y-66040000D03*
X110236000Y-63716500D03*
X110236000Y-64716003D03*
X110236000Y-67056000D03*
X110236000Y-68072000D03*
D20*
X106680101Y-69851537D02*
X103504282Y-66675718D01*
X103504282Y-66675718D02*
X99059282Y-66675718D01*
X99059282Y-66675718D02*
X98425000Y-67310000D01*
X106680101Y-69939500D02*
X106680101Y-69851537D01*
X111252000Y-65024000D02*
X111252000Y-63372282D01*
X89447797Y-62836130D02*
X87566667Y-60955000D01*
X110236000Y-66040000D02*
X111252000Y-65024000D01*
X100700365Y-61976000D02*
X99840235Y-62836130D01*
X109855718Y-61976000D02*
X100700365Y-61976000D01*
X111252000Y-63372282D02*
X109855718Y-61976000D01*
X99840235Y-62836130D02*
X89447797Y-62836130D01*
X104520282Y-62484000D02*
X103509282Y-63495000D01*
X103509282Y-63495000D02*
X87566667Y-63495000D01*
X109728000Y-62484000D02*
X104520282Y-62484000D01*
X110236000Y-63716500D02*
X110236000Y-62992000D01*
X110236000Y-62992000D02*
X109728000Y-62484000D01*
X110236000Y-64716003D02*
X110210889Y-64716003D01*
X110210889Y-64716003D02*
X108486886Y-62992000D01*
X108486886Y-62992000D02*
X104648000Y-62992000D01*
X102324511Y-65315489D02*
X88286178Y-65315489D01*
X88286178Y-65315489D02*
X87566667Y-66035000D01*
X104648000Y-62992000D02*
X102324511Y-65315489D01*
X90376658Y-65765009D02*
X87566667Y-68575000D01*
X110236000Y-67056000D02*
X108204000Y-67056000D01*
X108204000Y-67056000D02*
X106680000Y-68580000D01*
X106680000Y-68580000D02*
X103865009Y-65765009D01*
X103865009Y-65765009D02*
X90376658Y-65765009D01*
X106679282Y-69215000D02*
X103678811Y-66214529D01*
X92467138Y-66214529D02*
X87566667Y-71115000D01*
X106680718Y-69215000D02*
X106679282Y-69215000D01*
X103678811Y-66214529D02*
X92467138Y-66214529D01*
X107823718Y-68072000D02*
X106680718Y-69215000D01*
X110236000Y-68072000D02*
X107823718Y-68072000D01*
G04 #@! TA.AperFunction,Conductor*
G36*
X123894121Y-48788002D02*
G01*
X123940614Y-48841658D01*
X123952000Y-48894000D01*
X123952000Y-83186000D01*
X123931998Y-83254121D01*
X123878342Y-83300614D01*
X123826000Y-83312000D01*
X81914000Y-83312000D01*
X81845879Y-83291998D01*
X81799386Y-83238342D01*
X81788000Y-83186000D01*
X81788000Y-73621695D01*
X86203918Y-73621695D01*
X86204215Y-73626848D01*
X86204215Y-73626851D01*
X86209678Y-73721590D01*
X86216777Y-73844715D01*
X86217914Y-73849761D01*
X86217915Y-73849767D01*
X86237786Y-73937939D01*
X86265889Y-74062639D01*
X86349933Y-74269616D01*
X86352632Y-74274020D01*
X86462687Y-74453614D01*
X86466654Y-74460088D01*
X86612917Y-74628938D01*
X86784793Y-74771632D01*
X86977667Y-74884338D01*
X86982492Y-74886180D01*
X86982493Y-74886181D01*
X87004504Y-74894586D01*
X87186359Y-74964030D01*
X87191427Y-74965061D01*
X87191430Y-74965062D01*
X87298684Y-74986883D01*
X87405264Y-75008567D01*
X87410439Y-75008757D01*
X87410441Y-75008757D01*
X87623340Y-75016564D01*
X87623344Y-75016564D01*
X87628504Y-75016753D01*
X87633624Y-75016097D01*
X87633626Y-75016097D01*
X87844955Y-74989025D01*
X87844956Y-74989025D01*
X87850083Y-74988368D01*
X87891294Y-74976004D01*
X88059096Y-74925661D01*
X88059101Y-74925659D01*
X88064051Y-74924174D01*
X88264661Y-74825896D01*
X88446527Y-74696173D01*
X88604763Y-74538489D01*
X88650923Y-74474251D01*
X88732102Y-74361277D01*
X88735120Y-74357077D01*
X88834097Y-74156811D01*
X88883148Y-73995366D01*
X88897532Y-73948023D01*
X88897532Y-73948021D01*
X88899037Y-73943069D01*
X88928196Y-73721590D01*
X88929823Y-73655000D01*
X88911519Y-73432361D01*
X88857098Y-73215702D01*
X88768021Y-73010840D01*
X88728573Y-72949862D01*
X88649489Y-72827617D01*
X88649487Y-72827614D01*
X88646681Y-72823277D01*
X88496337Y-72658051D01*
X88492286Y-72654852D01*
X88492282Y-72654848D01*
X88325081Y-72522800D01*
X88325077Y-72522798D01*
X88321026Y-72519598D01*
X88279720Y-72496796D01*
X88229751Y-72446364D01*
X88214979Y-72376921D01*
X88240095Y-72310516D01*
X88267447Y-72283909D01*
X88311270Y-72252650D01*
X88446527Y-72156173D01*
X88467284Y-72135489D01*
X88601102Y-72002137D01*
X88604763Y-71998489D01*
X88664261Y-71915689D01*
X88732102Y-71821277D01*
X88735120Y-71817077D01*
X88767872Y-71750809D01*
X88831803Y-71621453D01*
X88831804Y-71621451D01*
X88834097Y-71616811D01*
X88899037Y-71403069D01*
X88928196Y-71181590D01*
X88929823Y-71115000D01*
X88911519Y-70892361D01*
X88883488Y-70780765D01*
X88886292Y-70709823D01*
X88916597Y-70660974D01*
X92692637Y-66884934D01*
X92754949Y-66850908D01*
X92781732Y-66848029D01*
X97446426Y-66848029D01*
X97514547Y-66868031D01*
X97561040Y-66921687D01*
X97571144Y-66991961D01*
X97566259Y-67012965D01*
X97552276Y-67056000D01*
X97531458Y-67120072D01*
X97530768Y-67126633D01*
X97530768Y-67126635D01*
X97523638Y-67194476D01*
X97511496Y-67310000D01*
X97512186Y-67316565D01*
X97530007Y-67486119D01*
X97531458Y-67499928D01*
X97590473Y-67681556D01*
X97685960Y-67846944D01*
X97690378Y-67851851D01*
X97690379Y-67851852D01*
X97803491Y-67977476D01*
X97813747Y-67988866D01*
X97968248Y-68101118D01*
X97974276Y-68103802D01*
X97974278Y-68103803D01*
X98136681Y-68176109D01*
X98142712Y-68178794D01*
X98236112Y-68198647D01*
X98323056Y-68217128D01*
X98323061Y-68217128D01*
X98329513Y-68218500D01*
X98520487Y-68218500D01*
X98526939Y-68217128D01*
X98526944Y-68217128D01*
X98613888Y-68198647D01*
X98707288Y-68178794D01*
X98713319Y-68176109D01*
X98875722Y-68103803D01*
X98875724Y-68103802D01*
X98881752Y-68101118D01*
X99036253Y-67988866D01*
X99046509Y-67977476D01*
X99159621Y-67851852D01*
X99159622Y-67851851D01*
X99164040Y-67846944D01*
X99259527Y-67681556D01*
X99318542Y-67499928D01*
X99319994Y-67486119D01*
X99323267Y-67454968D01*
X99326728Y-67422047D01*
X99353740Y-67356391D01*
X99411961Y-67315761D01*
X99452037Y-67309218D01*
X100101619Y-67309218D01*
X100169740Y-67329220D01*
X100216233Y-67382876D01*
X100226337Y-67453150D01*
X100204516Y-67507938D01*
X100168166Y-67559373D01*
X100088720Y-67671787D01*
X100086613Y-67675968D01*
X100086612Y-67675969D01*
X100077160Y-67694721D01*
X99971078Y-67905186D01*
X99960781Y-67936412D01*
X99899922Y-68120974D01*
X99889226Y-68153409D01*
X99888435Y-68158013D01*
X99854154Y-68357522D01*
X99852278Y-68368439D01*
X99852058Y-68371584D01*
X99852057Y-68371593D01*
X99806153Y-69028074D01*
X99800878Y-69103509D01*
X99800888Y-69105827D01*
X99800888Y-69105831D01*
X99801056Y-69144423D01*
X99801728Y-69298341D01*
X99814311Y-69380088D01*
X99839699Y-69545031D01*
X99841490Y-69556669D01*
X99918997Y-69806284D01*
X99921031Y-69810500D01*
X99962858Y-69897218D01*
X99974437Y-69967264D01*
X99946308Y-70032451D01*
X99887402Y-70072081D01*
X99827954Y-70076125D01*
X99804508Y-70072081D01*
X99658555Y-70046908D01*
X99657917Y-70046796D01*
X99624246Y-70040808D01*
X99624242Y-70040808D01*
X99620634Y-70040166D01*
X99619049Y-70040094D01*
X99617492Y-70039826D01*
X99601217Y-70039176D01*
X99579695Y-70038317D01*
X99579043Y-70038289D01*
X99189247Y-70020701D01*
X99188593Y-70020670D01*
X99154441Y-70018951D01*
X99154435Y-70018951D01*
X99150758Y-70018766D01*
X99149182Y-70018893D01*
X99147600Y-70018822D01*
X99109803Y-70022073D01*
X99109433Y-70022104D01*
X98926039Y-70036920D01*
X98721180Y-70053470D01*
X98720528Y-70053521D01*
X98682785Y-70056373D01*
X98681234Y-70056698D01*
X98679657Y-70056825D01*
X98642597Y-70064783D01*
X98642162Y-70064875D01*
X98444502Y-70106244D01*
X98373729Y-70100621D01*
X98317231Y-70057627D01*
X98292945Y-69990914D01*
X98293698Y-69967015D01*
X98297199Y-69939500D01*
X98321014Y-69752291D01*
X98323431Y-69660000D01*
X98323197Y-69656851D01*
X98304407Y-69404000D01*
X98304406Y-69403996D01*
X98304061Y-69399348D01*
X98298708Y-69375689D01*
X98247408Y-69148980D01*
X98246377Y-69144423D01*
X98230467Y-69103509D01*
X98153340Y-68905176D01*
X98153339Y-68905173D01*
X98151647Y-68900823D01*
X98132830Y-68867899D01*
X98070901Y-68759547D01*
X98021951Y-68673902D01*
X97860138Y-68468643D01*
X97669763Y-68289557D01*
X97455009Y-68140576D01*
X97450816Y-68138508D01*
X97224781Y-68027040D01*
X97224778Y-68027039D01*
X97220593Y-68024975D01*
X97174449Y-68010204D01*
X96976123Y-67946720D01*
X96971665Y-67945293D01*
X96713693Y-67903279D01*
X96599942Y-67901790D01*
X96457022Y-67899919D01*
X96457019Y-67899919D01*
X96452345Y-67899858D01*
X96193362Y-67935104D01*
X96188876Y-67936412D01*
X96188874Y-67936412D01*
X96160988Y-67944540D01*
X95942433Y-68008243D01*
X95938180Y-68010203D01*
X95938179Y-68010204D01*
X95904635Y-68025668D01*
X95705072Y-68117668D01*
X95666067Y-68143241D01*
X95490404Y-68258410D01*
X95490399Y-68258414D01*
X95486491Y-68260976D01*
X95291494Y-68435018D01*
X95124363Y-68635970D01*
X94988771Y-68859419D01*
X94986967Y-68863721D01*
X94986965Y-68863725D01*
X94986106Y-68865773D01*
X94985622Y-68866360D01*
X94984838Y-68867899D01*
X94984497Y-68867725D01*
X94939912Y-68921809D01*
X94824485Y-68998934D01*
X94824481Y-68998937D01*
X94820593Y-69001535D01*
X94659091Y-69148233D01*
X94656967Y-69150592D01*
X94656966Y-69150593D01*
X93251534Y-70711485D01*
X93242510Y-70721507D01*
X93123230Y-70875560D01*
X93120944Y-70879642D01*
X93120942Y-70879645D01*
X93106137Y-70906082D01*
X92995519Y-71103604D01*
X92949218Y-71225813D01*
X92907584Y-71335704D01*
X92902917Y-71348021D01*
X92901924Y-71352593D01*
X92901924Y-71352594D01*
X92863965Y-71527425D01*
X92847460Y-71603440D01*
X92830366Y-71864251D01*
X92830753Y-71868908D01*
X92830753Y-71868911D01*
X92841824Y-72002137D01*
X92852010Y-72124724D01*
X92911916Y-72379137D01*
X93008769Y-72621900D01*
X93140441Y-72847680D01*
X93143368Y-72851327D01*
X93301115Y-73047879D01*
X93301121Y-73047885D01*
X93304038Y-73051520D01*
X93495969Y-73228938D01*
X93499825Y-73231564D01*
X93499832Y-73231569D01*
X93651134Y-73334586D01*
X93712015Y-73376038D01*
X93716228Y-73378070D01*
X93716233Y-73378073D01*
X93818378Y-73427342D01*
X93947431Y-73489590D01*
X93951898Y-73490977D01*
X93951903Y-73490979D01*
X94109394Y-73539881D01*
X94197044Y-73567097D01*
X94201656Y-73567807D01*
X94201661Y-73567808D01*
X94450752Y-73606146D01*
X94450755Y-73606146D01*
X94455373Y-73606857D01*
X94587464Y-73607433D01*
X94712067Y-73607977D01*
X94712072Y-73607977D01*
X94716741Y-73607997D01*
X94724604Y-73606857D01*
X94970774Y-73571165D01*
X94970777Y-73571164D01*
X94975407Y-73570493D01*
X95225688Y-73495167D01*
X95241824Y-73487557D01*
X95329864Y-73446034D01*
X95400008Y-73435066D01*
X95464947Y-73463763D01*
X95504062Y-73523012D01*
X95509577Y-73557037D01*
X95509908Y-73571165D01*
X95510136Y-73580866D01*
X95510148Y-73581434D01*
X95516755Y-73943069D01*
X95517070Y-73960296D01*
X95517080Y-73960924D01*
X95517574Y-73998746D01*
X95517801Y-74000312D01*
X95517830Y-74001894D01*
X95518380Y-74005551D01*
X95518380Y-74005556D01*
X95523470Y-74039423D01*
X95523565Y-74040071D01*
X95577767Y-74413930D01*
X95577851Y-74414522D01*
X95583100Y-74452096D01*
X95583520Y-74453614D01*
X95583748Y-74455184D01*
X95584761Y-74458776D01*
X95584762Y-74458781D01*
X95594007Y-74491565D01*
X95594183Y-74492193D01*
X95694666Y-74855712D01*
X95694838Y-74856343D01*
X95703744Y-74889226D01*
X95703746Y-74889233D01*
X95704713Y-74892802D01*
X95705322Y-74894261D01*
X95705744Y-74895788D01*
X95720567Y-74930791D01*
X95720736Y-74931193D01*
X95756173Y-75016097D01*
X95865606Y-75278296D01*
X95865857Y-75278903D01*
X95878876Y-75310560D01*
X95878882Y-75310573D01*
X95880282Y-75313976D01*
X95881069Y-75315348D01*
X95881678Y-75316806D01*
X95883516Y-75319970D01*
X95883519Y-75319976D01*
X95900658Y-75349479D01*
X95900984Y-75350044D01*
X96087919Y-75675703D01*
X96088135Y-75676081D01*
X96106833Y-75709050D01*
X96107785Y-75710311D01*
X96108574Y-75711685D01*
X96110814Y-75714619D01*
X96110817Y-75714624D01*
X96131615Y-75741869D01*
X96132010Y-75742390D01*
X96357568Y-76041077D01*
X96357918Y-76041543D01*
X96380600Y-76071904D01*
X96381702Y-76073035D01*
X96382656Y-76074298D01*
X96409288Y-76101344D01*
X96409643Y-76101706D01*
X96670416Y-76369291D01*
X96670870Y-76369759D01*
X96697086Y-76396940D01*
X96698323Y-76397925D01*
X96699427Y-76399058D01*
X96729298Y-76422596D01*
X96729537Y-76422785D01*
X97021278Y-76655147D01*
X97021576Y-76655385D01*
X97051140Y-76679184D01*
X97052490Y-76680006D01*
X97053728Y-76680992D01*
X97056894Y-76682897D01*
X97086238Y-76700553D01*
X97086673Y-76700816D01*
X97404413Y-76894261D01*
X97404678Y-76894423D01*
X97437034Y-76914353D01*
X97438480Y-76915001D01*
X97439829Y-76915822D01*
X97443208Y-76917315D01*
X97443218Y-76917320D01*
X97474486Y-76931133D01*
X97475082Y-76931398D01*
X97697593Y-77031076D01*
X97813696Y-77083087D01*
X97814126Y-77083282D01*
X97830125Y-77090548D01*
X97845176Y-77097385D01*
X97845179Y-77097386D01*
X97848567Y-77098925D01*
X97850076Y-77099384D01*
X97851524Y-77100033D01*
X97855101Y-77101101D01*
X97855105Y-77101103D01*
X97887891Y-77110896D01*
X97888517Y-77111085D01*
X97925624Y-77122379D01*
X97984969Y-77161349D01*
X98013824Y-77226217D01*
X98007337Y-77286011D01*
X97982937Y-77353051D01*
X97962312Y-77516313D01*
X97978370Y-77680087D01*
X98030313Y-77836234D01*
X98115560Y-77976992D01*
X98229872Y-78095366D01*
X98367570Y-78185473D01*
X98521809Y-78242834D01*
X98528790Y-78243765D01*
X98528792Y-78243766D01*
X98677942Y-78263667D01*
X98677946Y-78263667D01*
X98684923Y-78264598D01*
X98691934Y-78263960D01*
X98691938Y-78263960D01*
X98841784Y-78250323D01*
X98841785Y-78250323D01*
X98848805Y-78249684D01*
X98898986Y-78233379D01*
X98998611Y-78201009D01*
X98998614Y-78201008D01*
X99005310Y-78198832D01*
X99101269Y-78141629D01*
X99170023Y-78123929D01*
X99234779Y-78144426D01*
X99286808Y-78178473D01*
X99441047Y-78235834D01*
X99448028Y-78236765D01*
X99448030Y-78236766D01*
X99597180Y-78256667D01*
X99597184Y-78256667D01*
X99604161Y-78257598D01*
X99611172Y-78256960D01*
X99611176Y-78256960D01*
X99761022Y-78243323D01*
X99761023Y-78243323D01*
X99768043Y-78242684D01*
X99796681Y-78233379D01*
X99917849Y-78194009D01*
X99917852Y-78194008D01*
X99924548Y-78191832D01*
X100065898Y-78107570D01*
X100185068Y-77994087D01*
X100276134Y-77857022D01*
X100334570Y-77703187D01*
X100357472Y-77540229D01*
X100357997Y-77540303D01*
X100382193Y-77476499D01*
X100441690Y-77433400D01*
X100565705Y-77390774D01*
X100566241Y-77390592D01*
X100598532Y-77379680D01*
X100602054Y-77378490D01*
X100603476Y-77377791D01*
X100604972Y-77377277D01*
X100608288Y-77375626D01*
X100608300Y-77375621D01*
X100638828Y-77360421D01*
X100639413Y-77360131D01*
X100790231Y-77286014D01*
X101006572Y-77179697D01*
X101040847Y-77163074D01*
X101042165Y-77162206D01*
X101043591Y-77161505D01*
X101075126Y-77140497D01*
X101075673Y-77140134D01*
X101119774Y-77111085D01*
X101416359Y-76915724D01*
X101416886Y-76915379D01*
X101417467Y-76915001D01*
X101423274Y-76911219D01*
X101445362Y-76896834D01*
X101445365Y-76896831D01*
X101448437Y-76894831D01*
X101449637Y-76893804D01*
X101450963Y-76892930D01*
X101479714Y-76868048D01*
X101480132Y-76867688D01*
X101674909Y-76700892D01*
X101789312Y-76602923D01*
X101789643Y-76602641D01*
X101818515Y-76578176D01*
X101819576Y-76577007D01*
X101820782Y-76575974D01*
X101823260Y-76573215D01*
X101823269Y-76573206D01*
X101846140Y-76547738D01*
X101846578Y-76547252D01*
X102119489Y-76246514D01*
X102119931Y-76246030D01*
X102142894Y-76220989D01*
X102142898Y-76220984D01*
X102145383Y-76218274D01*
X102146290Y-76216980D01*
X102147357Y-76215804D01*
X102149466Y-76212760D01*
X102149473Y-76212752D01*
X102168985Y-76184596D01*
X102169289Y-76184158D01*
X102401758Y-75852415D01*
X102402049Y-75852001D01*
X102421916Y-75823963D01*
X102421920Y-75823956D01*
X102424048Y-75820953D01*
X102424791Y-75819546D01*
X102425695Y-75818255D01*
X102427385Y-75815012D01*
X102427389Y-75815005D01*
X102443161Y-75784734D01*
X102443465Y-75784154D01*
X102465677Y-75742059D01*
X102632110Y-75426635D01*
X102632404Y-75426082D01*
X102648528Y-75395907D01*
X102648530Y-75395903D01*
X102650291Y-75392607D01*
X102650850Y-75391120D01*
X102651587Y-75389724D01*
X102664710Y-75354284D01*
X102664939Y-75353671D01*
X102807019Y-74976004D01*
X102807251Y-74975393D01*
X102819410Y-74943573D01*
X102820738Y-74940099D01*
X102821105Y-74938560D01*
X102821663Y-74937077D01*
X102830335Y-74899862D01*
X102923786Y-74508035D01*
X102923934Y-74507420D01*
X102932027Y-74474251D01*
X102932028Y-74474247D01*
X102932906Y-74470647D01*
X102933077Y-74469076D01*
X102933445Y-74467533D01*
X102933827Y-74463848D01*
X102933828Y-74463841D01*
X102937347Y-74429868D01*
X102937416Y-74429216D01*
X102939010Y-74414577D01*
X102980867Y-74030037D01*
X102980936Y-74029411D01*
X102984821Y-73995366D01*
X102984821Y-73995365D01*
X102985238Y-73991711D01*
X102985211Y-73990127D01*
X102985382Y-73988553D01*
X102984529Y-73950610D01*
X102984518Y-73950061D01*
X102982609Y-73839547D01*
X102977596Y-73549445D01*
X102977586Y-73548790D01*
X102977173Y-73514603D01*
X102977128Y-73510871D01*
X102976902Y-73509304D01*
X102976875Y-73507721D01*
X102971282Y-73470254D01*
X102971198Y-73469679D01*
X102914227Y-73073938D01*
X102914135Y-73073291D01*
X102909434Y-73039387D01*
X102909434Y-73039385D01*
X102908924Y-73035710D01*
X102908503Y-73034181D01*
X102908278Y-73032618D01*
X102898022Y-72996112D01*
X102897846Y-72995479D01*
X102895340Y-72986375D01*
X102804057Y-72654848D01*
X102792005Y-72611075D01*
X102791833Y-72610443D01*
X102782896Y-72577312D01*
X102782890Y-72577294D01*
X102781920Y-72573699D01*
X102781310Y-72572234D01*
X102780891Y-72570711D01*
X102779447Y-72567291D01*
X102779443Y-72567280D01*
X102766120Y-72535731D01*
X102765868Y-72535129D01*
X102612976Y-72167767D01*
X102612726Y-72167162D01*
X102599737Y-72135489D01*
X102599736Y-72135487D01*
X102598333Y-72132066D01*
X102597544Y-72130688D01*
X102596937Y-72129230D01*
X102577847Y-72096293D01*
X102380112Y-71751007D01*
X102379810Y-71750477D01*
X102361263Y-71717697D01*
X102360314Y-71716438D01*
X102359524Y-71715058D01*
X102336435Y-71684748D01*
X102336073Y-71684270D01*
X102097663Y-71367896D01*
X102097270Y-71367372D01*
X102076855Y-71339986D01*
X102076853Y-71339984D01*
X102074643Y-71337019D01*
X102073542Y-71335887D01*
X102072588Y-71334621D01*
X102069984Y-71331971D01*
X102046062Y-71307628D01*
X102045605Y-71307161D01*
X101840079Y-71095838D01*
X101806924Y-71033059D01*
X101812973Y-70962320D01*
X101856306Y-70906082D01*
X101903670Y-70884859D01*
X101996483Y-70864707D01*
X102060567Y-70850793D01*
X102071561Y-70846628D01*
X102300615Y-70759847D01*
X102300616Y-70759846D01*
X102304983Y-70758192D01*
X102349426Y-70733303D01*
X102528950Y-70632764D01*
X102528952Y-70632763D01*
X102533028Y-70630480D01*
X102739691Y-70470464D01*
X102920432Y-70281659D01*
X103034359Y-70120456D01*
X103068579Y-70072035D01*
X103068580Y-70072034D01*
X103071280Y-70068213D01*
X103077390Y-70056092D01*
X103186819Y-69838986D01*
X103188922Y-69834814D01*
X103270774Y-69586591D01*
X103278069Y-69544135D01*
X103307187Y-69374677D01*
X103307188Y-69374669D01*
X103307722Y-69371561D01*
X103310550Y-69331131D01*
X103358960Y-68638811D01*
X103358960Y-68638805D01*
X103359122Y-68636491D01*
X103358271Y-68441659D01*
X103318510Y-68183331D01*
X103317102Y-68178794D01*
X103254590Y-67977476D01*
X103241003Y-67933717D01*
X103238972Y-67929507D01*
X103238970Y-67929501D01*
X103129482Y-67702510D01*
X103127452Y-67698301D01*
X102996608Y-67506131D01*
X102974803Y-67438567D01*
X102992987Y-67369938D01*
X103045388Y-67322036D01*
X103100758Y-67309218D01*
X103189688Y-67309218D01*
X103257809Y-67329220D01*
X103278783Y-67346123D01*
X105734140Y-69801480D01*
X105768166Y-69863792D01*
X105770355Y-69903746D01*
X105766597Y-69939500D01*
X105767287Y-69946065D01*
X105779776Y-70064887D01*
X105786559Y-70129428D01*
X105845574Y-70311056D01*
X105941061Y-70476444D01*
X106068848Y-70618366D01*
X106098088Y-70639610D01*
X106213357Y-70723358D01*
X106223349Y-70730618D01*
X106229377Y-70733302D01*
X106229379Y-70733303D01*
X106391782Y-70805609D01*
X106397813Y-70808294D01*
X106491213Y-70828147D01*
X106578157Y-70846628D01*
X106578162Y-70846628D01*
X106584614Y-70848000D01*
X106775588Y-70848000D01*
X106782040Y-70846628D01*
X106782045Y-70846628D01*
X106868989Y-70828147D01*
X106962389Y-70808294D01*
X106968420Y-70805609D01*
X107130823Y-70733303D01*
X107130825Y-70733302D01*
X107136853Y-70730618D01*
X107146846Y-70723358D01*
X107262114Y-70639610D01*
X107291354Y-70618366D01*
X107419141Y-70476444D01*
X107514628Y-70311056D01*
X107573643Y-70129428D01*
X107580427Y-70064887D01*
X107592915Y-69946065D01*
X107593605Y-69939500D01*
X107573643Y-69749572D01*
X107514628Y-69567944D01*
X107510695Y-69561132D01*
X107456475Y-69467219D01*
X107439737Y-69398223D01*
X107462958Y-69331131D01*
X107476499Y-69315124D01*
X108049218Y-68742405D01*
X108111530Y-68708379D01*
X108138313Y-68705500D01*
X109527800Y-68705500D01*
X109595921Y-68725502D01*
X109615147Y-68741843D01*
X109615420Y-68741540D01*
X109620332Y-68745963D01*
X109624747Y-68750866D01*
X109779248Y-68863118D01*
X109785276Y-68865802D01*
X109785278Y-68865803D01*
X109893906Y-68914167D01*
X109948002Y-68960147D01*
X109968651Y-69028074D01*
X109949299Y-69096383D01*
X109927376Y-69122540D01*
X109899091Y-69148233D01*
X109896967Y-69150592D01*
X109896966Y-69150593D01*
X108491534Y-70711485D01*
X108482510Y-70721507D01*
X108363230Y-70875560D01*
X108360944Y-70879642D01*
X108360942Y-70879645D01*
X108346137Y-70906082D01*
X108235519Y-71103604D01*
X108189218Y-71225813D01*
X108147584Y-71335704D01*
X108142917Y-71348021D01*
X108141924Y-71352593D01*
X108141924Y-71352594D01*
X108103965Y-71527425D01*
X108087460Y-71603440D01*
X108070366Y-71864251D01*
X108070753Y-71868908D01*
X108070753Y-71868911D01*
X108081824Y-72002137D01*
X108092010Y-72124724D01*
X108151916Y-72379137D01*
X108248769Y-72621900D01*
X108380441Y-72847680D01*
X108383368Y-72851327D01*
X108541115Y-73047879D01*
X108541121Y-73047885D01*
X108544038Y-73051520D01*
X108735969Y-73228938D01*
X108739825Y-73231564D01*
X108739832Y-73231569D01*
X108891134Y-73334586D01*
X108952015Y-73376038D01*
X108956228Y-73378070D01*
X108956233Y-73378073D01*
X109058378Y-73427342D01*
X109187431Y-73489590D01*
X109191898Y-73490977D01*
X109191903Y-73490979D01*
X109349394Y-73539881D01*
X109437044Y-73567097D01*
X109441656Y-73567807D01*
X109441661Y-73567808D01*
X109690752Y-73606146D01*
X109690755Y-73606146D01*
X109695373Y-73606857D01*
X109827464Y-73607433D01*
X109952067Y-73607977D01*
X109952072Y-73607977D01*
X109956741Y-73607997D01*
X109964604Y-73606857D01*
X110210774Y-73571165D01*
X110210777Y-73571164D01*
X110215407Y-73570493D01*
X110465688Y-73495167D01*
X110481824Y-73487557D01*
X110569864Y-73446034D01*
X110640008Y-73435066D01*
X110704947Y-73463763D01*
X110744062Y-73523012D01*
X110749577Y-73557037D01*
X110749908Y-73571165D01*
X110750136Y-73580866D01*
X110750148Y-73581434D01*
X110756755Y-73943069D01*
X110757070Y-73960296D01*
X110757080Y-73960924D01*
X110757574Y-73998746D01*
X110757801Y-74000312D01*
X110757830Y-74001894D01*
X110758380Y-74005551D01*
X110758380Y-74005556D01*
X110763470Y-74039423D01*
X110763565Y-74040071D01*
X110817767Y-74413930D01*
X110817851Y-74414522D01*
X110823100Y-74452096D01*
X110823520Y-74453614D01*
X110823748Y-74455184D01*
X110824761Y-74458776D01*
X110824762Y-74458781D01*
X110834007Y-74491565D01*
X110834183Y-74492193D01*
X110934666Y-74855712D01*
X110934838Y-74856343D01*
X110943744Y-74889226D01*
X110943746Y-74889233D01*
X110944713Y-74892802D01*
X110945322Y-74894261D01*
X110945744Y-74895788D01*
X110960567Y-74930791D01*
X110960736Y-74931193D01*
X110996173Y-75016097D01*
X111105606Y-75278296D01*
X111105857Y-75278903D01*
X111118876Y-75310560D01*
X111118882Y-75310573D01*
X111120282Y-75313976D01*
X111121069Y-75315348D01*
X111121678Y-75316806D01*
X111123516Y-75319970D01*
X111123519Y-75319976D01*
X111140658Y-75349479D01*
X111140984Y-75350044D01*
X111327919Y-75675703D01*
X111328135Y-75676081D01*
X111346833Y-75709050D01*
X111347785Y-75710311D01*
X111348574Y-75711685D01*
X111350814Y-75714619D01*
X111350817Y-75714624D01*
X111371615Y-75741869D01*
X111372010Y-75742390D01*
X111597568Y-76041077D01*
X111597918Y-76041543D01*
X111620600Y-76071904D01*
X111621702Y-76073035D01*
X111622656Y-76074298D01*
X111649288Y-76101344D01*
X111649643Y-76101706D01*
X111910416Y-76369291D01*
X111910870Y-76369759D01*
X111937086Y-76396940D01*
X111938323Y-76397925D01*
X111939427Y-76399058D01*
X111969298Y-76422596D01*
X111969537Y-76422785D01*
X112261278Y-76655147D01*
X112261576Y-76655385D01*
X112291140Y-76679184D01*
X112292490Y-76680006D01*
X112293728Y-76680992D01*
X112296894Y-76682897D01*
X112326238Y-76700553D01*
X112326673Y-76700816D01*
X112644413Y-76894261D01*
X112644678Y-76894423D01*
X112677034Y-76914353D01*
X112678480Y-76915001D01*
X112679829Y-76915822D01*
X112683208Y-76917315D01*
X112683218Y-76917320D01*
X112714486Y-76931133D01*
X112715082Y-76931398D01*
X112937593Y-77031076D01*
X113053696Y-77083087D01*
X113054126Y-77083282D01*
X113070125Y-77090548D01*
X113085176Y-77097385D01*
X113085179Y-77097386D01*
X113088567Y-77098925D01*
X113090076Y-77099384D01*
X113091524Y-77100033D01*
X113095101Y-77101101D01*
X113095105Y-77101103D01*
X113127891Y-77110896D01*
X113128517Y-77111085D01*
X113165624Y-77122379D01*
X113224969Y-77161349D01*
X113253824Y-77226217D01*
X113247337Y-77286011D01*
X113222937Y-77353051D01*
X113202312Y-77516313D01*
X113218370Y-77680087D01*
X113270313Y-77836234D01*
X113355560Y-77976992D01*
X113469872Y-78095366D01*
X113607570Y-78185473D01*
X113761809Y-78242834D01*
X113768790Y-78243765D01*
X113768792Y-78243766D01*
X113917942Y-78263667D01*
X113917946Y-78263667D01*
X113924923Y-78264598D01*
X113931934Y-78263960D01*
X113931938Y-78263960D01*
X114081784Y-78250323D01*
X114081785Y-78250323D01*
X114088805Y-78249684D01*
X114138986Y-78233379D01*
X114238611Y-78201009D01*
X114238614Y-78201008D01*
X114245310Y-78198832D01*
X114341269Y-78141629D01*
X114410023Y-78123929D01*
X114474779Y-78144426D01*
X114526808Y-78178473D01*
X114681047Y-78235834D01*
X114688028Y-78236765D01*
X114688030Y-78236766D01*
X114837180Y-78256667D01*
X114837184Y-78256667D01*
X114844161Y-78257598D01*
X114851172Y-78256960D01*
X114851176Y-78256960D01*
X115001022Y-78243323D01*
X115001023Y-78243323D01*
X115008043Y-78242684D01*
X115036681Y-78233379D01*
X115157849Y-78194009D01*
X115157852Y-78194008D01*
X115164548Y-78191832D01*
X115305898Y-78107570D01*
X115425068Y-77994087D01*
X115516134Y-77857022D01*
X115574570Y-77703187D01*
X115597472Y-77540229D01*
X115597997Y-77540303D01*
X115622193Y-77476499D01*
X115681690Y-77433400D01*
X115805705Y-77390774D01*
X115806241Y-77390592D01*
X115838532Y-77379680D01*
X115842054Y-77378490D01*
X115843476Y-77377791D01*
X115844972Y-77377277D01*
X115848288Y-77375626D01*
X115848300Y-77375621D01*
X115878828Y-77360421D01*
X115879413Y-77360131D01*
X116030231Y-77286014D01*
X116246572Y-77179697D01*
X116280847Y-77163074D01*
X116282165Y-77162206D01*
X116283591Y-77161505D01*
X116315126Y-77140497D01*
X116315673Y-77140134D01*
X116359774Y-77111085D01*
X116656359Y-76915724D01*
X116656886Y-76915379D01*
X116657467Y-76915001D01*
X116663274Y-76911219D01*
X116685362Y-76896834D01*
X116685365Y-76896831D01*
X116688437Y-76894831D01*
X116689637Y-76893804D01*
X116690963Y-76892930D01*
X116719714Y-76868048D01*
X116720132Y-76867688D01*
X116914909Y-76700892D01*
X117029312Y-76602923D01*
X117029643Y-76602641D01*
X117058515Y-76578176D01*
X117059576Y-76577007D01*
X117060782Y-76575974D01*
X117063260Y-76573215D01*
X117063269Y-76573206D01*
X117086140Y-76547738D01*
X117086578Y-76547252D01*
X117359489Y-76246514D01*
X117359931Y-76246030D01*
X117382894Y-76220989D01*
X117382898Y-76220984D01*
X117385383Y-76218274D01*
X117386290Y-76216980D01*
X117387357Y-76215804D01*
X117389466Y-76212760D01*
X117389473Y-76212752D01*
X117408985Y-76184596D01*
X117409289Y-76184158D01*
X117641758Y-75852415D01*
X117642049Y-75852001D01*
X117661916Y-75823963D01*
X117661920Y-75823956D01*
X117664048Y-75820953D01*
X117664791Y-75819546D01*
X117665695Y-75818255D01*
X117667385Y-75815012D01*
X117667389Y-75815005D01*
X117683161Y-75784734D01*
X117683465Y-75784154D01*
X117705677Y-75742059D01*
X117872110Y-75426635D01*
X117872404Y-75426082D01*
X117888528Y-75395907D01*
X117888530Y-75395903D01*
X117890291Y-75392607D01*
X117890850Y-75391120D01*
X117891587Y-75389724D01*
X117904710Y-75354284D01*
X117904939Y-75353671D01*
X118047019Y-74976004D01*
X118047251Y-74975393D01*
X118059410Y-74943573D01*
X118060738Y-74940099D01*
X118061105Y-74938560D01*
X118061663Y-74937077D01*
X118070335Y-74899862D01*
X118163786Y-74508035D01*
X118163934Y-74507420D01*
X118172027Y-74474251D01*
X118172028Y-74474247D01*
X118172906Y-74470647D01*
X118173077Y-74469076D01*
X118173445Y-74467533D01*
X118173827Y-74463848D01*
X118173828Y-74463841D01*
X118177347Y-74429868D01*
X118177416Y-74429216D01*
X118179010Y-74414577D01*
X118220867Y-74030037D01*
X118220936Y-74029411D01*
X118224821Y-73995366D01*
X118224821Y-73995365D01*
X118225238Y-73991711D01*
X118225211Y-73990127D01*
X118225382Y-73988553D01*
X118224529Y-73950610D01*
X118224518Y-73950061D01*
X118222609Y-73839547D01*
X118217596Y-73549445D01*
X118217586Y-73548790D01*
X118217173Y-73514603D01*
X118217128Y-73510871D01*
X118216902Y-73509304D01*
X118216875Y-73507721D01*
X118211282Y-73470254D01*
X118211198Y-73469679D01*
X118154227Y-73073938D01*
X118154135Y-73073291D01*
X118149434Y-73039387D01*
X118149434Y-73039385D01*
X118148924Y-73035710D01*
X118148503Y-73034181D01*
X118148278Y-73032618D01*
X118138022Y-72996112D01*
X118137846Y-72995479D01*
X118135340Y-72986375D01*
X118044057Y-72654848D01*
X118032005Y-72611075D01*
X118031833Y-72610443D01*
X118022896Y-72577312D01*
X118022890Y-72577294D01*
X118021920Y-72573699D01*
X118021310Y-72572234D01*
X118020891Y-72570711D01*
X118019447Y-72567291D01*
X118019443Y-72567280D01*
X118006120Y-72535731D01*
X118005868Y-72535129D01*
X117852976Y-72167767D01*
X117852726Y-72167162D01*
X117839737Y-72135489D01*
X117839736Y-72135487D01*
X117838333Y-72132066D01*
X117837544Y-72130688D01*
X117836937Y-72129230D01*
X117817847Y-72096293D01*
X117620112Y-71751007D01*
X117619810Y-71750477D01*
X117601263Y-71717697D01*
X117600314Y-71716438D01*
X117599524Y-71715058D01*
X117576435Y-71684748D01*
X117576073Y-71684270D01*
X117337663Y-71367896D01*
X117337270Y-71367372D01*
X117316855Y-71339986D01*
X117316853Y-71339984D01*
X117314643Y-71337019D01*
X117313542Y-71335887D01*
X117312588Y-71334621D01*
X117309984Y-71331971D01*
X117286062Y-71307628D01*
X117285605Y-71307161D01*
X117080079Y-71095838D01*
X117046924Y-71033059D01*
X117052973Y-70962320D01*
X117096306Y-70906082D01*
X117143670Y-70884859D01*
X117236483Y-70864707D01*
X117300567Y-70850793D01*
X117311561Y-70846628D01*
X117540615Y-70759847D01*
X117540616Y-70759846D01*
X117544983Y-70758192D01*
X117589426Y-70733303D01*
X117768950Y-70632764D01*
X117768952Y-70632763D01*
X117773028Y-70630480D01*
X117979691Y-70470464D01*
X118160432Y-70281659D01*
X118274359Y-70120456D01*
X118308579Y-70072035D01*
X118308580Y-70072034D01*
X118311280Y-70068213D01*
X118317390Y-70056092D01*
X118426819Y-69838986D01*
X118428922Y-69834814D01*
X118510774Y-69586591D01*
X118518069Y-69544135D01*
X118547187Y-69374677D01*
X118547188Y-69374669D01*
X118547722Y-69371561D01*
X118550550Y-69331131D01*
X118598960Y-68638811D01*
X118598960Y-68638805D01*
X118599122Y-68636491D01*
X118598271Y-68441659D01*
X118558510Y-68183331D01*
X118557102Y-68178794D01*
X118494590Y-67977476D01*
X118481003Y-67933717D01*
X118478972Y-67929507D01*
X118478970Y-67929501D01*
X118369482Y-67702510D01*
X118367452Y-67698301D01*
X118220351Y-67482255D01*
X118201773Y-67462157D01*
X118046114Y-67293768D01*
X118046112Y-67293767D01*
X118042932Y-67290326D01*
X117923505Y-67194476D01*
X117842750Y-67129663D01*
X117839093Y-67126728D01*
X117637116Y-67008938D01*
X117617347Y-66997409D01*
X117617345Y-66997408D01*
X117613312Y-66995056D01*
X117608978Y-66993327D01*
X117608974Y-66993325D01*
X117491931Y-66946631D01*
X117370549Y-66898205D01*
X117366013Y-66897137D01*
X117366007Y-66897135D01*
X117120680Y-66839368D01*
X117116136Y-66838298D01*
X117111482Y-66837911D01*
X117111480Y-66837911D01*
X116860323Y-66817042D01*
X116860320Y-66817042D01*
X116855663Y-66816655D01*
X116594852Y-66833750D01*
X116590279Y-66834743D01*
X116590278Y-66834743D01*
X116359113Y-66884934D01*
X116339433Y-66889207D01*
X116335061Y-66890863D01*
X116335059Y-66890864D01*
X116113900Y-66974655D01*
X116095017Y-66981809D01*
X116039384Y-67012965D01*
X115871044Y-67107239D01*
X115871038Y-67107243D01*
X115866972Y-67109520D01*
X115863283Y-67112376D01*
X115863282Y-67112377D01*
X115844868Y-67126635D01*
X115660309Y-67269536D01*
X115657079Y-67272910D01*
X115657078Y-67272911D01*
X115640407Y-67290326D01*
X115479568Y-67458341D01*
X115476872Y-67462156D01*
X115476871Y-67462157D01*
X115444516Y-67507938D01*
X115328720Y-67671787D01*
X115326613Y-67675968D01*
X115326612Y-67675969D01*
X115317160Y-67694721D01*
X115211078Y-67905186D01*
X115200781Y-67936412D01*
X115139922Y-68120974D01*
X115129226Y-68153409D01*
X115128435Y-68158013D01*
X115094154Y-68357522D01*
X115092278Y-68368439D01*
X115092058Y-68371584D01*
X115092057Y-68371593D01*
X115046153Y-69028074D01*
X115040878Y-69103509D01*
X115040888Y-69105827D01*
X115040888Y-69105831D01*
X115041056Y-69144423D01*
X115041728Y-69298341D01*
X115054311Y-69380088D01*
X115079699Y-69545031D01*
X115081490Y-69556669D01*
X115158997Y-69806284D01*
X115161031Y-69810500D01*
X115202858Y-69897218D01*
X115214437Y-69967264D01*
X115186308Y-70032451D01*
X115127402Y-70072081D01*
X115067954Y-70076125D01*
X115044508Y-70072081D01*
X114898555Y-70046908D01*
X114897917Y-70046796D01*
X114864246Y-70040808D01*
X114864242Y-70040808D01*
X114860634Y-70040166D01*
X114859049Y-70040094D01*
X114857492Y-70039826D01*
X114841217Y-70039176D01*
X114819695Y-70038317D01*
X114819043Y-70038289D01*
X114429247Y-70020701D01*
X114428593Y-70020670D01*
X114394441Y-70018951D01*
X114394435Y-70018951D01*
X114390758Y-70018766D01*
X114389182Y-70018893D01*
X114387600Y-70018822D01*
X114349803Y-70022073D01*
X114349433Y-70022104D01*
X114166039Y-70036920D01*
X113961180Y-70053470D01*
X113960528Y-70053521D01*
X113922785Y-70056373D01*
X113921234Y-70056698D01*
X113919657Y-70056825D01*
X113882597Y-70064783D01*
X113882162Y-70064875D01*
X113684502Y-70106244D01*
X113613729Y-70100621D01*
X113557231Y-70057627D01*
X113532945Y-69990914D01*
X113533698Y-69967015D01*
X113537199Y-69939500D01*
X113561014Y-69752291D01*
X113563431Y-69660000D01*
X113563197Y-69656851D01*
X113544407Y-69404000D01*
X113544406Y-69403996D01*
X113544061Y-69399348D01*
X113538708Y-69375689D01*
X113487408Y-69148980D01*
X113486377Y-69144423D01*
X113470467Y-69103509D01*
X113393340Y-68905176D01*
X113393339Y-68905173D01*
X113391647Y-68900823D01*
X113372830Y-68867899D01*
X113310901Y-68759547D01*
X113261951Y-68673902D01*
X113100138Y-68468643D01*
X112909763Y-68289557D01*
X112695009Y-68140576D01*
X112690816Y-68138508D01*
X112464781Y-68027040D01*
X112464778Y-68027039D01*
X112460593Y-68024975D01*
X112414449Y-68010204D01*
X112216123Y-67946720D01*
X112211665Y-67945293D01*
X111953693Y-67903279D01*
X111839942Y-67901790D01*
X111697022Y-67899919D01*
X111697019Y-67899919D01*
X111692345Y-67899858D01*
X111433362Y-67935104D01*
X111428876Y-67936412D01*
X111428874Y-67936412D01*
X111400988Y-67944540D01*
X111287506Y-67977617D01*
X111216510Y-67977476D01*
X111156860Y-67938974D01*
X111129791Y-67884439D01*
X111129542Y-67882072D01*
X111070527Y-67700444D01*
X111028124Y-67627000D01*
X111011386Y-67558005D01*
X111028124Y-67501000D01*
X111067223Y-67433279D01*
X111067224Y-67433278D01*
X111070527Y-67427556D01*
X111129542Y-67245928D01*
X111137925Y-67166173D01*
X111148814Y-67062565D01*
X111149504Y-67056000D01*
X111131869Y-66888214D01*
X111130232Y-66872635D01*
X111130232Y-66872633D01*
X111129542Y-66866072D01*
X111070527Y-66684444D01*
X111028124Y-66611000D01*
X111011386Y-66542005D01*
X111028124Y-66485000D01*
X111067223Y-66417279D01*
X111067224Y-66417278D01*
X111070527Y-66411556D01*
X111129542Y-66229928D01*
X111146907Y-66064708D01*
X111173920Y-65999051D01*
X111183122Y-65988782D01*
X111401228Y-65770677D01*
X111644258Y-65527647D01*
X111652537Y-65520113D01*
X111659018Y-65516000D01*
X111705644Y-65466348D01*
X111708398Y-65463507D01*
X111728135Y-65443770D01*
X111730615Y-65440573D01*
X111738320Y-65431551D01*
X111763159Y-65405100D01*
X111768586Y-65399321D01*
X111772405Y-65392375D01*
X111772407Y-65392372D01*
X111778348Y-65381566D01*
X111789199Y-65365047D01*
X111790029Y-65363977D01*
X111801614Y-65349041D01*
X111804759Y-65341772D01*
X111804762Y-65341768D01*
X111819174Y-65308463D01*
X111824391Y-65297813D01*
X111845695Y-65259060D01*
X111850733Y-65239437D01*
X111857137Y-65220734D01*
X111862033Y-65209420D01*
X111862033Y-65209419D01*
X111865181Y-65202145D01*
X111866420Y-65194322D01*
X111866423Y-65194312D01*
X111872099Y-65158476D01*
X111874505Y-65146856D01*
X111883528Y-65111711D01*
X111883528Y-65111710D01*
X111885500Y-65104030D01*
X111885500Y-65083776D01*
X111887051Y-65064065D01*
X111888980Y-65051886D01*
X111890220Y-65044057D01*
X111886059Y-65000038D01*
X111885500Y-64988181D01*
X111885500Y-63451049D01*
X111886027Y-63439866D01*
X111887702Y-63432373D01*
X111885562Y-63364282D01*
X111885500Y-63360325D01*
X111885500Y-63332426D01*
X111884996Y-63328435D01*
X111884063Y-63316593D01*
X111882923Y-63280318D01*
X111882674Y-63272393D01*
X111880462Y-63264779D01*
X111880461Y-63264774D01*
X111877023Y-63252941D01*
X111873012Y-63233577D01*
X111871467Y-63221346D01*
X111870474Y-63213485D01*
X111867557Y-63206118D01*
X111867556Y-63206113D01*
X111854198Y-63172374D01*
X111850354Y-63161147D01*
X111840230Y-63126304D01*
X111838018Y-63118689D01*
X111827707Y-63101254D01*
X111819012Y-63083506D01*
X111811552Y-63064665D01*
X111785564Y-63028895D01*
X111779048Y-63018975D01*
X111760580Y-62987747D01*
X111760578Y-62987744D01*
X111756542Y-62980920D01*
X111742221Y-62966599D01*
X111729380Y-62951565D01*
X111724954Y-62945473D01*
X111717472Y-62935175D01*
X111683395Y-62906984D01*
X111674616Y-62898994D01*
X110359370Y-61583747D01*
X110351830Y-61575461D01*
X110347718Y-61568982D01*
X110298066Y-61522356D01*
X110295225Y-61519602D01*
X110275488Y-61499865D01*
X110272291Y-61497385D01*
X110263269Y-61489680D01*
X110236818Y-61464841D01*
X110231039Y-61459414D01*
X110224093Y-61455595D01*
X110224090Y-61455593D01*
X110213284Y-61449652D01*
X110196765Y-61438801D01*
X110194269Y-61436865D01*
X110180759Y-61426386D01*
X110173490Y-61423241D01*
X110173486Y-61423238D01*
X110140181Y-61408826D01*
X110129531Y-61403609D01*
X110090778Y-61382305D01*
X110071155Y-61377267D01*
X110052452Y-61370863D01*
X110041138Y-61365967D01*
X110041137Y-61365967D01*
X110033863Y-61362819D01*
X110026040Y-61361580D01*
X110026030Y-61361577D01*
X109990194Y-61355901D01*
X109978574Y-61353495D01*
X109943429Y-61344472D01*
X109943428Y-61344472D01*
X109935748Y-61342500D01*
X109915494Y-61342500D01*
X109895783Y-61340949D01*
X109883604Y-61339020D01*
X109875775Y-61337780D01*
X109867883Y-61338526D01*
X109831757Y-61341941D01*
X109819899Y-61342500D01*
X102099080Y-61342500D01*
X102030959Y-61322498D01*
X101984466Y-61268842D01*
X101974362Y-61198568D01*
X102005772Y-61131826D01*
X102119489Y-61006514D01*
X102119931Y-61006030D01*
X102142894Y-60980989D01*
X102142898Y-60980984D01*
X102145383Y-60978274D01*
X102146290Y-60976980D01*
X102147357Y-60975804D01*
X102149466Y-60972760D01*
X102149473Y-60972752D01*
X102168985Y-60944596D01*
X102169289Y-60944158D01*
X102401758Y-60612415D01*
X102402049Y-60612001D01*
X102421916Y-60583963D01*
X102421920Y-60583956D01*
X102424048Y-60580953D01*
X102424791Y-60579546D01*
X102425695Y-60578255D01*
X102427385Y-60575012D01*
X102427389Y-60575005D01*
X102443161Y-60544734D01*
X102443465Y-60544154D01*
X102465677Y-60502059D01*
X102632110Y-60186635D01*
X102632404Y-60186082D01*
X102648528Y-60155907D01*
X102648530Y-60155903D01*
X102650291Y-60152607D01*
X102650850Y-60151120D01*
X102651587Y-60149724D01*
X102664710Y-60114284D01*
X102664939Y-60113671D01*
X102807019Y-59736004D01*
X102807251Y-59735393D01*
X102813773Y-59718325D01*
X102820738Y-59700099D01*
X102821105Y-59698560D01*
X102821663Y-59697077D01*
X102830335Y-59659862D01*
X102923786Y-59268035D01*
X102923934Y-59267420D01*
X102932027Y-59234251D01*
X102932028Y-59234247D01*
X102932906Y-59230647D01*
X102933077Y-59229076D01*
X102933445Y-59227533D01*
X102933827Y-59223848D01*
X102933828Y-59223841D01*
X102937347Y-59189868D01*
X102937416Y-59189216D01*
X102939010Y-59174577D01*
X102980867Y-58790037D01*
X102980936Y-58789411D01*
X102984821Y-58755366D01*
X102984821Y-58755365D01*
X102985238Y-58751711D01*
X102985211Y-58750127D01*
X102985382Y-58748553D01*
X102984529Y-58710610D01*
X102984518Y-58710061D01*
X102983838Y-58670671D01*
X102977596Y-58309445D01*
X102977586Y-58308790D01*
X102977173Y-58274603D01*
X102977128Y-58270871D01*
X102976902Y-58269304D01*
X102976875Y-58267721D01*
X102971282Y-58230254D01*
X102971198Y-58229679D01*
X102914227Y-57833938D01*
X102914135Y-57833291D01*
X102909434Y-57799387D01*
X102909434Y-57799385D01*
X102908924Y-57795710D01*
X102908503Y-57794181D01*
X102908278Y-57792618D01*
X102898022Y-57756112D01*
X102897846Y-57755479D01*
X102858156Y-57611327D01*
X102810986Y-57440011D01*
X102792005Y-57371075D01*
X102791833Y-57370443D01*
X102782896Y-57337312D01*
X102782890Y-57337294D01*
X102781920Y-57333699D01*
X102781310Y-57332234D01*
X102780891Y-57330711D01*
X102779447Y-57327291D01*
X102779443Y-57327280D01*
X102766120Y-57295731D01*
X102765868Y-57295129D01*
X102612976Y-56927767D01*
X102612726Y-56927162D01*
X102599737Y-56895489D01*
X102599736Y-56895487D01*
X102598333Y-56892066D01*
X102597544Y-56890688D01*
X102596937Y-56889230D01*
X102577847Y-56856293D01*
X102444963Y-56624251D01*
X108070366Y-56624251D01*
X108092010Y-56884724D01*
X108151916Y-57139137D01*
X108248769Y-57381900D01*
X108380441Y-57607680D01*
X108383368Y-57611327D01*
X108541115Y-57807879D01*
X108541121Y-57807885D01*
X108544038Y-57811520D01*
X108735969Y-57988938D01*
X108739825Y-57991564D01*
X108739832Y-57991569D01*
X108891134Y-58094586D01*
X108952015Y-58136038D01*
X108956228Y-58138070D01*
X108956233Y-58138073D01*
X109003766Y-58161000D01*
X109187431Y-58249590D01*
X109191898Y-58250977D01*
X109191903Y-58250979D01*
X109349394Y-58299881D01*
X109437044Y-58327097D01*
X109441656Y-58327807D01*
X109441661Y-58327808D01*
X109690752Y-58366146D01*
X109690755Y-58366146D01*
X109695373Y-58366857D01*
X109827464Y-58367433D01*
X109952067Y-58367977D01*
X109952072Y-58367977D01*
X109956741Y-58367997D01*
X109964604Y-58366857D01*
X110210774Y-58331165D01*
X110210777Y-58331164D01*
X110215407Y-58330493D01*
X110465688Y-58255167D01*
X110481824Y-58247557D01*
X110569864Y-58206034D01*
X110640008Y-58195066D01*
X110704947Y-58223763D01*
X110744062Y-58283012D01*
X110749577Y-58317037D01*
X110749908Y-58331165D01*
X110750136Y-58340866D01*
X110750148Y-58341434D01*
X110756133Y-58669000D01*
X110757070Y-58720296D01*
X110757080Y-58720924D01*
X110757574Y-58758746D01*
X110757801Y-58760312D01*
X110757830Y-58761894D01*
X110758380Y-58765551D01*
X110758380Y-58765556D01*
X110763470Y-58799423D01*
X110763565Y-58800071D01*
X110817767Y-59173930D01*
X110817851Y-59174522D01*
X110823100Y-59212096D01*
X110823520Y-59213614D01*
X110823748Y-59215184D01*
X110824761Y-59218776D01*
X110824762Y-59218781D01*
X110834007Y-59251565D01*
X110834183Y-59252193D01*
X110934666Y-59615712D01*
X110934838Y-59616343D01*
X110943744Y-59649226D01*
X110943746Y-59649233D01*
X110944713Y-59652802D01*
X110945322Y-59654261D01*
X110945744Y-59655788D01*
X110960567Y-59690791D01*
X110960736Y-59691193D01*
X111073382Y-59961088D01*
X111105606Y-60038296D01*
X111105857Y-60038903D01*
X111118876Y-60070560D01*
X111118882Y-60070573D01*
X111120282Y-60073976D01*
X111121069Y-60075348D01*
X111121678Y-60076806D01*
X111123516Y-60079970D01*
X111123519Y-60079976D01*
X111140658Y-60109479D01*
X111140984Y-60110044D01*
X111327919Y-60435703D01*
X111328135Y-60436081D01*
X111346833Y-60469050D01*
X111347785Y-60470311D01*
X111348574Y-60471685D01*
X111350814Y-60474619D01*
X111350817Y-60474624D01*
X111371615Y-60501869D01*
X111372010Y-60502390D01*
X111597568Y-60801077D01*
X111597918Y-60801543D01*
X111620600Y-60831904D01*
X111621702Y-60833035D01*
X111622656Y-60834298D01*
X111649288Y-60861344D01*
X111649643Y-60861706D01*
X111910416Y-61129291D01*
X111910870Y-61129759D01*
X111925295Y-61144715D01*
X111937086Y-61156940D01*
X111938323Y-61157925D01*
X111939427Y-61159058D01*
X111969298Y-61182596D01*
X111969537Y-61182785D01*
X112261278Y-61415147D01*
X112261576Y-61415385D01*
X112291140Y-61439184D01*
X112292490Y-61440006D01*
X112293728Y-61440992D01*
X112296894Y-61442897D01*
X112326238Y-61460553D01*
X112326673Y-61460816D01*
X112644413Y-61654261D01*
X112644678Y-61654423D01*
X112677034Y-61674353D01*
X112678480Y-61675001D01*
X112679829Y-61675822D01*
X112683208Y-61677315D01*
X112683218Y-61677320D01*
X112714486Y-61691133D01*
X112715082Y-61691398D01*
X112937593Y-61791076D01*
X113053696Y-61843087D01*
X113054126Y-61843282D01*
X113070125Y-61850548D01*
X113085176Y-61857385D01*
X113085179Y-61857386D01*
X113088567Y-61858925D01*
X113090076Y-61859384D01*
X113091524Y-61860033D01*
X113095101Y-61861101D01*
X113095105Y-61861103D01*
X113127891Y-61870896D01*
X113128517Y-61871085D01*
X113165624Y-61882379D01*
X113224969Y-61921349D01*
X113253824Y-61986217D01*
X113247337Y-62046011D01*
X113222937Y-62113051D01*
X113202312Y-62276313D01*
X113218370Y-62440087D01*
X113270313Y-62596234D01*
X113355560Y-62736992D01*
X113469872Y-62855366D01*
X113607570Y-62945473D01*
X113761809Y-63002834D01*
X113768790Y-63003765D01*
X113768792Y-63003766D01*
X113917942Y-63023667D01*
X113917946Y-63023667D01*
X113924923Y-63024598D01*
X113931934Y-63023960D01*
X113931938Y-63023960D01*
X114081784Y-63010323D01*
X114081785Y-63010323D01*
X114088805Y-63009684D01*
X114177331Y-62980920D01*
X114238611Y-62961009D01*
X114238614Y-62961008D01*
X114245310Y-62958832D01*
X114341269Y-62901629D01*
X114410023Y-62883929D01*
X114474779Y-62904426D01*
X114526808Y-62938473D01*
X114681047Y-62995834D01*
X114688028Y-62996765D01*
X114688030Y-62996766D01*
X114837180Y-63016667D01*
X114837184Y-63016667D01*
X114844161Y-63017598D01*
X114851172Y-63016960D01*
X114851176Y-63016960D01*
X115001022Y-63003323D01*
X115001023Y-63003323D01*
X115008043Y-63002684D01*
X115092294Y-62975309D01*
X115157849Y-62954009D01*
X115157852Y-62954008D01*
X115164548Y-62951832D01*
X115305898Y-62867570D01*
X115425068Y-62754087D01*
X115516134Y-62617022D01*
X115574570Y-62463187D01*
X115597472Y-62300229D01*
X115597997Y-62300303D01*
X115622193Y-62236499D01*
X115681690Y-62193400D01*
X115713030Y-62182628D01*
X115805705Y-62150774D01*
X115806241Y-62150592D01*
X115838532Y-62139680D01*
X115842054Y-62138490D01*
X115843476Y-62137791D01*
X115844972Y-62137277D01*
X115848288Y-62135626D01*
X115848300Y-62135621D01*
X115878828Y-62120421D01*
X115879413Y-62120131D01*
X116030231Y-62046014D01*
X116246572Y-61939697D01*
X116280847Y-61923074D01*
X116282165Y-61922206D01*
X116283591Y-61921505D01*
X116315126Y-61900497D01*
X116315673Y-61900134D01*
X116359774Y-61871085D01*
X116656359Y-61675724D01*
X116656886Y-61675379D01*
X116657467Y-61675001D01*
X116663274Y-61671219D01*
X116685362Y-61656834D01*
X116685365Y-61656831D01*
X116688437Y-61654831D01*
X116689637Y-61653804D01*
X116690963Y-61652930D01*
X116719714Y-61628048D01*
X116720132Y-61627688D01*
X116844699Y-61521016D01*
X117029312Y-61362923D01*
X117029645Y-61362639D01*
X117058515Y-61338176D01*
X117059576Y-61337007D01*
X117060782Y-61335974D01*
X117063260Y-61333215D01*
X117063269Y-61333206D01*
X117086140Y-61307738D01*
X117086578Y-61307252D01*
X117359489Y-61006514D01*
X117359931Y-61006030D01*
X117382894Y-60980989D01*
X117382898Y-60980984D01*
X117385383Y-60978274D01*
X117386290Y-60976980D01*
X117387357Y-60975804D01*
X117389466Y-60972760D01*
X117389473Y-60972752D01*
X117408985Y-60944596D01*
X117409289Y-60944158D01*
X117641758Y-60612415D01*
X117642049Y-60612001D01*
X117661916Y-60583963D01*
X117661920Y-60583956D01*
X117664048Y-60580953D01*
X117664791Y-60579546D01*
X117665695Y-60578255D01*
X117667385Y-60575012D01*
X117667389Y-60575005D01*
X117683161Y-60544734D01*
X117683465Y-60544154D01*
X117705677Y-60502059D01*
X117872110Y-60186635D01*
X117872404Y-60186082D01*
X117888528Y-60155907D01*
X117888530Y-60155903D01*
X117890291Y-60152607D01*
X117890850Y-60151120D01*
X117891587Y-60149724D01*
X117904710Y-60114284D01*
X117904939Y-60113671D01*
X118047019Y-59736004D01*
X118047251Y-59735393D01*
X118053773Y-59718325D01*
X118060738Y-59700099D01*
X118061105Y-59698560D01*
X118061663Y-59697077D01*
X118070335Y-59659862D01*
X118163786Y-59268035D01*
X118163934Y-59267420D01*
X118172027Y-59234251D01*
X118172028Y-59234247D01*
X118172906Y-59230647D01*
X118173077Y-59229076D01*
X118173445Y-59227533D01*
X118173827Y-59223848D01*
X118173828Y-59223841D01*
X118177347Y-59189868D01*
X118177416Y-59189216D01*
X118179010Y-59174577D01*
X118220867Y-58790037D01*
X118220936Y-58789411D01*
X118224821Y-58755366D01*
X118224821Y-58755365D01*
X118225238Y-58751711D01*
X118225211Y-58750127D01*
X118225382Y-58748553D01*
X118224529Y-58710610D01*
X118224518Y-58710061D01*
X118223838Y-58670671D01*
X118217596Y-58309445D01*
X118217586Y-58308790D01*
X118217173Y-58274603D01*
X118217128Y-58270871D01*
X118216902Y-58269304D01*
X118216875Y-58267721D01*
X118211282Y-58230254D01*
X118211198Y-58229679D01*
X118154227Y-57833938D01*
X118154135Y-57833291D01*
X118149434Y-57799387D01*
X118149434Y-57799385D01*
X118148924Y-57795710D01*
X118148503Y-57794181D01*
X118148278Y-57792618D01*
X118138022Y-57756112D01*
X118137846Y-57755479D01*
X118098156Y-57611327D01*
X118050986Y-57440011D01*
X118032005Y-57371075D01*
X118031833Y-57370443D01*
X118022896Y-57337312D01*
X118022890Y-57337294D01*
X118021920Y-57333699D01*
X118021310Y-57332234D01*
X118020891Y-57330711D01*
X118019447Y-57327291D01*
X118019443Y-57327280D01*
X118006120Y-57295731D01*
X118005868Y-57295129D01*
X117852976Y-56927767D01*
X117852726Y-56927162D01*
X117839737Y-56895489D01*
X117839736Y-56895487D01*
X117838333Y-56892066D01*
X117837544Y-56890688D01*
X117836937Y-56889230D01*
X117817847Y-56856293D01*
X117620112Y-56511007D01*
X117619810Y-56510477D01*
X117601263Y-56477697D01*
X117600314Y-56476438D01*
X117599524Y-56475058D01*
X117576435Y-56444748D01*
X117576073Y-56444270D01*
X117337663Y-56127896D01*
X117337270Y-56127372D01*
X117316855Y-56099986D01*
X117316853Y-56099984D01*
X117314643Y-56097019D01*
X117313542Y-56095887D01*
X117312588Y-56094621D01*
X117309984Y-56091971D01*
X117286062Y-56067628D01*
X117285605Y-56067161D01*
X117080079Y-55855838D01*
X117046924Y-55793059D01*
X117052973Y-55722320D01*
X117096306Y-55666082D01*
X117143670Y-55644859D01*
X117222116Y-55627826D01*
X117300567Y-55610793D01*
X117544983Y-55518192D01*
X117607184Y-55483358D01*
X117768950Y-55392764D01*
X117768952Y-55392763D01*
X117773028Y-55390480D01*
X117979691Y-55230464D01*
X118160432Y-55041659D01*
X118274359Y-54880456D01*
X118308579Y-54832035D01*
X118308580Y-54832034D01*
X118311280Y-54828213D01*
X118317390Y-54816092D01*
X118426819Y-54598986D01*
X118428922Y-54594814D01*
X118510774Y-54346591D01*
X118542148Y-54164000D01*
X118547187Y-54134677D01*
X118547188Y-54134669D01*
X118547722Y-54131561D01*
X118563174Y-53910593D01*
X118598960Y-53398811D01*
X118598960Y-53398805D01*
X118599122Y-53396491D01*
X118598271Y-53201659D01*
X118558510Y-52943331D01*
X118547842Y-52908972D01*
X118503737Y-52766932D01*
X118481003Y-52693717D01*
X118478972Y-52689507D01*
X118478970Y-52689501D01*
X118369482Y-52462510D01*
X118367452Y-52458301D01*
X118220351Y-52242255D01*
X118201773Y-52222157D01*
X118046114Y-52053768D01*
X118046112Y-52053767D01*
X118042932Y-52050326D01*
X117839093Y-51886728D01*
X117613312Y-51755056D01*
X117608978Y-51753327D01*
X117608974Y-51753325D01*
X117491930Y-51706630D01*
X117370549Y-51658205D01*
X117366013Y-51657137D01*
X117366007Y-51657135D01*
X117120680Y-51599368D01*
X117116136Y-51598298D01*
X117111482Y-51597911D01*
X117111480Y-51597911D01*
X116860323Y-51577042D01*
X116860320Y-51577042D01*
X116855663Y-51576655D01*
X116594852Y-51593750D01*
X116590279Y-51594743D01*
X116590278Y-51594743D01*
X116573905Y-51598298D01*
X116339433Y-51649207D01*
X116335061Y-51650863D01*
X116335059Y-51650864D01*
X116113900Y-51734655D01*
X116095017Y-51741809D01*
X116090948Y-51744088D01*
X115871044Y-51867239D01*
X115871038Y-51867243D01*
X115866972Y-51869520D01*
X115863283Y-51872376D01*
X115863282Y-51872377D01*
X115844748Y-51886728D01*
X115660309Y-52029536D01*
X115657079Y-52032910D01*
X115657078Y-52032911D01*
X115640407Y-52050326D01*
X115479568Y-52218341D01*
X115476872Y-52222156D01*
X115476871Y-52222157D01*
X115331421Y-52427965D01*
X115328720Y-52431787D01*
X115326613Y-52435968D01*
X115326612Y-52435969D01*
X115315356Y-52458301D01*
X115211078Y-52665186D01*
X115200781Y-52696412D01*
X115140167Y-52880231D01*
X115129226Y-52913409D01*
X115128435Y-52918013D01*
X115106291Y-53046889D01*
X115092278Y-53128439D01*
X115092058Y-53131584D01*
X115092057Y-53131593D01*
X115041040Y-53861189D01*
X115040878Y-53863509D01*
X115040888Y-53865827D01*
X115040888Y-53865831D01*
X115041056Y-53904423D01*
X115041728Y-54058341D01*
X115081490Y-54316669D01*
X115158997Y-54566284D01*
X115161031Y-54570500D01*
X115202858Y-54657218D01*
X115214437Y-54727264D01*
X115186308Y-54792451D01*
X115127402Y-54832081D01*
X115067954Y-54836125D01*
X115044508Y-54832081D01*
X114898555Y-54806908D01*
X114897917Y-54806796D01*
X114864246Y-54800808D01*
X114864242Y-54800808D01*
X114860634Y-54800166D01*
X114859049Y-54800094D01*
X114857492Y-54799826D01*
X114841217Y-54799176D01*
X114819695Y-54798317D01*
X114819043Y-54798289D01*
X114429247Y-54780701D01*
X114428593Y-54780670D01*
X114394441Y-54778951D01*
X114394435Y-54778951D01*
X114390758Y-54778766D01*
X114389182Y-54778893D01*
X114387600Y-54778822D01*
X114349803Y-54782073D01*
X114349433Y-54782104D01*
X114166039Y-54796920D01*
X113961180Y-54813470D01*
X113960528Y-54813521D01*
X113922785Y-54816373D01*
X113921234Y-54816698D01*
X113919657Y-54816825D01*
X113882597Y-54824783D01*
X113882162Y-54824875D01*
X113684502Y-54866244D01*
X113613729Y-54860621D01*
X113557231Y-54817627D01*
X113532945Y-54750914D01*
X113533698Y-54727015D01*
X113560616Y-54515421D01*
X113560616Y-54515417D01*
X113561014Y-54512291D01*
X113563431Y-54420000D01*
X113563197Y-54416851D01*
X113544407Y-54164000D01*
X113544406Y-54163996D01*
X113544061Y-54159348D01*
X113538479Y-54134677D01*
X113487408Y-53908980D01*
X113486377Y-53904423D01*
X113470467Y-53863509D01*
X113393340Y-53665176D01*
X113393339Y-53665173D01*
X113391647Y-53660823D01*
X113372830Y-53627899D01*
X113264270Y-53437960D01*
X113261951Y-53433902D01*
X113100138Y-53228643D01*
X112909763Y-53049557D01*
X112695009Y-52900576D01*
X112690816Y-52898508D01*
X112464781Y-52787040D01*
X112464778Y-52787039D01*
X112460593Y-52784975D01*
X112414449Y-52770204D01*
X112216123Y-52706720D01*
X112211665Y-52705293D01*
X111953693Y-52663279D01*
X111839942Y-52661790D01*
X111697022Y-52659919D01*
X111697019Y-52659919D01*
X111692345Y-52659858D01*
X111433362Y-52695104D01*
X111428876Y-52696412D01*
X111428874Y-52696412D01*
X111400988Y-52704540D01*
X111182433Y-52768243D01*
X111178180Y-52770203D01*
X111178179Y-52770204D01*
X111141659Y-52787040D01*
X110945072Y-52877668D01*
X110906067Y-52903241D01*
X110730404Y-53018410D01*
X110730399Y-53018414D01*
X110726491Y-53020976D01*
X110531494Y-53195018D01*
X110364363Y-53395970D01*
X110228771Y-53619419D01*
X110226967Y-53623721D01*
X110226965Y-53623725D01*
X110226106Y-53625773D01*
X110225622Y-53626360D01*
X110224838Y-53627899D01*
X110224497Y-53627725D01*
X110179912Y-53681809D01*
X110064485Y-53758934D01*
X110064481Y-53758937D01*
X110060593Y-53761535D01*
X109899091Y-53908233D01*
X109896967Y-53910592D01*
X109896966Y-53910593D01*
X108705975Y-55233324D01*
X108482510Y-55481507D01*
X108363230Y-55635560D01*
X108235519Y-55863604D01*
X108233862Y-55867978D01*
X108147584Y-56095704D01*
X108142917Y-56108021D01*
X108087460Y-56363440D01*
X108070366Y-56624251D01*
X102444963Y-56624251D01*
X102380112Y-56511007D01*
X102379810Y-56510477D01*
X102361263Y-56477697D01*
X102360314Y-56476438D01*
X102359524Y-56475058D01*
X102336435Y-56444748D01*
X102336073Y-56444270D01*
X102097663Y-56127896D01*
X102097270Y-56127372D01*
X102076855Y-56099986D01*
X102076853Y-56099984D01*
X102074643Y-56097019D01*
X102073542Y-56095887D01*
X102072588Y-56094621D01*
X102069984Y-56091971D01*
X102046062Y-56067628D01*
X102045605Y-56067161D01*
X101840079Y-55855838D01*
X101806924Y-55793059D01*
X101812973Y-55722320D01*
X101856306Y-55666082D01*
X101903670Y-55644859D01*
X101982116Y-55627826D01*
X102060567Y-55610793D01*
X102304983Y-55518192D01*
X102367184Y-55483358D01*
X102528950Y-55392764D01*
X102528952Y-55392763D01*
X102533028Y-55390480D01*
X102739691Y-55230464D01*
X102920432Y-55041659D01*
X103034359Y-54880456D01*
X103068579Y-54832035D01*
X103068580Y-54832034D01*
X103071280Y-54828213D01*
X103077390Y-54816092D01*
X103186819Y-54598986D01*
X103188922Y-54594814D01*
X103270774Y-54346591D01*
X103302148Y-54164000D01*
X103307187Y-54134677D01*
X103307188Y-54134669D01*
X103307722Y-54131561D01*
X103323174Y-53910593D01*
X103358960Y-53398811D01*
X103358960Y-53398805D01*
X103359122Y-53396491D01*
X103358271Y-53201659D01*
X103318510Y-52943331D01*
X103307842Y-52908972D01*
X103263737Y-52766932D01*
X103241003Y-52693717D01*
X103238972Y-52689507D01*
X103238970Y-52689501D01*
X103129482Y-52462510D01*
X103127452Y-52458301D01*
X102980351Y-52242255D01*
X102961773Y-52222157D01*
X102806114Y-52053768D01*
X102806112Y-52053767D01*
X102802932Y-52050326D01*
X102599093Y-51886728D01*
X102373312Y-51755056D01*
X102368978Y-51753327D01*
X102368974Y-51753325D01*
X102251930Y-51706630D01*
X102130549Y-51658205D01*
X102126013Y-51657137D01*
X102126007Y-51657135D01*
X101880680Y-51599368D01*
X101876136Y-51598298D01*
X101871482Y-51597911D01*
X101871480Y-51597911D01*
X101620323Y-51577042D01*
X101620320Y-51577042D01*
X101615663Y-51576655D01*
X101354852Y-51593750D01*
X101350279Y-51594743D01*
X101350278Y-51594743D01*
X101333905Y-51598298D01*
X101099433Y-51649207D01*
X101095061Y-51650863D01*
X101095059Y-51650864D01*
X100873900Y-51734655D01*
X100855017Y-51741809D01*
X100850948Y-51744088D01*
X100631044Y-51867239D01*
X100631038Y-51867243D01*
X100626972Y-51869520D01*
X100623283Y-51872376D01*
X100623282Y-51872377D01*
X100604748Y-51886728D01*
X100420309Y-52029536D01*
X100417079Y-52032910D01*
X100417078Y-52032911D01*
X100400407Y-52050326D01*
X100239568Y-52218341D01*
X100236872Y-52222156D01*
X100236871Y-52222157D01*
X100091421Y-52427965D01*
X100088720Y-52431787D01*
X100086613Y-52435968D01*
X100086612Y-52435969D01*
X100075356Y-52458301D01*
X99971078Y-52665186D01*
X99960781Y-52696412D01*
X99900167Y-52880231D01*
X99889226Y-52913409D01*
X99888435Y-52918013D01*
X99866291Y-53046889D01*
X99852278Y-53128439D01*
X99852058Y-53131584D01*
X99852057Y-53131593D01*
X99801040Y-53861189D01*
X99800878Y-53863509D01*
X99800888Y-53865827D01*
X99800888Y-53865831D01*
X99801056Y-53904423D01*
X99801728Y-54058341D01*
X99841490Y-54316669D01*
X99918997Y-54566284D01*
X99921031Y-54570500D01*
X99962858Y-54657218D01*
X99974437Y-54727264D01*
X99946308Y-54792451D01*
X99887402Y-54832081D01*
X99827954Y-54836125D01*
X99804508Y-54832081D01*
X99658555Y-54806908D01*
X99657917Y-54806796D01*
X99624246Y-54800808D01*
X99624242Y-54800808D01*
X99620634Y-54800166D01*
X99619049Y-54800094D01*
X99617492Y-54799826D01*
X99601217Y-54799176D01*
X99579695Y-54798317D01*
X99579043Y-54798289D01*
X99189247Y-54780701D01*
X99188593Y-54780670D01*
X99154441Y-54778951D01*
X99154435Y-54778951D01*
X99150758Y-54778766D01*
X99149182Y-54778893D01*
X99147600Y-54778822D01*
X99109803Y-54782073D01*
X99109433Y-54782104D01*
X98926039Y-54796920D01*
X98721180Y-54813470D01*
X98720528Y-54813521D01*
X98682785Y-54816373D01*
X98681234Y-54816698D01*
X98679657Y-54816825D01*
X98642597Y-54824783D01*
X98642162Y-54824875D01*
X98444502Y-54866244D01*
X98373729Y-54860621D01*
X98317231Y-54817627D01*
X98292945Y-54750914D01*
X98293698Y-54727015D01*
X98320616Y-54515421D01*
X98320616Y-54515417D01*
X98321014Y-54512291D01*
X98323431Y-54420000D01*
X98323197Y-54416851D01*
X98304407Y-54164000D01*
X98304406Y-54163996D01*
X98304061Y-54159348D01*
X98298479Y-54134677D01*
X98247408Y-53908980D01*
X98246377Y-53904423D01*
X98230467Y-53863509D01*
X98153340Y-53665176D01*
X98153339Y-53665173D01*
X98151647Y-53660823D01*
X98132830Y-53627899D01*
X98024270Y-53437960D01*
X98021951Y-53433902D01*
X97860138Y-53228643D01*
X97669763Y-53049557D01*
X97455009Y-52900576D01*
X97450816Y-52898508D01*
X97224781Y-52787040D01*
X97224778Y-52787039D01*
X97220593Y-52784975D01*
X97174449Y-52770204D01*
X96976123Y-52706720D01*
X96971665Y-52705293D01*
X96713693Y-52663279D01*
X96599942Y-52661790D01*
X96457022Y-52659919D01*
X96457019Y-52659919D01*
X96452345Y-52659858D01*
X96193362Y-52695104D01*
X96188876Y-52696412D01*
X96188874Y-52696412D01*
X96160988Y-52704540D01*
X95942433Y-52768243D01*
X95938180Y-52770203D01*
X95938179Y-52770204D01*
X95901659Y-52787040D01*
X95705072Y-52877668D01*
X95666067Y-52903241D01*
X95490404Y-53018410D01*
X95490399Y-53018414D01*
X95486491Y-53020976D01*
X95291494Y-53195018D01*
X95124363Y-53395970D01*
X94988771Y-53619419D01*
X94986967Y-53623721D01*
X94986965Y-53623725D01*
X94986106Y-53625773D01*
X94985622Y-53626360D01*
X94984838Y-53627899D01*
X94984497Y-53627725D01*
X94939912Y-53681809D01*
X94824485Y-53758934D01*
X94824481Y-53758937D01*
X94820593Y-53761535D01*
X94659091Y-53908233D01*
X94656967Y-53910592D01*
X94656966Y-53910593D01*
X93465975Y-55233324D01*
X93242510Y-55481507D01*
X93123230Y-55635560D01*
X92995519Y-55863604D01*
X92993862Y-55867978D01*
X92907584Y-56095704D01*
X92902917Y-56108021D01*
X92847460Y-56363440D01*
X92830366Y-56624251D01*
X92852010Y-56884724D01*
X92911916Y-57139137D01*
X93008769Y-57381900D01*
X93140441Y-57607680D01*
X93143368Y-57611327D01*
X93301115Y-57807879D01*
X93301121Y-57807885D01*
X93304038Y-57811520D01*
X93495969Y-57988938D01*
X93499825Y-57991564D01*
X93499832Y-57991569D01*
X93651134Y-58094586D01*
X93712015Y-58136038D01*
X93716228Y-58138070D01*
X93716233Y-58138073D01*
X93763766Y-58161000D01*
X93947431Y-58249590D01*
X93951898Y-58250977D01*
X93951903Y-58250979D01*
X94109394Y-58299881D01*
X94197044Y-58327097D01*
X94201656Y-58327807D01*
X94201661Y-58327808D01*
X94450752Y-58366146D01*
X94450755Y-58366146D01*
X94455373Y-58366857D01*
X94587464Y-58367433D01*
X94712067Y-58367977D01*
X94712072Y-58367977D01*
X94716741Y-58367997D01*
X94724604Y-58366857D01*
X94970774Y-58331165D01*
X94970777Y-58331164D01*
X94975407Y-58330493D01*
X95225688Y-58255167D01*
X95241824Y-58247557D01*
X95329864Y-58206034D01*
X95400008Y-58195066D01*
X95464947Y-58223763D01*
X95504062Y-58283012D01*
X95509577Y-58317037D01*
X95509908Y-58331165D01*
X95510136Y-58340866D01*
X95510148Y-58341434D01*
X95516133Y-58669000D01*
X95517070Y-58720296D01*
X95517080Y-58720924D01*
X95517574Y-58758746D01*
X95517801Y-58760312D01*
X95517830Y-58761894D01*
X95518380Y-58765551D01*
X95518380Y-58765556D01*
X95523470Y-58799423D01*
X95523565Y-58800071D01*
X95577767Y-59173930D01*
X95577851Y-59174522D01*
X95583100Y-59212096D01*
X95583520Y-59213614D01*
X95583748Y-59215184D01*
X95584761Y-59218776D01*
X95584762Y-59218781D01*
X95594007Y-59251565D01*
X95594183Y-59252193D01*
X95694666Y-59615712D01*
X95694838Y-59616343D01*
X95703744Y-59649226D01*
X95703746Y-59649233D01*
X95704713Y-59652802D01*
X95705322Y-59654261D01*
X95705744Y-59655788D01*
X95720567Y-59690791D01*
X95720736Y-59691193D01*
X95833382Y-59961088D01*
X95865606Y-60038296D01*
X95865857Y-60038903D01*
X95878876Y-60070560D01*
X95878882Y-60070573D01*
X95880282Y-60073976D01*
X95881069Y-60075348D01*
X95881678Y-60076806D01*
X95883516Y-60079970D01*
X95883519Y-60079976D01*
X95900658Y-60109479D01*
X95900984Y-60110044D01*
X96087919Y-60435703D01*
X96088135Y-60436081D01*
X96106833Y-60469050D01*
X96107785Y-60470311D01*
X96108574Y-60471685D01*
X96110814Y-60474619D01*
X96110817Y-60474624D01*
X96131615Y-60501869D01*
X96132010Y-60502390D01*
X96357568Y-60801077D01*
X96357918Y-60801543D01*
X96380600Y-60831904D01*
X96381702Y-60833035D01*
X96382656Y-60834298D01*
X96409288Y-60861344D01*
X96409643Y-60861706D01*
X96670416Y-61129291D01*
X96670870Y-61129759D01*
X96685295Y-61144715D01*
X96697086Y-61156940D01*
X96698323Y-61157925D01*
X96699427Y-61159058D01*
X96729298Y-61182596D01*
X96729537Y-61182785D01*
X97021278Y-61415147D01*
X97021576Y-61415385D01*
X97051140Y-61439184D01*
X97052490Y-61440006D01*
X97053728Y-61440992D01*
X97056894Y-61442897D01*
X97086238Y-61460553D01*
X97086673Y-61460816D01*
X97404413Y-61654261D01*
X97404678Y-61654423D01*
X97437034Y-61674353D01*
X97438480Y-61675001D01*
X97439829Y-61675822D01*
X97443208Y-61677315D01*
X97443218Y-61677320D01*
X97474486Y-61691133D01*
X97475082Y-61691398D01*
X97697593Y-61791076D01*
X97813696Y-61843087D01*
X97814126Y-61843282D01*
X97830125Y-61850548D01*
X97845176Y-61857385D01*
X97845179Y-61857386D01*
X97848567Y-61858925D01*
X97850076Y-61859384D01*
X97851524Y-61860033D01*
X97855101Y-61861101D01*
X97855105Y-61861103D01*
X97887891Y-61870896D01*
X97888517Y-61871085D01*
X97925624Y-61882379D01*
X97984969Y-61921349D01*
X98013824Y-61986217D01*
X98007337Y-62046011D01*
X97982937Y-62113051D01*
X97982937Y-62113052D01*
X97981725Y-62112611D01*
X97949935Y-62167761D01*
X97886853Y-62200337D01*
X97862922Y-62202630D01*
X89762392Y-62202630D01*
X89694271Y-62182628D01*
X89673296Y-62165725D01*
X88917884Y-61410312D01*
X88883859Y-61348000D01*
X88886422Y-61284590D01*
X88899037Y-61243069D01*
X88928196Y-61021590D01*
X88928278Y-61018240D01*
X88929741Y-60958365D01*
X88929741Y-60958361D01*
X88929823Y-60955000D01*
X88911519Y-60732361D01*
X88857098Y-60515702D01*
X88768021Y-60310840D01*
X88687502Y-60186376D01*
X88649489Y-60127617D01*
X88649487Y-60127614D01*
X88646681Y-60123277D01*
X88643207Y-60119459D01*
X88643200Y-60119450D01*
X88499102Y-59961088D01*
X88468050Y-59897242D01*
X88476446Y-59826744D01*
X88521623Y-59771976D01*
X88548067Y-59758307D01*
X88654719Y-59718325D01*
X88670316Y-59709786D01*
X88772391Y-59633285D01*
X88784952Y-59620724D01*
X88861453Y-59518649D01*
X88869991Y-59503054D01*
X88915145Y-59382606D01*
X88918772Y-59367351D01*
X88924298Y-59316486D01*
X88924667Y-59309672D01*
X88924667Y-58687115D01*
X88920192Y-58671876D01*
X88918802Y-58670671D01*
X88911119Y-58669000D01*
X86226783Y-58669000D01*
X86211544Y-58673475D01*
X86210339Y-58674865D01*
X86208668Y-58682548D01*
X86208668Y-59309669D01*
X86209038Y-59316490D01*
X86214562Y-59367352D01*
X86218188Y-59382604D01*
X86263343Y-59503054D01*
X86271881Y-59518649D01*
X86348382Y-59620724D01*
X86360943Y-59633285D01*
X86463018Y-59709786D01*
X86478613Y-59718324D01*
X86587494Y-59759142D01*
X86644258Y-59801784D01*
X86668958Y-59868345D01*
X86653750Y-59937694D01*
X86634358Y-59964175D01*
X86529430Y-60073976D01*
X86507296Y-60097138D01*
X86504382Y-60101410D01*
X86504381Y-60101411D01*
X86446422Y-60186376D01*
X86381410Y-60281680D01*
X86365670Y-60315590D01*
X86291849Y-60474624D01*
X86287355Y-60484305D01*
X86227656Y-60699570D01*
X86203918Y-60921695D01*
X86204215Y-60926848D01*
X86204215Y-60926851D01*
X86209678Y-61021590D01*
X86216777Y-61144715D01*
X86217914Y-61149761D01*
X86217915Y-61149767D01*
X86219754Y-61157925D01*
X86265889Y-61362639D01*
X86349933Y-61569616D01*
X86466654Y-61760088D01*
X86612917Y-61928938D01*
X86784793Y-62071632D01*
X86844346Y-62106432D01*
X86858112Y-62114476D01*
X86906836Y-62166114D01*
X86919907Y-62235897D01*
X86893176Y-62301669D01*
X86852722Y-62335027D01*
X86840274Y-62341507D01*
X86836141Y-62344610D01*
X86836138Y-62344612D01*
X86687501Y-62456212D01*
X86661632Y-62475635D01*
X86658060Y-62479373D01*
X86533708Y-62609500D01*
X86507296Y-62637138D01*
X86381410Y-62821680D01*
X86352515Y-62883929D01*
X86300571Y-62995834D01*
X86287355Y-63024305D01*
X86227656Y-63239570D01*
X86203918Y-63461695D01*
X86216777Y-63684715D01*
X86217914Y-63689761D01*
X86217915Y-63689767D01*
X86235869Y-63769432D01*
X86265889Y-63902639D01*
X86349933Y-64109616D01*
X86352632Y-64114020D01*
X86408658Y-64205446D01*
X86466654Y-64300088D01*
X86612917Y-64468938D01*
X86784793Y-64611632D01*
X86855262Y-64652811D01*
X86858112Y-64654476D01*
X86906836Y-64706114D01*
X86919907Y-64775897D01*
X86893176Y-64841669D01*
X86852722Y-64875027D01*
X86840274Y-64881507D01*
X86836141Y-64884610D01*
X86836138Y-64884612D01*
X86665767Y-65012530D01*
X86661632Y-65015635D01*
X86658060Y-65019373D01*
X86512862Y-65171314D01*
X86507296Y-65177138D01*
X86381410Y-65361680D01*
X86348977Y-65431551D01*
X86307268Y-65521407D01*
X86287355Y-65564305D01*
X86227656Y-65779570D01*
X86203918Y-66001695D01*
X86204215Y-66006848D01*
X86204215Y-66006851D01*
X86206355Y-66043960D01*
X86216777Y-66224715D01*
X86217914Y-66229761D01*
X86217915Y-66229767D01*
X86219367Y-66236208D01*
X86265889Y-66442639D01*
X86312352Y-66557064D01*
X86341630Y-66629167D01*
X86349933Y-66649616D01*
X86352632Y-66654020D01*
X86463379Y-66834743D01*
X86466654Y-66840088D01*
X86612917Y-67008938D01*
X86784793Y-67151632D01*
X86809453Y-67166042D01*
X86858112Y-67194476D01*
X86906836Y-67246114D01*
X86919907Y-67315897D01*
X86893176Y-67381669D01*
X86852722Y-67415027D01*
X86840274Y-67421507D01*
X86836141Y-67424610D01*
X86836138Y-67424612D01*
X86665767Y-67552530D01*
X86661632Y-67555635D01*
X86507296Y-67717138D01*
X86381410Y-67901680D01*
X86287355Y-68104305D01*
X86227656Y-68319570D01*
X86203918Y-68541695D01*
X86204215Y-68546848D01*
X86204215Y-68546851D01*
X86209678Y-68641590D01*
X86216777Y-68764715D01*
X86217914Y-68769761D01*
X86217915Y-68769767D01*
X86238079Y-68859237D01*
X86265889Y-68982639D01*
X86312075Y-69096383D01*
X86334088Y-69150593D01*
X86349933Y-69189616D01*
X86352632Y-69194020D01*
X86461429Y-69371561D01*
X86466654Y-69380088D01*
X86612917Y-69548938D01*
X86784793Y-69691632D01*
X86855262Y-69732811D01*
X86858112Y-69734476D01*
X86906836Y-69786114D01*
X86919907Y-69855897D01*
X86893176Y-69921669D01*
X86852722Y-69955027D01*
X86840274Y-69961507D01*
X86836141Y-69964610D01*
X86836138Y-69964612D01*
X86665767Y-70092530D01*
X86661632Y-70095635D01*
X86507296Y-70257138D01*
X86381410Y-70441680D01*
X86287355Y-70644305D01*
X86227656Y-70859570D01*
X86203918Y-71081695D01*
X86204215Y-71086848D01*
X86204215Y-71086851D01*
X86209678Y-71181590D01*
X86216777Y-71304715D01*
X86217914Y-71309761D01*
X86217915Y-71309767D01*
X86237786Y-71397939D01*
X86265889Y-71522639D01*
X86304128Y-71616811D01*
X86344649Y-71716602D01*
X86349933Y-71729616D01*
X86466654Y-71920088D01*
X86612917Y-72088938D01*
X86784793Y-72231632D01*
X86855262Y-72272811D01*
X86858112Y-72274476D01*
X86906836Y-72326114D01*
X86919907Y-72395897D01*
X86893176Y-72461669D01*
X86852722Y-72495027D01*
X86840274Y-72501507D01*
X86836141Y-72504610D01*
X86836138Y-72504612D01*
X86685704Y-72617561D01*
X86661632Y-72635635D01*
X86507296Y-72797138D01*
X86504382Y-72801410D01*
X86504381Y-72801411D01*
X86470331Y-72851327D01*
X86381410Y-72981680D01*
X86287355Y-73184305D01*
X86227656Y-73399570D01*
X86203918Y-73621695D01*
X81788000Y-73621695D01*
X81788000Y-58142885D01*
X86208667Y-58142885D01*
X86213142Y-58158124D01*
X86214532Y-58159329D01*
X86222215Y-58161000D01*
X87294552Y-58161000D01*
X87309791Y-58156525D01*
X87310996Y-58155135D01*
X87312667Y-58147452D01*
X87312667Y-58142885D01*
X87820667Y-58142885D01*
X87825142Y-58158124D01*
X87826532Y-58159329D01*
X87834215Y-58161000D01*
X88906551Y-58161000D01*
X88921790Y-58156525D01*
X88922995Y-58155135D01*
X88924666Y-58147452D01*
X88924666Y-57520331D01*
X88924296Y-57513510D01*
X88918772Y-57462648D01*
X88915146Y-57447396D01*
X88869991Y-57326946D01*
X88861453Y-57311351D01*
X88784952Y-57209276D01*
X88772391Y-57196715D01*
X88670316Y-57120214D01*
X88654721Y-57111676D01*
X88534273Y-57066522D01*
X88519018Y-57062895D01*
X88468153Y-57057369D01*
X88461339Y-57057000D01*
X87838782Y-57057000D01*
X87823543Y-57061475D01*
X87822338Y-57062865D01*
X87820667Y-57070548D01*
X87820667Y-58142885D01*
X87312667Y-58142885D01*
X87312667Y-57075116D01*
X87308192Y-57059877D01*
X87306802Y-57058672D01*
X87299119Y-57057001D01*
X86671998Y-57057001D01*
X86665177Y-57057371D01*
X86614315Y-57062895D01*
X86599063Y-57066521D01*
X86478613Y-57111676D01*
X86463018Y-57120214D01*
X86360943Y-57196715D01*
X86348382Y-57209276D01*
X86271881Y-57311351D01*
X86263343Y-57326946D01*
X86218189Y-57447394D01*
X86214562Y-57462649D01*
X86209036Y-57513514D01*
X86208667Y-57520328D01*
X86208667Y-58142885D01*
X81788000Y-58142885D01*
X81788000Y-48894000D01*
X81808002Y-48825879D01*
X81861658Y-48779386D01*
X81914000Y-48768000D01*
X123826000Y-48768000D01*
X123894121Y-48788002D01*
G37*
G04 #@! TD.AperFunction*
G04 #@! TA.AperFunction,Conductor*
G36*
X106301533Y-63645502D02*
G01*
X106348026Y-63699158D01*
X106358130Y-63769432D01*
X106338821Y-63811712D01*
X106342282Y-63813602D01*
X106325988Y-63843444D01*
X106326119Y-63845279D01*
X106330370Y-63851893D01*
X106667188Y-64188711D01*
X106681132Y-64196325D01*
X106682965Y-64196194D01*
X106689580Y-64191943D01*
X107026398Y-63855125D01*
X107034012Y-63841181D01*
X107033881Y-63839348D01*
X107022308Y-63821340D01*
X107025765Y-63819119D01*
X107003466Y-63778283D01*
X107008531Y-63707468D01*
X107051078Y-63650632D01*
X107117598Y-63625821D01*
X107126587Y-63625500D01*
X108172292Y-63625500D01*
X108240413Y-63645502D01*
X108261387Y-63662405D01*
X109291827Y-64692845D01*
X109325853Y-64755157D01*
X109328042Y-64768768D01*
X109342458Y-64905931D01*
X109344498Y-64912208D01*
X109344498Y-64912210D01*
X109348003Y-64922997D01*
X109401473Y-65087559D01*
X109404776Y-65093281D01*
X109404777Y-65093282D01*
X109489161Y-65239438D01*
X109496960Y-65252947D01*
X109525938Y-65285130D01*
X109533646Y-65293691D01*
X109564363Y-65357699D01*
X109555599Y-65428153D01*
X109533646Y-65462312D01*
X109496960Y-65503056D01*
X109401473Y-65668444D01*
X109342458Y-65850072D01*
X109341768Y-65856633D01*
X109341768Y-65856635D01*
X109327879Y-65988782D01*
X109322496Y-66040000D01*
X109323186Y-66046565D01*
X109336702Y-66175159D01*
X109342458Y-66229928D01*
X109344497Y-66236203D01*
X109344498Y-66236208D01*
X109351437Y-66257562D01*
X109353466Y-66328529D01*
X109316805Y-66389328D01*
X109253093Y-66420654D01*
X109231605Y-66422500D01*
X109098355Y-66422500D01*
X109030234Y-66402498D01*
X108983741Y-66348842D01*
X108973637Y-66278568D01*
X108983654Y-66244350D01*
X109007357Y-66192217D01*
X109012345Y-66175159D01*
X109030428Y-66048889D01*
X109030428Y-66031111D01*
X109012345Y-65904841D01*
X109007358Y-65887786D01*
X108954112Y-65770677D01*
X108945895Y-65757333D01*
X108913832Y-65717456D01*
X108909276Y-65712378D01*
X108890500Y-65693602D01*
X108876556Y-65685988D01*
X108874721Y-65686119D01*
X108868111Y-65690367D01*
X108166368Y-66392109D01*
X108103730Y-66424025D01*
X108104108Y-66425328D01*
X108096500Y-66427538D01*
X108096499Y-66427538D01*
X108084658Y-66430978D01*
X108065306Y-66434986D01*
X108053068Y-66436532D01*
X108053066Y-66436533D01*
X108045203Y-66437526D01*
X108004086Y-66453806D01*
X107992885Y-66457641D01*
X107950406Y-66469982D01*
X107943587Y-66474015D01*
X107943582Y-66474017D01*
X107932971Y-66480293D01*
X107915221Y-66488990D01*
X107896383Y-66496448D01*
X107889967Y-66501109D01*
X107889966Y-66501110D01*
X107860625Y-66522428D01*
X107850701Y-66528947D01*
X107819460Y-66547422D01*
X107819455Y-66547426D01*
X107812637Y-66551458D01*
X107798313Y-66565782D01*
X107783281Y-66578621D01*
X107766893Y-66590528D01*
X107753249Y-66607021D01*
X107738712Y-66624593D01*
X107730722Y-66633373D01*
X106769095Y-67595000D01*
X106706783Y-67629026D01*
X106635968Y-67623961D01*
X106590905Y-67595000D01*
X105782326Y-66786421D01*
X106299117Y-66786421D01*
X106299249Y-66788257D01*
X106303498Y-66794869D01*
X106667188Y-67158559D01*
X106681132Y-67166173D01*
X106682965Y-67166042D01*
X106689580Y-67161791D01*
X107056097Y-66795274D01*
X107063711Y-66781330D01*
X107063580Y-66779497D01*
X107059329Y-66772882D01*
X106695641Y-66409194D01*
X106681697Y-66401580D01*
X106679857Y-66401711D01*
X106673257Y-66405952D01*
X106306729Y-66772481D01*
X106299117Y-66786421D01*
X105782326Y-66786421D01*
X105037037Y-66041132D01*
X105553827Y-66041132D01*
X105553958Y-66042966D01*
X105558209Y-66049580D01*
X105921898Y-66413269D01*
X105935842Y-66420883D01*
X105937675Y-66420752D01*
X105944290Y-66416501D01*
X106307982Y-66052808D01*
X106312814Y-66043960D01*
X107041580Y-66043960D01*
X107041712Y-66045799D01*
X107045957Y-66052404D01*
X107409650Y-66416097D01*
X107423594Y-66423711D01*
X107425427Y-66423580D01*
X107432042Y-66419329D01*
X107798559Y-66052812D01*
X107806173Y-66038868D01*
X107806042Y-66037035D01*
X107801791Y-66030420D01*
X107438103Y-65666732D01*
X107424159Y-65659118D01*
X107422324Y-65659249D01*
X107415714Y-65663497D01*
X107049187Y-66030024D01*
X107041580Y-66043960D01*
X106312814Y-66043960D01*
X106315593Y-66038870D01*
X106315461Y-66037034D01*
X106311212Y-66030422D01*
X105947522Y-65666732D01*
X105933578Y-65659118D01*
X105931743Y-65659249D01*
X105925133Y-65663497D01*
X105561440Y-66027189D01*
X105553827Y-66041132D01*
X105037037Y-66041132D01*
X104368661Y-65372756D01*
X104361121Y-65364470D01*
X104357009Y-65357991D01*
X104337902Y-65340048D01*
X104325463Y-65328367D01*
X104841063Y-65328367D01*
X104841195Y-65330203D01*
X104845444Y-65336815D01*
X105182264Y-65673635D01*
X105196208Y-65681249D01*
X105198043Y-65681118D01*
X105204653Y-65676870D01*
X105568346Y-65313178D01*
X105575959Y-65299235D01*
X105575828Y-65297401D01*
X105574825Y-65295840D01*
X106299117Y-65295840D01*
X106299249Y-65297676D01*
X106303498Y-65304288D01*
X106667188Y-65667978D01*
X106681132Y-65675592D01*
X106682967Y-65675461D01*
X106689577Y-65671213D01*
X107053270Y-65307521D01*
X107056559Y-65301497D01*
X107784041Y-65301497D01*
X107784173Y-65303333D01*
X107788422Y-65309945D01*
X108152112Y-65673635D01*
X108166056Y-65681249D01*
X108167891Y-65681118D01*
X108174501Y-65676870D01*
X108511324Y-65340048D01*
X108518937Y-65326105D01*
X108518806Y-65324271D01*
X108514555Y-65317657D01*
X108150866Y-64953968D01*
X108136922Y-64946354D01*
X108135089Y-64946485D01*
X108128475Y-64950736D01*
X107791652Y-65287559D01*
X107784041Y-65301497D01*
X107056559Y-65301497D01*
X107060883Y-65293578D01*
X107060752Y-65291744D01*
X107056501Y-65285130D01*
X106692812Y-64921441D01*
X106678868Y-64913827D01*
X106677035Y-64913958D01*
X106670420Y-64918209D01*
X106306728Y-65281902D01*
X106299117Y-65295840D01*
X105574825Y-65295840D01*
X105571577Y-65290787D01*
X105234758Y-64953968D01*
X105220814Y-64946354D01*
X105218981Y-64946485D01*
X105212366Y-64950736D01*
X104848674Y-65314429D01*
X104841063Y-65328367D01*
X104325463Y-65328367D01*
X104307358Y-65311366D01*
X104304516Y-65308611D01*
X104284779Y-65288874D01*
X104281582Y-65286394D01*
X104272560Y-65278689D01*
X104246109Y-65253850D01*
X104240330Y-65248423D01*
X104233384Y-65244604D01*
X104233381Y-65244602D01*
X104222575Y-65238661D01*
X104206056Y-65227810D01*
X104196933Y-65220734D01*
X104190050Y-65215395D01*
X104182781Y-65212250D01*
X104182777Y-65212247D01*
X104149472Y-65197835D01*
X104138822Y-65192618D01*
X104100069Y-65171314D01*
X104080446Y-65166276D01*
X104061743Y-65159872D01*
X104050429Y-65154976D01*
X104050428Y-65154976D01*
X104043154Y-65151828D01*
X104035331Y-65150589D01*
X104035321Y-65150586D01*
X103999485Y-65144910D01*
X103987865Y-65142504D01*
X103952720Y-65133481D01*
X103952719Y-65133481D01*
X103945039Y-65131509D01*
X103924785Y-65131509D01*
X103905074Y-65129958D01*
X103892895Y-65128029D01*
X103885066Y-65126789D01*
X103877174Y-65127535D01*
X103841048Y-65130950D01*
X103829190Y-65131509D01*
X103708585Y-65131509D01*
X103640464Y-65111507D01*
X103593971Y-65057851D01*
X103583867Y-64987577D01*
X103613361Y-64922997D01*
X103619490Y-64916414D01*
X103952826Y-64583078D01*
X105586354Y-64583078D01*
X105586485Y-64584912D01*
X105590736Y-64591526D01*
X105927555Y-64928345D01*
X105941499Y-64935959D01*
X105943332Y-64935828D01*
X105949947Y-64931577D01*
X106313639Y-64567884D01*
X106320015Y-64556208D01*
X107038751Y-64556208D01*
X107038882Y-64558041D01*
X107043133Y-64564656D01*
X107406822Y-64928345D01*
X107420766Y-64935959D01*
X107422599Y-64935828D01*
X107429214Y-64931577D01*
X107766032Y-64594759D01*
X107773646Y-64580815D01*
X107773515Y-64578982D01*
X107769264Y-64572367D01*
X107405575Y-64208678D01*
X107391631Y-64201064D01*
X107389798Y-64201195D01*
X107383183Y-64205446D01*
X107046365Y-64542264D01*
X107038751Y-64556208D01*
X106320015Y-64556208D01*
X106321250Y-64553946D01*
X106321118Y-64552110D01*
X106316869Y-64545498D01*
X105980049Y-64208678D01*
X105966105Y-64201064D01*
X105964270Y-64201195D01*
X105957660Y-64205443D01*
X105593967Y-64569135D01*
X105586354Y-64583078D01*
X103952826Y-64583078D01*
X104873499Y-63662405D01*
X104935811Y-63628379D01*
X104962594Y-63625500D01*
X106233412Y-63625500D01*
X106301533Y-63645502D01*
G37*
G04 #@! TD.AperFunction*
M02*
