G04 #@! TF.GenerationSoftware,KiCad,Pcbnew,(6.0.1)*
G04 #@! TF.CreationDate,2022-01-28T19:12:59+01:00*
G04 #@! TF.ProjectId,example,6578616d-706c-4652-9e6b-696361645f70,rev?*
G04 #@! TF.SameCoordinates,Original*
G04 #@! TF.FileFunction,Soldermask,Bot*
G04 #@! TF.FilePolarity,Negative*
%FSLAX46Y46*%
G04 Gerber Fmt 4.6, Leading zero omitted, Abs format (unit mm)*
G04 Created by KiCad (PCBNEW (6.0.1)) date 2022-01-28 19:12:59*
%MOMM*%
%LPD*%
G01*
G04 APERTURE LIST*
G04 Aperture macros list*
%AMRoundRect*
0 Rectangle with rounded corners*
0 $1 Rounding radius*
0 $2 $3 $4 $5 $6 $7 $8 $9 X,Y pos of 4 corners*
0 Add a 4 corners polygon primitive as box body*
4,1,4,$2,$3,$4,$5,$6,$7,$8,$9,$2,$3,0*
0 Add four circle primitives for the rounded corners*
1,1,$1+$1,$2,$3*
1,1,$1+$1,$4,$5*
1,1,$1+$1,$6,$7*
1,1,$1+$1,$8,$9*
0 Add four rect primitives between the rounded corners*
20,1,$1+$1,$2,$3,$4,$5,0*
20,1,$1+$1,$4,$5,$6,$7,0*
20,1,$1+$1,$6,$7,$8,$9,0*
20,1,$1+$1,$8,$9,$2,$3,0*%
%AMHorizOval*
0 Thick line with rounded ends*
0 $1 width*
0 $2 $3 position (X,Y) of the first rounded end (center of the circle)*
0 $4 $5 position (X,Y) of the second rounded end (center of the circle)*
0 Add line between two ends*
20,1,$1,$2,$3,$4,$5,0*
0 Add two circle primitives to create the rounded ends*
1,1,$1,$2,$3*
1,1,$1,$4,$5*%
%AMRotRect*
0 Rectangle, with rotation*
0 The origin of the aperture is its center*
0 $1 length*
0 $2 width*
0 $3 Rotation angle, in degrees counterclockwise*
0 Add horizontal line*
21,1,$1,$2,0,0,$3*%
G04 Aperture macros list end*
%ADD10C,4.000000*%
%ADD11C,2.500000*%
%ADD12HorizOval,2.500000X0.656270X0.728862X-0.656270X-0.728862X0*%
%ADD13HorizOval,2.500000X0.020277X0.289981X-0.020277X-0.289981X0*%
%ADD14R,1.700000X1.700000*%
%ADD15O,1.700000X1.700000*%
%ADD16RoundRect,0.250000X-0.337500X-0.475000X0.337500X-0.475000X0.337500X0.475000X-0.337500X0.475000X0*%
%ADD17RoundRect,0.250000X-0.475000X0.337500X-0.475000X-0.337500X0.475000X-0.337500X0.475000X0.337500X0*%
%ADD18RoundRect,0.062500X0.220971X0.309359X-0.309359X-0.220971X-0.220971X-0.309359X0.309359X0.220971X0*%
%ADD19RoundRect,0.062500X-0.220971X0.309359X-0.309359X0.220971X0.220971X-0.309359X0.309359X-0.220971X0*%
%ADD20RotRect,2.600000X2.600000X225.000000*%
G04 APERTURE END LIST*
D10*
X99060000Y-73660000D03*
D11*
X96560000Y-69660000D03*
D12*
X95250000Y-71120000D03*
D13*
X101580000Y-68870000D03*
D10*
X114300000Y-73660000D03*
D11*
X111800000Y-69660000D03*
D12*
X110490000Y-71120000D03*
D13*
X116820000Y-68870000D03*
D14*
X87566667Y-58415000D03*
D15*
X87566667Y-60955000D03*
X87566667Y-63495000D03*
X87566667Y-66035000D03*
X87566667Y-68575000D03*
X87566667Y-71115000D03*
X87566667Y-73655000D03*
D10*
X99060000Y-58420000D03*
D11*
X96560000Y-54420000D03*
D12*
X95250000Y-55880000D03*
D13*
X101580000Y-53630000D03*
D10*
X114300000Y-58420000D03*
D11*
X111800000Y-54420000D03*
D12*
X110490000Y-55880000D03*
D13*
X116820000Y-53630000D03*
D16*
X113262500Y-63500000D03*
X115337500Y-63500000D03*
X98022500Y-78740000D03*
X100097500Y-78740000D03*
D17*
X91440000Y-65002500D03*
X91440000Y-67077500D03*
X95250000Y-65002500D03*
X95250000Y-67077500D03*
D16*
X98122500Y-63500000D03*
X100197500Y-63500000D03*
X113262500Y-78740000D03*
X115337500Y-78740000D03*
D18*
X107519689Y-64139651D03*
X107873243Y-64493204D03*
X108226796Y-64846757D03*
X108580349Y-65200311D03*
D19*
X108580349Y-66879689D03*
X108226796Y-67233243D03*
X107873243Y-67586796D03*
X107519689Y-67940349D03*
D18*
X105840311Y-67940349D03*
X105486757Y-67586796D03*
X105133204Y-67233243D03*
X104779651Y-66879689D03*
D19*
X104779651Y-65200311D03*
X105133204Y-64846757D03*
X105486757Y-64493204D03*
X105840311Y-64139651D03*
D20*
X106680000Y-66040000D03*
M02*
